<svg xmlns="http://www.w3.org/2000/svg" version="1.1" xmlns:xlink="http://www.w3.org/1999/xlink" xmlns:svgjs="http://svgjs.dev/svgjs" width="2000" height="444" viewBox="0 0 2000 444"><g transform="matrix(1,0,0,1,-1.2121212121212466,-2.4623992898598317)"><svg viewBox="0 0 396 88" data-background-color="#121212" preserveAspectRatio="xMidYMid meet" height="444" width="2000" xmlns="http://www.w3.org/2000/svg" xmlns:xlink="http://www.w3.org/1999/xlink"><g id="tight-bounds" transform="matrix(1,0,0,1,0.2400000000000091,0.4880431024947427)"><svg viewBox="0 0 395.52 87.02391379501051" height="87.02391379501051" width="395.52"><g><svg viewBox="0 0 395.52 87.02391379501051" height="87.02391379501051" width="395.52"><g transform="matrix(1,0,0,1,0,55.88169105787907)"><svg viewBox="0 0 395.52 31.14222273713144" height="31.14222273713144" width="395.52"><g id="textblocktransform"><svg viewBox="0 0 395.52 31.14222273713144" height="31.14222273713144" width="395.52" id="textblock"><g><svg viewBox="0 0 395.52 19.278242109468636" height="19.278242109468636" width="395.52"><g transform="matrix(1,0,0,1,0,0)"><svg width="395.52" viewBox="-1.2000000000000002 -39.35 876.98 43.7" height="19.278242109468636" data-palette-color="#ffffff"><path d="M17.35-9.15L17.35-35 21.35-35 21.35-9.15Q21.35-6.4 20.15-4.25 18.95-2.1 16.82-0.88 14.7 0.35 11.85 0.35L11.85 0.35Q8.25 0.35 5.95-1.48 3.65-3.3 2.8-6.5L2.8-6.5 6.25-7.75Q6.6-6.45 7.28-5.4 7.95-4.35 9.08-3.75 10.2-3.15 11.85-3.15L11.85-3.15Q13.8-3.15 15-4.05 16.2-4.95 16.78-6.33 17.35-7.7 17.35-9.15L17.35-9.15ZM45 0.35L45 0.35Q41.3 0.35 38.12-0.95 34.95-2.25 32.57-4.63 30.2-7 28.87-10.28 27.55-13.55 27.55-17.5L27.55-17.5Q27.55-21.45 28.87-24.73 30.2-28 32.57-30.38 34.95-32.75 38.12-34.05 41.3-35.35 45-35.35L45-35.35Q48.65-35.35 51.82-34.05 55-32.75 57.35-30.38 59.7-28 61.02-24.73 62.35-21.45 62.35-17.5L62.35-17.5Q62.35-13.55 61.02-10.28 59.7-7 57.35-4.63 55-2.25 51.82-0.95 48.65 0.35 45 0.35ZM45-3.15L45-3.15Q48.75-3.15 51.75-4.9 54.75-6.65 56.5-9.88 58.25-13.1 58.25-17.5L58.25-17.5Q58.25-21.95 56.5-25.18 54.75-28.4 51.75-30.13 48.75-31.85 45-31.85L45-31.85Q41.2-31.85 38.17-30.13 35.15-28.4 33.4-25.18 31.65-21.95 31.65-17.5L31.65-17.5Q31.65-13.1 33.4-9.88 35.15-6.65 38.17-4.9 41.2-3.15 45-3.15ZM91.65-35L91.65-31.5 72.7-31.5 72.7-19.55 86.95-19.55 86.95-16.05 72.7-16.05 72.7-3.5 91.65-3.5 91.65 0 68.7 0 68.7-35 91.65-35ZM117.14-27.1L117.14 0 113.14 0 113.14-35 117.54-35 130.54-5.5 143.49-35 147.84-35 147.84 0 143.84 0 143.84-27.1 131.94 0 129.09 0 117.14-27.1ZM179.29-35L179.29-31.5 160.34-31.5 160.34-19.55 174.59-19.55 174.59-16.05 160.34-16.05 160.34-3.5 179.29-3.5 179.29 0 156.34 0 156.34-35 179.29-35ZM209.54-35L213.54-35 213.54 0 209.49 0 190.79-28.6 190.79 0 186.79 0 186.79-35 190.84-35 209.54-6.45 209.54-35ZM222.03-35L233.58-35Q239.38-35 243.51-32.88 247.63-30.75 249.86-26.8 252.08-22.85 252.08-17.4L252.08-17.4Q252.08-12 249.86-8.1 247.63-4.2 243.51-2.1 239.38 0 233.58 0L233.58 0 222.03 0 222.03-35ZM226.03-3.5L233.58-3.5Q240.73-3.5 244.38-7.15 248.03-10.8 248.03-17.4L248.03-17.4Q248.03-24.05 244.38-27.78 240.73-31.5 233.58-31.5L233.58-31.5 226.03-31.5 226.03-3.5ZM281.43-35L281.43-31.5 262.48-31.5 262.48-19.55 276.73-19.55 276.73-16.05 262.48-16.05 262.48-3.5 281.43-3.5 281.43 0 258.48 0 258.48-35 281.43-35ZM311.48-35L311.48-31.85 292.18-3.5 311.68-3.5 311.68 0 287.53 0 287.53-3.15 306.78-31.5 287.73-31.5 287.73-35 311.48-35ZM317.68-12.2L317.68-15.6 337.38-15.6 337.38-12.2 317.68-12.2ZM344.77 0L344.77-35 348.77-35 348.77-19.55 367.52-19.55 367.52-35 371.52-35 371.52 0 367.52 0 367.52-16.05 348.77-16.05 348.77 0 344.77 0ZM379.82-12.95L379.82-35 383.82-35 383.82-12.9Q383.82-9.45 385.07-7.3 386.32-5.15 388.45-4.15 390.57-3.15 393.27-3.15L393.27-3.15Q395.92-3.15 398.02-4.15 400.12-5.15 401.37-7.3 402.62-9.45 402.62-12.9L402.62-12.9 402.62-35 406.62-35 406.62-12.95Q406.62-9.5 405.55-7 404.47-4.5 402.57-2.88 400.67-1.25 398.27-0.45 395.87 0.35 393.22 0.35L393.22 0.35Q389.62 0.35 386.57-1.07 383.52-2.5 381.67-5.45 379.82-8.4 379.82-12.95L379.82-12.95ZM445.77-25.8L442.27-24.5Q440.37-28.25 437.22-30.03 434.07-31.8 430.22-31.8L430.22-31.8Q426.42-31.8 423.37-30.05 420.32-28.3 418.57-25.1 416.82-21.9 416.82-17.5L416.82-17.5Q416.82-13.15 418.57-9.95 420.32-6.75 423.37-5 426.42-3.25 430.22-3.25L430.22-3.25Q433.07-3.25 435.52-4.23 437.97-5.2 439.77-7.03 441.57-8.85 442.52-11.4L442.52-11.4 442.52-15.45 430.52-15.45 430.52-18.7 446.57-18.7 446.57-11.2Q445.42-7.85 443.07-5.25 440.72-2.65 437.42-1.15 434.12 0.35 430.22 0.35L430.22 0.35Q426.52 0.35 423.34-0.95 420.17-2.25 417.79-4.63 415.42-7 414.09-10.28 412.77-13.55 412.77-17.5L412.77-17.5Q412.77-21.45 414.09-24.73 415.42-28 417.79-30.38 420.17-32.75 423.34-34.05 426.52-35.35 430.22-35.35L430.22-35.35Q433.67-35.35 436.69-34.23 439.72-33.1 442.07-30.98 444.42-28.85 445.77-25.8L445.77-25.8ZM453.37 0L453.37-35 457.37-35 457.37-19.55 476.12-19.55 476.12-35 480.12-35 480.12 0 476.12 0 476.12-16.05 457.37-16.05 457.37 0 453.37 0ZM511.56-35L511.56-31.5 492.61-31.5 492.61-19.55 506.86-19.55 506.86-16.05 492.61-16.05 492.61-3.5 511.56-3.5 511.56 0 488.61 0 488.61-35 511.56-35ZM517.36-7.45L521.01-8.9Q521.31-7.55 522.29-6.23 523.26-4.9 524.99-4.03 526.71-3.15 529.41-3.15L529.41-3.15Q533.26-3.15 535.11-4.95 536.96-6.75 536.96-9.2L536.96-9.2Q536.96-11.15 535.91-12.4 534.86-13.65 533.06-14.48 531.26-15.3 529.01-15.95L529.01-15.95Q527.01-16.5 525.04-17.18 523.06-17.85 521.46-18.88 519.86-19.9 518.91-21.55 517.96-23.2 517.96-25.65L517.96-25.65Q517.96-28.6 519.36-30.78 520.76-32.95 523.31-34.15 525.86-35.35 529.26-35.35L529.26-35.35Q532.21-35.35 534.41-34.5 536.61-33.65 538.09-32.13 539.56-30.6 540.26-28.6L540.26-28.6 536.71-27.25Q536.36-28.4 535.36-29.48 534.36-30.55 532.76-31.25 531.16-31.95 529.11-31.95L529.11-31.95Q527.11-31.95 525.49-31.25 523.86-30.55 522.91-29.25 521.96-27.95 521.96-26.1L521.96-26.1Q521.96-24.1 523.09-22.93 524.21-21.75 526.09-21.03 527.96-20.3 530.21-19.65L530.21-19.65Q532.26-19 534.19-18.25 536.11-17.5 537.64-16.4 539.16-15.3 540.06-13.65 540.96-12 540.96-9.6L540.96-9.6Q540.96-6.95 539.71-4.67 538.46-2.4 535.94-1.03 533.41 0.35 529.46 0.35L529.46 0.35Q526.16 0.35 523.66-0.68 521.16-1.7 519.56-3.45 517.96-5.2 517.36-7.45L517.36-7.45ZM549.61 0.25L549.61 0.25Q548.46 0.25 547.68-0.55 546.91-1.35 546.91-2.5L546.91-2.5Q546.91-3.65 547.68-4.45 548.46-5.25 549.61-5.25L549.61-5.25Q550.71-5.25 551.51-4.45 552.31-3.65 552.31-2.5L552.31-2.5Q552.31-1.35 551.51-0.55 550.71 0.25 549.61 0.25ZM549.61-21.35L549.61-21.35Q548.46-21.35 547.68-22.15 546.91-22.95 546.91-24.1L546.91-24.1Q546.91-25.25 547.68-26.05 548.46-26.85 549.61-26.85L549.61-26.85Q550.71-26.85 551.51-26.05 552.31-25.25 552.31-24.1L552.31-24.1Q552.31-22.95 551.51-22.15 550.71-21.35 549.61-21.35ZM598.85 0L587.4-31.5 585.75-31.5 574.2 0 570.15 0 582.95-35 590.15-35 602.9 0 598.85 0ZM576.4-9.2L576.4-12.7 596.8-12.7 596.8-9.2 576.4-9.2ZM607.55 0L607.55-35 611.55-35 611.55 0 607.55 0ZM656.99-35L656.99-31.5 638.04-31.5 638.04-19.55 652.29-19.55 652.29-16.05 638.04-16.05 638.04-3.5 656.99-3.5 656.99 0 634.04 0 634.04-35 656.99-35ZM687.24-35L691.24-35 691.24 0 687.19 0 668.49-28.6 668.49 0 664.49 0 664.49-35 668.54-35 687.24-6.45 687.24-35ZM730.64-25.8L727.14-24.5Q725.24-28.25 722.09-30.03 718.94-31.8 715.09-31.8L715.09-31.8Q711.29-31.8 708.24-30.05 705.19-28.3 703.44-25.1 701.69-21.9 701.69-17.5L701.69-17.5Q701.69-13.15 703.44-9.95 705.19-6.75 708.24-5 711.29-3.25 715.09-3.25L715.09-3.25Q717.94-3.25 720.39-4.23 722.84-5.2 724.64-7.03 726.44-8.85 727.39-11.4L727.39-11.4 727.39-15.45 715.39-15.45 715.39-18.7 731.44-18.7 731.44-11.2Q730.29-7.85 727.94-5.25 725.59-2.65 722.29-1.15 718.99 0.35 715.09 0.35L715.09 0.35Q711.39 0.35 708.21-0.95 705.04-2.25 702.66-4.63 700.29-7 698.96-10.28 697.64-13.55 697.64-17.5L697.64-17.5Q697.64-21.45 698.96-24.73 700.29-28 702.66-30.38 705.04-32.75 708.21-34.05 711.39-35.35 715.09-35.35L715.09-35.35Q718.54-35.35 721.56-34.23 724.59-33.1 726.94-30.98 729.29-28.85 730.64-25.8L730.64-25.8ZM738.24 0L738.24-35 742.24-35 742.24 0 738.24 0ZM773.48-35L777.48-35 777.48 0 773.43 0 754.73-28.6 754.73 0 750.73 0 750.73-35 754.78-35 773.48-6.45 773.48-35ZM808.93-35L808.93-31.5 789.98-31.5 789.98-19.55 804.23-19.55 804.23-16.05 789.98-16.05 789.98-3.5 808.93-3.5 808.93 0 785.98 0 785.98-35 808.93-35ZM839.38-35L839.38-31.5 820.43-31.5 820.43-19.55 834.68-19.55 834.68-16.05 820.43-16.05 820.43-3.5 839.38-3.5 839.38 0 816.43 0 816.43-35 839.38-35ZM867.08-24.65L867.08-24.65Q867.08-27.8 865.23-29.65 863.38-31.5 859.18-31.5L859.18-31.5 850.88-31.5 850.88-17.8 859.23-17.8Q861.98-17.8 863.7-18.65 865.43-19.5 866.25-21.05 867.08-22.6 867.08-24.65ZM846.88-35L859.18-35Q863.28-35 865.9-33.6 868.53-32.2 869.83-29.88 871.13-27.55 871.13-24.65L871.13-24.65Q871.13-22.6 870.45-20.75 869.78-18.9 868.33-17.45 866.88-16 864.63-15.15 862.38-14.3 859.23-14.3L859.23-14.3 850.88-14.3 850.88 0 846.88 0 846.88-35ZM857.78-15.8L862.08-15.8 871.78 0 867.23 0 857.78-15.8Z" opacity="1" transform="matrix(1,0,0,1,0,0)" fill="#ffffff" class="wordmark-text-0" data-fill-palette-color="primary" id="text-0"></path></svg></g></svg></g><g transform="matrix(1,0,0,1,3.5,23.083285461861763)"><svg viewBox="0 0 388.52 8.058937275269676" height="8.058937275269676" width="388.52"><g transform="matrix(1,0,0,1,0,0)"><svg width="388.52" viewBox="-0.4500000000000002 -40.25 2652.0899999999997 55.85" height="8.058937275269676" data-palette-color="#00cc66"><path d="M17.75 0L3.55 0 3.55-35 17.25-35Q20.95-35 23.43-33.85 25.9-32.7 27.15-30.68 28.4-28.65 28.4-26L28.4-26Q28.4-23.35 27.25-21.55 26.1-19.75 24.23-18.8 22.35-17.85 20.15-17.65L20.15-17.65 20.9-18.2Q23.25-18.15 25.13-16.95 27-15.75 28.1-13.83 29.2-11.9 29.2-9.55L29.2-9.55Q29.2-6.8 27.88-4.63 26.55-2.45 24-1.23 21.45 0 17.75 0L17.75 0ZM9.55-15.65L9.55-4.9 16.85-4.9Q19.8-4.9 21.45-6.3 23.1-7.7 23.1-10.2L23.1-10.2Q23.1-12.7 21.4-14.18 19.7-15.65 16.75-15.65L16.75-15.65 9.55-15.65ZM9.55-30.15L9.55-20.2 16.4-20.2Q19.3-20.2 20.8-21.53 22.3-22.85 22.3-25.2L22.3-25.2Q22.3-27.5 20.8-28.83 19.3-30.15 16.35-30.15L16.35-30.15 9.55-30.15ZM92.57 0.6L92.57 0.6Q89.52 0.6 87.34-0.63 85.17-1.85 84.02-4.33 82.87-6.8 82.87-10.45L82.87-10.45 82.87-25.2 88.87-25.2 88.87-11.05Q88.87-7.8 90.24-6.13 91.62-4.45 94.42-4.45L94.42-4.45Q96.22-4.45 97.64-5.3 99.07-6.15 99.89-7.78 100.72-9.4 100.72-11.75L100.72-11.75 100.72-25.2 106.72-25.2 106.72 0 101.42 0 100.97-4.2 100.97-4.2Q99.82-2 97.64-0.7 95.47 0.6 92.57 0.6ZM168.13 0L162.13 0 162.13-25.2 168.13-25.2 168.13 0ZM165.13-29.2L165.13-29.2Q163.48-29.2 162.41-30.23 161.33-31.25 161.33-32.75L161.33-32.75Q161.33-34.3 162.41-35.27 163.48-36.25 165.13-36.25L165.13-36.25Q166.78-36.25 167.86-35.27 168.93-34.3 168.93-32.75L168.93-32.75Q168.93-31.25 167.86-30.23 166.78-29.2 165.13-29.2ZM229.55 0L223.55 0 223.55-36 229.55-36 229.55 0ZM295.92 0.6L295.92 0.6Q292.42 0.6 289.67-1.1 286.92-2.8 285.39-5.8 283.87-8.8 283.87-12.6L283.87-12.6Q283.87-16.4 285.42-19.38 286.97-22.35 289.74-24.08 292.52-25.8 296.02-25.8L296.02-25.8Q298.87-25.8 300.99-24.73 303.12-23.65 304.37-21.7L304.37-21.7 304.37-36 310.37-36 310.37 0 304.97 0 304.37-3.65 304.37-3.65Q303.57-2.55 302.42-1.58 301.27-0.6 299.67 0 298.07 0.6 295.92 0.6ZM297.17-4.6L297.17-4.6Q299.32-4.6 300.97-5.63 302.62-6.65 303.52-8.45 304.42-10.25 304.42-12.6L304.42-12.6Q304.42-14.95 303.52-16.75 302.62-18.55 300.97-19.55 299.32-20.55 297.17-20.55L297.17-20.55Q295.12-20.55 293.47-19.55 291.82-18.55 290.89-16.75 289.97-14.95 289.97-12.6L289.97-12.6Q289.97-10.25 290.89-8.45 291.82-6.65 293.47-5.63 295.12-4.6 297.17-4.6ZM371.73 0L365.73 0 365.73-25.2 371.73-25.2 371.73 0ZM368.73-29.2L368.73-29.2Q367.08-29.2 366.01-30.23 364.93-31.25 364.93-32.75L364.93-32.75Q364.93-34.3 366.01-35.27 367.08-36.25 368.73-36.25L368.73-36.25Q370.38-36.25 371.46-35.27 372.53-34.3 372.53-32.75L372.53-32.75Q372.53-31.25 371.46-30.23 370.38-29.2 368.73-29.2ZM433.15 0L427.15 0 427.15-25.2 432.45-25.2 432.9-21 432.9-21Q434.05-23.2 436.2-24.5 438.35-25.8 441.3-25.8L441.3-25.8Q444.35-25.8 446.5-24.53 448.65-23.25 449.82-20.8 451-18.35 451-14.7L451-14.7 451 0 445 0 445-14.15Q445-17.3 443.6-19 442.2-20.7 439.45-20.7L439.45-20.7Q437.65-20.7 436.22-19.85 434.8-19 433.97-17.38 433.15-15.75 433.15-13.45L433.15-13.45 433.15 0ZM516.42 11.6L516.42 11.6Q512.87 11.6 510.19 10.73 507.52 9.85 506.04 8.08 504.57 6.3 504.57 3.65L504.57 3.65Q504.57 2.1 505.34 0.63 506.12-0.85 507.69-2.13 509.27-3.4 511.72-4.35L511.72-4.35 514.37-1.45Q511.97-0.6 511.02 0.6 510.07 1.8 510.07 3.05L510.07 3.05Q510.07 4.35 510.89 5.23 511.72 6.1 513.14 6.55 514.57 7 516.37 7L516.37 7Q518.12 7 519.42 6.53 520.72 6.05 521.44 5.2 522.17 4.35 522.17 3.15L522.17 3.15Q522.17 1.65 521.12 0.73 520.07-0.2 516.97-0.4L516.97-0.4Q514.32-0.6 512.32-0.98 510.32-1.35 508.89-1.85 507.47-2.35 506.47-2.98 505.47-3.6 504.82-4.25L504.82-4.25 504.82-5.4 510.07-10.9 514.52-9.45 508.62-3.7 510.17-6.6Q510.67-6.25 511.19-5.95 511.72-5.65 512.54-5.43 513.37-5.2 514.72-5 516.07-4.8 518.22-4.6L518.22-4.6Q521.57-4.35 523.67-3.4 525.77-2.45 526.77-0.85 527.77 0.75 527.77 3L527.77 3Q527.77 5.2 526.54 7.15 525.32 9.1 522.82 10.35 520.32 11.6 516.42 11.6ZM516.42-7.55L516.42-7.55Q513.27-7.55 510.99-8.78 508.72-10 507.52-12.08 506.32-14.15 506.32-16.65L506.32-16.65Q506.32-19.2 507.52-21.25 508.72-23.3 510.99-24.55 513.27-25.8 516.42-25.8L516.42-25.8Q519.57-25.8 521.82-24.55 524.07-23.3 525.27-21.25 526.47-19.2 526.47-16.65L526.47-16.65Q526.47-14.15 525.27-12.08 524.07-10 521.82-8.78 519.57-7.55 516.42-7.55ZM516.42-12.2L516.42-12.2Q518.57-12.2 519.87-13.35 521.17-14.5 521.17-16.65L521.17-16.65Q521.17-18.8 519.87-19.93 518.57-21.05 516.42-21.05L516.42-21.05Q514.27-21.05 512.92-19.93 511.57-18.8 511.57-16.65L511.57-16.65Q511.57-14.5 512.92-13.35 514.27-12.2 516.42-12.2ZM529.77-21.4L520.57-20.8 519.42-25.2 529.77-25.2 529.77-21.4ZM656.15 0.6L656.15 0.6Q652.35 0.6 649.4-0.75 646.45-2.1 644.8-4.6 643.15-7.1 643.1-10.55L643.1-10.55 649.45-10.55Q649.45-8.8 650.27-7.43 651.1-6.05 652.57-5.25 654.05-4.45 656.15-4.45L656.15-4.45Q657.95-4.45 659.27-5.03 660.6-5.6 661.32-6.68 662.05-7.75 662.05-9.2L662.05-9.2Q662.05-10.85 661.27-11.93 660.5-13 659.15-13.75 657.8-14.5 656.05-15.08 654.3-15.65 652.35-16.3L652.35-16.3Q648.2-17.7 646.1-19.88 644-22.05 644-25.7L644-25.7Q644-28.75 645.45-30.95 646.9-33.15 649.52-34.38 652.15-35.6 655.6-35.6L655.6-35.6Q659.1-35.6 661.72-34.35 664.35-33.1 665.87-30.88 667.4-28.65 667.45-25.55L667.45-25.55 661.05-25.55Q661-26.85 660.35-27.98 659.7-29.1 658.47-29.83 657.25-30.55 655.5-30.55L655.5-30.55Q654-30.6 652.82-30.08 651.65-29.55 650.97-28.58 650.3-27.6 650.3-26.15L650.3-26.15Q650.3-24.75 650.92-23.83 651.55-22.9 652.75-22.28 653.95-21.65 655.55-21.1 657.15-20.55 659.05-19.9L659.05-19.9Q661.65-19.05 663.77-17.82 665.9-16.6 667.15-14.65 668.4-12.7 668.4-9.6L668.4-9.6Q668.4-6.9 667-4.58 665.6-2.25 662.9-0.83 660.2 0.6 656.15 0.6ZM728.52 0L722.52 0 722.52-25.2 727.82-25.2 728.32-21.75 728.32-21.75Q729.52-23.65 731.49-24.73 733.47-25.8 736.02-25.8L736.02-25.8Q737.92-25.8 739.44-25.3 740.97-24.8 742.14-23.8 743.32-22.8 744.07-21.3L744.07-21.3 744.07-21.3Q745.47-23.4 747.72-24.6 749.97-25.8 752.62-25.8L752.62-25.8Q755.77-25.8 757.97-24.53 760.17-23.25 761.32-20.78 762.47-18.3 762.47-14.7L762.47-14.7 762.47 0 756.52 0 756.52-14.1Q756.52-17.3 755.22-19 753.92-20.7 751.37-20.7L751.37-20.7Q749.62-20.7 748.29-19.85 746.97-19 746.22-17.38 745.47-15.75 745.47-13.4L745.47-13.4 745.47 0 739.52 0 739.52-14.1Q739.52-17.3 738.22-19 736.92-20.7 734.32-20.7L734.32-20.7Q732.67-20.7 731.34-19.85 730.02-19 729.27-17.38 728.52-15.75 728.52-13.4L728.52-13.4 728.52 0ZM825.68 0.6L825.68 0.6Q822.58 0.6 820.53-0.45 818.48-1.5 817.48-3.25 816.48-5 816.48-7.05L816.48-7.05Q816.48-9.45 817.71-11.2 818.93-12.95 821.33-13.93 823.73-14.9 827.23-14.9L827.23-14.9 833.58-14.9Q833.58-16.9 833.03-18.23 832.48-19.55 831.33-20.2 830.18-20.85 828.38-20.85L828.38-20.85Q826.33-20.85 824.88-19.93 823.43-19 823.08-17.1L823.08-17.1 817.18-17.1Q817.48-19.8 818.98-21.73 820.48-23.65 822.96-24.73 825.43-25.8 828.38-25.8L828.38-25.8Q831.93-25.8 834.43-24.58 836.93-23.35 838.26-21.08 839.58-18.8 839.58-15.6L839.58-15.6 839.58 0 834.48 0 833.88-4.05 833.88-4.05Q833.38-3.05 832.61-2.2 831.83-1.35 830.83-0.73 829.83-0.1 828.56 0.25 827.28 0.6 825.68 0.6ZM827.03-4.15L827.03-4.15Q828.48-4.15 829.61-4.67 830.73-5.2 831.56-6.18 832.38-7.15 832.83-8.35 833.28-9.55 833.43-10.9L833.43-10.9 833.43-11 827.88-11Q826.13-11 824.98-10.55 823.83-10.1 823.33-9.33 822.83-8.55 822.83-7.5L822.83-7.5Q822.83-6.45 823.33-5.7 823.83-4.95 824.78-4.55 825.73-4.15 827.03-4.15ZM900.45 0L894.45 0 894.45-25.2 899.8-25.2 900.35-20.5 900.35-20.5Q901.25-22.15 902.6-23.33 903.95-24.5 905.77-25.15 907.6-25.8 909.8-25.8L909.8-25.8 909.8-19.45 907.7-19.45Q906.2-19.45 904.85-19.07 903.5-18.7 902.52-17.88 901.55-17.05 901-15.63 900.45-14.2 900.45-12.05L900.45-12.05 900.45 0ZM978.01 0L973.71 0Q971.16 0 969.29-0.8 967.41-1.6 966.36-3.45 965.31-5.3 965.31-8.45L965.31-8.45 965.31-20.15 961.01-20.15 961.01-25.2 965.31-25.2 966.01-31.85 971.31-31.85 971.31-25.2 978.16-25.2 978.16-20.15 971.31-20.15 971.31-8.45Q971.31-6.55 972.14-5.83 972.96-5.1 974.91-5.1L974.91-5.1 978.01-5.1 978.01 0ZM1043.43 0.6L1043.43 0.6Q1039.68 0.6 1036.83-1.03 1033.98-2.65 1032.38-5.6 1030.78-8.55 1030.78-12.4L1030.78-12.4Q1030.78-16.4 1032.36-19.4 1033.93-22.4 1036.81-24.1 1039.68-25.8 1043.48-25.8L1043.48-25.8Q1047.18-25.8 1049.93-24.15 1052.68-22.5 1054.18-19.73 1055.68-16.95 1055.68-13.5L1055.68-13.5Q1055.68-13 1055.68-12.4 1055.68-11.8 1055.58-11.15L1055.58-11.15 1035.08-11.15 1035.08-15 1049.63-15Q1049.53-17.75 1047.78-19.33 1046.03-20.9 1043.43-20.9L1043.43-20.9Q1041.58-20.9 1040.03-20.05 1038.48-19.2 1037.58-17.53 1036.68-15.85 1036.68-13.3L1036.68-13.3 1036.68-11.85Q1036.68-9.5 1037.56-7.8 1038.43-6.1 1039.96-5.23 1041.48-4.35 1043.38-4.35L1043.38-4.35Q1045.48-4.35 1046.86-5.25 1048.23-6.15 1048.88-7.65L1048.88-7.65 1054.98-7.65Q1054.28-5.3 1052.68-3.43 1051.08-1.55 1048.73-0.48 1046.38 0.6 1043.43 0.6ZM1115.7 0L1109.7 0 1109.7-25.2 1115.05-25.2 1115.6-20.5 1115.6-20.5Q1116.5-22.15 1117.85-23.33 1119.2-24.5 1121.02-25.15 1122.85-25.8 1125.05-25.8L1125.05-25.8 1125.05-19.45 1122.95-19.45Q1121.45-19.45 1120.1-19.07 1118.75-18.7 1117.77-17.88 1116.8-17.05 1116.25-15.63 1115.7-14.2 1115.7-12.05L1115.7-12.05 1115.7 0ZM1250.63 0.6L1250.63 0.6Q1246.83 0.6 1243.88-0.75 1240.93-2.1 1239.28-4.6 1237.63-7.1 1237.58-10.55L1237.58-10.55 1243.93-10.55Q1243.93-8.8 1244.76-7.43 1245.58-6.05 1247.06-5.25 1248.53-4.45 1250.63-4.45L1250.63-4.45Q1252.43-4.45 1253.76-5.03 1255.08-5.6 1255.81-6.68 1256.53-7.75 1256.53-9.2L1256.53-9.2Q1256.53-10.85 1255.76-11.93 1254.98-13 1253.63-13.75 1252.28-14.5 1250.53-15.08 1248.78-15.65 1246.83-16.3L1246.83-16.3Q1242.68-17.7 1240.58-19.88 1238.48-22.05 1238.48-25.7L1238.48-25.7Q1238.48-28.75 1239.93-30.95 1241.38-33.15 1244.01-34.38 1246.63-35.6 1250.08-35.6L1250.08-35.6Q1253.58-35.6 1256.21-34.35 1258.83-33.1 1260.36-30.88 1261.88-28.65 1261.93-25.55L1261.93-25.55 1255.53-25.55Q1255.48-26.85 1254.83-27.98 1254.18-29.1 1252.96-29.83 1251.73-30.55 1249.98-30.55L1249.98-30.55Q1248.48-30.6 1247.31-30.08 1246.13-29.55 1245.46-28.58 1244.78-27.6 1244.78-26.15L1244.78-26.15Q1244.78-24.75 1245.41-23.83 1246.03-22.9 1247.23-22.28 1248.43-21.65 1250.03-21.1 1251.63-20.55 1253.53-19.9L1253.53-19.9Q1256.13-19.05 1258.26-17.82 1260.38-16.6 1261.63-14.65 1262.88-12.7 1262.88-9.6L1262.88-9.6Q1262.88-6.9 1261.48-4.58 1260.08-2.25 1257.38-0.83 1254.68 0.6 1250.63 0.6ZM1328.75 0.6L1328.75 0.6Q1325.15 0.6 1322.27-1.07 1319.4-2.75 1317.77-5.73 1316.15-8.7 1316.15-12.55L1316.15-12.55Q1316.15-16.5 1317.8-19.48 1319.45-22.45 1322.32-24.13 1325.2-25.8 1328.8-25.8L1328.8-25.8Q1332.4-25.8 1335.27-24.13 1338.15-22.45 1339.77-19.5 1341.4-16.55 1341.4-12.6L1341.4-12.6Q1341.4-8.65 1339.75-5.7 1338.1-2.75 1335.22-1.07 1332.35 0.6 1328.75 0.6ZM1328.75-4.55L1328.75-4.55Q1330.55-4.55 1332.02-5.45 1333.5-6.35 1334.4-8.15 1335.3-9.95 1335.3-12.6L1335.3-12.6Q1335.3-15.25 1334.42-17.03 1333.55-18.8 1332.07-19.7 1330.6-20.6 1328.8-20.6L1328.8-20.6Q1327.05-20.6 1325.55-19.7 1324.05-18.8 1323.15-17.03 1322.25-15.25 1322.25-12.6L1322.25-12.6Q1322.25-9.95 1323.15-8.15 1324.05-6.35 1325.52-5.45 1327-4.55 1328.75-4.55ZM1401.71 0L1395.71 0 1395.71-36 1401.71-36 1401.71 0ZM1466.23 0.6L1466.23 0.6Q1463.18 0.6 1461.01-0.63 1458.83-1.85 1457.68-4.33 1456.53-6.8 1456.53-10.45L1456.53-10.45 1456.53-25.2 1462.53-25.2 1462.53-11.05Q1462.53-7.8 1463.91-6.13 1465.28-4.45 1468.08-4.45L1468.08-4.45Q1469.88-4.45 1471.31-5.3 1472.73-6.15 1473.56-7.78 1474.38-9.4 1474.38-11.75L1474.38-11.75 1474.38-25.2 1480.38-25.2 1480.38 0 1475.08 0 1474.63-4.2 1474.63-4.2Q1473.48-2 1471.31-0.7 1469.13 0.6 1466.23 0.6ZM1550.8 0L1546.5 0Q1543.95 0 1542.07-0.8 1540.2-1.6 1539.15-3.45 1538.1-5.3 1538.1-8.45L1538.1-8.45 1538.1-20.15 1533.8-20.15 1533.8-25.2 1538.1-25.2 1538.8-31.85 1544.1-31.85 1544.1-25.2 1550.95-25.2 1550.95-20.15 1544.1-20.15 1544.1-8.45Q1544.1-6.55 1544.92-5.83 1545.75-5.1 1547.7-5.1L1547.7-5.1 1550.8-5.1 1550.8 0ZM1611.31 0L1605.31 0 1605.31-25.2 1611.31-25.2 1611.31 0ZM1608.31-29.2L1608.31-29.2Q1606.66-29.2 1605.59-30.23 1604.51-31.25 1604.51-32.75L1604.51-32.75Q1604.51-34.3 1605.59-35.27 1606.66-36.25 1608.31-36.25L1608.31-36.25Q1609.96-36.25 1611.04-35.27 1612.11-34.3 1612.11-32.75L1612.11-32.75Q1612.11-31.25 1611.04-30.23 1609.96-29.2 1608.31-29.2ZM1678.48 0.6L1678.48 0.6Q1674.88 0.6 1672-1.07 1669.13-2.75 1667.5-5.73 1665.88-8.7 1665.88-12.55L1665.88-12.55Q1665.88-16.5 1667.53-19.48 1669.18-22.45 1672.05-24.13 1674.93-25.8 1678.53-25.8L1678.53-25.8Q1682.13-25.8 1685-24.13 1687.88-22.45 1689.5-19.5 1691.13-16.55 1691.13-12.6L1691.13-12.6Q1691.13-8.65 1689.48-5.7 1687.83-2.75 1684.95-1.07 1682.08 0.6 1678.48 0.6ZM1678.48-4.55L1678.48-4.55Q1680.28-4.55 1681.75-5.45 1683.23-6.35 1684.13-8.15 1685.03-9.95 1685.03-12.6L1685.03-12.6Q1685.03-15.25 1684.15-17.03 1683.28-18.8 1681.8-19.7 1680.33-20.6 1678.53-20.6L1678.53-20.6Q1676.78-20.6 1675.28-19.7 1673.78-18.8 1672.88-17.03 1671.98-15.25 1671.98-12.6L1671.98-12.6Q1671.98-9.95 1672.88-8.15 1673.78-6.35 1675.25-5.45 1676.73-4.55 1678.48-4.55ZM1751.45 0L1745.45 0 1745.45-25.2 1750.75-25.2 1751.2-21 1751.2-21Q1752.35-23.2 1754.5-24.5 1756.65-25.8 1759.6-25.8L1759.6-25.8Q1762.65-25.8 1764.8-24.53 1766.95-23.25 1768.12-20.8 1769.3-18.35 1769.3-14.7L1769.3-14.7 1769.3 0 1763.3 0 1763.3-14.15Q1763.3-17.3 1761.9-19 1760.5-20.7 1757.75-20.7L1757.75-20.7Q1755.95-20.7 1754.52-19.85 1753.1-19 1752.27-17.38 1751.45-15.75 1751.45-13.45L1751.45-13.45 1751.45 0ZM1834.16 0.6L1834.16 0.6Q1830.81 0.6 1828.34-0.48 1825.86-1.55 1824.44-3.48 1823.01-5.4 1822.76-7.9L1822.76-7.9 1828.76-7.9Q1829.01-6.85 1829.66-5.98 1830.31-5.1 1831.44-4.6 1832.56-4.1 1834.11-4.1L1834.11-4.1Q1835.61-4.1 1836.56-4.53 1837.51-4.95 1837.96-5.65 1838.41-6.35 1838.41-7.15L1838.41-7.15Q1838.41-8.35 1837.76-9 1837.11-9.65 1835.89-10.03 1834.66-10.4 1832.96-10.75L1832.96-10.75Q1831.16-11.1 1829.49-11.63 1827.81-12.15 1826.49-12.95 1825.16-13.75 1824.39-15 1823.61-16.25 1823.61-18.05L1823.61-18.05Q1823.61-20.25 1824.79-22 1825.96-23.75 1828.19-24.78 1830.41-25.8 1833.51-25.8L1833.51-25.8Q1837.91-25.8 1840.54-23.78 1843.16-21.75 1843.61-18.1L1843.61-18.1 1837.91-18.1Q1837.66-19.5 1836.51-20.28 1835.36-21.05 1833.46-21.05L1833.46-21.05Q1831.51-21.05 1830.49-20.33 1829.46-19.6 1829.46-18.4L1829.46-18.4Q1829.46-17.6 1830.09-17 1830.71-16.4 1831.91-15.98 1833.11-15.55 1834.86-15.15L1834.86-15.15Q1837.66-14.6 1839.81-13.85 1841.96-13.1 1843.21-11.65 1844.46-10.2 1844.46-7.55L1844.46-7.55Q1844.51-5.15 1843.24-3.3 1841.96-1.45 1839.66-0.43 1837.36 0.6 1834.16 0.6ZM1973.7 0L1967.75 0 1967.75-30.15 1957.45-30.15 1957.45-35 1984-35 1984-30.15 1973.7-30.15 1973.7 0ZM2043.21 0L2037.21 0 2037.21-36 2043.21-36 2043.21-21.3 2043.21-21.3Q2044.46-23.35 2046.61-24.58 2048.76-25.8 2051.46-25.8L2051.46-25.8Q2054.56-25.8 2056.71-24.53 2058.86-23.25 2059.99-20.78 2061.11-18.3 2061.11-14.6L2061.11-14.6 2061.11 0 2055.16 0 2055.16-14.05Q2055.16-17.3 2053.79-19 2052.41-20.7 2049.61-20.7L2049.61-20.7Q2047.81-20.7 2046.36-19.83 2044.91-18.95 2044.06-17.32 2043.21-15.7 2043.21-13.35L2043.21-13.35 2043.21 0ZM2121.93 0L2115.93 0 2115.93-25.2 2121.28-25.2 2121.83-20.5 2121.83-20.5Q2122.73-22.15 2124.08-23.33 2125.43-24.5 2127.25-25.15 2129.08-25.8 2131.28-25.8L2131.28-25.8 2131.28-19.45 2129.18-19.45Q2127.68-19.45 2126.33-19.07 2124.98-18.7 2124-17.88 2123.03-17.05 2122.48-15.63 2121.93-14.2 2121.93-12.05L2121.93-12.05 2121.93 0ZM2195.45 0.6L2195.45 0.6Q2191.85 0.6 2188.97-1.07 2186.1-2.75 2184.47-5.73 2182.85-8.7 2182.85-12.55L2182.85-12.55Q2182.85-16.5 2184.5-19.48 2186.15-22.45 2189.02-24.13 2191.9-25.8 2195.5-25.8L2195.5-25.8Q2199.1-25.8 2201.97-24.13 2204.85-22.45 2206.47-19.5 2208.1-16.55 2208.1-12.6L2208.1-12.6Q2208.1-8.65 2206.45-5.7 2204.8-2.75 2201.92-1.07 2199.05 0.6 2195.45 0.6ZM2195.45-4.55L2195.45-4.55Q2197.25-4.55 2198.72-5.45 2200.2-6.35 2201.1-8.15 2202-9.95 2202-12.6L2202-12.6Q2202-15.25 2201.12-17.03 2200.25-18.8 2198.77-19.7 2197.3-20.6 2195.5-20.6L2195.5-20.6Q2193.75-20.6 2192.25-19.7 2190.75-18.8 2189.85-17.03 2188.95-15.25 2188.95-12.6L2188.95-12.6Q2188.95-9.95 2189.85-8.15 2190.75-6.35 2192.22-5.45 2193.7-4.55 2195.45-4.55ZM2271.76 0.6L2271.76 0.6Q2268.71 0.6 2266.54-0.63 2264.36-1.85 2263.21-4.33 2262.06-6.8 2262.06-10.45L2262.06-10.45 2262.06-25.2 2268.06-25.2 2268.06-11.05Q2268.06-7.8 2269.44-6.13 2270.81-4.45 2273.61-4.45L2273.61-4.45Q2275.41-4.45 2276.84-5.3 2278.26-6.15 2279.09-7.78 2279.91-9.4 2279.91-11.75L2279.91-11.75 2279.91-25.2 2285.91-25.2 2285.91 0 2280.61 0 2280.16-4.2 2280.16-4.2Q2279.01-2 2276.84-0.7 2274.66 0.6 2271.76 0.6ZM2351.68 11.6L2351.68 11.6Q2348.13 11.6 2345.45 10.73 2342.78 9.85 2341.3 8.08 2339.83 6.3 2339.83 3.65L2339.83 3.65Q2339.83 2.1 2340.6 0.63 2341.38-0.85 2342.95-2.13 2344.53-3.4 2346.98-4.35L2346.98-4.35 2349.63-1.45Q2347.23-0.6 2346.28 0.6 2345.33 1.8 2345.33 3.05L2345.33 3.05Q2345.33 4.35 2346.15 5.23 2346.98 6.1 2348.4 6.55 2349.83 7 2351.63 7L2351.63 7Q2353.38 7 2354.68 6.53 2355.98 6.05 2356.7 5.2 2357.43 4.35 2357.43 3.15L2357.43 3.15Q2357.43 1.65 2356.38 0.73 2355.33-0.2 2352.23-0.4L2352.23-0.4Q2349.58-0.6 2347.58-0.98 2345.58-1.35 2344.15-1.85 2342.73-2.35 2341.73-2.98 2340.73-3.6 2340.08-4.25L2340.08-4.25 2340.08-5.4 2345.33-10.9 2349.78-9.45 2343.88-3.7 2345.43-6.6Q2345.93-6.25 2346.45-5.95 2346.98-5.65 2347.8-5.43 2348.63-5.2 2349.98-5 2351.33-4.8 2353.48-4.6L2353.48-4.6Q2356.83-4.35 2358.93-3.4 2361.03-2.45 2362.03-0.85 2363.03 0.75 2363.03 3L2363.03 3Q2363.03 5.2 2361.8 7.15 2360.58 9.1 2358.08 10.35 2355.58 11.6 2351.68 11.6ZM2351.68-7.55L2351.68-7.55Q2348.53-7.55 2346.25-8.78 2343.98-10 2342.78-12.08 2341.58-14.15 2341.58-16.65L2341.58-16.65Q2341.58-19.2 2342.78-21.25 2343.98-23.3 2346.25-24.55 2348.53-25.8 2351.68-25.8L2351.68-25.8Q2354.83-25.8 2357.08-24.55 2359.33-23.3 2360.53-21.25 2361.73-19.2 2361.73-16.65L2361.73-16.65Q2361.73-14.15 2360.53-12.08 2359.33-10 2357.08-8.78 2354.83-7.55 2351.68-7.55ZM2351.68-12.2L2351.68-12.2Q2353.83-12.2 2355.13-13.35 2356.43-14.5 2356.43-16.65L2356.43-16.65Q2356.43-18.8 2355.13-19.93 2353.83-21.05 2351.68-21.05L2351.68-21.05Q2349.53-21.05 2348.18-19.93 2346.83-18.8 2346.83-16.65L2346.83-16.65Q2346.83-14.5 2348.18-13.35 2349.53-12.2 2351.68-12.2ZM2365.03-21.4L2355.83-20.8 2354.68-25.2 2365.03-25.2 2365.03-21.4ZM2424.79 0L2418.79 0 2418.79-36 2424.79-36 2424.79-21.3 2424.79-21.3Q2426.04-23.35 2428.19-24.58 2430.34-25.8 2433.04-25.8L2433.04-25.8Q2436.14-25.8 2438.29-24.53 2440.44-23.25 2441.57-20.78 2442.69-18.3 2442.69-14.6L2442.69-14.6 2442.69 0 2436.74 0 2436.74-14.05Q2436.74-17.3 2435.37-19 2433.99-20.7 2431.19-20.7L2431.19-20.7Q2429.39-20.7 2427.94-19.83 2426.49-18.95 2425.64-17.32 2424.79-15.7 2424.79-13.35L2424.79-13.35 2424.79 0ZM2562.33 0L2556.08 0 2568.88-35 2575.58-35 2588.38 0 2582.03 0 2572.18-28 2572.18-28 2562.33 0ZM2582.23-8.25L2561.78-8.25 2563.38-13 2580.63-13 2582.23-8.25ZM2647.64 0L2641.64 0 2641.64-35 2647.64-35 2647.64 0Z" opacity="1" transform="matrix(1,0,0,1,0,0)" fill="#00cc66" class="slogan-text-1" data-fill-palette-color="secondary" id="text-1"></path></svg></g></svg></g></svg></g></svg></g><g transform="matrix(1,0,0,1,169.47681043044582,0)"><svg viewBox="0 0 56.566379139108314 52.07664770548594" height="52.07664770548594" width="56.566379139108314"><g><svg xmlns="http://www.w3.org/2000/svg" xmlns:xlink="http://www.w3.org/1999/xlink" version="1.1" x="0" y="0" viewBox="9.398 12.34 80.1930005690853 73.828" enable-background="new 0 0 100 100" xml:space="preserve" height="52.07664770548594" width="56.566379139108314" class="icon-icon-0" data-fill-palette-color="accent" id="icon-0"><g fill="#00cc66" data-fill-palette-color="accent"><path d="M55.894 49.046V51.038C55.894 53.547 57.036 54.713 59.222 54.713H61.979C64.585 54.713 66.358 56.832 66.358 59.088V61.406C66.358 63.915 65.221 65.427 62.563 65.427H59.367C56.571 65.427 55.114 64.149 55.114 61.538V59.38C55.114 57.321 53.635 55.97 51.833 55.97H47.074C44.694 55.97 44.115 57.578 44.115 59.38V63.629C44.115 65.881 45.466 66.653 47.203 66.653H50.134C53.444 66.653 55.034 68.105 55.034 70.423V72.024C55.034 74.658 56.532 75.656 58.915 75.656H63.83C66.263 75.656 67.452 74.372 67.452 72.177V70.381C67.452 67.358 69.128 66.393 72.345 66.393H75.729C77.595 66.393 78.454 65.235 78.454 63.691V57.451C78.454 55.393 77.296 54.428 75.045 54.428H70.991C68.572 54.428 66.403 52.599 66.403 49.218V47.226C66.403 44.717 65.261 43.551 63.074 43.551H60.317C57.711 43.551 55.938 41.433 55.938 39.177V36.859C55.938 34.35 57.076 32.838 59.734 32.838H62.929C65.725 32.838 67.183 34.116 67.183 36.727V38.885C67.183 40.944 68.662 42.294 70.464 42.294H75.222C77.602 42.294 78.181 40.686 78.181 38.885V34.636C78.181 32.385 76.83 31.613 75.093 31.613H72.162C68.852 31.613 67.262 30.161 67.262 27.843V26.327C67.262 23.694 65.837 22.61 63.454 22.61H58.466C56.033 22.61 54.844 23.894 54.844 26.09V27.885C54.844 30.908 53.168 31.873 49.951 31.873H46.566C44.701 31.873 43.842 33.031 43.842 34.575V40.815C43.842 42.874 44.999 43.839 47.252 43.839H51.304C53.725 43.836 55.894 45.665 55.894 49.046" fill="#00cc66" data-fill-palette-color="accent"></path><path d="M86.07 54.482A3.52 3.52 0 0 0 89.591 50.961V48.273A3.52 3.52 0 0 0 86.07 44.751H83.382A3.52 3.52 0 0 0 79.861 48.273V50.961A3.52 3.52 0 0 0 83.382 54.482z" fill="#00cc66" data-fill-palette-color="accent"></path><path d="M36.547 31.871H39.555C41.806 31.871 42.964 30.906 42.964 28.848V26.874C43.077 23.68 45.188 22.216 47.542 22.216H50.55C52.803 22.216 53.96 21.251 53.96 19.193V15.042C53.96 13.498 53.102 12.34 51.236 12.34H45.541C43.695 12.34 42.91 13.195 42.91 15.122V17.556C42.91 19.751 41.229 21.809 38.739 21.92H34.545C32.7 21.92 31.914 22.775 31.914 24.702V27.21C31.914 29.466 30.143 31.585 27.535 31.585H24.778C22.59 31.585 21.449 32.75 21.449 35.259V38.33C21.449 41.711 19.281 43.54 16.861 43.54H12.807C10.556 43.54 9.398 44.505 9.398 46.563V53.329C9.398 55.388 10.556 56.352 12.807 56.352H16.861C19.281 56.352 21.449 57.401 21.449 60.783V63.195C21.449 65.704 22.591 66.869 24.778 66.869H27.535C30.142 66.869 31.914 68.988 31.914 71.244V73.783C31.914 75.71 32.7 76.565 34.545 76.565H38.758L38.737 76.589C41.228 76.699 42.908 78.758 42.908 80.953V83.386C42.908 85.313 43.693 86.168 45.539 86.168H51.233C53.099 86.168 53.958 85.01 53.958 83.466V79.315C53.958 77.256 52.8 76.291 50.549 76.291H47.54C45.192 76.291 43.087 74.834 42.964 71.658V69.605C42.964 67.546 41.806 66.582 39.555 66.582H36.547C34.126 66.582 31.957 64.754 31.957 61.373V59.74C31.957 57.231 33.1 56.066 35.287 56.066H38.043C40.65 56.066 42.423 53.947 42.423 51.691V48.2C42.423 45.944 40.651 43.825 38.043 43.825H35.287C33.099 43.825 31.957 42.659 31.957 40.151V36.791C31.957 33.411 34.126 31.871 36.547 31.871" fill="#00cc66" data-fill-palette-color="accent"></path></g></svg></g></svg></g><g></g></svg></g><defs></defs></svg><rect width="395.52" height="87.02391379501051" fill="none" stroke="none" visibility="hidden"></rect></g></svg></g></svg>