<?xml version="1.0" encoding="UTF-8"?>
<svg id="Layer_1" data-name="Layer 1" xmlns="http://www.w3.org/2000/svg" viewBox="0 0 320 176">
  <defs>
    <style>
      .cls-1 {
        fill-rule: evenodd;
      }

      .cls-1, .cls-2, .cls-3, .cls-4, .cls-5, .cls-6 {
        fill: none;
      }

      .cls-1, .cls-4 {
        stroke: #44b978;
        stroke-miterlimit: 10;
      }

      .cls-1, .cls-4, .cls-6 {
        stroke-width: 4.3px;
      }

      .cls-2 {
        stroke-dasharray: 0 0 1.57 4.71;
      }

      .cls-2, .cls-3, .cls-5 {
        stroke: #c9e6d0;
        stroke-linecap: round;
        stroke-width: 2.15px;
      }

      .cls-2, .cls-3, .cls-5, .cls-6 {
        stroke-linejoin: round;
      }

      .cls-5 {
        stroke-dasharray: 0 0 2.2 6.6;
      }

      .cls-6 {
        stroke: #038440;
      }
    </style>
  </defs>
  <g id="Machine_learning" data-name="Machine learning">
    <g>
      <g>
        <path class="cls-1" d="m178.32,55.99v6.06h-13.56v-19.57c0-4.26,1.64-8.23,4.62-11.2,2.96-2.95,6.92-4.57,11.14-4.57,5.22,0,10.09,2.6,13.01,6.86.09,0,.19,0,.28,0,8.15,0,14.79,6.63,14.79,14.79,0,.37-.01.74-.04,1.11,4.85,2.07,8.1,6.87,8.1,12.28,0,1.8-.36,3.57-1.06,5.21,3.92,3.18,6.21,7.93,6.21,13.07v.02h0c0,.08,0,.14,0,.2,0,.15,0,.3,0,.45,0,.18-.02.35-.03.53,0,.03,0,.05,0,.08-.12,1.59-.45,3.15-1.01,4.65-.04.1-.08.19-.13.29-.45,1.12-1.01,2.2-1.69,3.21,1.87,2.54,2.88,5.6,2.88,8.8,0,3.86-1.48,7.51-4.11,10.26.77,1.87,1.16,3.88,1.16,5.91,0,6.37-3.93,12.08-9.74,14.43-.12,1.61-.5,3.15-1.09,4.58-.03.16-.08.32-.15.48-2.39,5.36-7.73,8.82-13.59,8.82-1.38,0-2.72-.19-3.99-.55-3.13,4.64-7.54,7.07-12.84,7.07-3.26,0-6.48-1.34-8.84-3.67-2.49-2.47-3.87-5.84-3.87-9.5v-25.17h6.38l4.78,9.45"/>
        <g>
          <line class="cls-3" x1="166.25" y1="76.21" x2="167.32" y2="76.21"/>
          <polyline class="cls-5" points="173.92 76.21 176.3 76.21 186.65 70.29"/>
          <line class="cls-3" x1="189.52" y1="68.66" x2="190.45" y2="68.12"/>
        </g>
        <g>
          <line class="cls-3" x1="166.25" y1="98.44" x2="167.32" y2="98.44"/>
          <polyline class="cls-5" points="173.92 98.44 176.3 98.44 186.65 104.36"/>
          <line class="cls-3" x1="189.52" y1="106" x2="190.45" y2="106.53"/>
        </g>
        <line class="cls-4" x1="166.25" y1="86.32" x2="172.26" y2="86.32"/>
        <line class="cls-4" x1="164.76" y1="75.32" x2="164.76" y2="99.97"/>
        <g>
          <line class="cls-3" x1="184.39" y1="86.32" x2="185.46" y2="86.32"/>
          <line class="cls-2" x1="190.17" y1="86.32" x2="194.1" y2="86.32"/>
          <line class="cls-3" x1="196.45" y1="86.32" x2="197.53" y2="86.32"/>
        </g>
        <circle class="cls-6" cx="178.34" cy="51.44" r="4.54"/>
        <circle class="cls-6" cx="178.34" cy="124.21" r="4.54"/>
        <circle class="cls-6" cx="194.51" cy="65.59" r="4.54"/>
        <circle class="cls-6" cx="194.51" cy="108.04" r="4.54"/>
        <circle class="cls-6" cx="202.6" cy="85.81" r="4.54"/>
        <circle class="cls-6" cx="178.34" cy="85.81" r="4.54"/>
      </g>
      <g>
        <path class="cls-1" d="m141.68,55.99v6.06s12.07,0,12.07,0h1.49s0-19.57,0-19.57c0-4.26-1.64-8.23-4.62-11.2-2.96-2.95-6.92-4.57-11.14-4.57-5.22,0-10.09,2.6-13.01,6.86-.09,0-.19,0-.28,0-8.15,0-14.79,6.63-14.79,14.79,0,.37.01.74.04,1.11-4.85,2.07-8.1,6.87-8.1,12.28,0,1.8.36,3.57,1.06,5.21-3.92,3.18-6.21,7.93-6.21,13.07v.02h0c0,.08,0,.14,0,.2,0,.15,0,.3,0,.45,0,.18.02.35.03.53,0,.03,0,.05,0,.08.12,1.59.45,3.15,1.01,4.65.04.1.08.19.13.29.45,1.12,1.01,2.2,1.69,3.21-1.87,2.54-2.88,5.6-2.88,8.8,0,3.86,1.48,7.51,4.11,10.26-.77,1.87-1.16,3.88-1.16,5.91,0,6.37,3.93,12.08,9.74,14.43.12,1.61.5,3.15,1.09,4.58.03.16.08.32.15.48,2.39,5.36,7.73,8.82,13.59,8.82,1.38,0,2.72-.19,3.99-.55,3.13,4.64,7.54,7.07,12.84,7.07,3.26,0,6.48-1.34,8.84-3.67,2.49-2.47,3.87-5.84,3.87-9.5v-25.17s-6.38,0-6.38,0l-4.78,9.45"/>
        <g>
          <line class="cls-3" x1="153.75" y1="76.21" x2="152.68" y2="76.21"/>
          <polyline class="cls-5" points="146.08 76.21 143.7 76.21 133.35 70.29"/>
          <line class="cls-3" x1="130.48" y1="68.66" x2="129.55" y2="68.12"/>
        </g>
        <g>
          <line class="cls-3" x1="153.75" y1="98.44" x2="152.68" y2="98.44"/>
          <polyline class="cls-5" points="146.08 98.44 143.7 98.44 133.35 104.36"/>
          <line class="cls-3" x1="130.48" y1="106" x2="129.55" y2="106.53"/>
        </g>
        <line class="cls-4" x1="153.75" y1="86.32" x2="147.74" y2="86.32"/>
        <line class="cls-4" x1="155.24" y1="75.32" x2="155.24" y2="99.97"/>
        <g>
          <line class="cls-3" x1="135.61" y1="86.32" x2="134.54" y2="86.32"/>
          <line class="cls-2" x1="129.83" y1="86.32" x2="125.9" y2="86.32"/>
          <line class="cls-3" x1="123.55" y1="86.32" x2="122.47" y2="86.32"/>
        </g>
        <circle class="cls-6" cx="141.66" cy="51.44" r="4.54"/>
        <circle class="cls-6" cx="141.66" cy="124.21" r="4.54"/>
        <circle class="cls-6" cx="125.49" cy="65.59" r="4.54"/>
        <circle class="cls-6" cx="125.49" cy="108.04" r="4.54"/>
        <circle class="cls-6" cx="117.4" cy="85.81" r="4.54"/>
        <circle class="cls-6" cx="141.66" cy="85.81" r="4.54"/>
      </g>
    </g>
  </g>
</svg>