<?xml version="1.0" encoding="UTF-8"?>
<svg id="Layer_1" data-name="Layer 1" xmlns="http://www.w3.org/2000/svg" viewBox="0 0 320 176">
  <defs>
    <style>
      .cls-1, .cls-2, .cls-3, .cls-4, .cls-5 {
        fill: none;
      }

      .cls-1, .cls-4, .cls-5 {
        stroke-linecap: round;
      }

      .cls-1, .cls-5 {
        stroke: #c9e6d0;
        stroke-linejoin: round;
        stroke-width: 3px;
      }

      .cls-6 {
        fill: #038440;
      }

      .cls-2 {
        stroke: #0c6;
      }

      .cls-2, .cls-3, .cls-4 {
        stroke-miterlimit: 10;
        stroke-width: 4.55px;
      }

      .cls-3 {
        fill-rule: evenodd;
        stroke: #0c5d35;
      }

      .cls-4 {
        stroke: #038440;
        stroke-dasharray: 0 0 2.28 13.66;
      }

      .cls-5 {
        stroke-dasharray: 0 0 2.45 9.61;
      }
    </style>
  </defs>
  <g id="Software_automation" data-name="Software automation">
    <path class="cls-3" d="m159.72,34.21l3.38,6.04c3.48.22,6.88.82,10.14,1.76l5.21-4.54,8.21,3.81-.09,6.93c2.85,1.91,5.5,4.12,7.88,6.59l6.8-1.33,5.21,7.4-3.54,5.94c1.51,3.04,2.7,6.27,3.54,9.66l6.54,2.25.81,9.01-6.04,3.38c-.22,3.48-.82,6.88-1.76,10.14l4.54,5.21-3.81,8.21-6.93-.1c-1.91,2.85-4.11,5.5-6.59,7.88l1.33,6.8-7.4,5.21-5.94-3.54c-3.04,1.51-6.27,2.7-9.66,3.54l-2.25,6.54-9.01.81-3.38-6.04c-3.48-.22-6.87-.82-10.13-1.76l-5.22,4.54-8.21-3.81.1-6.93c-2.86-1.91-5.5-4.12-7.89-6.58l-6.8,1.33-5.21-7.4,3.54-5.94c-1.51-3.04-2.7-6.27-3.54-9.66l-6.54-2.25-.81-9.01,6.04-3.38c.22-3.48.82-6.88,1.76-10.14l-4.54-5.21,3.81-8.21,6.93.1c1.91-2.85,4.11-5.5,6.59-7.88l-1.33-6.8,7.4-5.21,5.94,3.54c3.04-1.51,6.27-2.7,9.66-3.54l2.25-6.54,9.01-.81h0Z"/>
    <circle class="cls-2" cx="160" cy="88" r="23.67"/>
    <g>
      <path class="cls-1" d="m194.54,88c0,.4,0,.8-.02,1.2"/>
      <path class="cls-5" d="m192.87,98.63c-4.48,13.87-17.51,23.91-32.87,23.91-19.08,0-34.54-15.46-34.54-34.54s15.46-34.54,34.54-34.54c17.04,0,31.19,12.34,34.02,28.56"/>
      <path class="cls-1" d="m194.52,86.8c.01.4.02.8.02,1.2"/>
    </g>
    <g>
      <g>
        <path class="cls-4" d="m205.21,147.2c-12.66,9.3-28.29,14.8-45.21,14.8-12.71,0-24.69-3.1-35.23-8.58"/>
        <polygon class="cls-6" points="131.89 146.86 113.73 146.41 122.42 162.36 131.89 146.86"/>
      </g>
      <g>
        <path class="cls-4" d="m186.89,14c28.95,10.88,49.55,38.82,49.55,71.57,0,.81-.01,1.61-.04,2.42"/>
        <polygon class="cls-6" points="227.46 84.39 234.88 100.97 245.53 86.26 227.46 84.39"/>
      </g>
      <g>
        <path class="cls-4" d="m84.98,100.26c-.93-4.75-1.41-9.67-1.41-14.69,0-27.96,15.01-52.41,37.41-65.73"/>
        <polygon class="cls-6" points="122.79 29.33 132.75 14.14 114.61 13.11 122.79 29.33"/>
      </g>
    </g>
  </g>
</svg>