<svg xmlns="http://www.w3.org/2000/svg" version="1.1" xmlns:xlink="http://www.w3.org/1999/xlink" xmlns:svgjs="http://svgjs.dev/svgjs" width="128" height="128" viewBox="0 0 128 128"><g transform="matrix(0.8046875,0,0,0.8046875,12.221578124999994,12.221578124999994)"><svg viewBox="0 0 96 96" data-background-color="#121212" preserveAspectRatio="xMidYMid meet" height="128" width="128" xmlns="http://www.w3.org/2000/svg" xmlns:xlink="http://www.w3.org/1999/xlink"><g id="tight-bounds" transform="matrix(1,0,0,1,0.25950000000000273,0.25950000000000273)"><svg viewBox="0 0 95.481 95.481" height="95.481" width="95.481"><g><svg viewBox="0 0 95.481 95.481" height="95.481" width="95.481"><g><svg viewBox="0 0 95.481 95.481" height="95.481" width="95.481"><g id="textblocktransform"><svg viewBox="0 0 95.481 95.481" height="95.481" width="95.481" id="textblock"><g><svg viewBox="0 0 95.481 95.481" height="95.481" width="95.481"><g><svg viewBox="0 0 95.481 95.481" height="95.481" width="95.481"><g><svg xmlns="http://www.w3.org/2000/svg" xmlns:xlink="http://www.w3.org/1999/xlink" version="1.1" x="0" y="0" viewBox="5 4.942 90 90" enable-background="new 0 0 100 100" xml:space="preserve" height="95.481" width="95.481" class="icon-icon-0" data-fill-palette-color="accent" id="icon-0"><polygon points="95,91.192 95,83.692 93.125,87.442 " fill="#f0e68c" data-fill-palette-color="accent"></polygon><polygon points="76.25,53.692 95,16.192 95,8.692 74.375,49.942 " fill="#f0e68c" data-fill-palette-color="accent"></polygon><polygon points="91.25,83.692 95,76.192 95,68.692 89.375,79.942 " fill="#f0e68c" data-fill-palette-color="accent"></polygon><polygon points="87.5,76.192 95,61.192 95,53.692 85.625,72.442 " fill="#f0e68c" data-fill-palette-color="accent"></polygon><polygon points="83.75,68.692 95,46.192 95,38.692 81.875,64.942 " fill="#f0e68c" data-fill-palette-color="accent"></polygon><polygon points="80,61.192 95,31.192 95,23.692 78.125,57.442 " fill="#f0e68c" data-fill-palette-color="accent"></polygon><polygon points="48.125,87.442 50,91.192 51.875,87.442 50,83.692 " fill="#f0e68c" data-fill-palette-color="accent"></polygon><polygon points="29.375,49.942 31.25,53.692 50,16.192 68.75,53.692 70.625,49.942 50,8.692 " fill="#f0e68c" data-fill-palette-color="accent"></polygon><polygon points="44.375,79.942 46.25,83.692 50,76.192 53.75,83.692 55.625,79.942 50,68.692 " fill="#f0e68c" data-fill-palette-color="accent"></polygon><polygon points="40.625,72.442 42.5,76.192 50,61.192 57.5,76.192 59.375,72.442 50,53.692 " fill="#f0e68c" data-fill-palette-color="accent"></polygon><polygon points="36.875,64.942 38.75,68.692 50,46.192 61.25,68.692 63.125,64.942 50,38.692 " fill="#f0e68c" data-fill-palette-color="accent"></polygon><polygon points="33.125,57.442 35,61.192 50,31.192 65,61.192 66.875,57.442 50,23.692 " fill="#f0e68c" data-fill-palette-color="accent"></polygon><polygon points="5,83.692 5,91.192 6.875,87.442 " fill="#f0e68c" data-fill-palette-color="accent"></polygon><polygon points="25.625,49.942 5,8.692 5,16.192 23.75,53.692 " fill="#f0e68c" data-fill-palette-color="accent"></polygon><polygon points="10.625,79.942 5,68.692 5,76.192 8.75,83.692 " fill="#f0e68c" data-fill-palette-color="accent"></polygon><polygon points="14.375,72.442 5,53.692 5,61.192 12.5,76.192 " fill="#f0e68c" data-fill-palette-color="accent"></polygon><polygon points="18.125,64.942 5,38.692 5,46.192 16.25,68.692 " fill="#f0e68c" data-fill-palette-color="accent"></polygon><polygon points="21.875,57.442 5,23.692 5,31.192 20,61.192 " fill="#f0e68c" data-fill-palette-color="accent"></polygon><polygon points="51.875,94.942 55.625,94.942 72.5,61.192 89.375,94.942 93.125,94.942 72.5,53.692 " fill="#f0e68c" data-fill-palette-color="accent"></polygon><polygon points="66.875,94.942 70.625,94.942 72.5,91.192 74.375,94.942 78.125,94.942 72.5,83.692 " fill="#f0e68c" data-fill-palette-color="accent"></polygon><polygon points="59.375,94.942 63.125,94.942 72.5,76.192 81.875,94.942 85.625,94.942 72.5,68.692 " fill="#f0e68c" data-fill-palette-color="accent"></polygon><polygon points="6.875,94.942 10.625,94.942 27.5,61.192 44.375,94.942 48.125,94.942 27.5,53.692 " fill="#f0e68c" data-fill-palette-color="accent"></polygon><polygon points="21.875,94.942 25.625,94.942 27.5,91.192 29.375,94.942 33.125,94.942 27.5,83.692 " fill="#f0e68c" data-fill-palette-color="accent"></polygon><polygon points="14.375,94.942 18.125,94.942 27.5,76.192 36.875,94.942 40.625,94.942 27.5,68.692 " fill="#f0e68c" data-fill-palette-color="accent"></polygon><polygon points="72.5,38.692 70.625,42.442 72.5,46.192 74.375,42.442 " fill="#f0e68c" data-fill-palette-color="accent"></polygon><polygon points="91.25,8.692 93.125,4.942 89.375,4.942 " fill="#f0e68c" data-fill-palette-color="accent"></polygon><polygon points="55.625,4.942 51.875,4.942 53.75,8.692 " fill="#f0e68c" data-fill-palette-color="accent"></polygon><polygon points="66.875,34.942 68.75,38.692 72.5,31.192 76.25,38.692 78.125,34.942 72.5,23.692 " fill="#f0e68c" data-fill-palette-color="accent"></polygon><polygon points="72.5,16.192 80,31.192 81.875,27.442 72.5,8.692 63.125,27.442 65,31.192 " fill="#f0e68c" data-fill-palette-color="accent"></polygon><polygon points="83.75,23.692 85.625,19.942 78.125,4.942 74.375,4.942 " fill="#f0e68c" data-fill-palette-color="accent"></polygon><polygon points="59.375,19.942 61.25,23.692 70.625,4.942 66.875,4.942 " fill="#f0e68c" data-fill-palette-color="accent"></polygon><polygon points="87.5,16.192 89.375,12.442 85.625,4.942 81.875,4.942 " fill="#f0e68c" data-fill-palette-color="accent"></polygon><polygon points="55.625,12.442 57.5,16.192 63.125,4.942 59.375,4.942 " fill="#f0e68c" data-fill-palette-color="accent"></polygon><polygon points="27.5,38.692 25.625,42.442 27.5,46.192 29.375,42.442 " fill="#f0e68c" data-fill-palette-color="accent"></polygon><polygon points="46.25,8.692 48.125,4.942 44.375,4.942 " fill="#f0e68c" data-fill-palette-color="accent"></polygon><polygon points="10.625,4.942 6.875,4.942 8.75,8.692 " fill="#f0e68c" data-fill-palette-color="accent"></polygon><polygon points="31.25,38.692 33.125,34.942 27.5,23.692 21.875,34.942 23.75,38.692 27.5,31.192 " fill="#f0e68c" data-fill-palette-color="accent"></polygon><polygon points="35,31.192 36.875,27.442 27.5,8.692 18.125,27.442 20,31.192 27.5,16.192 " fill="#f0e68c" data-fill-palette-color="accent"></polygon><polygon points="38.75,23.692 40.625,19.942 33.125,4.942 29.375,4.942 " fill="#f0e68c" data-fill-palette-color="accent"></polygon><polygon points="14.375,19.942 16.25,23.692 25.625,4.942 21.875,4.942 " fill="#f0e68c" data-fill-palette-color="accent"></polygon><polygon points="42.5,16.192 44.375,12.442 40.625,4.942 36.875,4.942 " fill="#f0e68c" data-fill-palette-color="accent"></polygon><polygon points="10.625,12.442 12.5,16.192 18.125,4.942 14.375,4.942 " fill="#f0e68c" data-fill-palette-color="accent"></polygon></svg></g></svg></g></svg></g></svg></g></svg></g><g></g></svg></g><defs></defs></svg><rect width="95.481" height="95.481" fill="none" stroke="none" visibility="hidden"></rect></g></svg></g></svg>