<svg xmlns="http://www.w3.org/2000/svg" version="1.1" xmlns:xlink="http://www.w3.org/1999/xlink" xmlns:svgjs="http://svgjs.dev/svgjs" width="2000" height="202" viewBox="0 0 2000 202"><g transform="matrix(1,0,0,1,-1.2121212121212466,-1.4668309420524537)"><svg viewBox="0 0 396 40" data-background-color="#121212" preserveAspectRatio="xMidYMid meet" height="202" width="2000" xmlns="http://www.w3.org/2000/svg" xmlns:xlink="http://www.w3.org/1999/xlink"><g id="tight-bounds" transform="matrix(1,0,0,1,0.2400000000000091,0.2904615726836539)"><svg viewBox="0 0 395.52 39.419076854632706" height="39.419076854632706" width="395.52"><g><svg viewBox="0 0 397.4975999999999 39.61617223890586" height="39.419076854632706" width="395.52"><g><svg viewBox="0 0 397.4975999999999 39.61617223890586" height="39.61617223890586" width="397.4975999999999"><g id="textblocktransform"><svg viewBox="0 0 397.4975999999999 39.61617223890586" height="39.61617223890586" width="397.4975999999999" id="textblock"><g><rect width="397.4975999999999" height="1.481637771603157" x="0" y="21.245835252822133" fill="#ffffff" opacity="1" stroke-width="0" stroke="transparent" fill-opacity="1" class="rect-yte-0" data-fill-palette-color="primary" rx="1%" id="yte-0" data-palette-color="#ffffff"></rect></g><g transform="matrix(1,0,0,1,0.9887999999999693,0)"><svg viewBox="0 0 395.52 19.500450443341972" height="19.500450443341972" width="395.52"><g transform="matrix(1,0,0,1,0,0)"><svg width="395.52" viewBox="-4.0051578947368425 -40.11 902.5151578947368 45.45" height="19.500450443341972" data-palette-color="#ffffff"><path d="M5.15-1.82Q6.05-1.49 7.08-1.33 8.11-1.17 9.12-1.17 10.13-1.17 11.06-1.39L11.06-1.39 11.06-34.55 23.54-34.55 23.54-13.04Q23.54-6.62 20.29-3.27L20.29-3.27Q16.65 0.46 8.94 0.46L8.94 0.46Q3.86 0.46 1.22-1.86L1.22-1.86 0.81-2.27Q-0.07-3.2 0-3.88L0-3.88Q0.17-5.03 1.03-4.93L1.03-4.93Q1.86-4.79 2.33-3.98 2.81-3.17 3.53-2.66 4.25-2.15 5.15-1.82ZM35.76-4.41Q33.35-6.76 31.92-10.12 30.49-13.48 30.49-17.44 30.49-21.41 31.85-24.57 33.2-27.73 35.59-30.05L35.59-30.05Q40.72-34.99 48.46-34.99L48.46-34.99Q56.15-34.99 61.06-30.13L61.06-30.13Q66.04-25.2 66.04-17.33L66.04-17.33Q66.04-9.5 60.94-4.44L60.94-4.44Q57.74-1.32 53.07-0.12L53.07-0.12Q50.75 0.46 47.69 0.46 44.63 0.46 41.4-0.79 38.18-2.05 35.76-4.41ZM48.44-33.2L48.44-33.2Q47.09-33.2 45.92-33.01L45.92-33.01 45.92-1.51Q47.04-1.32 48.44-1.32L48.44-1.32Q54.95-1.32 59.42-5.66L59.42-5.66Q64.08-10.18 64.08-17.33L64.08-17.33Q64.08-24.15 59.71-28.66L59.71-28.66Q55.3-33.2 48.44-33.2ZM94.4-2.1L94.4-2.1Q95.65-2.1 95.65-1.12L95.65-1.12Q95.65-0.68 95.11-0.34 94.58 0 93.26 0L93.26 0 72.58 0 72.58-34.55Q82.2-34.55 91.82-34.55L91.82-34.55 93.82-34.62Q95.65-34.62 95.65-33.54L95.65-33.54Q95.65-33.13 95.34-32.78 95.04-32.42 94.65-32.42L94.65-32.42Q94.01-32.42 93.31-32.57L93.31-32.57Q92.26-32.79 90.42-32.79L90.42-32.79 85.03-32.79 85.03-25.34 89.47-25.34Q89.47-25.34 92.48-25.46L92.48-25.46Q93.01-25.46 93.39-25.21 93.77-24.95 93.77-24.49L93.77-24.49Q93.77-23.46 92.4-23.46L92.4-23.46 91.35-23.49Q90.55-23.56 90.01-23.56L90.01-23.56 85.03-23.56 85.03-1.78 90.42-1.78Q92.23-1.78 92.99-1.93L92.99-1.93Q93.89-2.1 94.4-2.1ZM110.2 0.37Q109.73 0.32 109.49-0.05 109.24-0.42 109.29-0.85L109.29-0.85Q109.41-1.61 109.76-2.25 110.1-2.88 110.26-3.2 110.41-3.52 110.59-3.91L110.59-3.91 111.51-6.05 121.55-36.11 132.34-15.26 142.81-36.11 155.34 0 142.23 0 136.17-18.65 126.8 0.88 116.93-16.7 113.52-6.03Q112.71-4.25 112.37-3 112.03-1.76 111.81-1.07L111.81-1.07Q111.32 0.46 110.2 0.37L110.2 0.37ZM181.68-2.1L181.68-2.1Q182.92-2.1 182.92-1.12L182.92-1.12Q182.92-0.68 182.38-0.34 181.85 0 180.53 0L180.53 0 159.85 0 159.85-34.55Q169.47-34.55 179.09-34.55L179.09-34.55 181.09-34.62Q182.92-34.62 182.92-33.54L182.92-33.54Q182.92-33.13 182.62-32.78 182.31-32.42 181.92-32.42L181.92-32.42Q181.29-32.42 180.58-32.57L180.58-32.57Q179.53-32.79 177.7-32.79L177.7-32.79 172.3-32.79 172.3-25.34 176.75-25.34Q176.75-25.34 179.75-25.46L179.75-25.46Q180.29-25.46 180.66-25.21 181.04-24.95 181.04-24.49L181.04-24.49Q181.04-23.46 179.68-23.46L179.68-23.46 178.63-23.49Q177.82-23.56 177.28-23.56L177.28-23.56 172.3-23.56 172.3-1.78 177.7-1.78Q179.5-1.78 180.26-1.93L180.26-1.93Q181.16-2.1 181.68-2.1ZM191.66-19.48L191.66-3.49 191.73-1.05Q191.73-0.42 191.39-0.07 191.05 0.27 190.57 0.27 190.1 0.27 189.78-0.05 189.46-0.37 189.46-0.74 189.46-1.12 189.52-1.45 189.58-1.78 189.63-2.2L189.63-2.2Q189.76-2.91 189.76-5.74L189.76-5.74 189.76-36.11 216.29-15.06 216.29-29.61Q216.29-31.27 216.2-31.98L216.2-31.98Q216.07-33.13 216.07-33.59L216.07-33.59Q216.07-34.81 217.12-34.81L217.12-34.81Q217.54-34.81 217.92-34.52 218.3-34.23 218.3-33.67L218.3-33.67 218.3-32.81 218.2-29.27 218.2 1.34 191.66-19.48ZM226.94 0L226.94-34.55 237.09-34.55Q244.2-34.55 247.52-33.54L247.52-33.54Q251.3-32.37 253.36-30.54 255.43-28.71 256.6-26.76L256.6-26.76Q258.99-22.78 258.99-17.72L258.99-17.72Q258.99-9.77 253.28-4.83L253.28-4.83Q249.23-1.29 243.73-0.46L243.73-0.46Q240.68 0 235.19 0L235.19 0 226.94 0ZM239.39-32.69L239.39-2.03Q239.78-2 240.09-2L240.09-2 240.66-2Q247.27-2 251.96-6.13L251.96-6.13Q256.92-10.47 256.92-17.68L256.92-17.68Q256.92-22.22 254.74-25.85L254.74-25.85Q251.59-31.15 244.78-32.28L244.78-32.28Q242.56-32.64 239.39-32.69L239.39-32.69ZM286.87-2.1L286.87-2.1Q288.11-2.1 288.11-1.12L288.11-1.12Q288.11-0.68 287.58-0.34 287.04 0 285.72 0L285.72 0 265.04 0 265.04-34.55Q274.66-34.55 284.28-34.55L284.28-34.55 286.28-34.62Q288.11-34.62 288.11-33.54L288.11-33.54Q288.11-33.13 287.81-32.78 287.5-32.42 287.11-32.42L287.11-32.42Q286.48-32.42 285.77-32.57L285.77-32.57Q284.72-32.79 282.89-32.79L282.89-32.79 277.49-32.79 277.49-25.34 281.94-25.34Q281.94-25.34 284.94-25.46L284.94-25.46Q285.48-25.46 285.86-25.21 286.23-24.95 286.23-24.49L286.23-24.49Q286.23-23.46 284.87-23.46L284.87-23.46 283.82-23.49Q283.01-23.56 282.48-23.56L282.48-23.56 277.49-23.56 277.49-1.78 282.89-1.78Q284.7-1.78 285.45-1.93L285.45-1.93Q286.36-2.1 286.87-2.1ZM316.7-2.1L316.7-2.1Q317.97-2.1 317.97-1.12L317.97-1.12Q317.97-0.68 317.43-0.34 316.9 0 315.53 0L315.53 0 291.58 0 304.32-32.79 298.1-32.79Q296.24-32.79 295.49-32.62L295.49-32.62Q294.53-32.42 294.14-32.42L294.14-32.42Q292.87-32.42 292.87-33.4L292.87-33.4Q292.87-34.55 295.27-34.55L295.27-34.55 317.07-34.55 304.64-1.78 312.77-1.78Q314.6-1.78 315.33-1.93L315.33-1.93Q316.19-2.1 316.7-2.1ZM325.59-14.92L325.59-14.92 322.9-14.77Q322.31-14.77 321.94-15.06 321.56-15.36 321.56-15.82L321.56-15.82Q321.56-16.89 322.9-16.89L322.9-16.89Q322.9-16.89 326.39-16.67L326.39-16.67 328.95-16.67 332.84-16.89Q334.23-16.89 334.23-15.83 334.23-14.77 332.74-14.77L332.74-14.77Q332.32-14.77 331.96-14.79L331.96-14.79 331.2-14.84Q330.54-14.92 329.25-14.92L329.25-14.92Q327.42-14.92 325.59-14.92ZM368.14-23.58L368.14-3.54 368.21-1.05Q368.21-0.42 367.84-0.07 367.48 0.27 367 0.27 366.53 0.27 366.24-0.05 365.96-0.37 365.96-0.85L365.96-0.85Q365.96-1.34 366.09-1.95L366.09-1.95Q366.26-2.71 366.26-5.74L366.26-5.74 366.26-23.56 353.98-23.56 353.98 0 341.5 0 341.5-34.55 353.98-34.55 353.98-25.34Q359.25-25.34 362.39-25.34 365.52-25.34 366.26-25.37L366.26-25.37 366.26-29.61Q366.26-31.74 366.18-32.37L366.18-32.37 366.09-33.11Q366.06-33.45 366.06-33.69L366.06-33.69Q366.06-34.81 367.09-34.81L367.09-34.81Q367.45-34.81 367.84-34.52 368.23-34.23 368.23-33.54L368.23-33.54 368.14-30.42 368.14-25.46 369.67-25.68Q370.11-25.68 370.41-25.43 370.7-25.17 370.7-24.76L370.7-24.76Q370.7-23.8 369.19-23.68L369.19-23.68Q368.92-23.63 368.66-23.62 368.41-23.61 368.14-23.58L368.14-23.58ZM407.61-33.52L407.61-33.52 407.47-30.49 407.47-15.89Q407.47-8.67 403.31-4.15L403.31-4.15Q399.07 0.46 392.04 0.46L392.04 0.46Q384.52 0.46 380.32-4.25L380.32-4.25Q376.41-8.57 376.41-15.33L376.41-15.33 376.41-34.55 388.89-34.55 388.89-1.61Q390.77-1.34 393.02-1.34 395.28-1.34 397.61-2.25 399.95-3.15 401.7-5.08L401.7-5.08Q405.51-9.23 405.56-17.21L405.56-17.21 405.56-30.44Q405.56-31.18 405.45-32.18 405.34-33.18 405.34-33.54L405.34-33.54Q405.34-34.81 406.54-34.81L406.54-34.81Q407.61-34.81 407.61-33.52ZM444.47-1.78L444.47-1.78 444.52-3.47 444.52-7.32Q441.08-1.59 434.37-0.02L434.37-0.02Q432.24 0.46 429.42 0.46 426.6 0.46 423.59-0.71 420.57-1.88 418.3-4.1L418.3-4.1Q413.32-8.94 413.32-16.82L413.32-16.82Q413.32-24.37 418.6-29.59L418.6-29.59Q424.09-34.99 432.39-34.99L432.39-34.99Q436.59-34.99 439.98-33.42L439.98-33.42Q442.06-32.5 442.91-31.7 443.77-30.91 443.77-30.43 443.77-29.96 443.47-29.61 443.18-29.27 442.66-29.27 442.13-29.27 441.5-29.83L441.5-29.83Q439.62-31.49 438.19-32.01 436.76-32.52 435.91-32.74 435.05-32.96 434.37-33.06L434.37-33.06Q433.32-33.2 431.88-33.2 430.44-33.2 429.22-32.96L429.22-32.96 429.22-1.37Q429.48-1.34 429.75-1.34L429.75-1.34 430.24-1.34Q437.49-1.34 441.98-6.84L441.98-6.84Q443.52-8.72 444.52-11.28L444.52-11.28 444.52-13.62Q444.52-13.62 444.4-15.82L444.4-15.82Q444.4-17.11 445.43-17.11L445.43-17.11Q445.96-17.11 446.26-16.76 446.55-16.41 446.55-15.89L446.55-15.89 446.4-13.87 446.4-4.79 446.55-1Q446.55-0.42 446.22-0.07 445.89 0.27 445.45 0.27L445.45 0.27Q444.38 0.27 444.38-0.85L444.38-0.85Q444.38-1.15 444.47-1.78ZM481.65-23.58L481.65-3.54 481.73-1.05Q481.73-0.42 481.36-0.07 481 0.27 480.52 0.27 480.04 0.27 479.76-0.05 479.48-0.37 479.48-0.85L479.48-0.85Q479.48-1.34 479.6-1.95L479.6-1.95Q479.77-2.71 479.77-5.74L479.77-5.74 479.77-23.56 467.49-23.56 467.49 0 455.02 0 455.02-34.55 467.49-34.55 467.49-25.34Q472.77-25.34 475.9-25.34 479.04-25.34 479.77-25.37L479.77-25.37 479.77-29.61Q479.77-31.74 479.7-32.37L479.7-32.37 479.6-33.11Q479.58-33.45 479.58-33.69L479.58-33.69Q479.58-34.81 480.6-34.81L480.6-34.81Q480.97-34.81 481.36-34.52 481.75-34.23 481.75-33.54L481.75-33.54 481.65-30.42 481.65-25.46 483.19-25.68Q483.63-25.68 483.92-25.43 484.22-25.17 484.22-24.76L484.22-24.76Q484.22-23.8 482.7-23.68L482.7-23.68Q482.44-23.63 482.18-23.62 481.92-23.61 481.65-23.58L481.65-23.58ZM512.1-2.1L512.1-2.1Q513.34-2.1 513.34-1.12L513.34-1.12Q513.34-0.68 512.8-0.34 512.27 0 510.95 0L510.95 0 490.27 0 490.27-34.55Q499.89-34.55 509.51-34.55L509.51-34.55 511.51-34.62Q513.34-34.62 513.34-33.54L513.34-33.54Q513.34-33.13 513.04-32.78 512.73-32.42 512.34-32.42L512.34-32.42Q511.71-32.42 511-32.57L511-32.57Q509.95-32.79 508.12-32.79L508.12-32.79 502.72-32.79 502.72-25.34 507.16-25.34Q507.16-25.34 510.17-25.46L510.17-25.46Q510.7-25.46 511.08-25.21 511.46-24.95 511.46-24.49L511.46-24.49Q511.46-23.46 510.09-23.46L510.09-23.46 509.04-23.49Q508.24-23.56 507.7-23.56L507.7-23.56 502.72-23.56 502.72-1.78 508.12-1.78Q509.92-1.78 510.68-1.93L510.68-1.93Q511.58-2.1 512.1-2.1ZM519.88-1.76L519.88-1.76Q519.03-2.25 518.4-2.78 517.78-3.32 517.78-3.93L517.78-3.93Q517.78-5.1 518.78-5.1L518.78-5.1Q519.44-5.1 520.25-4.37 521.05-3.64 522.05-3.09 523.06-2.54 524.23-2.15L524.23-2.15Q526.64-1.34 528.7-1.34 530.75-1.34 531.86-1.61 532.97-1.88 533.72-2.34L533.72-2.34Q535.34-3.34 535.34-4.91L535.34-4.91Q535.34-6.35 533.94-7.81L533.94-7.81Q532.77-9.06 530.62-10.79L530.62-10.79 526.45-14.06Q520.17-18.9 519.05-22.9L519.05-22.9Q518.66-24.29 518.66-26 518.66-27.71 519.43-29.37 520.2-31.03 521.71-32.28L521.71-32.28Q524.96-34.99 530.55-34.99L530.55-34.99Q533.41-34.99 535.68-34.14 537.95-33.3 538.78-32.64 539.61-31.98 539.61-31.45L539.61-31.45Q539.61-30.32 538.68-30.32L538.68-30.32Q538.14-30.32 537.53-30.86 536.92-31.4 536.18-31.8 535.43-32.2 534.48-32.52L534.48-32.52Q532.43-33.2 530.45-33.2L530.45-33.2Q526.82-33.2 526.82-30.81L526.82-30.81Q526.82-29.81 527.47-28.96L527.47-28.96Q528.65-27.47 532.05-24.69 535.46-21.92 537.52-19.85 539.58-17.77 540.66-16.11L540.66-16.11Q542.37-13.5 542.37-10.68 542.37-7.86 541.38-5.9 540.39-3.93 538.61-2.51L538.61-2.51Q534.85 0.46 529.28 0.46 523.71 0.46 519.88-1.76ZM552.55-14.14L552.55-14.14Q551.25-14.14 550.2-14.51 549.15-14.89 548.44-15.58L548.44-15.58Q546.98-17.02 546.98-19.41L546.98-19.41Q546.98-21.41 548.61-22.85L548.61-22.85Q550.27-24.34 552.77-24.34L552.77-24.34Q555.33-24.34 556.92-22.66L556.92-22.66Q558.38-21.12 558.38-19.04L558.38-19.04Q558.38-16.97 556.72-15.58L556.72-15.58Q555.01-14.14 552.55-14.14ZM547.35-2.66L547.35-2.66Q546.98-3.64 546.98-4.71 546.98-5.79 547.41-6.68 547.83-7.57 548.61-8.25L548.61-8.25Q550.27-9.74 552.77-9.74L552.77-9.74Q555.33-9.74 556.92-8.06L556.92-8.06Q558.38-6.52 558.38-4.44L558.38-4.44Q558.38-2.37 556.72-0.98L556.72-0.98Q555.01 0.46 552.62 0.46L552.62 0.46Q548.57 0.46 547.35-2.66ZM589.72-4.35L582.89-4.35Q578.42-4.35 576.78-4.42L576.78-4.42 576.08-2.73Q575.76-2.03 575.49-1.25L575.49-1.25Q574.93 0.27 573.93 0.27L573.93 0.27Q573.46 0.27 573.17-0.02 572.88-0.32 572.88-0.63L572.88-0.63Q572.88-1.17 573.34-1.83L573.34-1.83Q574.07-2.86 574.78-4.52L574.78-4.52Q572.68-4.71 572.68-5.74 572.68-6.76 573.88-6.76L573.88-6.76Q574.61-6.76 575.59-6.52L575.59-6.52 587.77-36.11 604.47 0 591.75 0 589.72-4.35ZM582.81-19.29L577.56-6.32Q579.91-6.13 581.76-6.13L581.76-6.13 588.92-6.13 582.81-19.29ZM609.45 0L609.45-34.55 621.9-34.55 621.9 0 609.45 0ZM662.64-2.1L662.64-2.1Q663.89-2.1 663.89-1.12L663.89-1.12Q663.89-0.68 663.35-0.34 662.81 0 661.49 0L661.49 0 640.81 0 640.81-34.55Q650.43-34.55 660.05-34.55L660.05-34.55 662.05-34.62Q663.89-34.62 663.89-33.54L663.89-33.54Q663.89-33.13 663.58-32.78 663.28-32.42 662.88-32.42L662.88-32.42Q662.25-32.42 661.54-32.57L661.54-32.57Q660.49-32.79 658.66-32.79L658.66-32.79 653.27-32.79 653.27-25.34 657.71-25.34Q657.71-25.34 660.71-25.46L660.71-25.46Q661.25-25.46 661.63-25.21 662.01-24.95 662.01-24.49L662.01-24.49Q662.01-23.46 660.64-23.46L660.64-23.46 659.59-23.49Q658.78-23.56 658.25-23.56L658.25-23.56 653.27-23.56 653.27-1.78 658.66-1.78Q660.47-1.78 661.22-1.93L661.22-1.93Q662.13-2.1 662.64-2.1ZM672.62-19.48L672.62-3.49 672.7-1.05Q672.7-0.42 672.35-0.07 672.01 0.27 671.54 0.27 671.06 0.27 670.74-0.05 670.43-0.37 670.43-0.74 670.43-1.12 670.49-1.45 670.55-1.78 670.6-2.2L670.6-2.2Q670.72-2.91 670.72-5.74L670.72-5.74 670.72-36.11 697.26-15.06 697.26-29.61Q697.26-31.27 697.16-31.98L697.16-31.98Q697.04-33.13 697.04-33.59L697.04-33.59Q697.04-34.81 698.09-34.81L698.09-34.81Q698.5-34.81 698.88-34.52 699.26-34.23 699.26-33.67L699.26-33.67 699.26-32.81 699.16-29.27 699.16 1.34 672.62-19.48ZM736.88-1.78L736.88-1.78 736.93-3.47 736.93-7.32Q733.48-1.59 726.77-0.02L726.77-0.02Q724.65 0.46 721.83 0.46 719.01 0.46 715.99-0.71 712.98-1.88 710.71-4.1L710.71-4.1Q705.73-8.94 705.73-16.82L705.73-16.82Q705.73-24.37 711-29.59L711-29.59Q716.49-34.99 724.79-34.99L724.79-34.99Q728.99-34.99 732.39-33.42L732.39-33.42Q734.46-32.5 735.32-31.7 736.17-30.91 736.17-30.43 736.17-29.96 735.88-29.61 735.58-29.27 735.06-29.27 734.53-29.27 733.9-29.83L733.9-29.83Q732.02-31.49 730.59-32.01 729.16-32.52 728.31-32.74 727.45-32.96 726.77-33.06L726.77-33.06Q725.72-33.2 724.28-33.2 722.84-33.2 721.62-32.96L721.62-32.96 721.62-1.37Q721.89-1.34 722.16-1.34L722.16-1.34 722.65-1.34Q729.9-1.34 734.39-6.84L734.39-6.84Q735.93-8.72 736.93-11.28L736.93-11.28 736.93-13.62Q736.93-13.62 736.81-15.82L736.81-15.82Q736.81-17.11 737.83-17.11L737.83-17.11Q738.37-17.11 738.66-16.76 738.95-16.41 738.95-15.89L738.95-15.89 738.81-13.87 738.81-4.79 738.95-1Q738.95-0.42 738.62-0.07 738.29 0.27 737.86 0.27L737.86 0.27Q736.78 0.27 736.78-0.85L736.78-0.85Q736.78-1.15 736.88-1.78ZM747.01 0L747.01-34.55 759.46-34.55 759.46 0 747.01 0ZM769.86-19.48L769.86-3.49 769.93-1.05Q769.93-0.42 769.59-0.07 769.25 0.27 768.77 0.27 768.29 0.27 767.98-0.05 767.66-0.37 767.66-0.74 767.66-1.12 767.72-1.45 767.78-1.78 767.83-2.2L767.83-2.2Q767.95-2.91 767.95-5.74L767.95-5.74 767.95-36.11 794.49-15.06 794.49-29.61Q794.49-31.27 794.39-31.98L794.39-31.98Q794.27-33.13 794.27-33.59L794.27-33.59Q794.27-34.81 795.32-34.81L795.32-34.81Q795.74-34.81 796.11-34.52 796.49-34.23 796.49-33.67L796.49-33.67 796.49-32.81 796.39-29.27 796.39 1.34 769.86-19.48ZM826.54-2.1L826.54-2.1Q827.79-2.1 827.79-1.12L827.79-1.12Q827.79-0.68 827.25-0.34 826.71 0 825.4 0L825.4 0 804.72 0 804.72-34.55Q814.34-34.55 823.96-34.55L823.96-34.55 825.96-34.62Q827.79-34.62 827.79-33.54L827.79-33.54Q827.79-33.13 827.48-32.78 827.18-32.42 826.79-32.42L826.79-32.42Q826.15-32.42 825.45-32.57L825.45-32.57Q824.4-32.79 822.56-32.79L822.56-32.79 817.17-32.79 817.17-25.34 821.61-25.34Q821.61-25.34 824.62-25.46L824.62-25.46Q825.15-25.46 825.53-25.21 825.91-24.95 825.91-24.49L825.91-24.49Q825.91-23.46 824.54-23.46L824.54-23.46 823.49-23.49Q822.69-23.56 822.15-23.56L822.15-23.56 817.17-23.56 817.17-1.78 822.56-1.78Q824.37-1.78 825.13-1.93L825.13-1.93Q826.03-2.1 826.54-2.1ZM855.74-2.1L855.74-2.1Q856.99-2.1 856.99-1.12L856.99-1.12Q856.99-0.68 856.45-0.34 855.91 0 854.59 0L854.59 0 833.91 0 833.91-34.55Q843.53-34.55 853.15-34.55L853.15-34.55 855.15-34.62Q856.99-34.62 856.99-33.54L856.99-33.54Q856.99-33.13 856.68-32.78 856.38-32.42 855.98-32.42L855.98-32.42Q855.35-32.42 854.64-32.57L854.64-32.57Q853.59-32.79 851.76-32.79L851.76-32.79 846.37-32.79 846.37-25.34 850.81-25.34Q850.81-25.34 853.81-25.46L853.81-25.46Q854.35-25.46 854.73-25.21 855.11-24.95 855.11-24.49L855.11-24.49Q855.11-23.46 853.74-23.46L853.74-23.46 852.69-23.49Q851.88-23.56 851.35-23.56L851.35-23.56 846.37-23.56 846.37-1.78 851.76-1.78Q853.57-1.78 854.32-1.93L854.32-1.93Q855.23-2.1 855.74-2.1ZM879.98-11.84L879.98-11.84 881.98-11.69Q886.28-11.69 889.28-14.7L889.28-14.7Q892.29-17.7 892.29-22.17L892.29-22.17Q892.29-28.03 887.13-30.86L887.13-30.86Q884.3-32.42 881.08-32.67L881.08-32.67Q879.71-32.79 878.54-32.79L878.54-32.79 876.88-32.79Q876.37-32.79 875.98-32.76L875.98-32.76 875.98 0 863.53 0 863.53-34.55Q869.24-34.55 872.78-34.55 876.32-34.55 877.39-34.52 878.47-34.5 879.31-34.46 880.15-34.42 880.88-34.38L880.88-34.38Q881.96-34.28 883.92-33.91 885.89-33.54 887.82-32.52 889.75-31.49 891.14-29.98L891.14-29.98Q894.14-26.76 894.14-22.31L894.14-22.31Q894.14-17.92 891.36-14.55L891.36-14.55Q888.5-11.11 883.74-10.11L883.74-10.11Q886.01-3.08 889.53-1.71L889.53-1.71Q890.6-1.29 891.68-1.29L891.68-1.29 893.6-1.76Q894.51-1.76 894.51-0.83L894.51-0.83Q894.51 0.46 891.48 0.46L891.48 0.46Q889.28 0.46 887.45-0.76L887.45-0.76Q884.6-2.47 882.59-7.4L882.59-7.4 881.89-9.13Q881.71-9.55 881.58-9.64 881.45-9.74 881.12-9.74 880.79-9.74 880.54-9.69L880.54-9.69 879.96-9.67Q878.98-9.67 878.63-10.03 878.27-10.4 878.27-10.79L878.27-10.79Q878.27-11.84 879.98-11.84Z" opacity="1" transform="matrix(1,0,0,1,0,0)" fill="#ffffff" class="wordmark-text-0" data-fill-palette-color="primary" id="text-0"></path></svg></g></svg></g><g transform="matrix(1,0,0,1,3.5,24.47285783390545)"><svg viewBox="0 0 388.52 15.143314405000412" height="15.143314405000412" width="388.52"><g transform="matrix(1,0,0,1,0,0)"><svg width="388.52" viewBox="-0.08999999999999986 -42.23 1383.73 54.9" height="15.143314405000412" data-palette-color="#f0e68c"><path d="M25.73-2.1L25.73-2.1Q26.98-2.1 26.98-1.12L26.98-1.12Q26.98-0.68 26.44-0.34 25.9 0 24.58 0L24.58 0 3.91 0 3.91-34.55Q13.53-34.55 23.14-34.55L23.14-34.55 25.15-34.62Q26.98-34.62 26.98-33.54L26.98-33.54Q26.98-33.13 26.67-32.78 26.37-32.42 25.98-32.42L25.98-32.42Q25.34-32.42 24.63-32.57L24.63-32.57Q23.58-32.79 21.75-32.79L21.75-32.79 16.36-32.79 16.36-25.34 20.8-25.34Q20.8-25.34 23.8-25.46L23.8-25.46Q24.34-25.46 24.72-25.21 25.1-24.95 25.1-24.49L25.1-24.49Q25.1-23.46 23.73-23.46L23.73-23.46 22.68-23.49Q21.88-23.56 21.34-23.56L21.34-23.56 16.36-23.56 16.36-1.78 21.75-1.78Q23.56-1.78 24.32-1.93L24.32-1.93Q25.22-2.1 25.73-2.1ZM51.49 0L51.49-23.41Q50.88-23.8 50.17-23.8 49.46-23.8 48.7-23.47 47.95-23.14 47.12-22.56L47.12-22.56Q45.38-21.31 43.92-19.24L43.92-19.24 43.92 0 33.42 0 33.42-26.07 43.92-26.07 43.92-21.9Q48.09-26.51 53.37-26.51L53.37-26.51Q61.98-26.51 61.98-18.16L61.98-18.16 61.98 0 51.49 0ZM75.29-7.96L75.29-7.96Q73.12-7.3 73.12-6.52L73.12-6.52Q73.12-5.76 74.38-5.47L74.38-5.47Q76.85-4.88 81.17-4.77 85.49-4.66 87.68-4.11 89.86-3.56 91.16-2.73L91.16-2.73Q93.5-1.2 93.5 1.34L93.5 1.34Q93.5 4.52 90.35 6.49L90.35 6.49Q86.86 8.67 80.51 8.67L80.51 8.67Q73.95 8.67 69.67 6.71L69.67 6.71Q68.13 5.96 68.13 5L68.13 5Q68.13 4.59 68.44 4.35 68.75 4.1 69.09 4.1L69.09 4.1Q69.5 4.1 70.04 4.42L70.04 4.42Q71.28 5.13 72.35 5.6 73.41 6.08 75.68 6.52 77.95 6.96 80.06 6.96 82.17 6.96 83.5 6.77 84.83 6.59 85.71 6.35L85.71 6.35Q87.45 5.83 87.45 5.2L87.45 5.2Q87.45 4.61 87.1 4.35 86.76 4.08 86.21 3.87 85.66 3.66 84.69 3.49L84.69 3.49Q82.69 3.15 79.24 2.98 75.8 2.81 73.8 2.31 71.8 1.81 70.53 1.03L70.53 1.03Q68.06-0.46 68.06-3L68.06-3Q68.06-6.67 73.02-8.94L73.02-8.94Q70.75-10.18 69.4-12.22 68.06-14.26 68.06-16.64 68.06-19.02 68.95-20.76 69.84-22.51 71.45-23.78L71.45-23.78Q74.85-26.51 80.22-26.51L80.22-26.51Q82.61-26.51 85.03-25.78L85.03-25.78Q88.5-29.13 91.45-29.13L91.45-29.13Q92.7-29.13 93.29-28.71 93.89-28.3 93.89-27.66L93.89-27.66Q93.89-27.03 93.48-26.75 93.06-26.46 92.7-26.46L92.7-26.46Q92.04-26.46 91.57-26.61L91.57-26.61Q90.89-26.86 90.18-26.86L90.18-26.86Q88.86-26.86 86.86-25.02L86.86-25.02Q90.84-23.07 92.06-19.41L92.06-19.41Q92.45-18.19 92.45-16.42 92.45-14.65 91.43-12.89 90.4-11.13 88.69-9.86L88.69-9.86Q85.13-7.23 80.32-7.23L80.32-7.23Q77.78-7.18 75.29-7.96ZM80.41-24.78L80.41-9.01Q84.37-9.06 87.23-10.94L87.23-10.94Q90.52-13.09 90.52-16.75 90.52-20.41 87.28-22.66L87.28-22.66Q84.3-24.71 80.41-24.78L80.41-24.78ZM104.24-30.35Q101.73-30.35 100.31-31.47 98.89-32.59 98.89-34.42L98.89-34.42Q98.89-35.96 100.46-37.06L100.46-37.06Q102.12-38.23 103.97-38.23 105.83-38.23 106.84-37.87 107.85-37.5 108.56-36.91L108.56-36.91Q109.98-35.72 109.98-34.13L109.98-34.13Q109.98-32.54 108.37-31.45L108.37-31.45Q106.76-30.35 104.24-30.35ZM99.11 0L99.11-26.07 109.61-26.07 109.61 0 99.11 0ZM135.66 0L135.66-23.41Q135.05-23.8 134.34-23.8 133.63-23.8 132.88-23.47 132.12-23.14 131.29-22.56L131.29-22.56Q129.56-21.31 128.09-19.24L128.09-19.24 128.09 0 117.59 0 117.59-26.07 128.09-26.07 128.09-21.9Q132.27-26.51 137.54-26.51L137.54-26.51Q146.16-26.51 146.16-18.16L146.16-18.16 146.16 0 135.66 0ZM176.79-5.93L176.79-5.93Q177.75-5.93 177.75-5.05L177.75-5.05Q177.75-4.39 176.89-3.49L176.89-3.49Q173.03 0.46 166.32 0.46L166.32 0.46Q160.29 0.46 156.16-3.17L156.16-3.17Q151.89-6.96 151.89-12.74L151.89-12.74Q151.89-18.65 155.75-22.46L155.75-22.46Q159.83-26.51 166.59-26.51L166.59-26.51Q172.01-26.51 175.7-23.22L175.7-23.22Q179.68-19.68 179.68-13.92L179.68-13.92Q179.68-13.09 179.63-12.16L179.63-12.16 163.51-12.16 163.51-1.68Q165.17-1.34 167.25-1.34L167.25-1.34Q171.64-1.34 174.74-4.25L174.74-4.25Q175.38-4.88 175.65-5.25L175.65-5.25Q176.21-5.93 176.79-5.93ZM170.28-13.94L170.28-24.27Q168.69-24.73 166.69-24.73 164.68-24.73 163.51-24.46L163.51-24.46 163.51-13.94 170.28-13.94ZM208.53-5.93L208.53-5.93Q209.48-5.93 209.48-5.05L209.48-5.05Q209.48-4.39 208.63-3.49L208.63-3.49Q204.77 0.46 198.06 0.46L198.06 0.46Q192.03 0.46 187.9-3.17L187.9-3.17Q183.63-6.96 183.63-12.74L183.63-12.74Q183.63-18.65 187.49-22.46L187.49-22.46Q191.56-26.51 198.32-26.51L198.32-26.51Q203.74-26.51 207.43-23.22L207.43-23.22Q211.41-19.68 211.41-13.92L211.41-13.92Q211.41-13.09 211.36-12.16L211.36-12.16 195.25-12.16 195.25-1.68Q196.91-1.34 198.98-1.34L198.98-1.34Q203.38-1.34 206.48-4.25L206.48-4.25Q207.11-4.88 207.38-5.25L207.38-5.25Q207.94-5.93 208.53-5.93ZM202.01-13.94L202.01-24.27Q200.42-24.73 198.42-24.73 196.42-24.73 195.25-24.46L195.25-24.46 195.25-13.94 202.01-13.94ZM217.61 0L217.61-26.07 228.11-26.07 228.11-18.41Q229.79-22.58 231.73-24.55 233.67-26.51 235.63-26.51L235.63-26.51Q236.73-26.51 237.37-25.94 238.02-25.37 238.02-24.66 238.02-23.95 237.82-23.54 237.63-23.12 237.31-22.83L237.31-22.83Q236.65-22.22 236.07-22.22L236.07-22.22Q235.14-22.22 234.7-22.41L234.7-22.41Q233.94-22.75 233.36-22.75 232.77-22.75 231.87-21.81 230.96-20.87 230.13-19.21L230.13-19.21Q228.11-15.16 228.11-10.42L228.11-10.42 228.11 0 217.61 0ZM246.29-30.35Q243.78-30.35 242.36-31.47 240.95-32.59 240.95-34.42L240.95-34.42Q240.95-35.96 242.51-37.06L242.51-37.06Q244.17-38.23 246.02-38.23 247.88-38.23 248.89-37.87 249.91-37.5 250.61-36.91L250.61-36.91Q252.03-35.72 252.03-34.13L252.03-34.13Q252.03-32.54 250.42-31.45L250.42-31.45Q248.81-30.35 246.29-30.35ZM241.17 0L241.17-26.07 251.66-26.07 251.66 0 241.17 0ZM277.71 0L277.71-23.41Q277.1-23.8 276.39-23.8 275.69-23.8 274.93-23.47 274.17-23.14 273.34-22.56L273.34-22.56Q271.61-21.31 270.14-19.24L270.14-19.24 270.14 0 259.65 0 259.65-26.07 270.14-26.07 270.14-21.9Q274.32-26.51 279.59-26.51L279.59-26.51Q288.21-26.51 288.21-18.16L288.21-18.16 288.21 0 277.71 0ZM301.51-7.96L301.51-7.96Q299.34-7.3 299.34-6.52L299.34-6.52Q299.34-5.76 300.61-5.47L300.61-5.47Q303.08-4.88 307.4-4.77 311.72-4.66 313.9-4.11 316.09-3.56 317.38-2.73L317.38-2.73Q319.73-1.2 319.73 1.34L319.73 1.34Q319.73 4.52 316.58 6.49L316.58 6.49Q313.09 8.67 306.74 8.67L306.74 8.67Q300.17 8.67 295.9 6.71L295.9 6.71Q294.36 5.96 294.36 5L294.36 5Q294.36 4.59 294.66 4.35 294.97 4.1 295.31 4.1L295.31 4.1Q295.73 4.1 296.26 4.42L296.26 4.42Q297.51 5.13 298.57 5.6 299.63 6.08 301.9 6.52 304.17 6.96 306.29 6.96 308.4 6.96 309.73 6.77 311.06 6.59 311.94 6.35L311.94 6.35Q313.67 5.83 313.67 5.2L313.67 5.2Q313.67 4.61 313.33 4.35 312.99 4.08 312.44 3.87 311.89 3.66 310.91 3.49L310.91 3.49Q308.91 3.15 305.47 2.98 302.03 2.81 300.02 2.31 298.02 1.81 296.75 1.03L296.75 1.03Q294.29-0.46 294.29-3L294.29-3Q294.29-6.67 299.24-8.94L299.24-8.94Q296.97-10.18 295.63-12.22 294.29-14.26 294.29-16.64 294.29-19.02 295.18-20.76 296.07-22.51 297.68-23.78L297.68-23.78Q301.07-26.51 306.44-26.51L306.44-26.51Q308.84-26.51 311.25-25.78L311.25-25.78Q314.72-29.13 317.68-29.13L317.68-29.13Q318.92-29.13 319.52-28.71 320.12-28.3 320.12-27.66L320.12-27.66Q320.12-27.03 319.7-26.75 319.29-26.46 318.92-26.46L318.92-26.46Q318.26-26.46 317.8-26.61L317.8-26.61Q317.11-26.86 316.41-26.86L316.41-26.86Q315.09-26.86 313.09-25.02L313.09-25.02Q317.06-23.07 318.29-19.41L318.29-19.41Q318.68-18.19 318.68-16.42 318.68-14.65 317.65-12.89 316.63-11.13 314.92-9.86L314.92-9.86Q311.35-7.23 306.54-7.23L306.54-7.23Q304-7.18 301.51-7.96ZM306.64-24.78L306.64-9.01Q310.6-9.06 313.45-10.94L313.45-10.94Q316.75-13.09 316.75-16.75 316.75-20.41 313.5-22.66L313.5-22.66Q310.52-24.71 306.64-24.78L306.64-24.78ZM346.5 0.46L346.5 0.46Q336.93 0.46 336.93-8.28L336.93-8.28 336.91-24.29 334.1-24.17Q332.78-24.17 332.78-25.17 332.78-26.17 334.2-26.17L334.2-26.17 336.54-26.07 336.91-26.07 336.91-29.86 347.38-34.55 347.38-26.07 350.65-26.07 352.97-26.17Q354.41-26.17 354.41-25.15L354.41-25.15Q354.41-24.68 354.01-24.43 353.61-24.17 353.1-24.17L353.1-24.17 350.07-24.29 347.38-24.29 347.38-1.34Q350.24-1.39 352.14-2.98L352.14-2.98Q353.05-3.66 353.42-4.74 353.8-5.81 354.11-6.12 354.41-6.42 354.83-6.42L354.83-6.42Q355.24-6.42 355.54-6.09 355.83-5.76 355.83-5.31 355.83-4.86 355.59-4.31 355.34-3.76 354.85-3.15L354.85-3.15Q353.75-1.78 352.31-0.98L352.31-0.98Q349.7 0.46 346.5 0.46ZM379.92-26.51L379.92-26.51Q388.52-26.51 388.52-18.16L388.52-18.16 388.52 0 378.02 0 378.02-23.75Q377.58-24.05 376.86-24.05 376.14-24.05 375.36-23.71 374.58-23.36 373.72-22.75L373.72-22.75Q371.89-21.41 370.48-19.38L370.48-19.38 370.48 0 359.98 0 359.98-34.55 370.48-34.55 370.48-21.95Q374.65-26.51 379.92-26.51ZM419.15-5.93L419.15-5.93Q420.11-5.93 420.11-5.05L420.11-5.05Q420.11-4.39 419.25-3.49L419.25-3.49Q415.39 0.46 408.68 0.46L408.68 0.46Q402.65 0.46 398.52-3.17L398.52-3.17Q394.25-6.96 394.25-12.74L394.25-12.74Q394.25-18.65 398.11-22.46L398.11-22.46Q402.19-26.51 408.95-26.51L408.95-26.51Q414.37-26.51 418.06-23.22L418.06-23.22Q422.04-19.68 422.04-13.92L422.04-13.92Q422.04-13.09 421.99-12.16L421.99-12.16 405.87-12.16 405.87-1.68Q407.53-1.34 409.61-1.34L409.61-1.34Q414-1.34 417.1-4.25L417.1-4.25Q417.74-4.88 418.01-5.25L418.01-5.25Q418.57-5.93 419.15-5.93ZM412.64-13.94L412.64-24.27Q411.05-24.73 409.05-24.73 407.05-24.73 405.87-24.46L405.87-24.46 405.87-13.94 412.64-13.94ZM464.54-33.91L464.54-33.91Q464.54-32.79 462.17-32.79L462.17-32.79 456.5-32.79 456.5 0 444 0 444-32.79 440.34-32.79Q438.46-32.79 437.75-32.62L437.75-32.62Q436.83-32.42 436.41-32.42L436.41-32.42Q435.17-32.42 435.17-33.4L435.17-33.4Q435.17-34.55 437.58-34.55L437.58-34.55 459.36-34.55Q461.04-34.55 461.85-34.69L461.85-34.69Q462.83-34.86 463.31-34.86L463.31-34.86Q464.54-34.86 464.54-33.91ZM492.27-5.93L492.27-5.93Q493.22-5.93 493.22-5.05L493.22-5.05Q493.22-4.39 492.36-3.49L492.36-3.49Q488.51 0.46 481.79 0.46L481.79 0.46Q475.76 0.46 471.64-3.17L471.64-3.17Q467.36-6.96 467.36-12.74L467.36-12.74Q467.36-18.65 471.22-22.46L471.22-22.46Q475.3-26.51 482.06-26.51L482.06-26.51Q487.48-26.51 491.17-23.22L491.17-23.22Q495.15-19.68 495.15-13.92L495.15-13.92Q495.15-13.09 495.1-12.16L495.1-12.16 478.99-12.16 478.99-1.68Q480.65-1.34 482.72-1.34L482.72-1.34Q487.12-1.34 490.22-4.25L490.22-4.25Q490.85-4.88 491.12-5.25L491.12-5.25Q491.68-5.93 492.27-5.93ZM485.75-13.94L485.75-24.27Q484.16-24.73 482.16-24.73 480.16-24.73 478.99-24.46L478.99-24.46 478.99-13.94 485.75-13.94ZM511.11-24.54L511.11-1.56Q512.26-1.34 513.42-1.34 514.58-1.34 515.67-1.53 516.75-1.71 517.73-2.05L517.73-2.05Q519.8-2.78 521.07-3.91L521.07-3.91Q521.98-4.69 522.39-4.69L522.39-4.69Q523.32-4.69 523.32-3.86 523.32-3.03 521.81-1.88L521.81-1.88Q518.29 0.46 513.36 0.46L513.36 0.46Q506.94 0.46 502.98-3.39L502.98-3.39Q499.1-7.2 499.1-13.28L499.1-13.28Q499.1-19.04 503.23-22.8L503.23-22.8Q507.33-26.51 513.53-26.51L513.53-26.51Q517.07-26.51 520.34-25.05L520.34-25.05Q522.83-23.97 522.83-22.83L522.83-22.83Q522.83-22.34 522.55-22.08 522.27-21.83 521.93-21.83L521.93-21.83Q521.41-21.83 520.61-22.39L520.61-22.39Q519.02-23.9 515.9-24.51L515.9-24.51Q514.77-24.73 513.43-24.73 512.09-24.73 511.11-24.54L511.11-24.54ZM548.83-26.51L548.83-26.51Q557.42-26.51 557.42-18.16L557.42-18.16 557.42 0 546.93 0 546.93-23.75Q546.49-24.05 545.77-24.05 545.05-24.05 544.26-23.71 543.48-23.36 542.63-22.75L542.63-22.75Q540.8-21.41 539.38-19.38L539.38-19.38 539.38 0 528.88 0 528.88-34.55 539.38-34.55 539.38-21.95Q543.56-26.51 548.83-26.51ZM583.47 0L583.47-23.41Q582.86-23.8 582.15-23.8 581.44-23.8 580.69-23.47 579.93-23.14 579.1-22.56L579.1-22.56Q577.37-21.31 575.9-19.24L575.9-19.24 575.9 0 565.4 0 565.4-26.07 575.9-26.07 575.9-21.9Q580.08-26.51 585.35-26.51L585.35-26.51Q593.97-26.51 593.97-18.16L593.97-18.16 593.97 0 583.47 0ZM599.7-13.18L599.7-13.18Q599.7-16.11 600.77-18.52 601.83-20.92 603.68-22.71L603.68-22.71Q607.69-26.51 613.74-26.51L613.74-26.51Q619.92-26.51 623.8-22.56L623.8-22.56Q627.51-18.82 627.51-13.11L627.51-13.11Q627.51-7.37 623.7-3.52L623.7-3.52Q619.77 0.46 613.64 0.46L613.64 0.46Q607.66 0.46 603.73-3.32L603.73-3.32Q599.7-7.23 599.7-13.18ZM612.96-24.71L612.96-1.37Q613.16-1.34 613.35-1.34L613.35-1.34 613.69-1.34Q618.62-1.34 621.97-4.39L621.97-4.39Q625.53-7.69 625.53-13.04L625.53-13.04Q625.53-18.26 622.19-21.51L622.19-21.51Q618.89-24.73 613.67-24.73L613.67-24.73 613.3-24.73Q613.13-24.73 612.96-24.71L612.96-24.71ZM633.76 0L633.76-34.55 644.26-34.55 644.26 0 633.76 0ZM649.99-13.18L649.99-13.18Q649.99-16.11 651.05-18.52 652.12-20.92 653.97-22.71L653.97-22.71Q657.97-26.51 664.03-26.51L664.03-26.51Q670.21-26.51 674.09-22.56L674.09-22.56Q677.8-18.82 677.8-13.11L677.8-13.11Q677.8-7.37 673.99-3.52L673.99-3.52Q670.06 0.46 663.93 0.46L663.93 0.46Q657.95 0.46 654.02-3.32L654.02-3.32Q649.99-7.23 649.99-13.18ZM663.25-24.71L663.25-1.37Q663.44-1.34 663.64-1.34L663.64-1.34 663.98-1.34Q668.91-1.34 672.26-4.39L672.26-4.39Q675.82-7.69 675.82-13.04L675.82-13.04Q675.82-18.26 672.48-21.51L672.48-21.51Q669.18-24.73 663.96-24.73L663.96-24.73 663.59-24.73Q663.42-24.73 663.25-24.71L663.25-24.71ZM689.37-7.96L689.37-7.96Q687.2-7.3 687.2-6.52L687.2-6.52Q687.2-5.76 688.47-5.47L688.47-5.47Q690.93-4.88 695.25-4.77 699.57-4.66 701.76-4.11 703.94-3.56 705.24-2.73L705.24-2.73Q707.58-1.2 707.58 1.34L707.58 1.34Q707.58 4.52 704.43 6.49L704.43 6.49Q700.94 8.67 694.59 8.67L694.59 8.67Q688.03 8.67 683.75 6.71L683.75 6.71Q682.22 5.96 682.22 5L682.22 5Q682.22 4.59 682.52 4.35 682.83 4.1 683.17 4.1L683.17 4.1Q683.58 4.1 684.12 4.42L684.12 4.42Q685.36 5.13 686.43 5.6 687.49 6.08 689.76 6.52 692.03 6.96 694.14 6.96 696.25 6.96 697.58 6.77 698.91 6.59 699.79 6.35L699.79 6.35Q701.53 5.83 701.53 5.2L701.53 5.2Q701.53 4.61 701.19 4.35 700.84 4.08 700.29 3.87 699.74 3.66 698.77 3.49L698.77 3.49Q696.77 3.15 693.32 2.98 689.88 2.81 687.88 2.31 685.88 1.81 684.61 1.03L684.61 1.03Q682.14-0.46 682.14-3L682.14-3Q682.14-6.67 687.1-8.94L687.1-8.94Q684.83-10.18 683.48-12.22 682.14-14.26 682.14-16.64 682.14-19.02 683.03-20.76 683.92-22.51 685.54-23.78L685.54-23.78Q688.93-26.51 694.3-26.51L694.3-26.51Q696.69-26.51 699.11-25.78L699.11-25.78Q702.58-29.13 705.53-29.13L705.53-29.13Q706.78-29.13 707.37-28.71 707.97-28.3 707.97-27.66L707.97-27.66Q707.97-27.03 707.56-26.75 707.14-26.46 706.78-26.46L706.78-26.46Q706.12-26.46 705.65-26.61L705.65-26.61Q704.97-26.86 704.26-26.86L704.26-26.86Q702.94-26.86 700.94-25.02L700.94-25.02Q704.92-23.07 706.14-19.41L706.14-19.41Q706.53-18.19 706.53-16.42 706.53-14.65 705.51-12.89 704.48-11.13 702.77-9.86L702.77-9.86Q699.21-7.23 694.4-7.23L694.4-7.23Q691.86-7.18 689.37-7.96ZM694.5-24.78L694.5-9.01Q698.45-9.06 701.31-10.94L701.31-10.94Q704.6-13.09 704.6-16.75 704.6-20.41 701.36-22.66L701.36-22.66Q698.38-24.71 694.5-24.78L694.5-24.78ZM717.74 5.76L717.74 5.76Q719.22 5.3 719.81 4.57L719.81 4.57Q720.64 3.59 721.81 1.05L721.81 1.05 722.37-0.24 709.07-26.07 720.18-26.07 727.11-11.33 731.11-20.68Q732.21-23.24 732.55-24.58 732.9-25.93 733.23-26.22 733.56-26.51 734.03-26.51 734.51-26.51 734.78-26.22 735.04-25.93 735.04-25.63 735.04-25.34 734.98-25.01 734.92-24.68 734.74-24.13 734.56-23.58 734.21-22.75L734.21-22.75 724.08 0.73Q722.28 4.98 720.62 6.71L720.62 6.71Q719.2 8.25 717.75 8.25 716.29 8.25 716.29 7.24 716.29 6.23 717.74 5.76ZM760.45 0.46L760.45 0.46Q750.88 0.46 750.88-8.28L750.88-8.28 750.86-24.29 748.05-24.17Q746.73-24.17 746.73-25.17 746.73-26.17 748.15-26.17L748.15-26.17 750.49-26.07 750.86-26.07 750.86-29.86 761.33-34.55 761.33-26.07 764.61-26.07 766.92-26.17Q768.37-26.17 768.37-25.15L768.37-25.15Q768.37-24.68 767.96-24.43 767.56-24.17 767.05-24.17L767.05-24.17 764.02-24.29 761.33-24.29 761.33-1.34Q764.19-1.39 766.09-2.98L766.09-2.98Q767-3.66 767.38-4.74 767.75-5.81 768.06-6.12 768.37-6.42 768.78-6.42L768.78-6.42Q769.2-6.42 769.49-6.09 769.78-5.76 769.78-5.31 769.78-4.86 769.54-4.31 769.29-3.76 768.8-3.15L768.8-3.15Q767.71-1.78 766.27-0.98L766.27-0.98Q763.65 0.46 760.45 0.46ZM793.88-26.51L793.88-26.51Q802.47-26.51 802.47-18.16L802.47-18.16 802.47 0 791.97 0 791.97-23.75Q791.53-24.05 790.81-24.05 790.09-24.05 789.31-23.71 788.53-23.36 787.67-22.75L787.67-22.75Q785.84-21.41 784.43-19.38L784.43-19.38 784.43 0 773.93 0 773.93-34.55 784.43-34.55 784.43-21.95Q788.6-26.51 793.88-26.51ZM826.78 0L826.78-1.61Q823.66 0.46 819.85 0.46L819.85 0.46Q814.8 0.46 811.74-2.08L811.74-2.08Q808.57-4.69 808.57-9.33L808.57-9.33Q808.57-13.43 811.72-16.06L811.72-16.06Q814.94-18.73 820.19-18.73L820.19-18.73Q823.71-18.73 826.78-17.38L826.78-17.38 826.78-24.1Q824.56-24.73 822.86-24.73 821.17-24.73 820-24.58 818.82-24.44 817.77-24.15L817.77-24.15Q815.5-23.51 814.33-22.44L814.33-22.44Q813.65-21.8 813.09-21.8 812.53-21.8 812.23-22.08 811.94-22.36 811.94-22.71 811.94-23.05 812.06-23.33 812.18-23.61 812.53-23.9L812.53-23.9Q813.26-24.54 814.97-25.17L814.97-25.17Q818.51-26.51 822.07-26.51L822.07-26.51Q832.91-26.51 835.91-21.34L835.91-21.34Q837.23-19.04 837.23-15.31L837.23-15.31 837.23 0 826.78 0ZM826.78-3.71L826.78-15.48Q823.71-16.97 820.66-16.97L820.66-16.97Q820.17-16.97 819.73-16.89L819.73-16.89 819.73-1.37Q819.85-1.34 820-1.34 820.14-1.34 820.29-1.34L820.29-1.34Q823.63-1.34 826.78-3.71L826.78-3.71ZM854.91 0.46L854.91 0.46Q845.34 0.46 845.34-8.28L845.34-8.28 845.31-24.29 842.5-24.17Q841.18-24.17 841.18-25.17 841.18-26.17 842.6-26.17L842.6-26.17 844.94-26.07 845.31-26.07 845.31-29.86 855.78-34.55 855.78-26.07 859.06-26.07 861.38-26.17Q862.82-26.17 862.82-25.15L862.82-25.15Q862.82-24.68 862.41-24.43 862.01-24.17 861.5-24.17L861.5-24.17 858.47-24.29 855.78-24.29 855.78-1.34Q858.64-1.39 860.55-2.98L860.55-2.98Q861.45-3.66 861.83-4.74 862.21-5.81 862.51-6.12 862.82-6.42 863.23-6.42L863.23-6.42Q863.65-6.42 863.94-6.09 864.23-5.76 864.23-5.31 864.23-4.86 863.99-4.31 863.74-3.76 863.26-3.15L863.26-3.15Q862.16-1.78 860.72-0.98L860.72-0.98Q858.1 0.46 854.91 0.46ZM901.02-2.1L901.02-2.1Q902.26-2.1 902.26-1.12L902.26-1.12Q902.26-0.68 901.73-0.34 901.19 0 899.87 0L899.87 0 879.19 0 879.19-34.55Q888.81-34.55 898.43-34.55L898.43-34.55 900.43-34.62Q902.26-34.62 902.26-33.54L902.26-33.54Q902.26-33.13 901.96-32.78 901.65-32.42 901.26-32.42L901.26-32.42Q900.63-32.42 899.92-32.57L899.92-32.57Q898.87-32.79 897.04-32.79L897.04-32.79 891.64-32.79 891.64-25.34 896.09-25.34Q896.09-25.34 899.09-25.46L899.09-25.46Q899.63-25.46 900.01-25.21 900.38-24.95 900.38-24.49L900.38-24.49Q900.38-23.46 899.02-23.46L899.02-23.46 897.97-23.49Q897.16-23.56 896.62-23.56L896.62-23.56 891.64-23.56 891.64-1.78 897.04-1.78Q898.85-1.78 899.6-1.93L899.6-1.93Q900.51-2.1 901.02-2.1ZM926.77 0L926.77-23.41Q926.16-23.8 925.45-23.8 924.75-23.8 923.99-23.47 923.23-23.14 922.4-22.56L922.4-22.56Q920.67-21.31 919.2-19.24L919.2-19.24 919.2 0 908.71 0 908.71-26.07 919.2-26.07 919.2-21.9Q923.38-26.51 928.65-26.51L928.65-26.51Q937.27-26.51 937.27-18.16L937.27-18.16 937.27 0 926.77 0ZM961.58 0L961.58-1.61Q958.46 0.46 954.65 0.46L954.65 0.46Q949.6 0.46 946.55-2.08L946.55-2.08Q943.37-4.69 943.37-9.33L943.37-9.33Q943.37-13.43 946.52-16.06L946.52-16.06Q949.74-18.73 954.99-18.73L954.99-18.73Q958.51-18.73 961.58-17.38L961.58-17.38 961.58-24.1Q959.36-24.73 957.67-24.73 955.97-24.73 954.8-24.58 953.63-24.44 952.58-24.15L952.58-24.15Q950.31-23.51 949.13-22.44L949.13-22.44Q948.45-21.8 947.89-21.8 947.33-21.8 947.03-22.08 946.74-22.36 946.74-22.71 946.74-23.05 946.86-23.33 946.99-23.61 947.33-23.9L947.33-23.9Q948.06-24.54 949.77-25.17L949.77-25.17Q953.31-26.51 956.87-26.51L956.87-26.51Q967.71-26.51 970.72-21.34L970.72-21.34Q972.03-19.04 972.03-15.31L972.03-15.31 972.03 0 961.58 0ZM961.58-3.71L961.58-15.48Q958.51-16.97 955.46-16.97L955.46-16.97Q954.97-16.97 954.53-16.89L954.53-16.89 954.53-1.37Q954.65-1.34 954.8-1.34 954.94-1.34 955.09-1.34L955.09-1.34Q958.44-1.34 961.58-3.71L961.58-3.71ZM996.27 0.46L996.27 0.46Q992.88 0.46 989.71-1.07L989.71-1.07 989.71 0 979.67 0 979.67-34.55 989.71-34.55 989.71-24.83Q992.81-26.51 996.2-26.51 999.6-26.51 1002.16-25.51 1004.72-24.51 1006.55-22.75L1006.55-22.75Q1010.34-19.04 1010.34-13.26L1010.34-13.26Q1010.34-7.42 1006.6-3.56L1006.6-3.56Q1002.74 0.46 996.27 0.46ZM996.2-24.73L996.2-24.73Q992.59-24.73 989.71-22.73L989.71-22.73 989.71-3.15Q992.91-1.34 996.89-1.34L996.89-1.34 997.52-1.34Q997.81-1.34 998.08-1.39L998.08-1.39 998.08-24.58Q997.15-24.73 996.2-24.73ZM1016.61 0L1016.61-34.55 1027.11-34.55 1027.11 0 1016.61 0ZM1057.74-5.93L1057.74-5.93Q1058.7-5.93 1058.7-5.05L1058.7-5.05Q1058.7-4.39 1057.84-3.49L1057.84-3.49Q1053.98 0.46 1047.27 0.46L1047.27 0.46Q1041.24 0.46 1037.11-3.17L1037.11-3.17Q1032.84-6.96 1032.84-12.74L1032.84-12.74Q1032.84-18.65 1036.7-22.46L1036.7-22.46Q1040.78-26.51 1047.54-26.51L1047.54-26.51Q1052.96-26.51 1056.65-23.22L1056.65-23.22Q1060.63-19.68 1060.63-13.92L1060.63-13.92Q1060.63-13.09 1060.58-12.16L1060.58-12.16 1044.46-12.16 1044.46-1.68Q1046.12-1.34 1048.2-1.34L1048.2-1.34Q1052.59-1.34 1055.69-4.25L1055.69-4.25Q1056.33-4.88 1056.6-5.25L1056.6-5.25Q1057.16-5.93 1057.74-5.93ZM1051.23-13.94L1051.23-24.27Q1049.64-24.73 1047.64-24.73 1045.64-24.73 1044.46-24.46L1044.46-24.46 1044.46-13.94 1051.23-13.94ZM1064.92-3.27L1064.92-3.27Q1064.92-3.64 1065.18-3.94 1065.43-4.25 1065.85-4.25 1066.26-4.25 1066.53-4L1066.53-4Q1066.53-4 1067.14-3.44L1067.14-3.44Q1069.68-1.22 1074.25-1.22L1074.25-1.22Q1077.32-1.22 1078.2-2.49L1078.2-2.49Q1078.45-2.83 1078.45-3.19 1078.45-3.54 1078.31-3.87 1078.18-4.2 1077.74-4.68 1077.3-5.15 1076.49-5.81L1076.49-5.81 1074.34-7.54Q1069.02-11.69 1067.04-14.28L1067.04-14.28Q1065.24-16.65 1065.24-19.12L1065.24-19.12Q1065.24-22.22 1068.09-24.32L1068.09-24.32Q1071.05-26.51 1075.74-26.51L1075.74-26.51Q1079.03-26.51 1080.94-25.76 1082.84-25 1083.62-24.38 1084.4-23.75 1084.4-23.24L1084.4-23.24Q1084.4-22.19 1083.57-22.19L1083.57-22.19Q1083.18-22.19 1082.85-22.47 1082.52-22.75 1081.55-23.43 1080.57-24.1 1078.96-24.49 1077.35-24.88 1075.95-24.88 1074.56-24.88 1073.99-24.44 1073.42-24 1073.42-23.57 1073.42-23.14 1073.59-22.77 1073.76-22.39 1074.22-21.88L1074.22-21.88Q1075.3-20.61 1077.66-18.87 1080.03-17.14 1081.67-15.7 1083.3-14.26 1084.23-13.04L1084.23-13.04Q1085.92-10.84 1085.92-8.59 1085.92-6.35 1085.09-4.75 1084.26-3.15 1082.72-2L1082.72-2Q1079.47 0.46 1074.05 0.46L1074.05 0.46Q1069.7 0.46 1066.8-1.2L1066.8-1.2Q1064.92-2.25 1064.92-3.27ZM1112.96 0.46L1112.96 0.46Q1103.39 0.46 1103.39-8.28L1103.39-8.28 1103.37-24.29 1100.56-24.17Q1099.24-24.17 1099.24-25.17 1099.24-26.17 1100.66-26.17L1100.66-26.17 1103-26.07 1103.37-26.07 1103.37-29.86 1113.84-34.55 1113.84-26.07 1117.11-26.07 1119.43-26.17Q1120.87-26.17 1120.87-25.15L1120.87-25.15Q1120.87-24.68 1120.47-24.43 1120.07-24.17 1119.55-24.17L1119.55-24.17 1116.53-24.29 1113.84-24.29 1113.84-1.34Q1116.7-1.39 1118.6-2.98L1118.6-2.98Q1119.5-3.66 1119.88-4.74 1120.26-5.81 1120.57-6.12 1120.87-6.42 1121.29-6.42L1121.29-6.42Q1121.7-6.42 1121.99-6.09 1122.29-5.76 1122.29-5.31 1122.29-4.86 1122.04-4.31 1121.8-3.76 1121.31-3.15L1121.31-3.15Q1120.21-1.78 1118.77-0.98L1118.77-0.98Q1116.16 0.46 1112.96 0.46ZM1146.38-26.51L1146.38-26.51Q1154.98-26.51 1154.98-18.16L1154.98-18.16 1154.98 0 1144.48 0 1144.48-23.75Q1144.04-24.05 1143.32-24.05 1142.6-24.05 1141.82-23.71 1141.04-23.36 1140.18-22.75L1140.18-22.75Q1138.35-21.41 1136.93-19.38L1136.93-19.38 1136.93 0 1126.44 0 1126.44-34.55 1136.93-34.55 1136.93-21.95Q1141.11-26.51 1146.38-26.51ZM1185.61-5.93L1185.61-5.93Q1186.56-5.93 1186.56-5.05L1186.56-5.05Q1186.56-4.39 1185.71-3.49L1185.71-3.49Q1181.85 0.46 1175.14 0.46L1175.14 0.46Q1169.11 0.46 1164.98-3.17L1164.98-3.17Q1160.71-6.96 1160.71-12.74L1160.71-12.74Q1160.71-18.65 1164.57-22.46L1164.57-22.46Q1168.64-26.51 1175.41-26.51L1175.41-26.51Q1180.83-26.51 1184.51-23.22L1184.51-23.22Q1188.49-19.68 1188.49-13.92L1188.49-13.92Q1188.49-13.09 1188.44-12.16L1188.44-12.16 1172.33-12.16 1172.33-1.68Q1173.99-1.34 1176.07-1.34L1176.07-1.34Q1180.46-1.34 1183.56-4.25L1183.56-4.25Q1184.2-4.88 1184.47-5.25L1184.47-5.25Q1185.03-5.93 1185.61-5.93ZM1179.09-13.94L1179.09-24.27Q1177.51-24.73 1175.51-24.73 1173.5-24.73 1172.33-24.46L1172.33-24.46 1172.33-13.94 1179.09-13.94ZM1226.21-22.17L1226.21-22.17 1225.21-22.19Q1224.67-22.24 1223.84-22.24L1223.84-22.24 1218.37-22.24 1218.37 0 1205.92 0 1205.92-34.55 1225.31-34.55 1227.72-34.62 1228.16-34.62Q1229.99-34.62 1229.99-33.54L1229.99-33.54Q1229.99-33.13 1229.66-32.78 1229.33-32.42 1228.94-32.42L1228.94-32.42Q1228.31-32.42 1227.72-32.54L1227.72-32.54Q1226.6-32.79 1224.79-32.79L1224.79-32.79 1218.37-32.79 1218.37-24 1223.28-24Q1223.28-24 1226.31-24.12L1226.31-24.12Q1227.62-24.12 1227.62-23.14 1227.62-22.17 1226.21-22.17ZM1242.64 0.46L1242.64 0.46Q1234.07 0.46 1234.07-7.91L1234.07-7.91 1234.07-26.07 1244.52-26.07 1244.52-2.17Q1244.76-2.05 1245.13-2.05L1245.13-2.05 1245.93-2.05Q1247.89-2.05 1250.57-4.69L1250.57-4.69Q1251.38-5.49 1252.08-6.45L1252.08-6.45 1252.08-26.07 1262.58-26.07 1262.58 0 1252.08 0 1252.08-3.76Q1248.11 0.46 1242.64 0.46ZM1280.6 0.46L1280.6 0.46Q1271.03 0.46 1271.03-8.28L1271.03-8.28 1271-24.29 1268.2-24.17Q1266.88-24.17 1266.88-25.17 1266.88-26.17 1268.29-26.17L1268.29-26.17 1270.64-26.07 1271-26.07 1271-29.86 1281.48-34.55 1281.48-26.07 1284.75-26.07 1287.07-26.17Q1288.51-26.17 1288.51-25.15L1288.51-25.15Q1288.51-24.68 1288.11-24.43 1287.7-24.17 1287.19-24.17L1287.19-24.17 1284.16-24.29 1281.48-24.29 1281.48-1.34Q1284.33-1.39 1286.24-2.98L1286.24-2.98Q1287.14-3.66 1287.52-4.74 1287.9-5.81 1288.2-6.12 1288.51-6.42 1288.92-6.42L1288.92-6.42Q1289.34-6.42 1289.63-6.09 1289.92-5.76 1289.92-5.31 1289.92-4.86 1289.68-4.31 1289.44-3.76 1288.95-3.15L1288.95-3.15Q1287.85-1.78 1286.41-0.98L1286.41-0.98Q1283.8 0.46 1280.6 0.46ZM1302.62 0.46L1302.62 0.46Q1294.05 0.46 1294.05-7.91L1294.05-7.91 1294.05-26.07 1304.5-26.07 1304.5-2.17Q1304.74-2.05 1305.11-2.05L1305.11-2.05 1305.91-2.05Q1307.87-2.05 1310.55-4.69L1310.55-4.69Q1311.36-5.49 1312.07-6.45L1312.07-6.45 1312.07-26.07 1322.56-26.07 1322.56 0 1312.07 0 1312.07-3.76Q1308.09 0.46 1302.62 0.46ZM1330.54 0L1330.54-26.07 1341.04-26.07 1341.04-18.41Q1342.73-22.58 1344.67-24.55 1346.61-26.51 1348.56-26.51L1348.56-26.51Q1349.66-26.51 1350.31-25.94 1350.95-25.37 1350.95-24.66 1350.95-23.95 1350.76-23.54 1350.56-23.12 1350.25-22.83L1350.25-22.83Q1349.59-22.22 1349-22.22L1349-22.22Q1348.07-22.22 1347.63-22.41L1347.63-22.41Q1346.88-22.75 1346.29-22.75 1345.71-22.75 1344.8-21.81 1343.9-20.87 1343.07-19.21L1343.07-19.21Q1341.04-15.16 1341.04-10.42L1341.04-10.42 1341.04 0 1330.54 0ZM1376.76-5.93L1376.76-5.93Q1377.71-5.93 1377.71-5.05L1377.71-5.05Q1377.71-4.39 1376.86-3.49L1376.86-3.49Q1373 0.46 1366.28 0.46L1366.28 0.46Q1360.25 0.46 1356.13-3.17L1356.13-3.17Q1351.86-6.96 1351.86-12.74L1351.86-12.74Q1351.86-18.65 1355.71-22.46L1355.71-22.46Q1359.79-26.51 1366.55-26.51L1366.55-26.51Q1371.97-26.51 1375.66-23.22L1375.66-23.22Q1379.64-19.68 1379.64-13.92L1379.64-13.92Q1379.64-13.09 1379.59-12.16L1379.59-12.16 1363.48-12.16 1363.48-1.68Q1365.14-1.34 1367.21-1.34L1367.21-1.34Q1371.61-1.34 1374.71-4.25L1374.71-4.25Q1375.34-4.88 1375.61-5.25L1375.61-5.25Q1376.17-5.93 1376.76-5.93ZM1370.24-13.94L1370.24-24.27Q1368.65-24.73 1366.65-24.73 1364.65-24.73 1363.48-24.46L1363.48-24.46 1363.48-13.94 1370.24-13.94Z" opacity="1" transform="matrix(1,0,0,1,0,0)" fill="#f0e68c" class="slogan-text-1" data-fill-palette-color="secondary" id="text-1"></path></svg></g></svg></g></svg></g></svg></g><g></g></svg></g><defs></defs></svg><rect width="395.52" height="39.419076854632706" fill="none" stroke="none" visibility="hidden"></rect></g></svg></g></svg>