<svg xmlns="http://www.w3.org/2000/svg" version="1.1" xmlns:xlink="http://www.w3.org/1999/xlink" xmlns:svgjs="http://svgjs.dev/svgjs" width="128" height="128" viewBox="0 0 128 128"><g transform="matrix(0.8046875,0,0,0.8046875,12.221578124999994,35.60221228825176)"><svg viewBox="0 0 96 53" data-background-color="#121212" preserveAspectRatio="xMidYMid meet" height="70" width="128" xmlns="http://www.w3.org/2000/svg" xmlns:xlink="http://www.w3.org/1999/xlink"><g id="tight-bounds" transform="matrix(1,0,0,1,0.25950000000000273,0.21991565000000435)"><svg viewBox="0 0 95.481 52.56016869999999" height="52.56016869999999" width="95.481"><g><svg viewBox="0 0 95.481 52.56016869999999" height="52.56016869999999" width="95.481"><g><svg viewBox="0 0 95.481 52.56016869999999" height="52.56016869999999" width="95.481"><g id="textblocktransform"><svg viewBox="0 0 95.481 52.56016869999999" height="52.56016869999999" width="95.481" id="textblock"><g><svg viewBox="0 0 95.481 52.56016869999999" height="52.56016869999999" width="95.481"><g><svg viewBox="0 0 95.481 52.56016869999999" height="52.56016869999999" width="95.481"><g><svg xmlns="http://www.w3.org/2000/svg" xmlns:xlink="http://www.w3.org/1999/xlink" version="1.1" x="0" y="0" viewBox="5 25.229 90 49.54299999999999" enable-background="new 0 0 100 100" xml:space="preserve" height="52.56016869999999" width="95.481" class="icon-icon-0" data-fill-palette-color="accent" id="icon-0"><g fill="#1334d6" data-fill-palette-color="accent"><g fill="#1334d6" data-fill-palette-color="accent"><g fill="#1334d6" data-fill-palette-color="accent"><rect x="18.479" y="25.229" width="2.385" height="2.385" fill="#1334d6" data-fill-palette-color="accent"></rect><rect x="21.85" y="25.229" width="2.385" height="2.385" fill="#1334d6" data-fill-palette-color="accent"></rect><rect x="25.219" y="25.229" width="2.386" height="2.385" fill="#1334d6" data-fill-palette-color="accent"></rect><rect x="28.589" y="25.229" width="2.385" height="2.385" fill="#1334d6" data-fill-palette-color="accent"></rect><rect x="31.959" y="25.229" width="2.385" height="2.385" fill="#1334d6" data-fill-palette-color="accent"></rect><rect x="35.328" y="25.229" width="2.386" height="2.385" fill="#1334d6" data-fill-palette-color="accent"></rect><rect x="38.698" y="25.229" width="2.385" height="2.385" fill="#1334d6" data-fill-palette-color="accent"></rect><rect x="42.068" y="25.229" width="2.385" height="2.385" fill="#1334d6" data-fill-palette-color="accent"></rect><rect x="52.178" y="25.229" width="2.385" height="2.385" fill="#1334d6" data-fill-palette-color="accent"></rect><rect x="62.287" y="25.229" width="2.385" height="2.385" fill="#1334d6" data-fill-palette-color="accent"></rect><rect x="72.396" y="25.229" width="2.385" height="2.385" fill="#1334d6" data-fill-palette-color="accent"></rect></g><g fill="#1334d6" data-fill-palette-color="accent"><rect x="15.109" y="28.597" width="2.386" height="2.384" fill="#1334d6" data-fill-palette-color="accent"></rect><rect x="18.479" y="28.597" width="2.385" height="2.384" fill="#1334d6" data-fill-palette-color="accent"></rect><rect x="21.85" y="28.597" width="2.385" height="2.384" fill="#1334d6" data-fill-palette-color="accent"></rect><rect x="25.219" y="28.597" width="2.386" height="2.384" fill="#1334d6" data-fill-palette-color="accent"></rect><rect x="31.959" y="28.597" width="2.385" height="2.384" fill="#1334d6" data-fill-palette-color="accent"></rect><rect x="35.328" y="28.597" width="2.386" height="2.384" fill="#1334d6" data-fill-palette-color="accent"></rect><rect x="38.698" y="28.597" width="2.385" height="2.384" fill="#1334d6" data-fill-palette-color="accent"></rect><rect x="58.916" y="28.597" width="2.385" height="2.384" fill="#1334d6" data-fill-palette-color="accent"></rect><rect x="65.656" y="28.597" width="2.385" height="2.384" fill="#1334d6" data-fill-palette-color="accent"></rect><rect x="69.025" y="28.597" width="2.387" height="2.384" fill="#1334d6" data-fill-palette-color="accent"></rect><rect x="72.396" y="28.597" width="2.385" height="2.384" fill="#1334d6" data-fill-palette-color="accent"></rect><rect x="75.766" y="28.597" width="2.385" height="2.384" fill="#1334d6" data-fill-palette-color="accent"></rect><rect x="79.137" y="28.597" width="2.385" height="2.384" fill="#1334d6" data-fill-palette-color="accent"></rect><rect x="82.506" y="28.597" width="2.385" height="2.384" fill="#1334d6" data-fill-palette-color="accent"></rect></g><g fill="#1334d6" data-fill-palette-color="accent"><rect x="5" y="31.966" width="2.386" height="2.384" fill="#1334d6" data-fill-palette-color="accent"></rect><rect x="8.37" y="31.966" width="2.385" height="2.384" fill="#1334d6" data-fill-palette-color="accent"></rect><rect x="11.74" y="31.966" width="2.385" height="2.384" fill="#1334d6" data-fill-palette-color="accent"></rect><rect x="15.109" y="31.966" width="2.386" height="2.384" fill="#1334d6" data-fill-palette-color="accent"></rect><rect x="18.479" y="31.966" width="2.385" height="2.384" fill="#1334d6" data-fill-palette-color="accent"></rect><rect x="21.85" y="31.966" width="2.385" height="2.384" fill="#1334d6" data-fill-palette-color="accent"></rect><rect x="25.219" y="31.966" width="2.386" height="2.384" fill="#1334d6" data-fill-palette-color="accent"></rect><rect x="28.589" y="31.966" width="2.385" height="2.384" fill="#1334d6" data-fill-palette-color="accent"></rect><rect x="35.328" y="31.966" width="2.386" height="2.384" fill="#1334d6" data-fill-palette-color="accent"></rect><rect x="38.698" y="31.966" width="2.385" height="2.384" fill="#1334d6" data-fill-palette-color="accent"></rect><rect x="52.178" y="31.966" width="2.385" height="2.384" fill="#1334d6" data-fill-palette-color="accent"></rect><rect x="55.547" y="31.966" width="2.385" height="2.384" fill="#1334d6" data-fill-palette-color="accent"></rect><rect x="58.916" y="31.966" width="2.385" height="2.384" fill="#1334d6" data-fill-palette-color="accent"></rect><rect x="62.287" y="31.966" width="2.385" height="2.384" fill="#1334d6" data-fill-palette-color="accent"></rect><rect x="65.656" y="31.966" width="2.385" height="2.384" fill="#1334d6" data-fill-palette-color="accent"></rect><rect x="69.025" y="31.966" width="2.387" height="2.384" fill="#1334d6" data-fill-palette-color="accent"></rect><rect x="72.396" y="31.966" width="2.385" height="2.384" fill="#1334d6" data-fill-palette-color="accent"></rect><rect x="75.766" y="31.966" width="2.385" height="2.384" fill="#1334d6" data-fill-palette-color="accent"></rect><rect x="79.137" y="31.966" width="2.385" height="2.384" fill="#1334d6" data-fill-palette-color="accent"></rect><rect x="82.506" y="31.966" width="2.385" height="2.384" fill="#1334d6" data-fill-palette-color="accent"></rect><rect x="85.875" y="31.966" width="2.385" height="2.384" fill="#1334d6" data-fill-palette-color="accent"></rect><rect x="89.246" y="31.966" width="2.385" height="2.384" fill="#1334d6" data-fill-palette-color="accent"></rect></g><g fill="#1334d6" data-fill-palette-color="accent"><rect x="5" y="35.334" width="2.386" height="2.384" fill="#1334d6" data-fill-palette-color="accent"></rect><rect x="8.37" y="35.334" width="2.385" height="2.384" fill="#1334d6" data-fill-palette-color="accent"></rect><rect x="11.74" y="35.334" width="2.385" height="2.384" fill="#1334d6" data-fill-palette-color="accent"></rect><rect x="15.109" y="35.334" width="2.386" height="2.384" fill="#1334d6" data-fill-palette-color="accent"></rect><rect x="18.479" y="35.334" width="2.385" height="2.384" fill="#1334d6" data-fill-palette-color="accent"></rect><rect x="21.85" y="35.334" width="2.385" height="2.384" fill="#1334d6" data-fill-palette-color="accent"></rect><rect x="25.219" y="35.334" width="2.386" height="2.384" fill="#1334d6" data-fill-palette-color="accent"></rect><rect x="28.589" y="35.334" width="2.385" height="2.384" fill="#1334d6" data-fill-palette-color="accent"></rect><rect x="35.328" y="35.334" width="2.386" height="2.384" fill="#1334d6" data-fill-palette-color="accent"></rect><rect x="42.068" y="35.334" width="2.385" height="2.384" fill="#1334d6" data-fill-palette-color="accent"></rect><rect x="48.808" y="35.334" width="2.383" height="2.384" fill="#1334d6" data-fill-palette-color="accent"></rect><rect x="52.178" y="35.334" width="2.385" height="2.384" fill="#1334d6" data-fill-palette-color="accent"></rect><rect x="55.547" y="35.334" width="2.385" height="2.384" fill="#1334d6" data-fill-palette-color="accent"></rect><rect x="58.916" y="35.334" width="2.385" height="2.384" fill="#1334d6" data-fill-palette-color="accent"></rect><rect x="62.287" y="35.334" width="2.385" height="2.384" fill="#1334d6" data-fill-palette-color="accent"></rect><rect x="65.656" y="35.334" width="2.385" height="2.384" fill="#1334d6" data-fill-palette-color="accent"></rect><rect x="69.025" y="35.334" width="2.387" height="2.384" fill="#1334d6" data-fill-palette-color="accent"></rect><rect x="72.396" y="35.334" width="2.385" height="2.384" fill="#1334d6" data-fill-palette-color="accent"></rect><rect x="75.766" y="35.334" width="2.385" height="2.384" fill="#1334d6" data-fill-palette-color="accent"></rect><rect x="79.137" y="35.334" width="2.385" height="2.384" fill="#1334d6" data-fill-palette-color="accent"></rect><rect x="82.506" y="35.334" width="2.385" height="2.384" fill="#1334d6" data-fill-palette-color="accent"></rect><rect x="85.875" y="35.334" width="2.385" height="2.384" fill="#1334d6" data-fill-palette-color="accent"></rect><rect x="89.246" y="35.334" width="2.385" height="2.384" fill="#1334d6" data-fill-palette-color="accent"></rect><rect x="92.615" y="35.334" width="2.385" height="2.384" fill="#1334d6" data-fill-palette-color="accent"></rect></g><g fill="#1334d6" data-fill-palette-color="accent"><rect x="5" y="38.702" width="2.386" height="2.384" fill="#1334d6" data-fill-palette-color="accent"></rect><rect x="8.37" y="38.702" width="2.385" height="2.384" fill="#1334d6" data-fill-palette-color="accent"></rect><rect x="11.74" y="38.702" width="2.385" height="2.384" fill="#1334d6" data-fill-palette-color="accent"></rect><rect x="15.109" y="38.702" width="2.386" height="2.384" fill="#1334d6" data-fill-palette-color="accent"></rect><rect x="18.479" y="38.702" width="2.385" height="2.384" fill="#1334d6" data-fill-palette-color="accent"></rect><rect x="21.85" y="38.702" width="2.385" height="2.384" fill="#1334d6" data-fill-palette-color="accent"></rect><rect x="25.219" y="38.702" width="2.386" height="2.384" fill="#1334d6" data-fill-palette-color="accent"></rect><rect x="28.589" y="38.702" width="2.385" height="2.384" fill="#1334d6" data-fill-palette-color="accent"></rect><rect x="45.438" y="38.702" width="2.386" height="2.384" fill="#1334d6" data-fill-palette-color="accent"></rect><rect x="48.808" y="38.702" width="2.383" height="2.384" fill="#1334d6" data-fill-palette-color="accent"></rect><rect x="52.178" y="38.702" width="2.385" height="2.384" fill="#1334d6" data-fill-palette-color="accent"></rect><rect x="55.547" y="38.702" width="2.385" height="2.384" fill="#1334d6" data-fill-palette-color="accent"></rect><rect x="58.916" y="38.702" width="2.385" height="2.384" fill="#1334d6" data-fill-palette-color="accent"></rect><rect x="62.287" y="38.702" width="2.385" height="2.384" fill="#1334d6" data-fill-palette-color="accent"></rect><rect x="65.656" y="38.702" width="2.385" height="2.384" fill="#1334d6" data-fill-palette-color="accent"></rect><rect x="69.025" y="38.702" width="2.387" height="2.384" fill="#1334d6" data-fill-palette-color="accent"></rect><rect x="72.396" y="38.702" width="2.385" height="2.384" fill="#1334d6" data-fill-palette-color="accent"></rect><rect x="75.766" y="38.702" width="2.385" height="2.384" fill="#1334d6" data-fill-palette-color="accent"></rect><rect x="79.137" y="38.702" width="2.385" height="2.384" fill="#1334d6" data-fill-palette-color="accent"></rect><rect x="82.506" y="38.702" width="2.385" height="2.384" fill="#1334d6" data-fill-palette-color="accent"></rect><rect x="85.875" y="38.702" width="2.385" height="2.384" fill="#1334d6" data-fill-palette-color="accent"></rect></g><g fill="#1334d6" data-fill-palette-color="accent"><rect x="15.109" y="42.071" width="2.386" height="2.384" fill="#1334d6" data-fill-palette-color="accent"></rect><rect x="18.479" y="42.071" width="2.385" height="2.384" fill="#1334d6" data-fill-palette-color="accent"></rect><rect x="21.85" y="42.071" width="2.385" height="2.384" fill="#1334d6" data-fill-palette-color="accent"></rect><rect x="25.219" y="42.071" width="2.386" height="2.384" fill="#1334d6" data-fill-palette-color="accent"></rect><rect x="28.589" y="42.071" width="2.385" height="2.384" fill="#1334d6" data-fill-palette-color="accent"></rect><rect x="31.959" y="42.071" width="2.385" height="2.384" fill="#1334d6" data-fill-palette-color="accent"></rect><rect x="45.438" y="42.071" width="2.386" height="2.384" fill="#1334d6" data-fill-palette-color="accent"></rect><rect x="48.808" y="42.071" width="2.383" height="2.384" fill="#1334d6" data-fill-palette-color="accent"></rect><rect x="52.178" y="42.071" width="2.385" height="2.384" fill="#1334d6" data-fill-palette-color="accent"></rect><rect x="55.547" y="42.071" width="2.385" height="2.384" fill="#1334d6" data-fill-palette-color="accent"></rect><rect x="58.916" y="42.071" width="2.385" height="2.384" fill="#1334d6" data-fill-palette-color="accent"></rect><rect x="62.287" y="42.071" width="2.385" height="2.384" fill="#1334d6" data-fill-palette-color="accent"></rect><rect x="65.656" y="42.071" width="2.385" height="2.384" fill="#1334d6" data-fill-palette-color="accent"></rect><rect x="69.025" y="42.071" width="2.387" height="2.384" fill="#1334d6" data-fill-palette-color="accent"></rect><rect x="72.396" y="42.071" width="2.385" height="2.384" fill="#1334d6" data-fill-palette-color="accent"></rect><rect x="75.766" y="42.071" width="2.385" height="2.384" fill="#1334d6" data-fill-palette-color="accent"></rect><rect x="79.137" y="42.071" width="2.385" height="2.384" fill="#1334d6" data-fill-palette-color="accent"></rect><rect x="85.875" y="42.071" width="2.385" height="2.384" fill="#1334d6" data-fill-palette-color="accent"></rect></g><g fill="#1334d6" data-fill-palette-color="accent"><rect x="15.109" y="45.44" width="2.386" height="2.384" fill="#1334d6" data-fill-palette-color="accent"></rect><rect x="18.479" y="45.44" width="2.385" height="2.384" fill="#1334d6" data-fill-palette-color="accent"></rect><rect x="21.85" y="45.44" width="2.385" height="2.384" fill="#1334d6" data-fill-palette-color="accent"></rect><rect x="25.219" y="45.44" width="2.386" height="2.384" fill="#1334d6" data-fill-palette-color="accent"></rect><rect x="28.589" y="45.44" width="2.385" height="2.384" fill="#1334d6" data-fill-palette-color="accent"></rect><rect x="45.438" y="45.44" width="2.386" height="2.384" fill="#1334d6" data-fill-palette-color="accent"></rect><rect x="52.178" y="45.44" width="2.385" height="2.384" fill="#1334d6" data-fill-palette-color="accent"></rect><rect x="55.547" y="45.44" width="2.385" height="2.384" fill="#1334d6" data-fill-palette-color="accent"></rect><rect x="58.916" y="45.44" width="2.385" height="2.384" fill="#1334d6" data-fill-palette-color="accent"></rect><rect x="62.287" y="45.44" width="2.385" height="2.384" fill="#1334d6" data-fill-palette-color="accent"></rect><rect x="65.656" y="45.44" width="2.385" height="2.384" fill="#1334d6" data-fill-palette-color="accent"></rect><rect x="69.025" y="45.44" width="2.387" height="2.384" fill="#1334d6" data-fill-palette-color="accent"></rect><rect x="72.396" y="45.44" width="2.385" height="2.384" fill="#1334d6" data-fill-palette-color="accent"></rect><rect x="75.766" y="45.44" width="2.385" height="2.384" fill="#1334d6" data-fill-palette-color="accent"></rect><rect x="79.137" y="45.44" width="2.385" height="2.384" fill="#1334d6" data-fill-palette-color="accent"></rect><rect x="82.506" y="45.44" width="2.385" height="2.384" fill="#1334d6" data-fill-palette-color="accent"></rect></g><g fill="#1334d6" data-fill-palette-color="accent"><rect x="18.479" y="48.809" width="2.385" height="2.382" fill="#1334d6" data-fill-palette-color="accent"></rect><rect x="21.85" y="48.809" width="2.385" height="2.382" fill="#1334d6" data-fill-palette-color="accent"></rect><rect x="25.219" y="48.809" width="2.386" height="2.382" fill="#1334d6" data-fill-palette-color="accent"></rect><rect x="42.068" y="48.809" width="2.385" height="2.382" fill="#1334d6" data-fill-palette-color="accent"></rect><rect x="45.438" y="48.809" width="2.386" height="2.382" fill="#1334d6" data-fill-palette-color="accent"></rect><rect x="48.808" y="48.809" width="2.383" height="2.382" fill="#1334d6" data-fill-palette-color="accent"></rect><rect x="52.178" y="48.809" width="2.385" height="2.382" fill="#1334d6" data-fill-palette-color="accent"></rect><rect x="55.547" y="48.809" width="2.385" height="2.382" fill="#1334d6" data-fill-palette-color="accent"></rect><rect x="58.916" y="48.809" width="2.385" height="2.382" fill="#1334d6" data-fill-palette-color="accent"></rect><rect x="62.287" y="48.809" width="2.385" height="2.382" fill="#1334d6" data-fill-palette-color="accent"></rect><rect x="65.656" y="48.809" width="2.385" height="2.382" fill="#1334d6" data-fill-palette-color="accent"></rect><rect x="69.025" y="48.809" width="2.387" height="2.382" fill="#1334d6" data-fill-palette-color="accent"></rect><rect x="72.396" y="48.809" width="2.385" height="2.382" fill="#1334d6" data-fill-palette-color="accent"></rect><rect x="75.766" y="48.809" width="2.385" height="2.382" fill="#1334d6" data-fill-palette-color="accent"></rect><rect x="79.137" y="48.809" width="2.385" height="2.382" fill="#1334d6" data-fill-palette-color="accent"></rect></g><g fill="#1334d6" data-fill-palette-color="accent"><rect x="21.85" y="52.178" width="2.385" height="2.383" fill="#1334d6" data-fill-palette-color="accent"></rect><rect x="25.219" y="52.178" width="2.386" height="2.383" fill="#1334d6" data-fill-palette-color="accent"></rect><rect x="28.589" y="52.178" width="2.385" height="2.383" fill="#1334d6" data-fill-palette-color="accent"></rect><rect x="42.068" y="52.178" width="2.385" height="2.383" fill="#1334d6" data-fill-palette-color="accent"></rect><rect x="45.438" y="52.178" width="2.386" height="2.383" fill="#1334d6" data-fill-palette-color="accent"></rect><rect x="48.808" y="52.178" width="2.383" height="2.383" fill="#1334d6" data-fill-palette-color="accent"></rect><rect x="52.178" y="52.178" width="2.385" height="2.383" fill="#1334d6" data-fill-palette-color="accent"></rect><rect x="55.547" y="52.178" width="2.385" height="2.383" fill="#1334d6" data-fill-palette-color="accent"></rect><rect x="58.916" y="52.178" width="2.385" height="2.383" fill="#1334d6" data-fill-palette-color="accent"></rect><rect x="65.656" y="52.178" width="2.385" height="2.383" fill="#1334d6" data-fill-palette-color="accent"></rect><rect x="72.396" y="52.178" width="2.385" height="2.383" fill="#1334d6" data-fill-palette-color="accent"></rect><rect x="75.766" y="52.178" width="2.385" height="2.383" fill="#1334d6" data-fill-palette-color="accent"></rect></g><g fill="#1334d6" data-fill-palette-color="accent"><rect x="28.589" y="55.547" width="2.385" height="2.383" fill="#1334d6" data-fill-palette-color="accent"></rect><rect x="31.959" y="55.547" width="2.385" height="2.383" fill="#1334d6" data-fill-palette-color="accent"></rect><rect x="45.438" y="55.547" width="2.386" height="2.383" fill="#1334d6" data-fill-palette-color="accent"></rect><rect x="48.808" y="55.547" width="2.383" height="2.383" fill="#1334d6" data-fill-palette-color="accent"></rect><rect x="52.178" y="55.547" width="2.385" height="2.383" fill="#1334d6" data-fill-palette-color="accent"></rect><rect x="55.547" y="55.547" width="2.385" height="2.383" fill="#1334d6" data-fill-palette-color="accent"></rect></g><g fill="#1334d6" data-fill-palette-color="accent"><rect x="25.219" y="58.914" width="2.386" height="2.385" fill="#1334d6" data-fill-palette-color="accent"></rect><rect x="28.589" y="58.914" width="2.385" height="2.385" fill="#1334d6" data-fill-palette-color="accent"></rect><rect x="31.959" y="58.914" width="2.385" height="2.385" fill="#1334d6" data-fill-palette-color="accent"></rect><rect x="35.328" y="58.914" width="2.386" height="2.385" fill="#1334d6" data-fill-palette-color="accent"></rect><rect x="48.808" y="58.914" width="2.383" height="2.385" fill="#1334d6" data-fill-palette-color="accent"></rect><rect x="52.178" y="58.914" width="2.385" height="2.385" fill="#1334d6" data-fill-palette-color="accent"></rect><rect x="55.547" y="58.914" width="2.385" height="2.385" fill="#1334d6" data-fill-palette-color="accent"></rect><rect x="72.396" y="58.914" width="2.385" height="2.385" fill="#1334d6" data-fill-palette-color="accent"></rect><rect x="75.766" y="58.914" width="2.385" height="2.385" fill="#1334d6" data-fill-palette-color="accent"></rect><rect x="79.137" y="58.914" width="2.385" height="2.385" fill="#1334d6" data-fill-palette-color="accent"></rect><rect x="82.506" y="58.914" width="2.385" height="2.385" fill="#1334d6" data-fill-palette-color="accent"></rect></g><g fill="#1334d6" data-fill-palette-color="accent"><rect x="28.589" y="62.283" width="2.385" height="2.383" fill="#1334d6" data-fill-palette-color="accent"></rect><rect x="31.959" y="62.283" width="2.385" height="2.383" fill="#1334d6" data-fill-palette-color="accent"></rect><rect x="35.328" y="62.283" width="2.386" height="2.383" fill="#1334d6" data-fill-palette-color="accent"></rect><rect x="48.808" y="62.283" width="2.383" height="2.383" fill="#1334d6" data-fill-palette-color="accent"></rect><rect x="52.178" y="62.283" width="2.385" height="2.383" fill="#1334d6" data-fill-palette-color="accent"></rect><rect x="58.916" y="62.283" width="2.385" height="2.383" fill="#1334d6" data-fill-palette-color="accent"></rect><rect x="75.766" y="62.283" width="2.385" height="2.383" fill="#1334d6" data-fill-palette-color="accent"></rect><rect x="79.137" y="62.283" width="2.385" height="2.383" fill="#1334d6" data-fill-palette-color="accent"></rect><rect x="82.506" y="62.283" width="2.385" height="2.383" fill="#1334d6" data-fill-palette-color="accent"></rect><rect x="85.875" y="62.283" width="2.385" height="2.383" fill="#1334d6" data-fill-palette-color="accent"></rect></g><g fill="#1334d6" data-fill-palette-color="accent"><rect x="28.589" y="65.652" width="2.385" height="2.383" fill="#1334d6" data-fill-palette-color="accent"></rect><rect x="31.959" y="65.652" width="2.385" height="2.383" fill="#1334d6" data-fill-palette-color="accent"></rect><rect x="52.178" y="65.652" width="2.385" height="2.383" fill="#1334d6" data-fill-palette-color="accent"></rect><rect x="75.766" y="65.652" width="2.385" height="2.383" fill="#1334d6" data-fill-palette-color="accent"></rect><rect x="79.137" y="65.652" width="2.385" height="2.383" fill="#1334d6" data-fill-palette-color="accent"></rect><rect x="82.506" y="65.652" width="2.385" height="2.383" fill="#1334d6" data-fill-palette-color="accent"></rect></g><g fill="#1334d6" data-fill-palette-color="accent"><rect x="28.589" y="69.02" width="2.385" height="2.387" fill="#1334d6" data-fill-palette-color="accent"></rect><rect x="89.246" y="69.02" width="2.385" height="2.387" fill="#1334d6" data-fill-palette-color="accent"></rect></g><g fill="#1334d6" data-fill-palette-color="accent"><rect x="28.589" y="72.389" width="2.385" height="2.383" fill="#1334d6" data-fill-palette-color="accent"></rect></g></g></g></svg></g></svg></g></svg></g></svg></g></svg></g></svg></g><defs></defs></svg><rect width="95.481" height="52.56016869999999" fill="none" stroke="none" visibility="hidden"></rect></g></svg></g></svg>