<svg xmlns="http://www.w3.org/2000/svg" version="1.1" xmlns:xlink="http://www.w3.org/1999/xlink" xmlns:svgjs="http://svgjs.dev/svgjs" width="2000" height="469" viewBox="0 0 2000 469"><g transform="matrix(1,0,0,1,-1.2121212121212466,-2.166103371153355)"><svg viewBox="0 0 396 93" data-background-color="#121212" preserveAspectRatio="xMidYMid meet" height="469" width="2000" xmlns="http://www.w3.org/2000/svg" xmlns:xlink="http://www.w3.org/1999/xlink"><g id="tight-bounds" transform="matrix(1,0,0,1,0.2400000000000091,0.42952582839501474)"><svg viewBox="0 0 395.52 92.14094834320996" height="92.14094834320996" width="395.52"><g><svg viewBox="0 0 699.662045988968 162.99434778816266" height="92.14094834320996" width="395.52"><g transform="matrix(1,0,0,1,304.14204598896794,40.545466478258184)"><svg viewBox="0 0 395.52 81.90341483164629" height="81.90341483164629" width="395.52"><g id="textblocktransform"><svg viewBox="0 0 395.52 81.90341483164629" height="81.90341483164629" width="395.52" id="textblock"><g><svg viewBox="0 0 395.52 39.77568740359898" height="39.77568740359898" width="395.52"><g transform="matrix(1,0,0,1,0,0)"><svg width="395.52" viewBox="-3.75 -39.05 487.21 49.9" height="39.77568740359898" data-palette-color="#ffffff"><path d="M10.5-34.45L10.5-4.8Q10.5 0.3 8.28 2.85 6.05 5.4 1.5 6.85L1.5 6.85 0.25 3.4Q2.55 2.5 3.7 1.45 4.85 0.4 5.3-1.1 5.75-2.6 5.75-5L5.75-5 5.75-34.45 10.5-34.45ZM32.55-35.05Q36.9-35.05 40.17-32.98 43.45-30.9 45.27-26.9 47.1-22.9 47.1-17.2L47.1-17.2Q47.1-11.6 45.27-7.6 43.45-3.6 40.17-1.5 36.9 0.6 32.55 0.6L32.55 0.6Q28.2 0.6 24.92-1.45 21.65-3.5 19.82-7.5 18-11.5 18-17.15L18-17.15Q18-22.7 19.82-26.75 21.65-30.8 24.95-32.93 28.25-35.05 32.55-35.05L32.55-35.05ZM32.55-31.15Q28.05-31.15 25.55-27.75 23.05-24.35 23.05-17.15L23.05-17.15Q23.05-10 25.57-6.65 28.1-3.3 32.55-3.3L32.55-3.3Q42.05-3.3 42.05-17.2L42.05-17.2Q42.05-31.15 32.55-31.15L32.55-31.15ZM54.85-34.45L73.5-34.45 72.95-30.65 59.6-30.65 59.6-19.4 71.2-19.4 71.2-15.6 59.6-15.6 59.6-3.8 73.9-3.8 73.9 0 54.85 0 54.85-34.45ZM122.79-34.45L125.64 0 121.04 0 119.84-15.55Q119.09-24.7 118.99-29.6L118.99-29.6 111.54-3.9 107.09-3.9 99.24-29.65Q99.24-23.4 98.59-15.2L98.59-15.2 97.44 0 92.94 0 95.79-34.45 102.19-34.45 109.44-9.4 116.34-34.45 122.79-34.45ZM133.74-34.45L152.39-34.45 151.84-30.65 138.49-30.65 138.49-19.4 150.09-19.4 150.09-15.6 138.49-15.6 138.49-3.8 152.79-3.8 152.79 0 133.74 0 133.74-34.45ZM184.64-34.45L184.64 0 178.29 0 164.29-29.25Q164.59-25.8 164.76-22.88 164.94-19.95 164.94-15.8L164.94-15.8 164.94 0 160.49 0 160.49-34.45 166.69-34.45 180.84-5.15Q180.69-6.45 180.44-9.7 180.19-12.95 180.19-15.65L180.19-15.65 180.19-34.45 184.64-34.45ZM201.83-34.45Q209.63-34.45 214.36-30.83 219.08-27.2 219.08-17.4L219.08-17.4Q219.08-7.85 214.36-3.93 209.63 0 202.88 0L202.88 0 194.63 0 194.63-34.45 201.83-34.45ZM202.88-30.65L199.38-30.65 199.38-3.75 203.23-3.75Q208.03-3.75 211.03-6.7 214.03-9.65 214.03-17.4L214.03-17.4Q214.03-22.85 212.48-25.78 210.93-28.7 208.53-29.68 206.13-30.65 202.88-30.65L202.88-30.65ZM226.83-34.45L245.48-34.45 244.93-30.65 231.58-30.65 231.58-19.4 243.18-19.4 243.18-15.6 231.58-15.6 231.58-3.8 245.88-3.8 245.88 0 226.83 0 226.83-34.45ZM251.88-34.45L272.43-34.45 272.43-30.6 255.38-4.05 272.43-4.05 271.88 0 250.08 0 250.08-3.8 267.28-30.45 251.88-30.45 251.88-34.45ZM291.83-13.7L277.68-13.7 277.68-17.6 291.83-17.6 291.83-13.7ZM323.82 0L319.07 0 319.07-16.15 304.57-16.15 304.57 0 299.82 0 299.82-34.45 304.57-34.45 304.57-20.05 319.07-20.05 319.07-34.45 323.82-34.45 323.82 0ZM357.42-34.45L357.42-11.05Q357.42-7.6 356-4.98 354.57-2.35 351.85-0.88 349.12 0.6 345.32 0.6L345.32 0.6Q339.57 0.6 336.45-2.58 333.32-5.75 333.32-11.05L333.32-11.05 333.32-34.45 338.07-34.45 338.07-11.4Q338.07-7.4 339.87-5.4 341.67-3.4 345.32-3.4L345.32-3.4Q349.02-3.4 350.82-5.38 352.62-7.35 352.62-11.4L352.62-11.4 352.62-34.45 357.42-34.45ZM379.62-35.05Q382.87-35.05 385.24-34.13 387.62-33.2 389.97-31.25L389.97-31.25 387.17-28.35Q385.32-29.85 383.62-30.5 381.92-31.15 379.62-31.15L379.62-31.15Q376.97-31.15 374.74-29.73 372.52-28.3 371.12-25.18 369.72-22.05 369.72-17.25L369.72-17.25Q369.72-10 372.09-6.65 374.47-3.3 379.12-3.3L379.12-3.3Q382.92-3.3 385.67-4.85L385.67-4.85 385.67-15.25 379.57-15.25 379.02-19.1 390.37-19.1 390.37-2.45Q385.02 0.6 379.12 0.6L379.12 0.6Q372.32 0.6 368.49-3.95 364.67-8.5 364.67-17.25L364.67-17.25Q364.67-22.85 366.69-26.88 368.72-30.9 372.14-32.98 375.57-35.05 379.62-35.05L379.62-35.05ZM422.47 0L417.72 0 417.72-16.15 403.22-16.15 403.22 0 398.47 0 398.47-34.45 403.22-34.45 403.22-20.05 417.72-20.05 417.72-34.45 422.47-34.45 422.47 0ZM432.46-34.45L451.11-34.45 450.56-30.65 437.21-30.65 437.21-19.4 448.81-19.4 448.81-15.6 437.21-15.6 437.21-3.8 451.51-3.8 451.51 0 432.46 0 432.46-34.45ZM467.71-35.05Q471.16-35.05 473.61-34.08 476.06-33.1 478.36-31.05L478.36-31.05 475.76-28.15Q473.81-29.7 471.94-30.43 470.06-31.15 467.91-31.15L467.91-31.15Q465.21-31.15 463.46-29.9 461.71-28.65 461.71-26.25L461.71-26.25Q461.71-24.75 462.31-23.73 462.91-22.7 464.54-21.85 466.16-21 469.26-20.05L469.26-20.05Q472.51-19.05 474.66-17.9 476.81-16.75 478.14-14.73 479.46-12.7 479.46-9.6L479.46-9.6Q479.46-6.6 477.99-4.3 476.51-2 473.74-0.7 470.96 0.6 467.16 0.6L467.16 0.6Q460.01 0.6 455.46-3.85L455.46-3.85 458.06-6.75Q460.16-5.05 462.31-4.17 464.46-3.3 467.11-3.3L467.11-3.3Q470.31-3.3 472.41-4.88 474.51-6.45 474.51-9.45L474.51-9.45Q474.51-11.15 473.86-12.28 473.21-13.4 471.64-14.3 470.06-15.2 467.06-16.1L467.06-16.1Q461.76-17.7 459.31-19.95 456.86-22.2 456.86-26.05L456.86-26.05Q456.86-28.65 458.24-30.7 459.61-32.75 462.09-33.9 464.56-35.05 467.71-35.05L467.71-35.05Z" opacity="1" transform="matrix(1,0,0,1,0,0)" fill="#ffffff" class="wordmark-text-0" data-fill-palette-color="primary" id="text-0"></path></svg></g></svg></g><g transform="matrix(1,0,0,1,3.5,47.82158861056659)"><svg viewBox="0 0 388.52 34.081826221079695" height="34.081826221079695" width="388.52"><g transform="matrix(1,0,0,1,0,0)"><svg width="388.52" viewBox="-4.05 -43 648.91 57.8" height="34.081826221079695" data-palette-color="#ffffff"><path d="M16.2-35.05Q19.45-35.05 21.9-34 24.35-32.95 26.35-30.9L26.35-30.9 23.4-28.15Q21.8-29.75 20.08-30.45 18.35-31.15 16.2-31.15L16.2-31.15Q13.15-31.15 11.15-29.65 9.15-28.15 9.15-25.55L9.15-25.55Q9.15-23.55 10.5-22.35 11.85-21.15 15.6-19.9L15.6-19.9Q19.9-18.55 22.25-16.5 24.6-14.45 24.6-10.45L24.6-10.45Q24.6-7.65 23.13-5.13 21.65-2.6 18.63-1 15.6 0.6 11.1 0.6L11.1 0.6Q4 0.6-0.05-4L-0.05-4 2.95-6.8Q4.55-5.05 6.55-4.17 8.55-3.3 11.2-3.3L11.2-3.3Q15.05-3.3 17.38-5.18 19.7-7.05 19.7-10.2L19.7-10.2Q19.7-12.4 18.32-13.68 16.95-14.95 13.35-16.2L13.35-16.2Q8.65-17.85 6.5-19.83 4.35-21.8 4.35-25.3L4.35-25.3Q4.35-27.65 5.75-29.9 7.15-32.15 9.83-33.6 12.5-35.05 16.2-35.05L16.2-35.05ZM46.46-26.95Q48.91-26.95 51.13-26.4 53.36-25.85 55.71-24.7L55.71-24.7 53.01-6Q52.91-5.2 52.91-4.9L52.91-4.9Q52.91-4 53.28-3.45 53.66-2.9 54.61-2.55L54.61-2.55 53.31 0.6Q51.21 0.35 50.06-0.7 48.91-1.75 48.66-3.8L48.66-3.8Q47.06-1.75 45.06-0.58 43.06 0.6 40.81 0.6L40.81 0.6Q36.81 0.6 34.61-2.15 32.41-4.9 32.41-9.5L32.41-9.5Q32.41-13.5 33.88-17.5 35.36-21.5 38.51-24.23 41.66-26.95 46.46-26.95L46.46-26.95ZM46.56-23.3Q43.41-23.3 41.33-21.18 39.26-19.05 38.28-15.88 37.31-12.7 37.31-9.45L37.31-9.45Q37.31-6.2 38.46-4.63 39.61-3.05 41.76-3.05L41.76-3.05Q43.81-3.05 45.43-4.3 47.06-5.55 48.81-7.9L48.81-7.9 50.86-22.45Q49.81-22.9 48.83-23.1 47.86-23.3 46.56-23.3L46.56-23.3ZM82.01-26.35L87.01-26.35 74.41 0 68.96 0 63.66-26.35 68.61-26.35 72.21-4.15 82.01-26.35ZM95.12-26.35L99.67-26.35 95.97 0 91.42 0 95.12-26.35ZM98.47-32.75Q97.12-32.75 96.32-33.58 95.52-34.4 95.52-35.6L95.52-35.6Q95.52-37.05 96.52-38.02 97.52-39 98.97-39L98.97-39Q100.32-39 101.12-38.2 101.92-37.4 101.92-36.15L101.92-36.15Q101.92-34.7 100.92-33.73 99.92-32.75 98.47-32.75L98.47-32.75ZM124.68-26.95Q127.58-26.95 129.25-25.18 130.93-23.4 130.93-20.3L130.93-20.3Q130.93-19.5 130.78-18.5L130.78-18.5 128.18 0 123.63 0 126.23-18.4Q126.33-19.5 126.33-19.85L126.33-19.85Q126.33-21.6 125.58-22.35 124.83-23.1 123.43-23.1L123.43-23.1Q121.13-23.1 119-21.05 116.88-19 115.08-15.8L115.08-15.8 112.88 0 108.33 0 112.03-26.35 115.93-26.35 115.53-21.2Q117.48-23.95 119.73-25.45 121.98-26.95 124.68-26.95L124.68-26.95ZM154.28-26.95Q156.78-26.95 159.01-26.4 161.23-25.85 163.58-24.7L163.58-24.7 159.93-0.6Q159.03 5.45 155.93 8.13 152.83 10.8 147.88 10.8L147.88 10.8Q145.53 10.8 143.11 10.1 140.68 9.4 138.78 8.25L138.78 8.25 140.53 4.75Q141.98 5.6 143.86 6.23 145.73 6.85 147.63 6.85L147.63 6.85Q150.78 6.85 152.83 5.3 154.88 3.75 155.48-0.65L155.48-0.65 155.93-4Q154.38-2.15 152.46-1.07 150.53 0 148.43 0L148.43 0Q144.48 0 142.23-2.68 139.98-5.35 139.98-9.9L139.98-9.9Q139.98-14.15 141.48-18.05 142.98-21.95 146.18-24.45 149.38-26.95 154.28-26.95L154.28-26.95ZM154.28-23.3Q151.13-23.3 149.01-21.35 146.88-19.4 145.88-16.32 144.88-13.25 144.88-9.85L144.88-9.85Q144.88-6.7 146.08-5.18 147.28-3.65 149.38-3.65L149.38-3.65Q151.38-3.65 153.11-4.95 154.83-6.25 156.58-8.6L156.58-8.6 158.73-22.45Q157.58-22.9 156.58-23.1 155.58-23.3 154.28-23.3L154.28-23.3ZM196.15-22.8L193.95-6.95Q193.85-5.95 193.85-5.65L193.85-5.65Q193.85-4.4 194.42-3.83 195-3.25 196.2-3.25L196.2-3.25Q197.1-3.25 197.97-3.53 198.85-3.8 200-4.35L200-4.35 201.5-1.15Q198.75 0.6 195.65 0.6L195.65 0.6Q192.6 0.6 190.95-0.98 189.3-2.55 189.3-5.45L189.3-5.45Q189.3-6.5 189.4-7.05L189.4-7.05 191.6-22.8 187.05-22.8 187.55-26.35 192.3-26.35 193.95-32.45 197.55-32.85 196.65-26.35 202.85-26.35 201.85-22.8 196.15-22.8ZM225.05-26.95Q228.05-26.95 229.75-25.2 231.45-23.45 231.45-20.35L231.45-20.35Q231.45-19.25 231.35-18.65L231.35-18.65 228.7 0 224.15 0 226.75-18.4Q226.85-19.5 226.85-19.9L226.85-19.9Q226.85-21.65 226.13-22.38 225.4-23.1 224.1-23.1L224.1-23.1Q221.7-23.1 219.53-21.05 217.35-19 215.55-15.8L215.55-15.8 213.4 0 208.85 0 214.05-36.9 218.65-37.4 216.35-21.4Q220.05-26.95 225.05-26.95L225.05-26.95ZM262.51-20.25Q262.51-15.2 258.01-12.95 253.51-10.7 245.41-9.8L245.41-9.8Q245.56-3.25 251.11-3.25L251.11-3.25Q252.96-3.25 254.66-3.85 256.36-4.45 258.16-5.7L258.16-5.7 260.11-2.6Q255.66 0.6 250.66 0.6L250.66 0.6Q245.86 0.6 243.24-2.23 240.61-5.05 240.61-10.1L240.61-10.1Q240.61-14.05 241.99-17.93 243.36-21.8 246.41-24.38 249.46-26.95 254.16-26.95L254.16-26.95Q258.16-26.95 260.34-25 262.51-23.05 262.51-20.25L262.51-20.25ZM245.66-13.3Q251.86-14 254.79-15.45 257.71-16.9 257.71-20.1L257.71-20.1Q257.71-21.3 256.86-22.3 256.01-23.3 254.11-23.3L254.11-23.3Q250.31-23.3 248.26-20.4 246.21-17.5 245.66-13.3L245.66-13.3ZM321.12-34.45L325.47-34.45 313.67 0 307.62 0 305.42-28.85 295.02 0 289.12 0 287.02-34.45 291.52-34.45 292.72-4.15 303.57-34.45 308.67-34.45 311.12-4.15 321.12-34.45ZM339.38 0.6Q334.53 0.6 331.91-2.3 329.28-5.2 329.28-10.3L329.28-10.3Q329.28-14 330.66-17.82 332.03-21.65 335.08-24.3 338.13-26.95 342.93-26.95L342.93-26.95Q347.78-26.95 350.38-24.05 352.98-21.15 352.98-16.05L352.98-16.05Q352.98-12.4 351.63-8.58 350.28-4.75 347.23-2.08 344.18 0.6 339.38 0.6L339.38 0.6ZM339.53-3.1Q342.68-3.1 344.63-5.28 346.58-7.45 347.38-10.53 348.18-13.6 348.18-16.55L348.18-16.55Q348.18-23.25 342.78-23.25L342.78-23.25Q339.63-23.25 337.68-21.08 335.73-18.9 334.91-15.83 334.08-12.75 334.08-9.8L334.08-9.8Q334.08-3.1 339.53-3.1L339.53-3.1ZM376.34-26.95Q377.59-26.95 378.99-26.6L378.99-26.6 377.64-22.15Q376.69-22.4 375.49-22.4L375.49-22.4Q373.04-22.4 371.21-20.28 369.39-18.15 367.94-13.95L367.94-13.95 365.94 0 361.39 0 365.09-26.35 368.99-26.35 368.69-20.95Q370.14-23.95 372.11-25.45 374.09-26.95 376.34-26.95L376.34-26.95ZM392.99-37.5L388.44-5.15Q388.39-4.9 388.39-4.5L388.39-4.5Q388.39-3.8 388.69-3.5 388.99-3.2 389.64-3.2L389.64-3.2Q390.39-3.2 391.44-3.55L391.44-3.55 392.39-0.25Q390.49 0.6 388.74 0.6L388.74 0.6Q386.44 0.6 385.17-0.65 383.89-1.9 383.89-4.35L383.89-4.35Q383.89-4.8 383.99-5.9L383.99-5.9 388.39-36.95 392.99-37.5ZM421.4-37.4L425.9-36.9 420.7 0 416.7 0 416.75-4.35Q415.3-2 413.3-0.7 411.3 0.6 408.8 0.6L408.8 0.6Q404.8 0.6 402.63-2.2 400.45-5 400.45-9.85L400.45-9.85Q400.45-13.65 401.73-17.6 403-21.55 405.75-24.25 408.5-26.95 412.7-26.95L412.7-26.95Q416.85-26.95 419.45-23.65L419.45-23.65 421.4-37.4ZM413.55-23.3Q410.6-23.3 408.75-21.1 406.9-18.9 406.1-15.73 405.3-12.55 405.3-9.5L405.3-9.5Q405.3-6.25 406.45-4.65 407.6-3.05 409.7-3.05L409.7-3.05Q412-3.05 413.75-4.55 415.5-6.05 417.45-9.15L417.45-9.15 419-20.1Q417.95-21.7 416.65-22.5 415.35-23.3 413.55-23.3L413.55-23.3ZM462.72-33.8Q460.57-33.8 459.47-32.83 458.37-31.85 458.12-29.85L458.12-29.85 457.62-26.35 463.97-26.35 462.97-22.8 457.12-22.8 454.12-1.45Q453.62 2.2 452.44 4.38 451.27 6.55 449.39 7.9 447.52 9.25 444.27 10.65L444.27 10.65 442.97 7.2Q445.07 6.25 446.29 5.35 447.52 4.45 448.34 2.85 449.17 1.25 449.57-1.45L449.57-1.45 452.57-22.8 447.92-22.8 448.42-26.35 453.07-26.35 453.62-30.1Q454.07-33.5 456.42-35.5 458.77-37.5 462.57-37.5L462.57-37.5Q464.37-37.5 465.77-37.05 467.17-36.6 468.77-35.6L468.77-35.6 467.02-32.55Q465.17-33.8 462.72-33.8L462.72-33.8ZM483.32-26.95Q484.57-26.95 485.97-26.6L485.97-26.6 484.62-22.15Q483.67-22.4 482.47-22.4L482.47-22.4Q480.02-22.4 478.2-20.28 476.37-18.15 474.92-13.95L474.92-13.95 472.92 0 468.37 0 472.07-26.35 475.97-26.35 475.67-20.95Q477.12-23.95 479.1-25.45 481.07-26.95 483.32-26.95L483.32-26.95ZM500.23 0.6Q495.38 0.6 492.75-2.3 490.13-5.2 490.13-10.3L490.13-10.3Q490.13-14 491.5-17.82 492.88-21.65 495.93-24.3 498.98-26.95 503.78-26.95L503.78-26.95Q508.63-26.95 511.23-24.05 513.83-21.15 513.83-16.05L513.83-16.05Q513.83-12.4 512.48-8.58 511.13-4.75 508.08-2.08 505.03 0.6 500.23 0.6L500.23 0.6ZM500.38-3.1Q503.53-3.1 505.48-5.28 507.43-7.45 508.23-10.53 509.03-13.6 509.03-16.55L509.03-16.55Q509.03-23.25 503.63-23.25L503.63-23.25Q500.48-23.25 498.53-21.08 496.58-18.9 495.75-15.83 494.93-12.75 494.93-9.8L494.93-9.8Q494.93-3.1 500.38-3.1L500.38-3.1ZM552.44-26.95Q555.09-26.95 556.66-25.18 558.24-23.4 558.24-20.4L558.24-20.4Q558.24-19.3 558.14-18.75L558.14-18.75 555.49 0 550.94 0 553.54-18.4Q553.64-19 553.64-19.95L553.64-19.95Q553.64-21.75 552.89-22.43 552.14-23.1 550.79-23.1L550.79-23.1Q548.89-23.1 547.04-21.13 545.19-19.15 543.34-15.9L543.34-15.9 541.09 0 536.54 0 539.14-18.4Q539.24-19 539.24-19.95L539.24-19.95Q539.24-21.75 538.49-22.43 537.74-23.1 536.39-23.1L536.39-23.1Q534.49-23.1 532.64-21.1 530.79-19.1 528.94-15.8L528.94-15.8 526.79 0 522.24 0 525.94-26.35 529.84-26.35 529.44-21.3Q531.39-24.05 533.46-25.5 535.54-26.95 538.04-26.95L538.04-26.95Q540.24-26.95 541.84-25.55 543.44-24.15 543.79-21.6L543.79-21.6Q545.79-24.25 547.91-25.6 550.04-26.95 552.44-26.95L552.44-26.95ZM606.85 0L602 0 600.65-8.65 587.7-8.65 583.9 0 579.05 0 594.85-34.45 600.8-34.45 606.85 0ZM597.25-30.5L589.35-12.5 600.05-12.5 597.25-30.5ZM619.91-34.45L624.61-34.45 619.76 0 615.06 0 619.91-34.45ZM637.11-11.5L633.06-11.5 635.81-34.45 640.86-34.45 637.11-11.5ZM633.76 0.6Q632.41 0.6 631.54-0.3 630.66-1.2 630.66-2.55L630.66-2.55Q630.66-4.15 631.74-5.25 632.81-6.35 634.36-6.35L634.36-6.35Q635.76-6.35 636.64-5.45 637.51-4.55 637.51-3.2L637.51-3.2Q637.51-1.6 636.41-0.5 635.31 0.6 633.76 0.6L633.76 0.6Z" opacity="1" transform="matrix(1,0,0,1,0,0)" fill="#ffffff" class="slogan-text-1" data-fill-palette-color="secondary" id="text-1"></path></svg></g></svg></g></svg></g></svg></g><g><svg viewBox="0 0 296.09614478200035 162.99434778816266" height="162.99434778816266" width="296.09614478200035"><g><svg xmlns="http://www.w3.org/2000/svg" xmlns:xlink="http://www.w3.org/1999/xlink" version="1.1" x="0" y="0" viewBox="5 25.229 90 49.54299999999999" enable-background="new 0 0 100 100" xml:space="preserve" height="162.99434778816266" width="296.09614478200035" class="icon-icon-0" data-fill-palette-color="accent" id="icon-0"><g fill="#1334d6" data-fill-palette-color="accent"><g fill="#1334d6" data-fill-palette-color="accent"><g fill="#1334d6" data-fill-palette-color="accent"><rect x="18.479" y="25.229" width="2.385" height="2.385" fill="#1334d6" data-fill-palette-color="accent"></rect><rect x="21.85" y="25.229" width="2.385" height="2.385" fill="#1334d6" data-fill-palette-color="accent"></rect><rect x="25.219" y="25.229" width="2.386" height="2.385" fill="#1334d6" data-fill-palette-color="accent"></rect><rect x="28.589" y="25.229" width="2.385" height="2.385" fill="#1334d6" data-fill-palette-color="accent"></rect><rect x="31.959" y="25.229" width="2.385" height="2.385" fill="#1334d6" data-fill-palette-color="accent"></rect><rect x="35.328" y="25.229" width="2.386" height="2.385" fill="#1334d6" data-fill-palette-color="accent"></rect><rect x="38.698" y="25.229" width="2.385" height="2.385" fill="#1334d6" data-fill-palette-color="accent"></rect><rect x="42.068" y="25.229" width="2.385" height="2.385" fill="#1334d6" data-fill-palette-color="accent"></rect><rect x="52.178" y="25.229" width="2.385" height="2.385" fill="#1334d6" data-fill-palette-color="accent"></rect><rect x="62.287" y="25.229" width="2.385" height="2.385" fill="#1334d6" data-fill-palette-color="accent"></rect><rect x="72.396" y="25.229" width="2.385" height="2.385" fill="#1334d6" data-fill-palette-color="accent"></rect></g><g fill="#1334d6" data-fill-palette-color="accent"><rect x="15.109" y="28.597" width="2.386" height="2.384" fill="#1334d6" data-fill-palette-color="accent"></rect><rect x="18.479" y="28.597" width="2.385" height="2.384" fill="#1334d6" data-fill-palette-color="accent"></rect><rect x="21.85" y="28.597" width="2.385" height="2.384" fill="#1334d6" data-fill-palette-color="accent"></rect><rect x="25.219" y="28.597" width="2.386" height="2.384" fill="#1334d6" data-fill-palette-color="accent"></rect><rect x="31.959" y="28.597" width="2.385" height="2.384" fill="#1334d6" data-fill-palette-color="accent"></rect><rect x="35.328" y="28.597" width="2.386" height="2.384" fill="#1334d6" data-fill-palette-color="accent"></rect><rect x="38.698" y="28.597" width="2.385" height="2.384" fill="#1334d6" data-fill-palette-color="accent"></rect><rect x="58.916" y="28.597" width="2.385" height="2.384" fill="#1334d6" data-fill-palette-color="accent"></rect><rect x="65.656" y="28.597" width="2.385" height="2.384" fill="#1334d6" data-fill-palette-color="accent"></rect><rect x="69.025" y="28.597" width="2.387" height="2.384" fill="#1334d6" data-fill-palette-color="accent"></rect><rect x="72.396" y="28.597" width="2.385" height="2.384" fill="#1334d6" data-fill-palette-color="accent"></rect><rect x="75.766" y="28.597" width="2.385" height="2.384" fill="#1334d6" data-fill-palette-color="accent"></rect><rect x="79.137" y="28.597" width="2.385" height="2.384" fill="#1334d6" data-fill-palette-color="accent"></rect><rect x="82.506" y="28.597" width="2.385" height="2.384" fill="#1334d6" data-fill-palette-color="accent"></rect></g><g fill="#1334d6" data-fill-palette-color="accent"><rect x="5" y="31.966" width="2.386" height="2.384" fill="#1334d6" data-fill-palette-color="accent"></rect><rect x="8.37" y="31.966" width="2.385" height="2.384" fill="#1334d6" data-fill-palette-color="accent"></rect><rect x="11.74" y="31.966" width="2.385" height="2.384" fill="#1334d6" data-fill-palette-color="accent"></rect><rect x="15.109" y="31.966" width="2.386" height="2.384" fill="#1334d6" data-fill-palette-color="accent"></rect><rect x="18.479" y="31.966" width="2.385" height="2.384" fill="#1334d6" data-fill-palette-color="accent"></rect><rect x="21.85" y="31.966" width="2.385" height="2.384" fill="#1334d6" data-fill-palette-color="accent"></rect><rect x="25.219" y="31.966" width="2.386" height="2.384" fill="#1334d6" data-fill-palette-color="accent"></rect><rect x="28.589" y="31.966" width="2.385" height="2.384" fill="#1334d6" data-fill-palette-color="accent"></rect><rect x="35.328" y="31.966" width="2.386" height="2.384" fill="#1334d6" data-fill-palette-color="accent"></rect><rect x="38.698" y="31.966" width="2.385" height="2.384" fill="#1334d6" data-fill-palette-color="accent"></rect><rect x="52.178" y="31.966" width="2.385" height="2.384" fill="#1334d6" data-fill-palette-color="accent"></rect><rect x="55.547" y="31.966" width="2.385" height="2.384" fill="#1334d6" data-fill-palette-color="accent"></rect><rect x="58.916" y="31.966" width="2.385" height="2.384" fill="#1334d6" data-fill-palette-color="accent"></rect><rect x="62.287" y="31.966" width="2.385" height="2.384" fill="#1334d6" data-fill-palette-color="accent"></rect><rect x="65.656" y="31.966" width="2.385" height="2.384" fill="#1334d6" data-fill-palette-color="accent"></rect><rect x="69.025" y="31.966" width="2.387" height="2.384" fill="#1334d6" data-fill-palette-color="accent"></rect><rect x="72.396" y="31.966" width="2.385" height="2.384" fill="#1334d6" data-fill-palette-color="accent"></rect><rect x="75.766" y="31.966" width="2.385" height="2.384" fill="#1334d6" data-fill-palette-color="accent"></rect><rect x="79.137" y="31.966" width="2.385" height="2.384" fill="#1334d6" data-fill-palette-color="accent"></rect><rect x="82.506" y="31.966" width="2.385" height="2.384" fill="#1334d6" data-fill-palette-color="accent"></rect><rect x="85.875" y="31.966" width="2.385" height="2.384" fill="#1334d6" data-fill-palette-color="accent"></rect><rect x="89.246" y="31.966" width="2.385" height="2.384" fill="#1334d6" data-fill-palette-color="accent"></rect></g><g fill="#1334d6" data-fill-palette-color="accent"><rect x="5" y="35.334" width="2.386" height="2.384" fill="#1334d6" data-fill-palette-color="accent"></rect><rect x="8.37" y="35.334" width="2.385" height="2.384" fill="#1334d6" data-fill-palette-color="accent"></rect><rect x="11.74" y="35.334" width="2.385" height="2.384" fill="#1334d6" data-fill-palette-color="accent"></rect><rect x="15.109" y="35.334" width="2.386" height="2.384" fill="#1334d6" data-fill-palette-color="accent"></rect><rect x="18.479" y="35.334" width="2.385" height="2.384" fill="#1334d6" data-fill-palette-color="accent"></rect><rect x="21.85" y="35.334" width="2.385" height="2.384" fill="#1334d6" data-fill-palette-color="accent"></rect><rect x="25.219" y="35.334" width="2.386" height="2.384" fill="#1334d6" data-fill-palette-color="accent"></rect><rect x="28.589" y="35.334" width="2.385" height="2.384" fill="#1334d6" data-fill-palette-color="accent"></rect><rect x="35.328" y="35.334" width="2.386" height="2.384" fill="#1334d6" data-fill-palette-color="accent"></rect><rect x="42.068" y="35.334" width="2.385" height="2.384" fill="#1334d6" data-fill-palette-color="accent"></rect><rect x="48.808" y="35.334" width="2.383" height="2.384" fill="#1334d6" data-fill-palette-color="accent"></rect><rect x="52.178" y="35.334" width="2.385" height="2.384" fill="#1334d6" data-fill-palette-color="accent"></rect><rect x="55.547" y="35.334" width="2.385" height="2.384" fill="#1334d6" data-fill-palette-color="accent"></rect><rect x="58.916" y="35.334" width="2.385" height="2.384" fill="#1334d6" data-fill-palette-color="accent"></rect><rect x="62.287" y="35.334" width="2.385" height="2.384" fill="#1334d6" data-fill-palette-color="accent"></rect><rect x="65.656" y="35.334" width="2.385" height="2.384" fill="#1334d6" data-fill-palette-color="accent"></rect><rect x="69.025" y="35.334" width="2.387" height="2.384" fill="#1334d6" data-fill-palette-color="accent"></rect><rect x="72.396" y="35.334" width="2.385" height="2.384" fill="#1334d6" data-fill-palette-color="accent"></rect><rect x="75.766" y="35.334" width="2.385" height="2.384" fill="#1334d6" data-fill-palette-color="accent"></rect><rect x="79.137" y="35.334" width="2.385" height="2.384" fill="#1334d6" data-fill-palette-color="accent"></rect><rect x="82.506" y="35.334" width="2.385" height="2.384" fill="#1334d6" data-fill-palette-color="accent"></rect><rect x="85.875" y="35.334" width="2.385" height="2.384" fill="#1334d6" data-fill-palette-color="accent"></rect><rect x="89.246" y="35.334" width="2.385" height="2.384" fill="#1334d6" data-fill-palette-color="accent"></rect><rect x="92.615" y="35.334" width="2.385" height="2.384" fill="#1334d6" data-fill-palette-color="accent"></rect></g><g fill="#1334d6" data-fill-palette-color="accent"><rect x="5" y="38.702" width="2.386" height="2.384" fill="#1334d6" data-fill-palette-color="accent"></rect><rect x="8.37" y="38.702" width="2.385" height="2.384" fill="#1334d6" data-fill-palette-color="accent"></rect><rect x="11.74" y="38.702" width="2.385" height="2.384" fill="#1334d6" data-fill-palette-color="accent"></rect><rect x="15.109" y="38.702" width="2.386" height="2.384" fill="#1334d6" data-fill-palette-color="accent"></rect><rect x="18.479" y="38.702" width="2.385" height="2.384" fill="#1334d6" data-fill-palette-color="accent"></rect><rect x="21.85" y="38.702" width="2.385" height="2.384" fill="#1334d6" data-fill-palette-color="accent"></rect><rect x="25.219" y="38.702" width="2.386" height="2.384" fill="#1334d6" data-fill-palette-color="accent"></rect><rect x="28.589" y="38.702" width="2.385" height="2.384" fill="#1334d6" data-fill-palette-color="accent"></rect><rect x="45.438" y="38.702" width="2.386" height="2.384" fill="#1334d6" data-fill-palette-color="accent"></rect><rect x="48.808" y="38.702" width="2.383" height="2.384" fill="#1334d6" data-fill-palette-color="accent"></rect><rect x="52.178" y="38.702" width="2.385" height="2.384" fill="#1334d6" data-fill-palette-color="accent"></rect><rect x="55.547" y="38.702" width="2.385" height="2.384" fill="#1334d6" data-fill-palette-color="accent"></rect><rect x="58.916" y="38.702" width="2.385" height="2.384" fill="#1334d6" data-fill-palette-color="accent"></rect><rect x="62.287" y="38.702" width="2.385" height="2.384" fill="#1334d6" data-fill-palette-color="accent"></rect><rect x="65.656" y="38.702" width="2.385" height="2.384" fill="#1334d6" data-fill-palette-color="accent"></rect><rect x="69.025" y="38.702" width="2.387" height="2.384" fill="#1334d6" data-fill-palette-color="accent"></rect><rect x="72.396" y="38.702" width="2.385" height="2.384" fill="#1334d6" data-fill-palette-color="accent"></rect><rect x="75.766" y="38.702" width="2.385" height="2.384" fill="#1334d6" data-fill-palette-color="accent"></rect><rect x="79.137" y="38.702" width="2.385" height="2.384" fill="#1334d6" data-fill-palette-color="accent"></rect><rect x="82.506" y="38.702" width="2.385" height="2.384" fill="#1334d6" data-fill-palette-color="accent"></rect><rect x="85.875" y="38.702" width="2.385" height="2.384" fill="#1334d6" data-fill-palette-color="accent"></rect></g><g fill="#1334d6" data-fill-palette-color="accent"><rect x="15.109" y="42.071" width="2.386" height="2.384" fill="#1334d6" data-fill-palette-color="accent"></rect><rect x="18.479" y="42.071" width="2.385" height="2.384" fill="#1334d6" data-fill-palette-color="accent"></rect><rect x="21.85" y="42.071" width="2.385" height="2.384" fill="#1334d6" data-fill-palette-color="accent"></rect><rect x="25.219" y="42.071" width="2.386" height="2.384" fill="#1334d6" data-fill-palette-color="accent"></rect><rect x="28.589" y="42.071" width="2.385" height="2.384" fill="#1334d6" data-fill-palette-color="accent"></rect><rect x="31.959" y="42.071" width="2.385" height="2.384" fill="#1334d6" data-fill-palette-color="accent"></rect><rect x="45.438" y="42.071" width="2.386" height="2.384" fill="#1334d6" data-fill-palette-color="accent"></rect><rect x="48.808" y="42.071" width="2.383" height="2.384" fill="#1334d6" data-fill-palette-color="accent"></rect><rect x="52.178" y="42.071" width="2.385" height="2.384" fill="#1334d6" data-fill-palette-color="accent"></rect><rect x="55.547" y="42.071" width="2.385" height="2.384" fill="#1334d6" data-fill-palette-color="accent"></rect><rect x="58.916" y="42.071" width="2.385" height="2.384" fill="#1334d6" data-fill-palette-color="accent"></rect><rect x="62.287" y="42.071" width="2.385" height="2.384" fill="#1334d6" data-fill-palette-color="accent"></rect><rect x="65.656" y="42.071" width="2.385" height="2.384" fill="#1334d6" data-fill-palette-color="accent"></rect><rect x="69.025" y="42.071" width="2.387" height="2.384" fill="#1334d6" data-fill-palette-color="accent"></rect><rect x="72.396" y="42.071" width="2.385" height="2.384" fill="#1334d6" data-fill-palette-color="accent"></rect><rect x="75.766" y="42.071" width="2.385" height="2.384" fill="#1334d6" data-fill-palette-color="accent"></rect><rect x="79.137" y="42.071" width="2.385" height="2.384" fill="#1334d6" data-fill-palette-color="accent"></rect><rect x="85.875" y="42.071" width="2.385" height="2.384" fill="#1334d6" data-fill-palette-color="accent"></rect></g><g fill="#1334d6" data-fill-palette-color="accent"><rect x="15.109" y="45.44" width="2.386" height="2.384" fill="#1334d6" data-fill-palette-color="accent"></rect><rect x="18.479" y="45.44" width="2.385" height="2.384" fill="#1334d6" data-fill-palette-color="accent"></rect><rect x="21.85" y="45.44" width="2.385" height="2.384" fill="#1334d6" data-fill-palette-color="accent"></rect><rect x="25.219" y="45.44" width="2.386" height="2.384" fill="#1334d6" data-fill-palette-color="accent"></rect><rect x="28.589" y="45.44" width="2.385" height="2.384" fill="#1334d6" data-fill-palette-color="accent"></rect><rect x="45.438" y="45.44" width="2.386" height="2.384" fill="#1334d6" data-fill-palette-color="accent"></rect><rect x="52.178" y="45.44" width="2.385" height="2.384" fill="#1334d6" data-fill-palette-color="accent"></rect><rect x="55.547" y="45.44" width="2.385" height="2.384" fill="#1334d6" data-fill-palette-color="accent"></rect><rect x="58.916" y="45.44" width="2.385" height="2.384" fill="#1334d6" data-fill-palette-color="accent"></rect><rect x="62.287" y="45.44" width="2.385" height="2.384" fill="#1334d6" data-fill-palette-color="accent"></rect><rect x="65.656" y="45.44" width="2.385" height="2.384" fill="#1334d6" data-fill-palette-color="accent"></rect><rect x="69.025" y="45.44" width="2.387" height="2.384" fill="#1334d6" data-fill-palette-color="accent"></rect><rect x="72.396" y="45.44" width="2.385" height="2.384" fill="#1334d6" data-fill-palette-color="accent"></rect><rect x="75.766" y="45.44" width="2.385" height="2.384" fill="#1334d6" data-fill-palette-color="accent"></rect><rect x="79.137" y="45.44" width="2.385" height="2.384" fill="#1334d6" data-fill-palette-color="accent"></rect><rect x="82.506" y="45.44" width="2.385" height="2.384" fill="#1334d6" data-fill-palette-color="accent"></rect></g><g fill="#1334d6" data-fill-palette-color="accent"><rect x="18.479" y="48.809" width="2.385" height="2.382" fill="#1334d6" data-fill-palette-color="accent"></rect><rect x="21.85" y="48.809" width="2.385" height="2.382" fill="#1334d6" data-fill-palette-color="accent"></rect><rect x="25.219" y="48.809" width="2.386" height="2.382" fill="#1334d6" data-fill-palette-color="accent"></rect><rect x="42.068" y="48.809" width="2.385" height="2.382" fill="#1334d6" data-fill-palette-color="accent"></rect><rect x="45.438" y="48.809" width="2.386" height="2.382" fill="#1334d6" data-fill-palette-color="accent"></rect><rect x="48.808" y="48.809" width="2.383" height="2.382" fill="#1334d6" data-fill-palette-color="accent"></rect><rect x="52.178" y="48.809" width="2.385" height="2.382" fill="#1334d6" data-fill-palette-color="accent"></rect><rect x="55.547" y="48.809" width="2.385" height="2.382" fill="#1334d6" data-fill-palette-color="accent"></rect><rect x="58.916" y="48.809" width="2.385" height="2.382" fill="#1334d6" data-fill-palette-color="accent"></rect><rect x="62.287" y="48.809" width="2.385" height="2.382" fill="#1334d6" data-fill-palette-color="accent"></rect><rect x="65.656" y="48.809" width="2.385" height="2.382" fill="#1334d6" data-fill-palette-color="accent"></rect><rect x="69.025" y="48.809" width="2.387" height="2.382" fill="#1334d6" data-fill-palette-color="accent"></rect><rect x="72.396" y="48.809" width="2.385" height="2.382" fill="#1334d6" data-fill-palette-color="accent"></rect><rect x="75.766" y="48.809" width="2.385" height="2.382" fill="#1334d6" data-fill-palette-color="accent"></rect><rect x="79.137" y="48.809" width="2.385" height="2.382" fill="#1334d6" data-fill-palette-color="accent"></rect></g><g fill="#1334d6" data-fill-palette-color="accent"><rect x="21.85" y="52.178" width="2.385" height="2.383" fill="#1334d6" data-fill-palette-color="accent"></rect><rect x="25.219" y="52.178" width="2.386" height="2.383" fill="#1334d6" data-fill-palette-color="accent"></rect><rect x="28.589" y="52.178" width="2.385" height="2.383" fill="#1334d6" data-fill-palette-color="accent"></rect><rect x="42.068" y="52.178" width="2.385" height="2.383" fill="#1334d6" data-fill-palette-color="accent"></rect><rect x="45.438" y="52.178" width="2.386" height="2.383" fill="#1334d6" data-fill-palette-color="accent"></rect><rect x="48.808" y="52.178" width="2.383" height="2.383" fill="#1334d6" data-fill-palette-color="accent"></rect><rect x="52.178" y="52.178" width="2.385" height="2.383" fill="#1334d6" data-fill-palette-color="accent"></rect><rect x="55.547" y="52.178" width="2.385" height="2.383" fill="#1334d6" data-fill-palette-color="accent"></rect><rect x="58.916" y="52.178" width="2.385" height="2.383" fill="#1334d6" data-fill-palette-color="accent"></rect><rect x="65.656" y="52.178" width="2.385" height="2.383" fill="#1334d6" data-fill-palette-color="accent"></rect><rect x="72.396" y="52.178" width="2.385" height="2.383" fill="#1334d6" data-fill-palette-color="accent"></rect><rect x="75.766" y="52.178" width="2.385" height="2.383" fill="#1334d6" data-fill-palette-color="accent"></rect></g><g fill="#1334d6" data-fill-palette-color="accent"><rect x="28.589" y="55.547" width="2.385" height="2.383" fill="#1334d6" data-fill-palette-color="accent"></rect><rect x="31.959" y="55.547" width="2.385" height="2.383" fill="#1334d6" data-fill-palette-color="accent"></rect><rect x="45.438" y="55.547" width="2.386" height="2.383" fill="#1334d6" data-fill-palette-color="accent"></rect><rect x="48.808" y="55.547" width="2.383" height="2.383" fill="#1334d6" data-fill-palette-color="accent"></rect><rect x="52.178" y="55.547" width="2.385" height="2.383" fill="#1334d6" data-fill-palette-color="accent"></rect><rect x="55.547" y="55.547" width="2.385" height="2.383" fill="#1334d6" data-fill-palette-color="accent"></rect></g><g fill="#1334d6" data-fill-palette-color="accent"><rect x="25.219" y="58.914" width="2.386" height="2.385" fill="#1334d6" data-fill-palette-color="accent"></rect><rect x="28.589" y="58.914" width="2.385" height="2.385" fill="#1334d6" data-fill-palette-color="accent"></rect><rect x="31.959" y="58.914" width="2.385" height="2.385" fill="#1334d6" data-fill-palette-color="accent"></rect><rect x="35.328" y="58.914" width="2.386" height="2.385" fill="#1334d6" data-fill-palette-color="accent"></rect><rect x="48.808" y="58.914" width="2.383" height="2.385" fill="#1334d6" data-fill-palette-color="accent"></rect><rect x="52.178" y="58.914" width="2.385" height="2.385" fill="#1334d6" data-fill-palette-color="accent"></rect><rect x="55.547" y="58.914" width="2.385" height="2.385" fill="#1334d6" data-fill-palette-color="accent"></rect><rect x="72.396" y="58.914" width="2.385" height="2.385" fill="#1334d6" data-fill-palette-color="accent"></rect><rect x="75.766" y="58.914" width="2.385" height="2.385" fill="#1334d6" data-fill-palette-color="accent"></rect><rect x="79.137" y="58.914" width="2.385" height="2.385" fill="#1334d6" data-fill-palette-color="accent"></rect><rect x="82.506" y="58.914" width="2.385" height="2.385" fill="#1334d6" data-fill-palette-color="accent"></rect></g><g fill="#1334d6" data-fill-palette-color="accent"><rect x="28.589" y="62.283" width="2.385" height="2.383" fill="#1334d6" data-fill-palette-color="accent"></rect><rect x="31.959" y="62.283" width="2.385" height="2.383" fill="#1334d6" data-fill-palette-color="accent"></rect><rect x="35.328" y="62.283" width="2.386" height="2.383" fill="#1334d6" data-fill-palette-color="accent"></rect><rect x="48.808" y="62.283" width="2.383" height="2.383" fill="#1334d6" data-fill-palette-color="accent"></rect><rect x="52.178" y="62.283" width="2.385" height="2.383" fill="#1334d6" data-fill-palette-color="accent"></rect><rect x="58.916" y="62.283" width="2.385" height="2.383" fill="#1334d6" data-fill-palette-color="accent"></rect><rect x="75.766" y="62.283" width="2.385" height="2.383" fill="#1334d6" data-fill-palette-color="accent"></rect><rect x="79.137" y="62.283" width="2.385" height="2.383" fill="#1334d6" data-fill-palette-color="accent"></rect><rect x="82.506" y="62.283" width="2.385" height="2.383" fill="#1334d6" data-fill-palette-color="accent"></rect><rect x="85.875" y="62.283" width="2.385" height="2.383" fill="#1334d6" data-fill-palette-color="accent"></rect></g><g fill="#1334d6" data-fill-palette-color="accent"><rect x="28.589" y="65.652" width="2.385" height="2.383" fill="#1334d6" data-fill-palette-color="accent"></rect><rect x="31.959" y="65.652" width="2.385" height="2.383" fill="#1334d6" data-fill-palette-color="accent"></rect><rect x="52.178" y="65.652" width="2.385" height="2.383" fill="#1334d6" data-fill-palette-color="accent"></rect><rect x="75.766" y="65.652" width="2.385" height="2.383" fill="#1334d6" data-fill-palette-color="accent"></rect><rect x="79.137" y="65.652" width="2.385" height="2.383" fill="#1334d6" data-fill-palette-color="accent"></rect><rect x="82.506" y="65.652" width="2.385" height="2.383" fill="#1334d6" data-fill-palette-color="accent"></rect></g><g fill="#1334d6" data-fill-palette-color="accent"><rect x="28.589" y="69.02" width="2.385" height="2.387" fill="#1334d6" data-fill-palette-color="accent"></rect><rect x="89.246" y="69.02" width="2.385" height="2.387" fill="#1334d6" data-fill-palette-color="accent"></rect></g><g fill="#1334d6" data-fill-palette-color="accent"><rect x="28.589" y="72.389" width="2.385" height="2.383" fill="#1334d6" data-fill-palette-color="accent"></rect></g></g></g></svg></g></svg></g></svg></g><defs></defs></svg><rect width="395.52" height="92.14094834320996" fill="none" stroke="none" visibility="hidden"></rect></g></svg></g></svg>