<svg xmlns="http://www.w3.org/2000/svg" version="1.1" xmlns:xlink="http://www.w3.org/1999/xlink" xmlns:svgjs="http://svgjs.dev/svgjs" width="2000" height="232" viewBox="0 0 2000 232"><g transform="matrix(1,0,0,1,-1.2121212121212466,-0.6178840909343393)"><svg viewBox="0 0 396 46" data-background-color="#121212" preserveAspectRatio="xMidYMid meet" height="232" width="2000" xmlns="http://www.w3.org/2000/svg" xmlns:xlink="http://www.w3.org/1999/xlink"><g id="tight-bounds" transform="matrix(1,0,0,1,0.2400000000000091,0.1225115007887041)"><svg viewBox="0 0 395.52 45.75497699842258" height="45.75497699842258" width="395.52"><g><svg viewBox="0 0 509.3648698802483 58.924903684201226" height="45.75497699842258" width="395.52"><g transform="matrix(1,0,0,1,111.86726988024839,9.000994906132412)"><svg viewBox="0 0 397.4975999999999 40.9229138719364" height="40.9229138719364" width="397.4975999999999"><g id="textblocktransform"><svg viewBox="0 0 397.4975999999999 40.9229138719364" height="40.9229138719364" width="397.4975999999999" id="textblock"><g><rect width="397.4975999999999" height="1.842794123848602" x="0" y="22.605217950492726" fill="#ffffff" opacity="1" stroke-width="0" stroke="transparent" fill-opacity="1" class="rect-yte-0" data-fill-palette-color="primary" rx="1%" id="yte-0" data-palette-color="#ffffff"></rect></g><g transform="matrix(1,0,0,1,0.9887999999999693,0)"><svg viewBox="0 0 395.52 20.434387176325526" height="20.434387176325526" width="395.52"><g transform="matrix(1,0,0,1,0,0)"><svg width="395.52" viewBox="0.25 -35.05 810.92 41.9" height="20.434387176325526" data-palette-color="#ffffff"><path d="M10.5-34.45L10.5-4.8Q10.5 0.3 8.28 2.85 6.05 5.4 1.5 6.85L1.5 6.85 0.25 3.4Q2.55 2.5 3.7 1.45 4.85 0.4 5.3-1.1 5.75-2.6 5.75-5L5.75-5 5.75-34.45 10.5-34.45ZM32.55-35.05Q36.9-35.05 40.17-32.98 43.45-30.9 45.27-26.9 47.1-22.9 47.1-17.2L47.1-17.2Q47.1-11.6 45.27-7.6 43.45-3.6 40.17-1.5 36.9 0.6 32.55 0.6L32.55 0.6Q28.2 0.6 24.92-1.45 21.65-3.5 19.82-7.5 18-11.5 18-17.15L18-17.15Q18-22.7 19.82-26.75 21.65-30.8 24.95-32.93 28.25-35.05 32.55-35.05L32.55-35.05ZM32.55-31.15Q28.05-31.15 25.55-27.75 23.05-24.35 23.05-17.15L23.05-17.15Q23.05-10 25.57-6.65 28.1-3.3 32.55-3.3L32.55-3.3Q42.05-3.3 42.05-17.2L42.05-17.2Q42.05-31.15 32.55-31.15L32.55-31.15ZM54.85-34.45L73.5-34.45 72.95-30.65 59.6-30.65 59.6-19.4 71.2-19.4 71.2-15.6 59.6-15.6 59.6-3.8 73.9-3.8 73.9 0 54.85 0 54.85-34.45ZM122.79-34.45L125.64 0 121.04 0 119.84-15.55Q119.09-24.7 118.99-29.6L118.99-29.6 111.54-3.9 107.09-3.9 99.24-29.65Q99.24-23.4 98.59-15.2L98.59-15.2 97.44 0 92.94 0 95.79-34.45 102.19-34.45 109.44-9.4 116.34-34.45 122.79-34.45ZM133.74-34.45L152.39-34.45 151.84-30.65 138.49-30.65 138.49-19.4 150.09-19.4 150.09-15.6 138.49-15.6 138.49-3.8 152.79-3.8 152.79 0 133.74 0 133.74-34.45ZM184.64-34.45L184.64 0 178.29 0 164.29-29.25Q164.59-25.8 164.76-22.88 164.94-19.95 164.94-15.8L164.94-15.8 164.94 0 160.49 0 160.49-34.45 166.69-34.45 180.84-5.15Q180.69-6.45 180.44-9.7 180.19-12.95 180.19-15.65L180.19-15.65 180.19-34.45 184.64-34.45ZM201.83-34.45Q209.63-34.45 214.36-30.83 219.08-27.2 219.08-17.4L219.08-17.4Q219.08-7.85 214.36-3.93 209.63 0 202.88 0L202.88 0 194.63 0 194.63-34.45 201.83-34.45ZM202.88-30.65L199.38-30.65 199.38-3.75 203.23-3.75Q208.03-3.75 211.03-6.7 214.03-9.65 214.03-17.4L214.03-17.4Q214.03-22.85 212.48-25.78 210.93-28.7 208.53-29.68 206.13-30.65 202.88-30.65L202.88-30.65ZM226.83-34.45L245.48-34.45 244.93-30.65 231.58-30.65 231.58-19.4 243.18-19.4 243.18-15.6 231.58-15.6 231.58-3.8 245.88-3.8 245.88 0 226.83 0 226.83-34.45ZM251.88-34.45L272.43-34.45 272.43-30.6 255.38-4.05 272.43-4.05 271.88 0 250.08 0 250.08-3.8 267.28-30.45 251.88-30.45 251.88-34.45ZM291.83-13.7L277.68-13.7 277.68-17.6 291.83-17.6 291.83-13.7ZM323.82 0L319.07 0 319.07-16.15 304.57-16.15 304.57 0 299.82 0 299.82-34.45 304.57-34.45 304.57-20.05 319.07-20.05 319.07-34.45 323.82-34.45 323.82 0ZM357.42-34.45L357.42-11.05Q357.42-7.6 356-4.98 354.57-2.35 351.85-0.88 349.12 0.6 345.32 0.6L345.32 0.6Q339.57 0.6 336.45-2.58 333.32-5.75 333.32-11.05L333.32-11.05 333.32-34.45 338.07-34.45 338.07-11.4Q338.07-7.4 339.87-5.4 341.67-3.4 345.32-3.4L345.32-3.4Q349.02-3.4 350.82-5.38 352.62-7.35 352.62-11.4L352.62-11.4 352.62-34.45 357.42-34.45ZM379.62-35.05Q382.87-35.05 385.24-34.13 387.62-33.2 389.97-31.25L389.97-31.25 387.17-28.35Q385.32-29.85 383.62-30.5 381.92-31.15 379.62-31.15L379.62-31.15Q376.97-31.15 374.74-29.73 372.52-28.3 371.12-25.18 369.72-22.05 369.72-17.25L369.72-17.25Q369.72-10 372.09-6.65 374.47-3.3 379.12-3.3L379.12-3.3Q382.92-3.3 385.67-4.85L385.67-4.85 385.67-15.25 379.57-15.25 379.02-19.1 390.37-19.1 390.37-2.45Q385.02 0.6 379.12 0.6L379.12 0.6Q372.32 0.6 368.49-3.95 364.67-8.5 364.67-17.25L364.67-17.25Q364.67-22.85 366.69-26.88 368.72-30.9 372.14-32.98 375.57-35.05 379.62-35.05L379.62-35.05ZM422.47 0L417.72 0 417.72-16.15 403.22-16.15 403.22 0 398.47 0 398.47-34.45 403.22-34.45 403.22-20.05 417.72-20.05 417.72-34.45 422.47-34.45 422.47 0ZM432.46-34.45L451.11-34.45 450.56-30.65 437.21-30.65 437.21-19.4 448.81-19.4 448.81-15.6 437.21-15.6 437.21-3.8 451.51-3.8 451.51 0 432.46 0 432.46-34.45ZM467.71-35.05Q471.16-35.05 473.61-34.08 476.06-33.1 478.36-31.05L478.36-31.05 475.76-28.15Q473.81-29.7 471.94-30.43 470.06-31.15 467.91-31.15L467.91-31.15Q465.21-31.15 463.46-29.9 461.71-28.65 461.71-26.25L461.71-26.25Q461.71-24.75 462.31-23.73 462.91-22.7 464.54-21.85 466.16-21 469.26-20.05L469.26-20.05Q472.51-19.05 474.66-17.9 476.81-16.75 478.14-14.73 479.46-12.7 479.46-9.6L479.46-9.6Q479.46-6.6 477.99-4.3 476.51-2 473.74-0.7 470.96 0.6 467.16 0.6L467.16 0.6Q460.01 0.6 455.46-3.85L455.46-3.85 458.06-6.75Q460.16-5.05 462.31-4.17 464.46-3.3 467.11-3.3L467.11-3.3Q470.31-3.3 472.41-4.88 474.51-6.45 474.51-9.45L474.51-9.45Q474.51-11.15 473.86-12.28 473.21-13.4 471.64-14.3 470.06-15.2 467.06-16.1L467.06-16.1Q461.76-17.7 459.31-19.95 456.86-22.2 456.86-26.05L456.86-26.05Q456.86-28.65 458.24-30.7 459.61-32.75 462.09-33.9 464.56-35.05 467.71-35.05L467.71-35.05ZM487.41-6.35Q488.91-6.35 489.91-5.35 490.91-4.35 490.91-2.9L490.91-2.9Q490.91-1.45 489.91-0.43 488.91 0.6 487.41 0.6L487.41 0.6Q485.96 0.6 484.96-0.43 483.96-1.45 483.96-2.9L483.96-2.9Q483.96-4.35 484.96-5.35 485.96-6.35 487.41-6.35L487.41-6.35ZM487.41-24.75Q488.91-24.75 489.91-23.75 490.91-22.75 490.91-21.3L490.91-21.3Q490.91-19.85 489.91-18.82 488.91-17.8 487.41-17.8L487.41-17.8Q485.96-17.8 484.96-18.82 483.96-19.85 483.96-21.3L483.96-21.3Q483.96-22.75 484.96-23.75 485.96-24.75 487.41-24.75L487.41-24.75ZM535.05 0L530.05 0 527.45-8.65 514.4-8.65 511.8 0 507 0 518.05-34.45 524.05-34.45 535.05 0ZM520.95-30.5L515.55-12.5 526.3-12.5 520.95-30.5ZM541.3-6.35Q542.8-6.35 543.8-5.35 544.8-4.35 544.8-2.9L544.8-2.9Q544.8-1.45 543.8-0.43 542.8 0.6 541.3 0.6L541.3 0.6Q539.85 0.6 538.85-0.43 537.85-1.45 537.85-2.9L537.85-2.9Q537.85-4.35 538.85-5.35 539.85-6.35 541.3-6.35L541.3-6.35ZM552.35-34.45L557.1-34.45 557.1 0 552.35 0 552.35-34.45ZM568.04-6.35Q569.54-6.35 570.54-5.35 571.54-4.35 571.54-2.9L571.54-2.9Q571.54-1.45 570.54-0.43 569.54 0.6 568.04 0.6L568.04 0.6Q566.59 0.6 565.59-0.43 564.59-1.45 564.59-2.9L564.59-2.9Q564.59-4.35 565.59-5.35 566.59-6.35 568.04-6.35L568.04-6.35ZM592.34-34.45L610.99-34.45 610.44-30.65 597.09-30.65 597.09-19.4 608.69-19.4 608.69-15.6 597.09-15.6 597.09-3.8 611.39-3.8 611.39 0 592.34 0 592.34-34.45ZM643.24-34.45L643.24 0 636.89 0 622.89-29.25Q623.19-25.8 623.36-22.88 623.54-19.95 623.54-15.8L623.54-15.8 623.54 0 619.09 0 619.09-34.45 625.29-34.45 639.44-5.15Q639.29-6.45 639.04-9.7 638.79-12.95 638.79-15.65L638.79-15.65 638.79-34.45 643.24-34.45ZM665.93-35.05Q669.18-35.05 671.56-34.13 673.93-33.2 676.28-31.25L676.28-31.25 673.48-28.35Q671.63-29.85 669.93-30.5 668.23-31.15 665.93-31.15L665.93-31.15Q663.28-31.15 661.06-29.73 658.83-28.3 657.43-25.18 656.03-22.05 656.03-17.25L656.03-17.25Q656.03-10 658.41-6.65 660.78-3.3 665.43-3.3L665.43-3.3Q669.23-3.3 671.98-4.85L671.98-4.85 671.98-15.25 665.88-15.25 665.33-19.1 676.68-19.1 676.68-2.45Q671.33 0.6 665.43 0.6L665.43 0.6Q658.63 0.6 654.81-3.95 650.98-8.5 650.98-17.25L650.98-17.25Q650.98-22.85 653.01-26.88 655.03-30.9 658.46-32.98 661.88-35.05 665.93-35.05L665.93-35.05ZM684.78-34.45L689.53-34.45 689.53 0 684.78 0 684.78-34.45ZM723.68-34.45L723.68 0 717.33 0 703.33-29.25Q703.63-25.8 703.8-22.88 703.98-19.95 703.98-15.8L703.98-15.8 703.98 0 699.53 0 699.53-34.45 705.73-34.45 719.88-5.15Q719.73-6.45 719.48-9.7 719.23-12.95 719.23-15.65L719.23-15.65 719.23-34.45 723.68-34.45ZM733.68-34.45L752.33-34.45 751.78-30.65 738.43-30.65 738.43-19.4 750.03-19.4 750.03-15.6 738.43-15.6 738.43-3.8 752.73-3.8 752.73 0 733.68 0 733.68-34.45ZM760.42-34.45L779.07-34.45 778.52-30.65 765.17-30.65 765.17-19.4 776.77-19.4 776.77-15.6 765.17-15.6 765.17-3.8 779.47-3.8 779.47 0 760.42 0 760.42-34.45ZM805.52 0L797.27-14.6 791.92-14.6 791.92 0 787.17 0 787.17-34.45 796.22-34.45Q802.67-34.45 806-32 809.32-29.55 809.32-24.7L809.32-24.7Q809.32-21.1 807.47-18.85 805.62-16.6 801.87-15.45L801.87-15.45 811.17 0 805.52 0ZM791.92-18.25L796.72-18.25Q800.47-18.25 802.37-19.78 804.27-21.3 804.27-24.7L804.27-24.7Q804.27-27.9 802.35-29.33 800.42-30.75 796.17-30.75L796.17-30.75 791.92-30.75 791.92-18.25Z" opacity="1" transform="matrix(1,0,0,1,0,0)" fill="#ffffff" class="wordmark-text-0" data-fill-palette-color="primary" id="text-0"></path></svg></g></svg></g><g transform="matrix(1,0,0,1,0,26.618842848508528)"><svg viewBox="0 0 395.52 14.304071023427866" height="14.304071023427866" width="395.52"><g transform="matrix(1,0,0,1,0,0)"><svg width="395.52" viewBox="1.25 -39 1372.87 49.65" height="14.304071023427866" data-palette-color="#ffffff"><path d="M13.5-35.05Q16.95-35.05 19.4-34.08 21.85-33.1 24.15-31.05L24.15-31.05 21.55-28.15Q19.6-29.7 17.73-30.43 15.85-31.15 13.7-31.15L13.7-31.15Q11-31.15 9.25-29.9 7.5-28.65 7.5-26.25L7.5-26.25Q7.5-24.75 8.1-23.73 8.7-22.7 10.33-21.85 11.95-21 15.05-20.05L15.05-20.05Q18.3-19.05 20.45-17.9 22.6-16.75 23.93-14.73 25.25-12.7 25.25-9.6L25.25-9.6Q25.25-6.6 23.78-4.3 22.3-2 19.53-0.7 16.75 0.6 12.95 0.6L12.95 0.6Q5.8 0.6 1.25-3.85L1.25-3.85 3.85-6.75Q5.95-5.05 8.1-4.17 10.25-3.3 12.9-3.3L12.9-3.3Q16.1-3.3 18.2-4.88 20.3-6.45 20.3-9.45L20.3-9.45Q20.3-11.15 19.65-12.28 19-13.4 17.43-14.3 15.85-15.2 12.85-16.1L12.85-16.1Q7.55-17.7 5.1-19.95 2.65-22.2 2.65-26.05L2.65-26.05Q2.65-28.65 4.03-30.7 5.4-32.75 7.88-33.9 10.35-35.05 13.5-35.05L13.5-35.05ZM81.38-6.15Q81.38-4.55 81.93-3.78 82.48-3 83.58-2.6L83.58-2.6 82.53 0.6Q80.48 0.35 79.23-0.55 77.98-1.45 77.38-3.35L77.38-3.35Q74.73 0.6 69.53 0.6L69.53 0.6Q65.63 0.6 63.38-1.6 61.13-3.8 61.13-7.35L61.13-7.35Q61.13-11.55 64.16-13.8 67.18-16.05 72.73-16.05L72.73-16.05 76.78-16.05 76.78-18Q76.78-20.8 75.43-22 74.08-23.2 71.28-23.2L71.28-23.2Q68.38-23.2 64.18-21.8L64.18-21.8 63.03-25.15Q67.93-26.95 72.13-26.95L72.13-26.95Q76.78-26.95 79.08-24.68 81.38-22.4 81.38-18.2L81.38-18.2 81.38-6.15ZM70.58-2.85Q74.53-2.85 76.78-6.95L76.78-6.95 76.78-13 73.33-13Q66.03-13 66.03-7.6L66.03-7.6Q66.03-5.25 67.18-4.05 68.33-2.85 70.58-2.85L70.58-2.85ZM136.96-26.35L141.81-26.35 132.86 0 127.31 0 118.21-26.35 123.21-26.35 130.11-4.1 136.96-26.35ZM178.69-26.35L183.29-26.35 183.29 0 178.69 0 178.69-26.35ZM180.94-39Q182.39-39 183.29-38.1 184.19-37.2 184.19-35.85L184.19-35.85Q184.19-34.5 183.29-33.63 182.39-32.75 180.94-32.75L180.94-32.75Q179.54-32.75 178.64-33.63 177.74-34.5 177.74-35.85L177.74-35.85Q177.74-37.2 178.64-38.1 179.54-39 180.94-39L180.94-39ZM236.82-26.95Q240.42-26.95 242.45-24.8 244.47-22.65 244.47-18.9L244.47-18.9 244.47 0 239.87 0 239.87-18.25Q239.87-21.05 238.82-22.2 237.77-23.35 235.72-23.35L235.72-23.35Q233.62-23.35 232.02-22.15 230.42-20.95 229.02-18.7L229.02-18.7 229.02 0 224.42 0 224.42-26.35 228.37-26.35 228.77-22.45Q230.17-24.55 232.25-25.75 234.32-26.95 236.82-26.95L236.82-26.95ZM305.25-29.3L306.6-25.15Q305.1-24.65 303.3-24.5 301.5-24.35 298.9-24.35L298.9-24.35Q303.55-22.25 303.55-17.7L303.55-17.7Q303.55-13.75 300.85-11.25 298.15-8.75 293.5-8.75L293.5-8.75Q291.7-8.75 290.15-9.25L290.15-9.25Q289.55-8.85 289.2-8.18 288.85-7.5 288.85-6.8L288.85-6.8Q288.85-4.65 292.3-4.65L292.3-4.65 296.5-4.65Q299.15-4.65 301.2-3.7 303.25-2.75 304.38-1.1 305.5 0.55 305.5 2.65L305.5 2.65Q305.5 6.5 302.35 8.58 299.2 10.65 293.15 10.65L293.15 10.65Q288.9 10.65 286.43 9.78 283.95 8.9 282.9 7.15 281.85 5.4 281.85 2.65L281.85 2.65 286 2.65Q286 4.25 286.6 5.18 287.2 6.1 288.75 6.58 290.3 7.05 293.15 7.05L293.15 7.05Q297.3 7.05 299.08 6.03 300.85 5 300.85 2.95L300.85 2.95Q300.85 1.1 299.45 0.15 298.05-0.8 295.55-0.8L295.55-0.8 291.4-0.8Q288.05-0.8 286.33-2.23 284.6-3.65 284.6-5.8L284.6-5.8Q284.6-7.1 285.35-8.3 286.1-9.5 287.5-10.45L287.5-10.45Q285.2-11.65 284.13-13.43 283.05-15.2 283.05-17.75L283.05-17.75Q283.05-20.4 284.38-22.5 285.7-24.6 288.03-25.78 290.35-26.95 293.2-26.95L293.2-26.95Q296.3-26.9 298.4-27.18 300.5-27.45 301.88-27.93 303.25-28.4 305.25-29.3L305.25-29.3ZM293.2-23.65Q290.6-23.65 289.18-22.03 287.75-20.4 287.75-17.75L287.75-17.75Q287.75-15.05 289.2-13.43 290.65-11.8 293.3-11.8L293.3-11.8Q296-11.8 297.43-13.38 298.85-14.95 298.85-17.8L298.85-17.8Q298.85-23.65 293.2-23.65L293.2-23.65ZM399.41-4.25L401.16-1.2Q398.56 0.6 395.26 0.6L395.26 0.6Q391.91 0.6 390.04-1.33 388.16-3.25 388.16-6.9L388.16-6.9 388.16-22.8 383.56-22.8 383.56-26.35 388.16-26.35 388.16-32.3 392.76-32.85 392.76-26.35 399.01-26.35 398.51-22.8 392.76-22.8 392.76-7.1Q392.76-5.05 393.49-4.13 394.21-3.2 395.91-3.2L395.91-3.2Q397.46-3.2 399.41-4.25L399.41-4.25ZM449.95-26.95Q453.55-26.95 455.57-24.8 457.6-22.65 457.6-18.9L457.6-18.9 457.6 0 453 0 453-18.25Q453-21.05 451.92-22.2 450.85-23.35 448.8-23.35L448.8-23.35Q446.75-23.35 445.15-22.15 443.55-20.95 442.15-18.75L442.15-18.75 442.15 0 437.55 0 437.55-36.9 442.15-37.4 442.15-22.7Q445.25-26.95 449.95-26.95L449.95-26.95ZM518.38-13.95Q518.38-12.8 518.28-11.6L518.28-11.6 501.48-11.6Q501.78-7.25 503.68-5.2 505.58-3.15 508.58-3.15L508.58-3.15Q510.48-3.15 512.08-3.7 513.68-4.25 515.43-5.45L515.43-5.45 517.43-2.7Q513.23 0.6 508.23 0.6L508.23 0.6Q502.73 0.6 499.65-3 496.58-6.6 496.58-12.9L496.58-12.9Q496.58-17 497.9-20.18 499.23-23.35 501.7-25.15 504.18-26.95 507.53-26.95L507.53-26.95Q512.78-26.95 515.58-23.5 518.38-20.05 518.38-13.95L518.38-13.95ZM513.83-15L513.83-15.3Q513.83-19.2 512.28-21.25 510.73-23.3 507.63-23.3L507.63-23.3Q501.98-23.3 501.48-15L501.48-15 513.83-15ZM633.19-34.45L637.54-34.45 630.54 0 624.44 0 618.09-28.85 611.69 0 605.74 0 598.74-34.45 603.39-34.45 608.94-4.15 615.59-34.45 620.64-34.45 627.44-4.15 633.19-34.45ZM685.07-26.95Q690.62-26.95 693.69-23.25 696.77-19.55 696.77-13.2L696.77-13.2Q696.77-9.1 695.37-5.98 693.97-2.85 691.32-1.13 688.67 0.6 685.02 0.6L685.02 0.6Q679.47 0.6 676.37-3.1 673.27-6.8 673.27-13.15L673.27-13.15Q673.27-17.25 674.67-20.38 676.07-23.5 678.72-25.23 681.37-26.95 685.07-26.95L685.07-26.95ZM685.07-23.25Q678.22-23.25 678.22-13.15L678.22-13.15Q678.22-3.1 685.02-3.1L685.02-3.1Q691.82-3.1 691.82-13.2L691.82-13.2Q691.82-23.25 685.07-23.25L685.07-23.25ZM747.45-26.95Q748.85-26.95 750.05-26.65L750.05-26.65 749.2-22.15Q748-22.45 746.9-22.45L746.9-22.45Q744.45-22.45 742.95-20.65 741.45-18.85 740.6-15.05L740.6-15.05 740.6 0 736 0 736-26.35 739.95-26.35 740.4-21Q741.45-23.95 743.25-25.45 745.05-26.95 747.45-26.95L747.45-26.95ZM792.18 0.6Q789.63 0.6 788.15-0.93 786.68-2.45 786.68-5.2L786.68-5.2 786.68-36.95 791.28-37.5 791.28-5.3Q791.28-4.2 791.65-3.7 792.03-3.2 792.93-3.2L792.93-3.2Q793.88-3.2 794.63-3.5L794.63-3.5 795.83-0.3Q794.18 0.6 792.18 0.6L792.18 0.6ZM849.01-37.5L853.61-36.95 853.61 0 849.56 0 849.11-3.65Q847.81-1.65 845.86-0.53 843.91 0.6 841.51 0.6L841.51 0.6Q836.81 0.6 834.18-3.1 831.56-6.8 831.56-13.05L831.56-13.05Q831.56-17.1 832.81-20.25 834.06-23.4 836.41-25.18 838.76-26.95 841.91-26.95L841.91-26.95Q845.96-26.95 849.01-23.7L849.01-23.7 849.01-37.5ZM842.51-3.05Q844.61-3.05 846.11-4.03 847.61-5 849.01-6.95L849.01-6.95 849.01-19.85Q847.71-21.55 846.23-22.43 844.76-23.3 842.91-23.3L842.91-23.3Q839.86-23.3 838.18-20.75 836.51-18.2 836.51-13.15L836.51-13.15Q836.51-8.05 838.06-5.55 839.61-3.05 842.51-3.05L842.51-3.05ZM948.57-33.8Q946.47-33.8 945.57-32.88 944.67-31.95 944.67-30L944.67-30 944.67-26.35 951.07-26.35 950.57-22.8 944.67-22.8 944.67 0 940.07 0 940.07-22.8 935.37-22.8 935.37-26.35 940.07-26.35 940.07-29.95Q940.07-33.35 942.25-35.43 944.42-37.5 948.32-37.5L948.32-37.5Q950.12-37.5 951.55-37.18 952.97-36.85 954.62-36.15L954.62-36.15 953.17-32.8Q950.92-33.8 948.57-33.8L948.57-33.8ZM999.45-26.95Q1000.85-26.95 1002.05-26.65L1002.05-26.65 1001.2-22.15Q1000-22.45 998.9-22.45L998.9-22.45Q996.45-22.45 994.95-20.65 993.45-18.85 992.6-15.05L992.6-15.05 992.6 0 988 0 988-26.35 991.95-26.35 992.4-21Q993.45-23.95 995.25-25.45 997.05-26.95 999.45-26.95L999.45-26.95ZM1048.83-26.95Q1054.38-26.95 1057.46-23.25 1060.53-19.55 1060.53-13.2L1060.53-13.2Q1060.53-9.1 1059.13-5.98 1057.73-2.85 1055.08-1.13 1052.43 0.6 1048.78 0.6L1048.78 0.6Q1043.23 0.6 1040.13-3.1 1037.03-6.8 1037.03-13.15L1037.03-13.15Q1037.03-17.25 1038.43-20.38 1039.83-23.5 1042.48-25.23 1045.13-26.95 1048.83-26.95L1048.83-26.95ZM1048.83-23.25Q1041.98-23.25 1041.98-13.15L1041.98-13.15Q1041.98-3.1 1048.78-3.1L1048.78-3.1Q1055.58-3.1 1055.58-13.2L1055.58-13.2Q1055.58-23.25 1048.83-23.25L1048.83-23.25ZM1126.21-26.95Q1129.46-26.95 1131.41-24.78 1133.36-22.6 1133.36-18.9L1133.36-18.9 1133.36 0 1128.76 0 1128.76-18.25Q1128.76-23.35 1125.06-23.35L1125.06-23.35Q1123.11-23.35 1121.76-22.23 1120.41-21.1 1118.86-18.7L1118.86-18.7 1118.86 0 1114.26 0 1114.26-18.25Q1114.26-23.35 1110.56-23.35L1110.56-23.35Q1108.56-23.35 1107.21-22.2 1105.86-21.05 1104.36-18.7L1104.36-18.7 1104.36 0 1099.76 0 1099.76-26.35 1103.71-26.35 1104.11-22.5Q1107.06-26.95 1111.71-26.95L1111.71-26.95Q1114.16-26.95 1115.89-25.7 1117.61-24.45 1118.36-22.2L1118.36-22.2Q1119.91-24.5 1121.79-25.73 1123.66-26.95 1126.21-26.95L1126.21-26.95ZM1242.72 0L1237.72 0 1235.12-8.65 1222.07-8.65 1219.47 0 1214.67 0 1225.72-34.45 1231.72-34.45 1242.72 0ZM1228.62-30.5L1223.22-12.5 1233.97-12.5 1228.62-30.5ZM1280.6-6.35Q1282.1-6.35 1283.1-5.35 1284.1-4.35 1284.1-2.9L1284.1-2.9Q1284.1-1.45 1283.1-0.43 1282.1 0.6 1280.6 0.6L1280.6 0.6Q1279.15 0.6 1278.15-0.43 1277.15-1.45 1277.15-2.9L1277.15-2.9Q1277.15-4.35 1278.15-5.35 1279.15-6.35 1280.6-6.35L1280.6-6.35ZM1323.29-34.45L1328.04-34.45 1328.04 0 1323.29 0 1323.29-34.45ZM1370.62-6.35Q1372.12-6.35 1373.12-5.35 1374.12-4.35 1374.12-2.9L1374.12-2.9Q1374.12-1.45 1373.12-0.43 1372.12 0.6 1370.62 0.6L1370.62 0.6Q1369.17 0.6 1368.17-0.43 1367.17-1.45 1367.17-2.9L1367.17-2.9Q1367.17-4.35 1368.17-5.35 1369.17-6.35 1370.62-6.35L1370.62-6.35Z" opacity="1" transform="matrix(1,0,0,1,0,0)" fill="#ffffff" class="slogan-text-1" data-fill-palette-color="secondary" id="text-1"></path></svg></g></svg></g></svg></g></svg></g><g><svg viewBox="0 0 107.04320149321016 58.924903684201226" height="58.924903684201226" width="107.04320149321016"><g><svg xmlns="http://www.w3.org/2000/svg" xmlns:xlink="http://www.w3.org/1999/xlink" version="1.1" x="0" y="0" viewBox="5 25.229 90 49.54299999999999" enable-background="new 0 0 100 100" xml:space="preserve" height="58.924903684201226" width="107.04320149321016" class="icon-icon-0" data-fill-palette-color="accent" id="icon-0"><g fill="#1334d6" data-fill-palette-color="accent"><g fill="#1334d6" data-fill-palette-color="accent"><g fill="#1334d6" data-fill-palette-color="accent"><rect x="18.479" y="25.229" width="2.385" height="2.385" fill="#1334d6" data-fill-palette-color="accent"></rect><rect x="21.85" y="25.229" width="2.385" height="2.385" fill="#1334d6" data-fill-palette-color="accent"></rect><rect x="25.219" y="25.229" width="2.386" height="2.385" fill="#1334d6" data-fill-palette-color="accent"></rect><rect x="28.589" y="25.229" width="2.385" height="2.385" fill="#1334d6" data-fill-palette-color="accent"></rect><rect x="31.959" y="25.229" width="2.385" height="2.385" fill="#1334d6" data-fill-palette-color="accent"></rect><rect x="35.328" y="25.229" width="2.386" height="2.385" fill="#1334d6" data-fill-palette-color="accent"></rect><rect x="38.698" y="25.229" width="2.385" height="2.385" fill="#1334d6" data-fill-palette-color="accent"></rect><rect x="42.068" y="25.229" width="2.385" height="2.385" fill="#1334d6" data-fill-palette-color="accent"></rect><rect x="52.178" y="25.229" width="2.385" height="2.385" fill="#1334d6" data-fill-palette-color="accent"></rect><rect x="62.287" y="25.229" width="2.385" height="2.385" fill="#1334d6" data-fill-palette-color="accent"></rect><rect x="72.396" y="25.229" width="2.385" height="2.385" fill="#1334d6" data-fill-palette-color="accent"></rect></g><g fill="#1334d6" data-fill-palette-color="accent"><rect x="15.109" y="28.597" width="2.386" height="2.384" fill="#1334d6" data-fill-palette-color="accent"></rect><rect x="18.479" y="28.597" width="2.385" height="2.384" fill="#1334d6" data-fill-palette-color="accent"></rect><rect x="21.85" y="28.597" width="2.385" height="2.384" fill="#1334d6" data-fill-palette-color="accent"></rect><rect x="25.219" y="28.597" width="2.386" height="2.384" fill="#1334d6" data-fill-palette-color="accent"></rect><rect x="31.959" y="28.597" width="2.385" height="2.384" fill="#1334d6" data-fill-palette-color="accent"></rect><rect x="35.328" y="28.597" width="2.386" height="2.384" fill="#1334d6" data-fill-palette-color="accent"></rect><rect x="38.698" y="28.597" width="2.385" height="2.384" fill="#1334d6" data-fill-palette-color="accent"></rect><rect x="58.916" y="28.597" width="2.385" height="2.384" fill="#1334d6" data-fill-palette-color="accent"></rect><rect x="65.656" y="28.597" width="2.385" height="2.384" fill="#1334d6" data-fill-palette-color="accent"></rect><rect x="69.025" y="28.597" width="2.387" height="2.384" fill="#1334d6" data-fill-palette-color="accent"></rect><rect x="72.396" y="28.597" width="2.385" height="2.384" fill="#1334d6" data-fill-palette-color="accent"></rect><rect x="75.766" y="28.597" width="2.385" height="2.384" fill="#1334d6" data-fill-palette-color="accent"></rect><rect x="79.137" y="28.597" width="2.385" height="2.384" fill="#1334d6" data-fill-palette-color="accent"></rect><rect x="82.506" y="28.597" width="2.385" height="2.384" fill="#1334d6" data-fill-palette-color="accent"></rect></g><g fill="#1334d6" data-fill-palette-color="accent"><rect x="5" y="31.966" width="2.386" height="2.384" fill="#1334d6" data-fill-palette-color="accent"></rect><rect x="8.37" y="31.966" width="2.385" height="2.384" fill="#1334d6" data-fill-palette-color="accent"></rect><rect x="11.74" y="31.966" width="2.385" height="2.384" fill="#1334d6" data-fill-palette-color="accent"></rect><rect x="15.109" y="31.966" width="2.386" height="2.384" fill="#1334d6" data-fill-palette-color="accent"></rect><rect x="18.479" y="31.966" width="2.385" height="2.384" fill="#1334d6" data-fill-palette-color="accent"></rect><rect x="21.85" y="31.966" width="2.385" height="2.384" fill="#1334d6" data-fill-palette-color="accent"></rect><rect x="25.219" y="31.966" width="2.386" height="2.384" fill="#1334d6" data-fill-palette-color="accent"></rect><rect x="28.589" y="31.966" width="2.385" height="2.384" fill="#1334d6" data-fill-palette-color="accent"></rect><rect x="35.328" y="31.966" width="2.386" height="2.384" fill="#1334d6" data-fill-palette-color="accent"></rect><rect x="38.698" y="31.966" width="2.385" height="2.384" fill="#1334d6" data-fill-palette-color="accent"></rect><rect x="52.178" y="31.966" width="2.385" height="2.384" fill="#1334d6" data-fill-palette-color="accent"></rect><rect x="55.547" y="31.966" width="2.385" height="2.384" fill="#1334d6" data-fill-palette-color="accent"></rect><rect x="58.916" y="31.966" width="2.385" height="2.384" fill="#1334d6" data-fill-palette-color="accent"></rect><rect x="62.287" y="31.966" width="2.385" height="2.384" fill="#1334d6" data-fill-palette-color="accent"></rect><rect x="65.656" y="31.966" width="2.385" height="2.384" fill="#1334d6" data-fill-palette-color="accent"></rect><rect x="69.025" y="31.966" width="2.387" height="2.384" fill="#1334d6" data-fill-palette-color="accent"></rect><rect x="72.396" y="31.966" width="2.385" height="2.384" fill="#1334d6" data-fill-palette-color="accent"></rect><rect x="75.766" y="31.966" width="2.385" height="2.384" fill="#1334d6" data-fill-palette-color="accent"></rect><rect x="79.137" y="31.966" width="2.385" height="2.384" fill="#1334d6" data-fill-palette-color="accent"></rect><rect x="82.506" y="31.966" width="2.385" height="2.384" fill="#1334d6" data-fill-palette-color="accent"></rect><rect x="85.875" y="31.966" width="2.385" height="2.384" fill="#1334d6" data-fill-palette-color="accent"></rect><rect x="89.246" y="31.966" width="2.385" height="2.384" fill="#1334d6" data-fill-palette-color="accent"></rect></g><g fill="#1334d6" data-fill-palette-color="accent"><rect x="5" y="35.334" width="2.386" height="2.384" fill="#1334d6" data-fill-palette-color="accent"></rect><rect x="8.37" y="35.334" width="2.385" height="2.384" fill="#1334d6" data-fill-palette-color="accent"></rect><rect x="11.74" y="35.334" width="2.385" height="2.384" fill="#1334d6" data-fill-palette-color="accent"></rect><rect x="15.109" y="35.334" width="2.386" height="2.384" fill="#1334d6" data-fill-palette-color="accent"></rect><rect x="18.479" y="35.334" width="2.385" height="2.384" fill="#1334d6" data-fill-palette-color="accent"></rect><rect x="21.85" y="35.334" width="2.385" height="2.384" fill="#1334d6" data-fill-palette-color="accent"></rect><rect x="25.219" y="35.334" width="2.386" height="2.384" fill="#1334d6" data-fill-palette-color="accent"></rect><rect x="28.589" y="35.334" width="2.385" height="2.384" fill="#1334d6" data-fill-palette-color="accent"></rect><rect x="35.328" y="35.334" width="2.386" height="2.384" fill="#1334d6" data-fill-palette-color="accent"></rect><rect x="42.068" y="35.334" width="2.385" height="2.384" fill="#1334d6" data-fill-palette-color="accent"></rect><rect x="48.808" y="35.334" width="2.383" height="2.384" fill="#1334d6" data-fill-palette-color="accent"></rect><rect x="52.178" y="35.334" width="2.385" height="2.384" fill="#1334d6" data-fill-palette-color="accent"></rect><rect x="55.547" y="35.334" width="2.385" height="2.384" fill="#1334d6" data-fill-palette-color="accent"></rect><rect x="58.916" y="35.334" width="2.385" height="2.384" fill="#1334d6" data-fill-palette-color="accent"></rect><rect x="62.287" y="35.334" width="2.385" height="2.384" fill="#1334d6" data-fill-palette-color="accent"></rect><rect x="65.656" y="35.334" width="2.385" height="2.384" fill="#1334d6" data-fill-palette-color="accent"></rect><rect x="69.025" y="35.334" width="2.387" height="2.384" fill="#1334d6" data-fill-palette-color="accent"></rect><rect x="72.396" y="35.334" width="2.385" height="2.384" fill="#1334d6" data-fill-palette-color="accent"></rect><rect x="75.766" y="35.334" width="2.385" height="2.384" fill="#1334d6" data-fill-palette-color="accent"></rect><rect x="79.137" y="35.334" width="2.385" height="2.384" fill="#1334d6" data-fill-palette-color="accent"></rect><rect x="82.506" y="35.334" width="2.385" height="2.384" fill="#1334d6" data-fill-palette-color="accent"></rect><rect x="85.875" y="35.334" width="2.385" height="2.384" fill="#1334d6" data-fill-palette-color="accent"></rect><rect x="89.246" y="35.334" width="2.385" height="2.384" fill="#1334d6" data-fill-palette-color="accent"></rect><rect x="92.615" y="35.334" width="2.385" height="2.384" fill="#1334d6" data-fill-palette-color="accent"></rect></g><g fill="#1334d6" data-fill-palette-color="accent"><rect x="5" y="38.702" width="2.386" height="2.384" fill="#1334d6" data-fill-palette-color="accent"></rect><rect x="8.37" y="38.702" width="2.385" height="2.384" fill="#1334d6" data-fill-palette-color="accent"></rect><rect x="11.74" y="38.702" width="2.385" height="2.384" fill="#1334d6" data-fill-palette-color="accent"></rect><rect x="15.109" y="38.702" width="2.386" height="2.384" fill="#1334d6" data-fill-palette-color="accent"></rect><rect x="18.479" y="38.702" width="2.385" height="2.384" fill="#1334d6" data-fill-palette-color="accent"></rect><rect x="21.85" y="38.702" width="2.385" height="2.384" fill="#1334d6" data-fill-palette-color="accent"></rect><rect x="25.219" y="38.702" width="2.386" height="2.384" fill="#1334d6" data-fill-palette-color="accent"></rect><rect x="28.589" y="38.702" width="2.385" height="2.384" fill="#1334d6" data-fill-palette-color="accent"></rect><rect x="45.438" y="38.702" width="2.386" height="2.384" fill="#1334d6" data-fill-palette-color="accent"></rect><rect x="48.808" y="38.702" width="2.383" height="2.384" fill="#1334d6" data-fill-palette-color="accent"></rect><rect x="52.178" y="38.702" width="2.385" height="2.384" fill="#1334d6" data-fill-palette-color="accent"></rect><rect x="55.547" y="38.702" width="2.385" height="2.384" fill="#1334d6" data-fill-palette-color="accent"></rect><rect x="58.916" y="38.702" width="2.385" height="2.384" fill="#1334d6" data-fill-palette-color="accent"></rect><rect x="62.287" y="38.702" width="2.385" height="2.384" fill="#1334d6" data-fill-palette-color="accent"></rect><rect x="65.656" y="38.702" width="2.385" height="2.384" fill="#1334d6" data-fill-palette-color="accent"></rect><rect x="69.025" y="38.702" width="2.387" height="2.384" fill="#1334d6" data-fill-palette-color="accent"></rect><rect x="72.396" y="38.702" width="2.385" height="2.384" fill="#1334d6" data-fill-palette-color="accent"></rect><rect x="75.766" y="38.702" width="2.385" height="2.384" fill="#1334d6" data-fill-palette-color="accent"></rect><rect x="79.137" y="38.702" width="2.385" height="2.384" fill="#1334d6" data-fill-palette-color="accent"></rect><rect x="82.506" y="38.702" width="2.385" height="2.384" fill="#1334d6" data-fill-palette-color="accent"></rect><rect x="85.875" y="38.702" width="2.385" height="2.384" fill="#1334d6" data-fill-palette-color="accent"></rect></g><g fill="#1334d6" data-fill-palette-color="accent"><rect x="15.109" y="42.071" width="2.386" height="2.384" fill="#1334d6" data-fill-palette-color="accent"></rect><rect x="18.479" y="42.071" width="2.385" height="2.384" fill="#1334d6" data-fill-palette-color="accent"></rect><rect x="21.85" y="42.071" width="2.385" height="2.384" fill="#1334d6" data-fill-palette-color="accent"></rect><rect x="25.219" y="42.071" width="2.386" height="2.384" fill="#1334d6" data-fill-palette-color="accent"></rect><rect x="28.589" y="42.071" width="2.385" height="2.384" fill="#1334d6" data-fill-palette-color="accent"></rect><rect x="31.959" y="42.071" width="2.385" height="2.384" fill="#1334d6" data-fill-palette-color="accent"></rect><rect x="45.438" y="42.071" width="2.386" height="2.384" fill="#1334d6" data-fill-palette-color="accent"></rect><rect x="48.808" y="42.071" width="2.383" height="2.384" fill="#1334d6" data-fill-palette-color="accent"></rect><rect x="52.178" y="42.071" width="2.385" height="2.384" fill="#1334d6" data-fill-palette-color="accent"></rect><rect x="55.547" y="42.071" width="2.385" height="2.384" fill="#1334d6" data-fill-palette-color="accent"></rect><rect x="58.916" y="42.071" width="2.385" height="2.384" fill="#1334d6" data-fill-palette-color="accent"></rect><rect x="62.287" y="42.071" width="2.385" height="2.384" fill="#1334d6" data-fill-palette-color="accent"></rect><rect x="65.656" y="42.071" width="2.385" height="2.384" fill="#1334d6" data-fill-palette-color="accent"></rect><rect x="69.025" y="42.071" width="2.387" height="2.384" fill="#1334d6" data-fill-palette-color="accent"></rect><rect x="72.396" y="42.071" width="2.385" height="2.384" fill="#1334d6" data-fill-palette-color="accent"></rect><rect x="75.766" y="42.071" width="2.385" height="2.384" fill="#1334d6" data-fill-palette-color="accent"></rect><rect x="79.137" y="42.071" width="2.385" height="2.384" fill="#1334d6" data-fill-palette-color="accent"></rect><rect x="85.875" y="42.071" width="2.385" height="2.384" fill="#1334d6" data-fill-palette-color="accent"></rect></g><g fill="#1334d6" data-fill-palette-color="accent"><rect x="15.109" y="45.44" width="2.386" height="2.384" fill="#1334d6" data-fill-palette-color="accent"></rect><rect x="18.479" y="45.44" width="2.385" height="2.384" fill="#1334d6" data-fill-palette-color="accent"></rect><rect x="21.85" y="45.44" width="2.385" height="2.384" fill="#1334d6" data-fill-palette-color="accent"></rect><rect x="25.219" y="45.44" width="2.386" height="2.384" fill="#1334d6" data-fill-palette-color="accent"></rect><rect x="28.589" y="45.44" width="2.385" height="2.384" fill="#1334d6" data-fill-palette-color="accent"></rect><rect x="45.438" y="45.44" width="2.386" height="2.384" fill="#1334d6" data-fill-palette-color="accent"></rect><rect x="52.178" y="45.44" width="2.385" height="2.384" fill="#1334d6" data-fill-palette-color="accent"></rect><rect x="55.547" y="45.44" width="2.385" height="2.384" fill="#1334d6" data-fill-palette-color="accent"></rect><rect x="58.916" y="45.44" width="2.385" height="2.384" fill="#1334d6" data-fill-palette-color="accent"></rect><rect x="62.287" y="45.44" width="2.385" height="2.384" fill="#1334d6" data-fill-palette-color="accent"></rect><rect x="65.656" y="45.44" width="2.385" height="2.384" fill="#1334d6" data-fill-palette-color="accent"></rect><rect x="69.025" y="45.44" width="2.387" height="2.384" fill="#1334d6" data-fill-palette-color="accent"></rect><rect x="72.396" y="45.44" width="2.385" height="2.384" fill="#1334d6" data-fill-palette-color="accent"></rect><rect x="75.766" y="45.44" width="2.385" height="2.384" fill="#1334d6" data-fill-palette-color="accent"></rect><rect x="79.137" y="45.44" width="2.385" height="2.384" fill="#1334d6" data-fill-palette-color="accent"></rect><rect x="82.506" y="45.44" width="2.385" height="2.384" fill="#1334d6" data-fill-palette-color="accent"></rect></g><g fill="#1334d6" data-fill-palette-color="accent"><rect x="18.479" y="48.809" width="2.385" height="2.382" fill="#1334d6" data-fill-palette-color="accent"></rect><rect x="21.85" y="48.809" width="2.385" height="2.382" fill="#1334d6" data-fill-palette-color="accent"></rect><rect x="25.219" y="48.809" width="2.386" height="2.382" fill="#1334d6" data-fill-palette-color="accent"></rect><rect x="42.068" y="48.809" width="2.385" height="2.382" fill="#1334d6" data-fill-palette-color="accent"></rect><rect x="45.438" y="48.809" width="2.386" height="2.382" fill="#1334d6" data-fill-palette-color="accent"></rect><rect x="48.808" y="48.809" width="2.383" height="2.382" fill="#1334d6" data-fill-palette-color="accent"></rect><rect x="52.178" y="48.809" width="2.385" height="2.382" fill="#1334d6" data-fill-palette-color="accent"></rect><rect x="55.547" y="48.809" width="2.385" height="2.382" fill="#1334d6" data-fill-palette-color="accent"></rect><rect x="58.916" y="48.809" width="2.385" height="2.382" fill="#1334d6" data-fill-palette-color="accent"></rect><rect x="62.287" y="48.809" width="2.385" height="2.382" fill="#1334d6" data-fill-palette-color="accent"></rect><rect x="65.656" y="48.809" width="2.385" height="2.382" fill="#1334d6" data-fill-palette-color="accent"></rect><rect x="69.025" y="48.809" width="2.387" height="2.382" fill="#1334d6" data-fill-palette-color="accent"></rect><rect x="72.396" y="48.809" width="2.385" height="2.382" fill="#1334d6" data-fill-palette-color="accent"></rect><rect x="75.766" y="48.809" width="2.385" height="2.382" fill="#1334d6" data-fill-palette-color="accent"></rect><rect x="79.137" y="48.809" width="2.385" height="2.382" fill="#1334d6" data-fill-palette-color="accent"></rect></g><g fill="#1334d6" data-fill-palette-color="accent"><rect x="21.85" y="52.178" width="2.385" height="2.383" fill="#1334d6" data-fill-palette-color="accent"></rect><rect x="25.219" y="52.178" width="2.386" height="2.383" fill="#1334d6" data-fill-palette-color="accent"></rect><rect x="28.589" y="52.178" width="2.385" height="2.383" fill="#1334d6" data-fill-palette-color="accent"></rect><rect x="42.068" y="52.178" width="2.385" height="2.383" fill="#1334d6" data-fill-palette-color="accent"></rect><rect x="45.438" y="52.178" width="2.386" height="2.383" fill="#1334d6" data-fill-palette-color="accent"></rect><rect x="48.808" y="52.178" width="2.383" height="2.383" fill="#1334d6" data-fill-palette-color="accent"></rect><rect x="52.178" y="52.178" width="2.385" height="2.383" fill="#1334d6" data-fill-palette-color="accent"></rect><rect x="55.547" y="52.178" width="2.385" height="2.383" fill="#1334d6" data-fill-palette-color="accent"></rect><rect x="58.916" y="52.178" width="2.385" height="2.383" fill="#1334d6" data-fill-palette-color="accent"></rect><rect x="65.656" y="52.178" width="2.385" height="2.383" fill="#1334d6" data-fill-palette-color="accent"></rect><rect x="72.396" y="52.178" width="2.385" height="2.383" fill="#1334d6" data-fill-palette-color="accent"></rect><rect x="75.766" y="52.178" width="2.385" height="2.383" fill="#1334d6" data-fill-palette-color="accent"></rect></g><g fill="#1334d6" data-fill-palette-color="accent"><rect x="28.589" y="55.547" width="2.385" height="2.383" fill="#1334d6" data-fill-palette-color="accent"></rect><rect x="31.959" y="55.547" width="2.385" height="2.383" fill="#1334d6" data-fill-palette-color="accent"></rect><rect x="45.438" y="55.547" width="2.386" height="2.383" fill="#1334d6" data-fill-palette-color="accent"></rect><rect x="48.808" y="55.547" width="2.383" height="2.383" fill="#1334d6" data-fill-palette-color="accent"></rect><rect x="52.178" y="55.547" width="2.385" height="2.383" fill="#1334d6" data-fill-palette-color="accent"></rect><rect x="55.547" y="55.547" width="2.385" height="2.383" fill="#1334d6" data-fill-palette-color="accent"></rect></g><g fill="#1334d6" data-fill-palette-color="accent"><rect x="25.219" y="58.914" width="2.386" height="2.385" fill="#1334d6" data-fill-palette-color="accent"></rect><rect x="28.589" y="58.914" width="2.385" height="2.385" fill="#1334d6" data-fill-palette-color="accent"></rect><rect x="31.959" y="58.914" width="2.385" height="2.385" fill="#1334d6" data-fill-palette-color="accent"></rect><rect x="35.328" y="58.914" width="2.386" height="2.385" fill="#1334d6" data-fill-palette-color="accent"></rect><rect x="48.808" y="58.914" width="2.383" height="2.385" fill="#1334d6" data-fill-palette-color="accent"></rect><rect x="52.178" y="58.914" width="2.385" height="2.385" fill="#1334d6" data-fill-palette-color="accent"></rect><rect x="55.547" y="58.914" width="2.385" height="2.385" fill="#1334d6" data-fill-palette-color="accent"></rect><rect x="72.396" y="58.914" width="2.385" height="2.385" fill="#1334d6" data-fill-palette-color="accent"></rect><rect x="75.766" y="58.914" width="2.385" height="2.385" fill="#1334d6" data-fill-palette-color="accent"></rect><rect x="79.137" y="58.914" width="2.385" height="2.385" fill="#1334d6" data-fill-palette-color="accent"></rect><rect x="82.506" y="58.914" width="2.385" height="2.385" fill="#1334d6" data-fill-palette-color="accent"></rect></g><g fill="#1334d6" data-fill-palette-color="accent"><rect x="28.589" y="62.283" width="2.385" height="2.383" fill="#1334d6" data-fill-palette-color="accent"></rect><rect x="31.959" y="62.283" width="2.385" height="2.383" fill="#1334d6" data-fill-palette-color="accent"></rect><rect x="35.328" y="62.283" width="2.386" height="2.383" fill="#1334d6" data-fill-palette-color="accent"></rect><rect x="48.808" y="62.283" width="2.383" height="2.383" fill="#1334d6" data-fill-palette-color="accent"></rect><rect x="52.178" y="62.283" width="2.385" height="2.383" fill="#1334d6" data-fill-palette-color="accent"></rect><rect x="58.916" y="62.283" width="2.385" height="2.383" fill="#1334d6" data-fill-palette-color="accent"></rect><rect x="75.766" y="62.283" width="2.385" height="2.383" fill="#1334d6" data-fill-palette-color="accent"></rect><rect x="79.137" y="62.283" width="2.385" height="2.383" fill="#1334d6" data-fill-palette-color="accent"></rect><rect x="82.506" y="62.283" width="2.385" height="2.383" fill="#1334d6" data-fill-palette-color="accent"></rect><rect x="85.875" y="62.283" width="2.385" height="2.383" fill="#1334d6" data-fill-palette-color="accent"></rect></g><g fill="#1334d6" data-fill-palette-color="accent"><rect x="28.589" y="65.652" width="2.385" height="2.383" fill="#1334d6" data-fill-palette-color="accent"></rect><rect x="31.959" y="65.652" width="2.385" height="2.383" fill="#1334d6" data-fill-palette-color="accent"></rect><rect x="52.178" y="65.652" width="2.385" height="2.383" fill="#1334d6" data-fill-palette-color="accent"></rect><rect x="75.766" y="65.652" width="2.385" height="2.383" fill="#1334d6" data-fill-palette-color="accent"></rect><rect x="79.137" y="65.652" width="2.385" height="2.383" fill="#1334d6" data-fill-palette-color="accent"></rect><rect x="82.506" y="65.652" width="2.385" height="2.383" fill="#1334d6" data-fill-palette-color="accent"></rect></g><g fill="#1334d6" data-fill-palette-color="accent"><rect x="28.589" y="69.02" width="2.385" height="2.387" fill="#1334d6" data-fill-palette-color="accent"></rect><rect x="89.246" y="69.02" width="2.385" height="2.387" fill="#1334d6" data-fill-palette-color="accent"></rect></g><g fill="#1334d6" data-fill-palette-color="accent"><rect x="28.589" y="72.389" width="2.385" height="2.383" fill="#1334d6" data-fill-palette-color="accent"></rect></g></g></g></svg></g></svg></g></svg></g><defs></defs></svg><rect width="395.52" height="45.75497699842258" fill="none" stroke="none" visibility="hidden"></rect></g></svg></g></svg>