<svg xmlns="http://www.w3.org/2000/svg" version="1.1" xmlns:xlink="http://www.w3.org/1999/xlink" xmlns:svgjs="http://svgjs.dev/svgjs" width="2000" height="237" viewBox="0 0 2000 237"><g transform="matrix(1,0,0,1,-1.2121212121212466,-2.3961408058305693)"><svg viewBox="0 0 396 47" data-background-color="#121212" preserveAspectRatio="xMidYMid meet" height="237" width="2000" xmlns="http://www.w3.org/2000/svg" xmlns:xlink="http://www.w3.org/1999/xlink"><g id="tight-bounds" transform="matrix(1,0,0,1,0.2400000000000091,0.475184041662601)"><svg viewBox="0 0 395.52 46.04963191667481" height="46.04963191667481" width="395.52"><g><svg viewBox="0 0 508.794533239433 59.23796768024944" height="46.04963191667481" width="395.52"><g transform="matrix(1,0,0,1,111.29693323943306,10.112790747131434)"><svg viewBox="0 0 397.4975999999999 39.01238618598657" height="39.01238618598657" width="397.4975999999999"><g id="textblocktransform"><svg viewBox="0 0 397.4975999999999 39.01238618598657" height="39.01238618598657" width="397.4975999999999" id="textblock"><g><rect width="397.4975999999999" height="1.4076770724997332" x="0" y="20.336992326268387" fill="#ffffff" opacity="1" stroke-width="0" stroke="transparent" fill-opacity="1" class="rect-yte-0" data-fill-palette-color="primary" rx="1%" id="yte-0" data-palette-color="#ffffff"></rect></g><g transform="matrix(1,0,0,1,0.9887999999999693,0)"><svg viewBox="0 0 395.52 18.678733994789646" height="18.678733994789646" width="395.52"><g transform="matrix(1,0,0,1,0,0)"><svg width="395.52" viewBox="-0.3500000000000001 -39 902.98 43.6" height="18.678733994789646" data-palette-color="#ffffff"><path d="M24.85-34.45L24.85-11.45Q24.85-6.4 22.08-2.9 19.3 0.6 13.05 0.6L13.05 0.6Q10.5 0.6 8.08-0.2 5.65-1 3.65-2.55L3.65-2.55 5.55-5.4Q9.3-3.05 13-3.05L13-3.05Q16.6-3.05 18.55-5.33 20.5-7.6 20.5-11.65L20.5-11.65 20.5-30.9 10.3-30.9 10.3-34.45 24.85-34.45ZM57.65-17.2Q57.65-9.15 54.37-4.3 51.1 0.55 45 0.55L45 0.55Q38.85 0.55 35.6-4.2 32.35-8.95 32.35-17.15L32.35-17.15Q32.35-22.4 33.8-26.45 35.25-30.5 38.1-32.75 40.95-35 45-35L45-35Q51.1-35 54.37-30.18 57.65-25.35 57.65-17.2L57.65-17.2ZM53.15-17.2Q53.15-24.25 51.2-27.8 49.25-31.35 45-31.35L45-31.35Q40.75-31.35 38.8-27.78 36.85-24.2 36.85-17.15L36.85-17.15Q36.85-10.15 38.82-6.63 40.8-3.1 45-3.1L45-3.1Q49.25-3.1 51.2-6.63 53.15-10.15 53.15-17.2L53.15-17.2ZM70.59-30.85L70.59-19.25 83.4-19.25 83.4-15.7 70.59-15.7 70.59-3.5 86.3-3.5 86.3 0 66.3 0 66.3-34.45 85.84-34.45 85.34-30.85 70.59-30.85ZM146.54-34.45L148.49 0 144.29 0 143.24-18Q142.94-22.75 142.94-30.45L142.94-30.45 137.14-6.2 132.79-6.2 126.59-30.45Q126.69-28.65 126.69-25.65L126.69-25.65Q126.69-21.05 126.49-18L126.49-18 125.59 0 121.49 0 123.44-34.45 129.49-34.45 135.09-10.85 140.44-34.45 146.54-34.45ZM160.59-30.85L160.59-19.25 173.39-19.25 173.39-15.7 160.59-15.7 160.59-3.5 176.29-3.5 176.29 0 156.29 0 156.29-34.45 175.84-34.45 175.34-30.85 160.59-30.85ZM199.74 0L187.59-30.25Q187.59-29.9 187.89-25.9 188.19-21.9 188.19-17.25L188.19-17.25 188.19 0 184.14 0 184.14-34.45 190.04-34.45 202.39-4.05 202.29-5.85Q201.79-12 201.79-17.2L201.79-17.2 201.79-34.45 205.84-34.45 205.84 0 199.74 0ZM237.63-17.4Q237.63-7.6 233.13-3.8 228.63 0 222.03 0L222.03 0 214.13 0 214.13-34.45 221.48-34.45Q228.73-34.45 233.18-30.8 237.63-27.15 237.63-17.4L237.63-17.4ZM232.98-17.4Q232.98-23 231.46-25.98 229.93-28.95 227.68-29.93 225.43-30.9 222.53-30.9L222.53-30.9 218.48-30.9 218.48-3.5 222.58-3.5Q227.03-3.5 230.01-6.58 232.98-9.65 232.98-17.4L232.98-17.4ZM250.58-30.85L250.58-19.25 263.38-19.25 263.38-15.7 250.58-15.7 250.58-3.5 266.28-3.5 266.28 0 246.28 0 246.28-34.45 265.83-34.45 265.33-30.85 250.58-30.85ZM278.33-3.75L296.33-3.75 295.83 0 273.58 0 273.58-3.5 291.73-30.7 275.38-30.7 275.38-34.45 296.38-34.45 296.38-30.85 278.33-3.75ZM306.23-13.85L306.23-17.45 323.73-17.45 323.73-13.85 306.23-13.85ZM351.47 0L351.47-16.35 338.47-16.35 338.47 0 334.12 0 334.12-34.45 338.47-34.45 338.47-19.9 351.47-19.9 351.47-34.45 355.82-34.45 355.82 0 351.47 0ZM386.37-34.45L386.37-11.15Q386.37-7.7 384.95-5.03 383.52-2.35 380.95-0.9 378.37 0.55 374.92 0.55L374.92 0.55Q371.42 0.55 368.87-0.93 366.32-2.4 364.95-5.05 363.57-7.7 363.57-11.15L363.57-11.15 363.57-34.45 367.92-34.45 367.92-11Q367.92-7.1 369.72-5.15 371.52-3.2 374.92-3.2L374.92-3.2Q378.32-3.2 380.15-5.15 381.97-7.1 381.97-11L381.97-11 381.97-34.45 386.37-34.45ZM405.67 0.55Q399.37 0.55 395.79-3.98 392.22-8.5 392.22-17.25L392.22-17.25Q392.22-22.95 394.22-26.95 396.22-30.95 399.52-32.98 402.82-35 406.67-35L406.67-35Q409.92-35 412.12-34.1 414.32-33.2 416.47-31.2L416.47-31.2 413.87-28.5Q412.27-29.95 410.54-30.65 408.82-31.35 406.67-31.35L406.67-31.35Q402.47-31.35 399.67-28 396.87-24.65 396.87-17.25L396.87-17.25Q396.87-9.9 399.14-6.5 401.42-3.1 406.02-3.1L406.02-3.1Q409.67-3.1 412.57-4.75L412.57-4.75 412.57-15.2 405.82-15.2 405.32-18.85 416.92-18.85 416.92-2.45Q414.32-1 411.69-0.23 409.07 0.55 405.67 0.55L405.67 0.55ZM441.47 0L441.47-16.35 428.47-16.35 428.47 0 424.12 0 424.12-34.45 428.47-34.45 428.47-19.9 441.47-19.9 441.47-34.45 445.82-34.45 445.82 0 441.47 0ZM460.56-30.85L460.56-19.25 473.36-19.25 473.36-15.7 460.56-15.7 460.56-3.5 476.26-3.5 476.26 0 456.26 0 456.26-34.45 475.81-34.45 475.31-30.85 460.56-30.85ZM506.81-9.55Q506.81-6.55 505.31-4.28 503.81-2 500.96-0.73 498.11 0.55 494.21 0.55L494.21 0.55Q490.46 0.55 487.39-0.58 484.31-1.7 482.11-3.8L482.11-3.8 484.71-6.75Q486.61-4.95 488.94-4 491.26-3.05 494.26-3.05L494.26-3.05Q497.66-3.05 499.96-4.7 502.26-6.35 502.26-9.45L502.26-9.45Q502.26-11.2 501.61-12.35 500.96-13.5 499.34-14.4 497.71-15.3 494.76-16.15L494.76-16.15Q489.16-17.8 486.41-20.03 483.66-22.25 483.66-26.1L483.66-26.1Q483.66-28.65 485.06-30.7 486.46-32.75 489.01-33.88 491.56-35 494.81-35L494.81-35Q498.21-35 500.89-34 503.56-33 505.81-31.05L505.81-31.05 503.21-28.25Q499.66-31.35 494.96-31.35L494.96-31.35Q491.96-31.35 490.01-30.05 488.06-28.75 488.06-26.25L488.06-26.25Q488.06-24.75 488.86-23.7 489.66-22.65 491.51-21.75 493.36-20.85 496.71-19.9L496.71-19.9Q501.56-18.5 504.19-16.25 506.81-14 506.81-9.55L506.81-9.55ZM520.91-21.55Q520.91-23.2 522.06-24.38 523.21-25.55 524.91-25.55L524.91-25.55Q526.66-25.55 527.81-24.38 528.96-23.2 528.96-21.55L528.96-21.55Q528.96-19.85 527.81-18.65 526.66-17.45 524.91-17.45L524.91-17.45Q523.21-17.45 522.06-18.65 520.91-19.85 520.91-21.55L520.91-21.55ZM520.91-3.5Q520.91-5.15 522.06-6.35 523.21-7.55 524.91-7.55L524.91-7.55Q526.66-7.55 527.81-6.38 528.96-5.2 528.96-3.5L528.96-3.5Q528.96-1.75 527.81-0.6 526.66 0.55 524.91 0.55L524.91 0.55Q523.21 0.55 522.06-0.6 520.91-1.75 520.91-3.5L520.91-3.5ZM591.65-8.8L578-8.8 575.25 0 570.95 0 582.2-34.45 587.7-34.45 598.9 0 594.4 0 591.65-8.8ZM579.15-12.4L590.5-12.4 584.85-30.75 579.15-12.4ZM624.8-34.45L624.8-30.95 617.15-30.95 617.15-3.45 624.8-3.45 624.8 0 605.1 0 605.1-3.45 612.75-3.45 612.75-30.95 605.1-30.95 605.1-34.45 624.8-34.45ZM670.54-30.85L670.54-19.25 683.34-19.25 683.34-15.7 670.54-15.7 670.54-3.5 686.24-3.5 686.24 0 666.24 0 666.24-34.45 685.79-34.45 685.29-30.85 670.54-30.85ZM709.69 0L697.54-30.25Q697.54-29.9 697.84-25.9 698.14-21.9 698.14-17.25L698.14-17.25 698.14 0 694.09 0 694.09-34.45 699.99-34.45 712.34-4.05 712.24-5.85Q711.74-12 711.74-17.2L711.74-17.2 711.74-34.45 715.79-34.45 715.79 0 709.69 0ZM735.64 0.55Q729.34 0.55 725.76-3.98 722.19-8.5 722.19-17.25L722.19-17.25Q722.19-22.95 724.19-26.95 726.19-30.95 729.49-32.98 732.79-35 736.64-35L736.64-35Q739.89-35 742.09-34.1 744.29-33.2 746.44-31.2L746.44-31.2 743.84-28.5Q742.24-29.95 740.51-30.65 738.79-31.35 736.64-31.35L736.64-31.35Q732.44-31.35 729.64-28 726.84-24.65 726.84-17.25L726.84-17.25Q726.84-9.9 729.11-6.5 731.39-3.1 735.99-3.1L735.99-3.1Q739.64-3.1 742.54-4.75L742.54-4.75 742.54-15.2 735.79-15.2 735.29-18.85 746.89-18.85 746.89-2.45Q744.29-1 741.66-0.23 739.04 0.55 735.64 0.55L735.64 0.55ZM774.79-34.45L774.79-30.95 767.14-30.95 767.14-3.45 774.79-3.45 774.79 0 755.09 0 755.09-3.45 762.74-3.45 762.74-30.95 755.09-30.95 755.09-34.45 774.79-34.45ZM799.68 0L787.53-30.25Q787.53-29.9 787.83-25.9 788.13-21.9 788.13-17.25L788.13-17.25 788.13 0 784.08 0 784.08-34.45 789.98-34.45 802.33-4.05 802.23-5.85Q801.73-12 801.73-17.2L801.73-17.2 801.73-34.45 805.78-34.45 805.78 0 799.68 0ZM820.53-30.85L820.53-19.25 833.33-19.25 833.33-15.7 820.53-15.7 820.53-3.5 836.23-3.5 836.23 0 816.23 0 816.23-34.45 835.78-34.45 835.28-30.85 820.53-30.85ZM850.53-30.85L850.53-19.25 863.33-19.25 863.33-15.7 850.53-15.7 850.53-3.5 866.23-3.5 866.23 0 846.23 0 846.23-34.45 865.78-34.45 865.28-30.85 850.53-30.85ZM896.78-24.75Q896.78-21.05 894.48-18.63 892.18-16.2 888.38-15.25L888.38-15.25 898.63 0 893.43 0 883.98-14.75 879.33-14.75 879.33 0 875.03 0 875.03-34.45 883.83-34.45Q890.23-34.45 893.5-32 896.78-29.55 896.78-24.75L896.78-24.75ZM892.18-24.75Q892.18-28.05 890.28-29.5 888.38-30.95 884.33-30.95L884.33-30.95 879.33-30.95 879.33-18.15 884.38-18.15Q888.23-18.15 890.2-19.73 892.18-21.3 892.18-24.75L892.18-24.75Z" opacity="1" transform="matrix(1,0,0,1,0,0)" fill="#ffffff" class="wordmark-text-0" data-fill-palette-color="primary" id="text-0"></path></svg></g></svg></g><g transform="matrix(1,0,0,1,3.5,23.402927730246866)"><svg viewBox="0 0 388.52 15.609458455739707" height="15.609458455739707" width="388.52"><g transform="matrix(1,0,0,1,0,0)"><svg width="388.52" viewBox="-4.05 -43 1419.6599999999999 57.8" height="15.609458455739707" data-palette-color="#76bb02"><path d="M16.2-35.05Q19.45-35.05 21.9-34 24.35-32.95 26.35-30.9L26.35-30.9 23.4-28.15Q21.8-29.75 20.08-30.45 18.35-31.15 16.2-31.15L16.2-31.15Q13.15-31.15 11.15-29.65 9.15-28.15 9.15-25.55L9.15-25.55Q9.15-23.55 10.5-22.35 11.85-21.15 15.6-19.9L15.6-19.9Q19.9-18.55 22.25-16.5 24.6-14.45 24.6-10.45L24.6-10.45Q24.6-7.65 23.13-5.13 21.65-2.6 18.63-1 15.6 0.6 11.1 0.6L11.1 0.6Q4 0.6-0.05-4L-0.05-4 2.95-6.8Q4.55-5.05 6.55-4.17 8.55-3.3 11.2-3.3L11.2-3.3Q15.05-3.3 17.38-5.18 19.7-7.05 19.7-10.2L19.7-10.2Q19.7-12.4 18.32-13.68 16.95-14.95 13.35-16.2L13.35-16.2Q8.65-17.85 6.5-19.83 4.35-21.8 4.35-25.3L4.35-25.3Q4.35-27.65 5.75-29.9 7.15-32.15 9.83-33.6 12.5-35.05 16.2-35.05L16.2-35.05ZM78.57-26.95Q81.02-26.95 83.25-26.4 85.47-25.85 87.82-24.7L87.82-24.7 85.12-6Q85.02-5.2 85.02-4.9L85.02-4.9Q85.02-4 85.4-3.45 85.77-2.9 86.72-2.55L86.72-2.55 85.42 0.6Q83.32 0.35 82.17-0.7 81.02-1.75 80.77-3.8L80.77-3.8Q79.17-1.75 77.17-0.58 75.17 0.6 72.92 0.6L72.92 0.6Q68.92 0.6 66.72-2.15 64.52-4.9 64.52-9.5L64.52-9.5Q64.52-13.5 66-17.5 67.47-21.5 70.62-24.23 73.77-26.95 78.57-26.95L78.57-26.95ZM78.67-23.3Q75.52-23.3 73.45-21.18 71.37-19.05 70.4-15.88 69.42-12.7 69.42-9.45L69.42-9.45Q69.42-6.2 70.57-4.63 71.72-3.05 73.87-3.05L73.87-3.05Q75.92-3.05 77.55-4.3 79.17-5.55 80.92-7.9L80.92-7.9 82.97-22.45Q81.92-22.9 80.95-23.1 79.97-23.3 78.67-23.3L78.67-23.3ZM146.24-26.35L151.24-26.35 138.64 0 133.19 0 127.89-26.35 132.84-26.35 136.44-4.15 146.24-26.35ZM191.46-26.35L196.01-26.35 192.31 0 187.76 0 191.46-26.35ZM194.81-32.75Q193.46-32.75 192.66-33.58 191.86-34.4 191.86-35.6L191.86-35.6Q191.86-37.05 192.86-38.02 193.86-39 195.31-39L195.31-39Q196.66-39 197.46-38.2 198.26-37.4 198.26-36.15L198.26-36.15Q198.26-34.7 197.26-33.73 196.26-32.75 194.81-32.75L194.81-32.75ZM253.14-26.95Q256.04-26.95 257.71-25.18 259.39-23.4 259.39-20.3L259.39-20.3Q259.39-19.5 259.24-18.5L259.24-18.5 256.64 0 252.09 0 254.69-18.4Q254.79-19.5 254.79-19.85L254.79-19.85Q254.79-21.6 254.04-22.35 253.29-23.1 251.89-23.1L251.89-23.1Q249.59-23.1 247.46-21.05 245.34-19 243.54-15.8L243.54-15.8 241.34 0 236.79 0 240.49-26.35 244.39-26.35 243.99-21.2Q245.94-23.95 248.19-25.45 250.44-26.95 253.14-26.95L253.14-26.95ZM314.86-26.95Q317.36-26.95 319.58-26.4 321.81-25.85 324.16-24.7L324.16-24.7 320.51-0.6Q319.61 5.45 316.51 8.13 313.41 10.8 308.46 10.8L308.46 10.8Q306.11 10.8 303.68 10.1 301.26 9.4 299.36 8.25L299.36 8.25 301.11 4.75Q302.56 5.6 304.43 6.23 306.31 6.85 308.21 6.85L308.21 6.85Q311.36 6.85 313.41 5.3 315.46 3.75 316.06-0.65L316.06-0.65 316.51-4Q314.96-2.15 313.03-1.07 311.11 0 309.01 0L309.01 0Q305.06 0 302.81-2.68 300.56-5.35 300.56-9.9L300.56-9.9Q300.56-14.15 302.06-18.05 303.56-21.95 306.76-24.45 309.96-26.95 314.86-26.95L314.86-26.95ZM314.86-23.3Q311.71-23.3 309.58-21.35 307.46-19.4 306.46-16.32 305.46-13.25 305.46-9.85L305.46-9.85Q305.46-6.7 306.66-5.18 307.86-3.65 309.96-3.65L309.96-3.65Q311.96-3.65 313.68-4.95 315.41-6.25 317.16-8.6L317.16-8.6 319.31-22.45Q318.16-22.9 317.16-23.1 316.16-23.3 314.86-23.3L314.86-23.3ZM420.95-22.8L418.75-6.95Q418.65-5.95 418.65-5.65L418.65-5.65Q418.65-4.4 419.22-3.83 419.8-3.25 421-3.25L421-3.25Q421.9-3.25 422.77-3.53 423.65-3.8 424.8-4.35L424.8-4.35 426.3-1.15Q423.55 0.6 420.45 0.6L420.45 0.6Q417.4 0.6 415.75-0.98 414.1-2.55 414.1-5.45L414.1-5.45Q414.1-6.5 414.2-7.05L414.2-7.05 416.4-22.8 411.85-22.8 412.35-26.35 417.1-26.35 418.75-32.45 422.35-32.85 421.45-26.35 427.65-26.35 426.65-22.8 420.95-22.8ZM481.97-26.95Q484.97-26.95 486.67-25.2 488.37-23.45 488.37-20.35L488.37-20.35Q488.37-19.25 488.27-18.65L488.27-18.65 485.62 0 481.07 0 483.67-18.4Q483.77-19.5 483.77-19.9L483.77-19.9Q483.77-21.65 483.05-22.38 482.32-23.1 481.02-23.1L481.02-23.1Q478.62-23.1 476.45-21.05 474.27-19 472.47-15.8L472.47-15.8 470.32 0 465.77 0 470.97-36.9 475.57-37.4 473.27-21.4Q476.97-26.95 481.97-26.95L481.97-26.95ZM551.54-20.25Q551.54-15.2 547.04-12.95 542.54-10.7 534.44-9.8L534.44-9.8Q534.59-3.25 540.14-3.25L540.14-3.25Q541.99-3.25 543.69-3.85 545.39-4.45 547.19-5.7L547.19-5.7 549.14-2.6Q544.69 0.6 539.69 0.6L539.69 0.6Q534.89 0.6 532.27-2.23 529.64-5.05 529.64-10.1L529.64-10.1Q529.64-14.05 531.02-17.93 532.39-21.8 535.44-24.38 538.49-26.95 543.19-26.95L543.19-26.95Q547.19-26.95 549.37-25 551.54-23.05 551.54-20.25L551.54-20.25ZM534.69-13.3Q540.89-14 543.82-15.45 546.74-16.9 546.74-20.1L546.74-20.1Q546.74-21.3 545.89-22.3 545.04-23.3 543.14-23.3L543.14-23.3Q539.34-23.3 537.29-20.4 535.24-17.5 534.69-13.3L534.69-13.3ZM674.39-34.45L678.74-34.45 666.94 0 660.89 0 658.69-28.85 648.29 0 642.39 0 640.29-34.45 644.79-34.45 645.99-4.15 656.84-34.45 661.94-34.45 664.39-4.15 674.39-34.45ZM724.76 0.6Q719.91 0.6 717.28-2.3 714.66-5.2 714.66-10.3L714.66-10.3Q714.66-14 716.03-17.82 717.41-21.65 720.46-24.3 723.51-26.95 728.31-26.95L728.31-26.95Q733.16-26.95 735.76-24.05 738.36-21.15 738.36-16.05L738.36-16.05Q738.36-12.4 737.01-8.58 735.66-4.75 732.61-2.08 729.56 0.6 724.76 0.6L724.76 0.6ZM724.91-3.1Q728.06-3.1 730.01-5.28 731.96-7.45 732.76-10.53 733.56-13.6 733.56-16.55L733.56-16.55Q733.56-23.25 728.16-23.25L728.16-23.25Q725.01-23.25 723.06-21.08 721.11-18.9 720.28-15.83 719.46-12.75 719.46-9.8L719.46-9.8Q719.46-3.1 724.91-3.1L724.91-3.1ZM793.83-26.95Q795.08-26.95 796.48-26.6L796.48-26.6 795.13-22.15Q794.18-22.4 792.98-22.4L792.98-22.4Q790.53-22.4 788.7-20.28 786.88-18.15 785.43-13.95L785.43-13.95 783.43 0 778.88 0 782.58-26.35 786.48-26.35 786.18-20.95Q787.63-23.95 789.6-25.45 791.58-26.95 793.83-26.95L793.83-26.95ZM842.6-37.5L838.05-5.15Q838-4.9 838-4.5L838-4.5Q838-3.8 838.3-3.5 838.6-3.2 839.25-3.2L839.25-3.2Q840-3.2 841.05-3.55L841.05-3.55 842-0.25Q840.1 0.6 838.35 0.6L838.35 0.6Q836.05 0.6 834.77-0.65 833.5-1.9 833.5-4.35L833.5-4.35Q833.5-4.8 833.6-5.9L833.6-5.9 838-36.95 842.6-37.5ZM903.12-37.4L907.62-36.9 902.42 0 898.42 0 898.47-4.35Q897.02-2 895.02-0.7 893.02 0.6 890.52 0.6L890.52 0.6Q886.52 0.6 884.35-2.2 882.17-5 882.17-9.85L882.17-9.85Q882.17-13.65 883.45-17.6 884.72-21.55 887.47-24.25 890.22-26.95 894.42-26.95L894.42-26.95Q898.57-26.95 901.17-23.65L901.17-23.65 903.12-37.4ZM895.27-23.3Q892.32-23.3 890.47-21.1 888.62-18.9 887.82-15.73 887.02-12.55 887.02-9.5L887.02-9.5Q887.02-6.25 888.17-4.65 889.32-3.05 891.42-3.05L891.42-3.05Q893.72-3.05 895.47-4.55 897.22-6.05 899.17-9.15L899.17-9.15 900.72-20.1Q899.67-21.7 898.37-22.5 897.07-23.3 895.27-23.3L895.27-23.3ZM1008.66-33.8Q1006.51-33.8 1005.41-32.83 1004.31-31.85 1004.06-29.85L1004.06-29.85 1003.56-26.35 1009.91-26.35 1008.91-22.8 1003.06-22.8 1000.06-1.45Q999.56 2.2 998.39 4.38 997.21 6.55 995.34 7.9 993.46 9.25 990.21 10.65L990.21 10.65 988.91 7.2Q991.01 6.25 992.24 5.35 993.46 4.45 994.29 2.85 995.11 1.25 995.51-1.45L995.51-1.45 998.51-22.8 993.86-22.8 994.36-26.35 999.01-26.35 999.56-30.1Q1000.01-33.5 1002.36-35.5 1004.71-37.5 1008.51-37.5L1008.51-37.5Q1010.31-37.5 1011.71-37.05 1013.11-36.6 1014.71-35.6L1014.71-35.6 1012.96-32.55Q1011.11-33.8 1008.66-33.8L1008.66-33.8ZM1061.39-26.95Q1062.64-26.95 1064.04-26.6L1064.04-26.6 1062.69-22.15Q1061.74-22.4 1060.54-22.4L1060.54-22.4Q1058.09-22.4 1056.26-20.28 1054.44-18.15 1052.99-13.95L1052.99-13.95 1050.99 0 1046.44 0 1050.14-26.35 1054.04-26.35 1053.74-20.95Q1055.19-23.95 1057.16-25.45 1059.14-26.95 1061.39-26.95L1061.39-26.95ZM1110.41 0.6Q1105.56 0.6 1102.93-2.3 1100.31-5.2 1100.31-10.3L1100.31-10.3Q1100.31-14 1101.68-17.82 1103.06-21.65 1106.11-24.3 1109.16-26.95 1113.96-26.95L1113.96-26.95Q1118.81-26.95 1121.41-24.05 1124.01-21.15 1124.01-16.05L1124.01-16.05Q1124.01-12.4 1122.66-8.58 1121.31-4.75 1118.26-2.08 1115.21 0.6 1110.41 0.6L1110.41 0.6ZM1110.56-3.1Q1113.71-3.1 1115.66-5.28 1117.61-7.45 1118.41-10.53 1119.21-13.6 1119.21-16.55L1119.21-16.55Q1119.21-23.25 1113.81-23.25L1113.81-23.25Q1110.66-23.25 1108.71-21.08 1106.76-18.9 1105.93-15.83 1105.11-12.75 1105.11-9.8L1105.11-9.8Q1105.11-3.1 1110.56-3.1L1110.56-3.1ZM1194.73-26.95Q1197.38-26.95 1198.95-25.18 1200.53-23.4 1200.53-20.4L1200.53-20.4Q1200.53-19.3 1200.43-18.75L1200.43-18.75 1197.78 0 1193.23 0 1195.83-18.4Q1195.93-19 1195.93-19.95L1195.93-19.95Q1195.93-21.75 1195.18-22.43 1194.43-23.1 1193.08-23.1L1193.08-23.1Q1191.18-23.1 1189.33-21.13 1187.48-19.15 1185.63-15.9L1185.63-15.9 1183.38 0 1178.83 0 1181.43-18.4Q1181.53-19 1181.53-19.95L1181.53-19.95Q1181.53-21.75 1180.78-22.43 1180.03-23.1 1178.68-23.1L1178.68-23.1Q1176.78-23.1 1174.93-21.1 1173.08-19.1 1171.23-15.8L1171.23-15.8 1169.08 0 1164.53 0 1168.23-26.35 1172.13-26.35 1171.73-21.3Q1173.68-24.05 1175.75-25.5 1177.83-26.95 1180.33-26.95L1180.33-26.95Q1182.53-26.95 1184.13-25.55 1185.73-24.15 1186.08-21.6L1186.08-21.6Q1188.08-24.25 1190.2-25.6 1192.33-26.95 1194.73-26.95L1194.73-26.95ZM1313.37 0L1308.52 0 1307.17-8.65 1294.22-8.65 1290.42 0 1285.57 0 1301.37-34.45 1307.32-34.45 1313.37 0ZM1303.77-30.5L1295.87-12.5 1306.57-12.5 1303.77-30.5ZM1358.54-34.45L1363.24-34.45 1358.39 0 1353.69 0 1358.54-34.45ZM1407.86-11.5L1403.81-11.5 1406.56-34.45 1411.61-34.45 1407.86-11.5ZM1404.51 0.6Q1403.16 0.6 1402.29-0.3 1401.41-1.2 1401.41-2.55L1401.41-2.55Q1401.41-4.15 1402.49-5.25 1403.56-6.35 1405.11-6.35L1405.11-6.35Q1406.51-6.35 1407.39-5.45 1408.26-4.55 1408.26-3.2L1408.26-3.2Q1408.26-1.6 1407.16-0.5 1406.06 0.6 1404.51 0.6L1404.51 0.6Z" opacity="1" transform="matrix(1,0,0,1,0,0)" fill="#76bb02" class="slogan-text-1" data-fill-palette-color="secondary" id="text-1"></path></svg></g></svg></g></svg></g></svg></g><g><svg viewBox="0 0 107.61191472503585 59.23796768024944" height="59.23796768024944" width="107.61191472503585"><g><svg xmlns="http://www.w3.org/2000/svg" xmlns:xlink="http://www.w3.org/1999/xlink" version="1.1" x="0" y="0" viewBox="5 25.229 90 49.54299999999999" enable-background="new 0 0 100 100" xml:space="preserve" height="59.23796768024944" width="107.61191472503585" class="icon-icon-0" data-fill-palette-color="accent" id="icon-0"><g fill="#76bb02" data-fill-palette-color="accent"><g fill="#76bb02" data-fill-palette-color="accent"><g fill="#76bb02" data-fill-palette-color="accent"><rect x="18.479" y="25.229" width="2.385" height="2.385" fill="#76bb02" data-fill-palette-color="accent"></rect><rect x="21.85" y="25.229" width="2.385" height="2.385" fill="#76bb02" data-fill-palette-color="accent"></rect><rect x="25.219" y="25.229" width="2.386" height="2.385" fill="#76bb02" data-fill-palette-color="accent"></rect><rect x="28.589" y="25.229" width="2.385" height="2.385" fill="#76bb02" data-fill-palette-color="accent"></rect><rect x="31.959" y="25.229" width="2.385" height="2.385" fill="#76bb02" data-fill-palette-color="accent"></rect><rect x="35.328" y="25.229" width="2.386" height="2.385" fill="#76bb02" data-fill-palette-color="accent"></rect><rect x="38.698" y="25.229" width="2.385" height="2.385" fill="#76bb02" data-fill-palette-color="accent"></rect><rect x="42.068" y="25.229" width="2.385" height="2.385" fill="#76bb02" data-fill-palette-color="accent"></rect><rect x="52.178" y="25.229" width="2.385" height="2.385" fill="#76bb02" data-fill-palette-color="accent"></rect><rect x="62.287" y="25.229" width="2.385" height="2.385" fill="#76bb02" data-fill-palette-color="accent"></rect><rect x="72.396" y="25.229" width="2.385" height="2.385" fill="#76bb02" data-fill-palette-color="accent"></rect></g><g fill="#76bb02" data-fill-palette-color="accent"><rect x="15.109" y="28.597" width="2.386" height="2.384" fill="#76bb02" data-fill-palette-color="accent"></rect><rect x="18.479" y="28.597" width="2.385" height="2.384" fill="#76bb02" data-fill-palette-color="accent"></rect><rect x="21.85" y="28.597" width="2.385" height="2.384" fill="#76bb02" data-fill-palette-color="accent"></rect><rect x="25.219" y="28.597" width="2.386" height="2.384" fill="#76bb02" data-fill-palette-color="accent"></rect><rect x="31.959" y="28.597" width="2.385" height="2.384" fill="#76bb02" data-fill-palette-color="accent"></rect><rect x="35.328" y="28.597" width="2.386" height="2.384" fill="#76bb02" data-fill-palette-color="accent"></rect><rect x="38.698" y="28.597" width="2.385" height="2.384" fill="#76bb02" data-fill-palette-color="accent"></rect><rect x="58.916" y="28.597" width="2.385" height="2.384" fill="#76bb02" data-fill-palette-color="accent"></rect><rect x="65.656" y="28.597" width="2.385" height="2.384" fill="#76bb02" data-fill-palette-color="accent"></rect><rect x="69.025" y="28.597" width="2.387" height="2.384" fill="#76bb02" data-fill-palette-color="accent"></rect><rect x="72.396" y="28.597" width="2.385" height="2.384" fill="#76bb02" data-fill-palette-color="accent"></rect><rect x="75.766" y="28.597" width="2.385" height="2.384" fill="#76bb02" data-fill-palette-color="accent"></rect><rect x="79.137" y="28.597" width="2.385" height="2.384" fill="#76bb02" data-fill-palette-color="accent"></rect><rect x="82.506" y="28.597" width="2.385" height="2.384" fill="#76bb02" data-fill-palette-color="accent"></rect></g><g fill="#76bb02" data-fill-palette-color="accent"><rect x="5" y="31.966" width="2.386" height="2.384" fill="#76bb02" data-fill-palette-color="accent"></rect><rect x="8.37" y="31.966" width="2.385" height="2.384" fill="#76bb02" data-fill-palette-color="accent"></rect><rect x="11.74" y="31.966" width="2.385" height="2.384" fill="#76bb02" data-fill-palette-color="accent"></rect><rect x="15.109" y="31.966" width="2.386" height="2.384" fill="#76bb02" data-fill-palette-color="accent"></rect><rect x="18.479" y="31.966" width="2.385" height="2.384" fill="#76bb02" data-fill-palette-color="accent"></rect><rect x="21.85" y="31.966" width="2.385" height="2.384" fill="#76bb02" data-fill-palette-color="accent"></rect><rect x="25.219" y="31.966" width="2.386" height="2.384" fill="#76bb02" data-fill-palette-color="accent"></rect><rect x="28.589" y="31.966" width="2.385" height="2.384" fill="#76bb02" data-fill-palette-color="accent"></rect><rect x="35.328" y="31.966" width="2.386" height="2.384" fill="#76bb02" data-fill-palette-color="accent"></rect><rect x="38.698" y="31.966" width="2.385" height="2.384" fill="#76bb02" data-fill-palette-color="accent"></rect><rect x="52.178" y="31.966" width="2.385" height="2.384" fill="#76bb02" data-fill-palette-color="accent"></rect><rect x="55.547" y="31.966" width="2.385" height="2.384" fill="#76bb02" data-fill-palette-color="accent"></rect><rect x="58.916" y="31.966" width="2.385" height="2.384" fill="#76bb02" data-fill-palette-color="accent"></rect><rect x="62.287" y="31.966" width="2.385" height="2.384" fill="#76bb02" data-fill-palette-color="accent"></rect><rect x="65.656" y="31.966" width="2.385" height="2.384" fill="#76bb02" data-fill-palette-color="accent"></rect><rect x="69.025" y="31.966" width="2.387" height="2.384" fill="#76bb02" data-fill-palette-color="accent"></rect><rect x="72.396" y="31.966" width="2.385" height="2.384" fill="#76bb02" data-fill-palette-color="accent"></rect><rect x="75.766" y="31.966" width="2.385" height="2.384" fill="#76bb02" data-fill-palette-color="accent"></rect><rect x="79.137" y="31.966" width="2.385" height="2.384" fill="#76bb02" data-fill-palette-color="accent"></rect><rect x="82.506" y="31.966" width="2.385" height="2.384" fill="#76bb02" data-fill-palette-color="accent"></rect><rect x="85.875" y="31.966" width="2.385" height="2.384" fill="#76bb02" data-fill-palette-color="accent"></rect><rect x="89.246" y="31.966" width="2.385" height="2.384" fill="#76bb02" data-fill-palette-color="accent"></rect></g><g fill="#76bb02" data-fill-palette-color="accent"><rect x="5" y="35.334" width="2.386" height="2.384" fill="#76bb02" data-fill-palette-color="accent"></rect><rect x="8.37" y="35.334" width="2.385" height="2.384" fill="#76bb02" data-fill-palette-color="accent"></rect><rect x="11.74" y="35.334" width="2.385" height="2.384" fill="#76bb02" data-fill-palette-color="accent"></rect><rect x="15.109" y="35.334" width="2.386" height="2.384" fill="#76bb02" data-fill-palette-color="accent"></rect><rect x="18.479" y="35.334" width="2.385" height="2.384" fill="#76bb02" data-fill-palette-color="accent"></rect><rect x="21.85" y="35.334" width="2.385" height="2.384" fill="#76bb02" data-fill-palette-color="accent"></rect><rect x="25.219" y="35.334" width="2.386" height="2.384" fill="#76bb02" data-fill-palette-color="accent"></rect><rect x="28.589" y="35.334" width="2.385" height="2.384" fill="#76bb02" data-fill-palette-color="accent"></rect><rect x="35.328" y="35.334" width="2.386" height="2.384" fill="#76bb02" data-fill-palette-color="accent"></rect><rect x="42.068" y="35.334" width="2.385" height="2.384" fill="#76bb02" data-fill-palette-color="accent"></rect><rect x="48.808" y="35.334" width="2.383" height="2.384" fill="#76bb02" data-fill-palette-color="accent"></rect><rect x="52.178" y="35.334" width="2.385" height="2.384" fill="#76bb02" data-fill-palette-color="accent"></rect><rect x="55.547" y="35.334" width="2.385" height="2.384" fill="#76bb02" data-fill-palette-color="accent"></rect><rect x="58.916" y="35.334" width="2.385" height="2.384" fill="#76bb02" data-fill-palette-color="accent"></rect><rect x="62.287" y="35.334" width="2.385" height="2.384" fill="#76bb02" data-fill-palette-color="accent"></rect><rect x="65.656" y="35.334" width="2.385" height="2.384" fill="#76bb02" data-fill-palette-color="accent"></rect><rect x="69.025" y="35.334" width="2.387" height="2.384" fill="#76bb02" data-fill-palette-color="accent"></rect><rect x="72.396" y="35.334" width="2.385" height="2.384" fill="#76bb02" data-fill-palette-color="accent"></rect><rect x="75.766" y="35.334" width="2.385" height="2.384" fill="#76bb02" data-fill-palette-color="accent"></rect><rect x="79.137" y="35.334" width="2.385" height="2.384" fill="#76bb02" data-fill-palette-color="accent"></rect><rect x="82.506" y="35.334" width="2.385" height="2.384" fill="#76bb02" data-fill-palette-color="accent"></rect><rect x="85.875" y="35.334" width="2.385" height="2.384" fill="#76bb02" data-fill-palette-color="accent"></rect><rect x="89.246" y="35.334" width="2.385" height="2.384" fill="#76bb02" data-fill-palette-color="accent"></rect><rect x="92.615" y="35.334" width="2.385" height="2.384" fill="#76bb02" data-fill-palette-color="accent"></rect></g><g fill="#76bb02" data-fill-palette-color="accent"><rect x="5" y="38.702" width="2.386" height="2.384" fill="#76bb02" data-fill-palette-color="accent"></rect><rect x="8.37" y="38.702" width="2.385" height="2.384" fill="#76bb02" data-fill-palette-color="accent"></rect><rect x="11.74" y="38.702" width="2.385" height="2.384" fill="#76bb02" data-fill-palette-color="accent"></rect><rect x="15.109" y="38.702" width="2.386" height="2.384" fill="#76bb02" data-fill-palette-color="accent"></rect><rect x="18.479" y="38.702" width="2.385" height="2.384" fill="#76bb02" data-fill-palette-color="accent"></rect><rect x="21.85" y="38.702" width="2.385" height="2.384" fill="#76bb02" data-fill-palette-color="accent"></rect><rect x="25.219" y="38.702" width="2.386" height="2.384" fill="#76bb02" data-fill-palette-color="accent"></rect><rect x="28.589" y="38.702" width="2.385" height="2.384" fill="#76bb02" data-fill-palette-color="accent"></rect><rect x="45.438" y="38.702" width="2.386" height="2.384" fill="#76bb02" data-fill-palette-color="accent"></rect><rect x="48.808" y="38.702" width="2.383" height="2.384" fill="#76bb02" data-fill-palette-color="accent"></rect><rect x="52.178" y="38.702" width="2.385" height="2.384" fill="#76bb02" data-fill-palette-color="accent"></rect><rect x="55.547" y="38.702" width="2.385" height="2.384" fill="#76bb02" data-fill-palette-color="accent"></rect><rect x="58.916" y="38.702" width="2.385" height="2.384" fill="#76bb02" data-fill-palette-color="accent"></rect><rect x="62.287" y="38.702" width="2.385" height="2.384" fill="#76bb02" data-fill-palette-color="accent"></rect><rect x="65.656" y="38.702" width="2.385" height="2.384" fill="#76bb02" data-fill-palette-color="accent"></rect><rect x="69.025" y="38.702" width="2.387" height="2.384" fill="#76bb02" data-fill-palette-color="accent"></rect><rect x="72.396" y="38.702" width="2.385" height="2.384" fill="#76bb02" data-fill-palette-color="accent"></rect><rect x="75.766" y="38.702" width="2.385" height="2.384" fill="#76bb02" data-fill-palette-color="accent"></rect><rect x="79.137" y="38.702" width="2.385" height="2.384" fill="#76bb02" data-fill-palette-color="accent"></rect><rect x="82.506" y="38.702" width="2.385" height="2.384" fill="#76bb02" data-fill-palette-color="accent"></rect><rect x="85.875" y="38.702" width="2.385" height="2.384" fill="#76bb02" data-fill-palette-color="accent"></rect></g><g fill="#76bb02" data-fill-palette-color="accent"><rect x="15.109" y="42.071" width="2.386" height="2.384" fill="#76bb02" data-fill-palette-color="accent"></rect><rect x="18.479" y="42.071" width="2.385" height="2.384" fill="#76bb02" data-fill-palette-color="accent"></rect><rect x="21.85" y="42.071" width="2.385" height="2.384" fill="#76bb02" data-fill-palette-color="accent"></rect><rect x="25.219" y="42.071" width="2.386" height="2.384" fill="#76bb02" data-fill-palette-color="accent"></rect><rect x="28.589" y="42.071" width="2.385" height="2.384" fill="#76bb02" data-fill-palette-color="accent"></rect><rect x="31.959" y="42.071" width="2.385" height="2.384" fill="#76bb02" data-fill-palette-color="accent"></rect><rect x="45.438" y="42.071" width="2.386" height="2.384" fill="#76bb02" data-fill-palette-color="accent"></rect><rect x="48.808" y="42.071" width="2.383" height="2.384" fill="#76bb02" data-fill-palette-color="accent"></rect><rect x="52.178" y="42.071" width="2.385" height="2.384" fill="#76bb02" data-fill-palette-color="accent"></rect><rect x="55.547" y="42.071" width="2.385" height="2.384" fill="#76bb02" data-fill-palette-color="accent"></rect><rect x="58.916" y="42.071" width="2.385" height="2.384" fill="#76bb02" data-fill-palette-color="accent"></rect><rect x="62.287" y="42.071" width="2.385" height="2.384" fill="#76bb02" data-fill-palette-color="accent"></rect><rect x="65.656" y="42.071" width="2.385" height="2.384" fill="#76bb02" data-fill-palette-color="accent"></rect><rect x="69.025" y="42.071" width="2.387" height="2.384" fill="#76bb02" data-fill-palette-color="accent"></rect><rect x="72.396" y="42.071" width="2.385" height="2.384" fill="#76bb02" data-fill-palette-color="accent"></rect><rect x="75.766" y="42.071" width="2.385" height="2.384" fill="#76bb02" data-fill-palette-color="accent"></rect><rect x="79.137" y="42.071" width="2.385" height="2.384" fill="#76bb02" data-fill-palette-color="accent"></rect><rect x="85.875" y="42.071" width="2.385" height="2.384" fill="#76bb02" data-fill-palette-color="accent"></rect></g><g fill="#76bb02" data-fill-palette-color="accent"><rect x="15.109" y="45.44" width="2.386" height="2.384" fill="#76bb02" data-fill-palette-color="accent"></rect><rect x="18.479" y="45.44" width="2.385" height="2.384" fill="#76bb02" data-fill-palette-color="accent"></rect><rect x="21.85" y="45.44" width="2.385" height="2.384" fill="#76bb02" data-fill-palette-color="accent"></rect><rect x="25.219" y="45.44" width="2.386" height="2.384" fill="#76bb02" data-fill-palette-color="accent"></rect><rect x="28.589" y="45.44" width="2.385" height="2.384" fill="#76bb02" data-fill-palette-color="accent"></rect><rect x="45.438" y="45.44" width="2.386" height="2.384" fill="#76bb02" data-fill-palette-color="accent"></rect><rect x="52.178" y="45.44" width="2.385" height="2.384" fill="#76bb02" data-fill-palette-color="accent"></rect><rect x="55.547" y="45.44" width="2.385" height="2.384" fill="#76bb02" data-fill-palette-color="accent"></rect><rect x="58.916" y="45.44" width="2.385" height="2.384" fill="#76bb02" data-fill-palette-color="accent"></rect><rect x="62.287" y="45.44" width="2.385" height="2.384" fill="#76bb02" data-fill-palette-color="accent"></rect><rect x="65.656" y="45.44" width="2.385" height="2.384" fill="#76bb02" data-fill-palette-color="accent"></rect><rect x="69.025" y="45.44" width="2.387" height="2.384" fill="#76bb02" data-fill-palette-color="accent"></rect><rect x="72.396" y="45.44" width="2.385" height="2.384" fill="#76bb02" data-fill-palette-color="accent"></rect><rect x="75.766" y="45.44" width="2.385" height="2.384" fill="#76bb02" data-fill-palette-color="accent"></rect><rect x="79.137" y="45.44" width="2.385" height="2.384" fill="#76bb02" data-fill-palette-color="accent"></rect><rect x="82.506" y="45.44" width="2.385" height="2.384" fill="#76bb02" data-fill-palette-color="accent"></rect></g><g fill="#76bb02" data-fill-palette-color="accent"><rect x="18.479" y="48.809" width="2.385" height="2.382" fill="#76bb02" data-fill-palette-color="accent"></rect><rect x="21.85" y="48.809" width="2.385" height="2.382" fill="#76bb02" data-fill-palette-color="accent"></rect><rect x="25.219" y="48.809" width="2.386" height="2.382" fill="#76bb02" data-fill-palette-color="accent"></rect><rect x="42.068" y="48.809" width="2.385" height="2.382" fill="#76bb02" data-fill-palette-color="accent"></rect><rect x="45.438" y="48.809" width="2.386" height="2.382" fill="#76bb02" data-fill-palette-color="accent"></rect><rect x="48.808" y="48.809" width="2.383" height="2.382" fill="#76bb02" data-fill-palette-color="accent"></rect><rect x="52.178" y="48.809" width="2.385" height="2.382" fill="#76bb02" data-fill-palette-color="accent"></rect><rect x="55.547" y="48.809" width="2.385" height="2.382" fill="#76bb02" data-fill-palette-color="accent"></rect><rect x="58.916" y="48.809" width="2.385" height="2.382" fill="#76bb02" data-fill-palette-color="accent"></rect><rect x="62.287" y="48.809" width="2.385" height="2.382" fill="#76bb02" data-fill-palette-color="accent"></rect><rect x="65.656" y="48.809" width="2.385" height="2.382" fill="#76bb02" data-fill-palette-color="accent"></rect><rect x="69.025" y="48.809" width="2.387" height="2.382" fill="#76bb02" data-fill-palette-color="accent"></rect><rect x="72.396" y="48.809" width="2.385" height="2.382" fill="#76bb02" data-fill-palette-color="accent"></rect><rect x="75.766" y="48.809" width="2.385" height="2.382" fill="#76bb02" data-fill-palette-color="accent"></rect><rect x="79.137" y="48.809" width="2.385" height="2.382" fill="#76bb02" data-fill-palette-color="accent"></rect></g><g fill="#76bb02" data-fill-palette-color="accent"><rect x="21.85" y="52.178" width="2.385" height="2.383" fill="#76bb02" data-fill-palette-color="accent"></rect><rect x="25.219" y="52.178" width="2.386" height="2.383" fill="#76bb02" data-fill-palette-color="accent"></rect><rect x="28.589" y="52.178" width="2.385" height="2.383" fill="#76bb02" data-fill-palette-color="accent"></rect><rect x="42.068" y="52.178" width="2.385" height="2.383" fill="#76bb02" data-fill-palette-color="accent"></rect><rect x="45.438" y="52.178" width="2.386" height="2.383" fill="#76bb02" data-fill-palette-color="accent"></rect><rect x="48.808" y="52.178" width="2.383" height="2.383" fill="#76bb02" data-fill-palette-color="accent"></rect><rect x="52.178" y="52.178" width="2.385" height="2.383" fill="#76bb02" data-fill-palette-color="accent"></rect><rect x="55.547" y="52.178" width="2.385" height="2.383" fill="#76bb02" data-fill-palette-color="accent"></rect><rect x="58.916" y="52.178" width="2.385" height="2.383" fill="#76bb02" data-fill-palette-color="accent"></rect><rect x="65.656" y="52.178" width="2.385" height="2.383" fill="#76bb02" data-fill-palette-color="accent"></rect><rect x="72.396" y="52.178" width="2.385" height="2.383" fill="#76bb02" data-fill-palette-color="accent"></rect><rect x="75.766" y="52.178" width="2.385" height="2.383" fill="#76bb02" data-fill-palette-color="accent"></rect></g><g fill="#76bb02" data-fill-palette-color="accent"><rect x="28.589" y="55.547" width="2.385" height="2.383" fill="#76bb02" data-fill-palette-color="accent"></rect><rect x="31.959" y="55.547" width="2.385" height="2.383" fill="#76bb02" data-fill-palette-color="accent"></rect><rect x="45.438" y="55.547" width="2.386" height="2.383" fill="#76bb02" data-fill-palette-color="accent"></rect><rect x="48.808" y="55.547" width="2.383" height="2.383" fill="#76bb02" data-fill-palette-color="accent"></rect><rect x="52.178" y="55.547" width="2.385" height="2.383" fill="#76bb02" data-fill-palette-color="accent"></rect><rect x="55.547" y="55.547" width="2.385" height="2.383" fill="#76bb02" data-fill-palette-color="accent"></rect></g><g fill="#76bb02" data-fill-palette-color="accent"><rect x="25.219" y="58.914" width="2.386" height="2.385" fill="#76bb02" data-fill-palette-color="accent"></rect><rect x="28.589" y="58.914" width="2.385" height="2.385" fill="#76bb02" data-fill-palette-color="accent"></rect><rect x="31.959" y="58.914" width="2.385" height="2.385" fill="#76bb02" data-fill-palette-color="accent"></rect><rect x="35.328" y="58.914" width="2.386" height="2.385" fill="#76bb02" data-fill-palette-color="accent"></rect><rect x="48.808" y="58.914" width="2.383" height="2.385" fill="#76bb02" data-fill-palette-color="accent"></rect><rect x="52.178" y="58.914" width="2.385" height="2.385" fill="#76bb02" data-fill-palette-color="accent"></rect><rect x="55.547" y="58.914" width="2.385" height="2.385" fill="#76bb02" data-fill-palette-color="accent"></rect><rect x="72.396" y="58.914" width="2.385" height="2.385" fill="#76bb02" data-fill-palette-color="accent"></rect><rect x="75.766" y="58.914" width="2.385" height="2.385" fill="#76bb02" data-fill-palette-color="accent"></rect><rect x="79.137" y="58.914" width="2.385" height="2.385" fill="#76bb02" data-fill-palette-color="accent"></rect><rect x="82.506" y="58.914" width="2.385" height="2.385" fill="#76bb02" data-fill-palette-color="accent"></rect></g><g fill="#76bb02" data-fill-palette-color="accent"><rect x="28.589" y="62.283" width="2.385" height="2.383" fill="#76bb02" data-fill-palette-color="accent"></rect><rect x="31.959" y="62.283" width="2.385" height="2.383" fill="#76bb02" data-fill-palette-color="accent"></rect><rect x="35.328" y="62.283" width="2.386" height="2.383" fill="#76bb02" data-fill-palette-color="accent"></rect><rect x="48.808" y="62.283" width="2.383" height="2.383" fill="#76bb02" data-fill-palette-color="accent"></rect><rect x="52.178" y="62.283" width="2.385" height="2.383" fill="#76bb02" data-fill-palette-color="accent"></rect><rect x="58.916" y="62.283" width="2.385" height="2.383" fill="#76bb02" data-fill-palette-color="accent"></rect><rect x="75.766" y="62.283" width="2.385" height="2.383" fill="#76bb02" data-fill-palette-color="accent"></rect><rect x="79.137" y="62.283" width="2.385" height="2.383" fill="#76bb02" data-fill-palette-color="accent"></rect><rect x="82.506" y="62.283" width="2.385" height="2.383" fill="#76bb02" data-fill-palette-color="accent"></rect><rect x="85.875" y="62.283" width="2.385" height="2.383" fill="#76bb02" data-fill-palette-color="accent"></rect></g><g fill="#76bb02" data-fill-palette-color="accent"><rect x="28.589" y="65.652" width="2.385" height="2.383" fill="#76bb02" data-fill-palette-color="accent"></rect><rect x="31.959" y="65.652" width="2.385" height="2.383" fill="#76bb02" data-fill-palette-color="accent"></rect><rect x="52.178" y="65.652" width="2.385" height="2.383" fill="#76bb02" data-fill-palette-color="accent"></rect><rect x="75.766" y="65.652" width="2.385" height="2.383" fill="#76bb02" data-fill-palette-color="accent"></rect><rect x="79.137" y="65.652" width="2.385" height="2.383" fill="#76bb02" data-fill-palette-color="accent"></rect><rect x="82.506" y="65.652" width="2.385" height="2.383" fill="#76bb02" data-fill-palette-color="accent"></rect></g><g fill="#76bb02" data-fill-palette-color="accent"><rect x="28.589" y="69.02" width="2.385" height="2.387" fill="#76bb02" data-fill-palette-color="accent"></rect><rect x="89.246" y="69.02" width="2.385" height="2.387" fill="#76bb02" data-fill-palette-color="accent"></rect></g><g fill="#76bb02" data-fill-palette-color="accent"><rect x="28.589" y="72.389" width="2.385" height="2.383" fill="#76bb02" data-fill-palette-color="accent"></rect></g></g></g></svg></g></svg></g></svg></g><defs></defs></svg><rect width="395.52" height="46.04963191667481" fill="none" stroke="none" visibility="hidden"></rect></g></svg></g></svg>