<svg xmlns="http://www.w3.org/2000/svg" version="1.1" xmlns:xlink="http://www.w3.org/1999/xlink" xmlns:svgjs="http://svgjs.dev/svgjs" width="2000" height="186" viewBox="0 0 2000 186"><g transform="matrix(1,0,0,1,-1.2121212121212466,-1.8782355751612698)"><svg viewBox="0 0 396 37" data-background-color="#121212" preserveAspectRatio="xMidYMid meet" height="186" width="2000" xmlns="http://www.w3.org/2000/svg" xmlns:xlink="http://www.w3.org/1999/xlink"><g id="tight-bounds" transform="matrix(1,0,0,1,0.2400000000000091,0.37362750688691904)"><svg viewBox="0 0 395.52 36.25274498622617" height="36.25274498622617" width="395.52"><g><svg viewBox="0 0 479.09996247704623 43.91355370800689" height="36.25274498622617" width="395.52"><g transform="matrix(1,0,0,1,83.57996247704622,2.342354336982627)"><svg viewBox="0 0 395.52 39.22884503404163" height="39.22884503404163" width="395.52"><g id="textblocktransform"><svg viewBox="0 0 395.52 39.22884503404163" height="39.22884503404163" width="395.52" id="textblock"><g><svg viewBox="0 0 395.52 19.29863654606961" height="19.29863654606961" width="395.52"><g transform="matrix(1,0,0,1,0,0)"><svg width="395.52" viewBox="-0.3700000000000001 -38.98 872.97 43.559999999999995" height="19.29863654606961" data-palette-color="#ffffff"><path d="M10.3-34.43L24.83-34.43 24.83-11.43Q24.83-9.28 24.26-7.14 23.7-5 22.36-3.26 21.03-1.53 18.75-0.48 16.48 0.58 13.08 0.58L13.08 0.58Q10.55 0.58 8.11-0.23 5.68-1.03 3.63-2.55L3.63-2.55 5.55-5.43Q7.8-4.03 9.65-3.54 11.5-3.05 13.03-3.05L13.03-3.05Q16.63-3.05 18.56-5.35 20.5-7.65 20.5-11.68L20.5-11.68 20.5-30.88 10.3-30.88 10.3-34.43ZM57.67-17.18L57.67-17.18Q57.67-11.98 56.26-7.96 54.85-3.95 52.02-1.69 49.2 0.58 45 0.58L45 0.58Q40.82 0.58 37.98-1.64 35.15-3.85 33.73-7.83 32.32-11.8 32.32-17.13L32.32-17.13Q32.32-22.35 33.73-26.38 35.15-30.4 37.98-32.69 40.82-34.98 45-34.98L45-34.98Q49.2-34.98 52.02-32.75 54.85-30.53 56.26-26.53 57.67-22.53 57.67-17.18ZM53.12-17.18L53.12-17.18Q53.12-24.05 51.23-27.7 49.35-31.35 45-31.35L45-31.35Q40.65-31.35 38.76-27.68 36.87-24 36.87-17.13L36.87-17.13Q36.87-10.25 38.82-6.66 40.77-3.08 45-3.08L45-3.08Q49.35-3.08 51.23-6.69 53.12-10.3 53.12-17.18ZM85.32-30.88L70.62-30.88 70.62-19.28 83.37-19.28 83.37-15.7 70.62-15.7 70.62-3.48 86.27-3.48 86.27 0 66.27 0 66.27-34.43 85.82-34.43 85.32-30.88ZM140.42-34.43L146.52-34.43 148.47 0 144.29 0 143.22-17.98Q143.14-19.8 143.06-21.68 142.99-23.55 142.97-25.28 142.94-27 142.94-28.35 142.94-29.7 142.94-30.45L142.94-30.45 137.14-6.18 132.79-6.18 126.57-30.45Q126.59-29.73 126.62-28.31 126.64-26.9 126.65-25.13 126.67-23.35 126.63-21.49 126.59-19.63 126.52-18.03L126.52-18.03 125.59 0 121.52 0 123.47-34.43 129.52-34.43 135.09-10.85 140.42-34.43ZM175.31-30.88L160.61-30.88 160.61-19.28 173.36-19.28 173.36-15.7 160.61-15.7 160.61-3.48 176.26-3.48 176.26 0 156.26 0 156.26-34.43 175.81-34.43 175.31-30.88ZM205.81 0L199.74 0 187.61-30.28Q187.64-29.7 187.72-28.36 187.81-27.03 187.92-25.19 188.04-23.35 188.11-21.3 188.19-19.25 188.19-17.25L188.19-17.25 188.19 0 184.16 0 184.16-34.43 190.04-34.43 202.36-4.03Q202.34-4.75 202.19-6.69 202.04-8.63 201.91-11.38 201.79-14.13 201.79-17.2L201.79-17.2 201.79-34.43 205.81-34.43 205.81 0ZM232.98-17.38L232.98-17.38Q232.98-21.88 232.03-24.58 231.08-27.28 229.53-28.63 227.98-29.98 226.15-30.43 224.31-30.88 222.53-30.88L222.53-30.88 218.48-30.88 218.48-3.48 222.58-3.48Q224.43-3.48 226.27-4.06 228.11-4.65 229.63-6.16 231.16-7.68 232.07-10.39 232.98-13.1 232.98-17.38ZM237.61-17.38L237.61-17.38Q237.61-11.98 236.21-8.56 234.81-5.15 232.51-3.29 230.21-1.43 227.47-0.71 224.73 0 222.06 0L222.06 0 214.16 0 214.16-34.43 221.51-34.43Q224.53-34.43 227.4-33.75 230.26-33.08 232.57-31.26 234.88-29.45 236.25-26.1 237.61-22.75 237.61-17.38ZM265.31-30.88L250.61-30.88 250.61-19.28 263.36-19.28 263.36-15.7 250.61-15.7 250.61-3.48 266.25-3.48 266.25 0 246.26 0 246.26-34.43 265.81-34.43 265.31-30.88ZM296.4-30.88L278.33-3.75 296.35-3.75 295.83 0 273.55 0 273.55-3.53 291.75-30.73 275.35-30.73 275.35-34.43 296.4-34.43 296.4-30.88ZM325-13.83L304.95-13.83 304.95-17.48 325-17.48 325-13.83ZM355.8 0L351.47 0 351.47-16.32 338.47-16.32 338.47 0 334.15 0 334.15-34.43 338.47-34.43 338.47-19.88 351.47-19.88 351.47-34.43 355.8-34.43 355.8 0ZM381.97-34.43L386.35-34.43 386.35-11.15Q386.35-7.68 384.93-5.03 383.52-2.38 380.96-0.9 378.4 0.58 374.92 0.58L374.92 0.58Q371.37 0.58 368.83-0.91 366.3-2.4 364.95-5.05 363.6-7.7 363.6-11.15L363.6-11.15 363.6-34.43 367.9-34.43 367.9-11Q367.9-7.08 369.73-5.13 371.57-3.18 374.92-3.18L374.92-3.18Q378.3-3.18 380.13-5.13 381.97-7.08 381.97-11L381.97-11 381.97-34.43ZM405.64 0.58L405.64 0.58Q401.57 0.58 398.56-1.4 395.54-3.38 393.89-7.33 392.24-11.28 392.24-17.23L392.24-17.23Q392.24-21.68 393.43-25 394.62-28.33 396.66-30.55 398.69-32.77 401.28-33.88 403.87-34.98 406.64-34.98L406.64-34.98Q410.02-34.98 412.24-34.01 414.47-33.05 416.49-31.2L416.49-31.2 413.87-28.48Q412.29-29.95 410.56-30.65 408.82-31.35 406.67-31.35L406.67-31.35Q404.79-31.35 403.04-30.63 401.29-29.9 399.91-28.26 398.52-26.63 397.71-23.93 396.89-21.23 396.89-17.23L396.89-17.23Q396.89-12.25 397.93-9.13 398.97-6 401.01-4.54 403.04-3.08 406.04-3.08L406.04-3.08Q407.84-3.08 409.46-3.5 411.07-3.93 412.59-4.73L412.59-4.73 412.59-15.23 405.82-15.23 405.29-18.82 416.89-18.82 416.89-2.43Q414.57-1.18 411.94-0.3 409.32 0.58 405.64 0.58ZM445.79 0L441.47 0 441.47-16.32 428.47-16.32 428.47 0 424.14 0 424.14-34.43 428.47-34.43 428.47-19.88 441.47-19.88 441.47-34.43 445.79-34.43 445.79 0ZM475.29-30.88L460.59-30.88 460.59-19.28 473.34-19.28 473.34-15.7 460.59-15.7 460.59-3.48 476.24-3.48 476.24 0 456.24 0 456.24-34.43 475.79-34.43 475.29-30.88ZM506.79-9.53L506.79-9.53Q506.79-6.58 505.31-4.29 503.84-2 501.04-0.71 498.24 0.58 494.21 0.58L494.21 0.58Q490.44 0.58 487.37-0.58 484.31-1.73 482.14-3.83L482.14-3.83 484.71-6.73Q486.51-5.05 488.84-4.06 491.16-3.08 494.29-3.08L494.29-3.08Q496.39-3.08 498.21-3.76 500.04-4.45 501.16-5.86 502.29-7.28 502.29-9.45L502.29-9.45Q502.29-11.13 501.64-12.3 500.99-13.48 499.34-14.39 497.69-15.3 494.74-16.18L494.74-16.18Q491.34-17.18 488.85-18.44 486.36-19.7 485-21.55 483.64-23.4 483.64-26.13L483.64-26.13Q483.64-28.7 485.06-30.7 486.49-32.7 489-33.84 491.51-34.98 494.79-34.98L494.79-34.98Q498.36-34.98 501-33.96 503.64-32.95 505.79-31.05L505.79-31.05 503.24-28.23Q501.39-29.88 499.26-30.61 497.14-31.35 494.94-31.35L494.94-31.35Q493.06-31.35 491.5-30.79 489.94-30.23 489-29.11 488.06-28 488.06-26.28L488.06-26.28Q488.06-24.8 488.86-23.73 489.66-22.65 491.56-21.76 493.46-20.88 496.74-19.9L496.74-19.9Q499.41-19.13 501.7-17.96 503.99-16.8 505.39-14.81 506.79-12.83 506.79-9.53ZM520.88-3.5L520.88-3.5Q520.88-5.13 522.05-6.33 523.21-7.53 524.91-7.53L524.91-7.53Q526.66-7.53 527.82-6.33 528.98-5.13 528.98-3.5L528.98-3.5Q528.98-1.8 527.82-0.61 526.66 0.58 524.91 0.58L524.91 0.58Q523.21 0.58 522.05-0.61 520.88-1.8 520.88-3.5ZM520.88-21.53L520.88-21.53Q520.88-23.2 522.05-24.38 523.21-25.55 524.91-25.55L524.91-25.55Q526.66-25.55 527.82-24.38 528.98-23.2 528.98-21.53L528.98-21.53Q528.98-19.88 527.82-18.66 526.66-17.45 524.91-17.45L524.91-17.45Q523.21-17.45 522.05-18.66 520.88-19.88 520.88-21.53ZM564.38 0L561.63-8.78 548-8.78 545.25 0 540.98 0 552.18-34.43 557.73-34.43 568.93 0 564.38 0ZM554.85-30.78L549.13-12.38 560.5-12.38 554.85-30.78ZM575.1-34.43L594.8-34.43 594.8-30.95 587.15-30.95 587.15-3.48 594.8-3.48 594.8 0 575.1 0 575.1-3.48 582.75-3.48 582.75-30.95 575.1-30.95 575.1-34.43ZM655.27-30.88L640.57-30.88 640.57-19.28 653.32-19.28 653.32-15.7 640.57-15.7 640.57-3.48 656.22-3.48 656.22 0 636.22 0 636.22-34.43 655.77-34.43 655.27-30.88ZM685.77 0L679.69 0 667.57-30.28Q667.59-29.7 667.68-28.36 667.77-27.03 667.88-25.19 667.99-23.35 668.07-21.3 668.14-19.25 668.14-17.25L668.14-17.25 668.14 0 664.12 0 664.12-34.43 669.99-34.43 682.32-4.03Q682.29-4.75 682.14-6.69 681.99-8.63 681.87-11.38 681.74-14.13 681.74-17.2L681.74-17.2 681.74-34.43 685.77-34.43 685.77 0ZM705.62 0.58L705.62 0.58Q701.54 0.58 698.53-1.4 695.52-3.38 693.87-7.33 692.22-11.28 692.22-17.23L692.22-17.23Q692.22-21.68 693.4-25 694.59-28.33 696.63-30.55 698.67-32.77 701.25-33.88 703.84-34.98 706.62-34.98L706.62-34.98Q709.99-34.98 712.22-34.01 714.44-33.05 716.47-31.2L716.47-31.2 713.84-28.48Q712.27-29.95 710.53-30.65 708.79-31.35 706.64-31.35L706.64-31.35Q704.77-31.35 703.02-30.63 701.27-29.9 699.88-28.26 698.49-26.63 697.68-23.93 696.87-21.23 696.87-17.23L696.87-17.23Q696.87-12.25 697.9-9.13 698.94-6 700.98-4.54 703.02-3.08 706.02-3.08L706.02-3.08Q707.82-3.08 709.43-3.5 711.04-3.93 712.57-4.73L712.57-4.73 712.57-15.23 705.79-15.23 705.27-18.82 716.87-18.82 716.87-2.43Q714.54-1.18 711.92-0.3 709.29 0.58 705.62 0.58ZM725.09-34.43L744.79-34.43 744.79-30.95 737.14-30.95 737.14-3.48 744.79-3.48 744.79 0 725.09 0 725.09-3.48 732.74-3.48 732.74-30.95 725.09-30.95 725.09-34.43ZM775.76 0L769.69 0 757.56-30.28Q757.59-29.7 757.67-28.36 757.76-27.03 757.87-25.19 757.99-23.35 758.06-21.3 758.14-19.25 758.14-17.25L758.14-17.25 758.14 0 754.11 0 754.11-34.43 759.99-34.43 772.31-4.03Q772.29-4.75 772.14-6.69 771.99-8.63 771.86-11.38 771.74-14.13 771.74-17.2L771.74-17.2 771.74-34.43 775.76-34.43 775.76 0ZM805.26-30.88L790.56-30.88 790.56-19.28 803.31-19.28 803.31-15.7 790.56-15.7 790.56-3.48 806.21-3.48 806.21 0 786.21 0 786.21-34.43 805.76-34.43 805.26-30.88ZM835.26-30.88L820.56-30.88 820.56-19.28 833.31-19.28 833.31-15.7 820.56-15.7 820.56-3.48 836.21-3.48 836.21 0 816.21 0 816.21-34.43 835.76-34.43 835.26-30.88ZM866.8-24.78L866.8-24.78Q866.8-22.2 865.69-20.28 864.58-18.35 862.68-17.1 860.78-15.85 858.4-15.28L858.4-15.28 868.6 0 863.4 0 854-14.78 849.35-14.78 849.35 0 845 0 845-34.43 853.85-34.43Q860.23-34.43 863.52-31.99 866.8-29.55 866.8-24.78ZM862.15-24.78L862.15-24.78Q862.15-28.1 860.25-29.54 858.35-30.98 854.35-30.98L854.35-30.98 849.35-30.98 849.35-18.18 854.35-18.18Q858.05-18.18 860.1-19.69 862.15-21.2 862.15-24.78Z" opacity="1" transform="matrix(1,0,0,1,0,0)" fill="#ffffff" class="wordmark-text-0" data-fill-palette-color="primary" id="text-0"></path></svg></g></svg></g><g transform="matrix(1,0,0,1,3.5,23.10507231458747)"><svg viewBox="0 0 388.52 16.123772719454163" height="16.123772719454163" width="388.52"><g transform="matrix(1,0,0,1,0,0)"><svg width="388.52" viewBox="-4.05 -43 1374.3 57.8" height="16.123772719454163" data-palette-color="#00add8"><path d="M16.2-35.05Q19.45-35.05 21.9-34 24.35-32.95 26.35-30.9L26.35-30.9 23.4-28.15Q21.8-29.75 20.08-30.45 18.35-31.15 16.2-31.15L16.2-31.15Q13.15-31.15 11.15-29.65 9.15-28.15 9.15-25.55L9.15-25.55Q9.15-23.55 10.5-22.35 11.85-21.15 15.6-19.9L15.6-19.9Q19.9-18.55 22.25-16.5 24.6-14.45 24.6-10.45L24.6-10.45Q24.6-7.65 23.13-5.13 21.65-2.6 18.63-1 15.6 0.6 11.1 0.6L11.1 0.6Q4 0.6-0.05-4L-0.05-4 2.95-6.8Q4.55-5.05 6.55-4.17 8.55-3.3 11.2-3.3L11.2-3.3Q15.05-3.3 17.38-5.18 19.7-7.05 19.7-10.2L19.7-10.2Q19.7-12.4 18.32-13.68 16.95-14.95 13.35-16.2L13.35-16.2Q8.65-17.85 6.5-19.83 4.35-21.8 4.35-25.3L4.35-25.3Q4.35-27.65 5.75-29.9 7.15-32.15 9.83-33.6 12.5-35.05 16.2-35.05L16.2-35.05ZM76.68-26.95Q79.13-26.95 81.36-26.4 83.58-25.85 85.93-24.7L85.93-24.7 83.23-6Q83.13-5.2 83.13-4.9L83.13-4.9Q83.13-4 83.51-3.45 83.88-2.9 84.83-2.55L84.83-2.55 83.53 0.6Q81.43 0.35 80.28-0.7 79.13-1.75 78.88-3.8L78.88-3.8Q77.28-1.75 75.28-0.58 73.28 0.6 71.03 0.6L71.03 0.6Q67.03 0.6 64.83-2.15 62.63-4.9 62.63-9.5L62.63-9.5Q62.63-13.5 64.11-17.5 65.58-21.5 68.73-24.23 71.88-26.95 76.68-26.95L76.68-26.95ZM76.78-23.3Q73.63-23.3 71.56-21.18 69.48-19.05 68.51-15.88 67.53-12.7 67.53-9.45L67.53-9.45Q67.53-6.2 68.68-4.63 69.83-3.05 71.98-3.05L71.98-3.05Q74.03-3.05 75.66-4.3 77.28-5.55 79.03-7.9L79.03-7.9 81.08-22.45Q80.03-22.9 79.06-23.1 78.08-23.3 76.78-23.3L76.78-23.3ZM142.46-26.35L147.46-26.35 134.86 0 129.41 0 124.11-26.35 129.06-26.35 132.66-4.15 142.46-26.35ZM185.79-26.35L190.34-26.35 186.64 0 182.09 0 185.79-26.35ZM189.14-32.75Q187.79-32.75 186.99-33.58 186.19-34.4 186.19-35.6L186.19-35.6Q186.19-37.05 187.19-38.02 188.19-39 189.64-39L189.64-39Q190.99-39 191.79-38.2 192.59-37.4 192.59-36.15L192.59-36.15Q192.59-34.7 191.59-33.73 190.59-32.75 189.14-32.75L189.14-32.75ZM245.58-26.95Q248.48-26.95 250.15-25.18 251.83-23.4 251.83-20.3L251.83-20.3Q251.83-19.5 251.68-18.5L251.68-18.5 249.08 0 244.53 0 247.13-18.4Q247.23-19.5 247.23-19.85L247.23-19.85Q247.23-21.6 246.48-22.35 245.73-23.1 244.33-23.1L244.33-23.1Q242.03-23.1 239.9-21.05 237.78-19 235.98-15.8L235.98-15.8 233.78 0 229.23 0 232.93-26.35 236.83-26.35 236.43-21.2Q238.38-23.95 240.63-25.45 242.88-26.95 245.58-26.95L245.58-26.95ZM305.41-26.95Q307.91-26.95 310.13-26.4 312.36-25.85 314.71-24.7L314.71-24.7 311.06-0.6Q310.16 5.45 307.06 8.13 303.96 10.8 299.01 10.8L299.01 10.8Q296.66 10.8 294.23 10.1 291.81 9.4 289.91 8.25L289.91 8.25 291.66 4.75Q293.11 5.6 294.98 6.23 296.86 6.85 298.76 6.85L298.76 6.85Q301.91 6.85 303.96 5.3 306.01 3.75 306.61-0.65L306.61-0.65 307.06-4Q305.51-2.15 303.58-1.07 301.66 0 299.56 0L299.56 0Q295.61 0 293.36-2.68 291.11-5.35 291.11-9.9L291.11-9.9Q291.11-14.15 292.61-18.05 294.11-21.95 297.31-24.45 300.51-26.95 305.41-26.95L305.41-26.95ZM305.41-23.3Q302.26-23.3 300.13-21.35 298.01-19.4 297.01-16.32 296.01-13.25 296.01-9.85L296.01-9.85Q296.01-6.7 297.21-5.18 298.41-3.65 300.51-3.65L300.51-3.65Q302.51-3.65 304.23-4.95 305.96-6.25 307.71-8.6L307.71-8.6 309.86-22.45Q308.71-22.9 307.71-23.1 306.71-23.3 305.41-23.3L305.41-23.3ZM407.72-22.8L405.52-6.95Q405.42-5.95 405.42-5.65L405.42-5.65Q405.42-4.4 405.99-3.83 406.57-3.25 407.77-3.25L407.77-3.25Q408.67-3.25 409.54-3.53 410.42-3.8 411.57-4.35L411.57-4.35 413.07-1.15Q410.32 0.6 407.22 0.6L407.22 0.6Q404.17 0.6 402.52-0.98 400.87-2.55 400.87-5.45L400.87-5.45Q400.87-6.5 400.97-7.05L400.97-7.05 403.17-22.8 398.62-22.8 399.12-26.35 403.87-26.35 405.52-32.45 409.12-32.85 408.22-26.35 414.42-26.35 413.42-22.8 407.72-22.8ZM466.85-26.95Q469.85-26.95 471.55-25.2 473.25-23.45 473.25-20.35L473.25-20.35Q473.25-19.25 473.15-18.65L473.15-18.65 470.5 0 465.95 0 468.55-18.4Q468.65-19.5 468.65-19.9L468.65-19.9Q468.65-21.65 467.93-22.38 467.2-23.1 465.9-23.1L465.9-23.1Q463.5-23.1 461.33-21.05 459.15-19 457.35-15.8L457.35-15.8 455.2 0 450.65 0 455.85-36.9 460.45-37.4 458.15-21.4Q461.85-26.95 466.85-26.95L466.85-26.95ZM534.53-20.25Q534.53-15.2 530.03-12.95 525.53-10.7 517.43-9.8L517.43-9.8Q517.58-3.25 523.13-3.25L523.13-3.25Q524.98-3.25 526.68-3.85 528.38-4.45 530.18-5.7L530.18-5.7 532.13-2.6Q527.68 0.6 522.68 0.6L522.68 0.6Q517.88 0.6 515.26-2.23 512.63-5.05 512.63-10.1L512.63-10.1Q512.63-14.05 514.01-17.93 515.38-21.8 518.43-24.38 521.48-26.95 526.18-26.95L526.18-26.95Q530.18-26.95 532.36-25 534.53-23.05 534.53-20.25L534.53-20.25ZM517.68-13.3Q523.88-14 526.81-15.45 529.73-16.9 529.73-20.1L529.73-20.1Q529.73-21.3 528.88-22.3 528.03-23.3 526.13-23.3L526.13-23.3Q522.33-23.3 520.28-20.4 518.23-17.5 517.68-13.3L517.68-13.3ZM653.6-34.45L657.95-34.45 646.15 0 640.1 0 637.9-28.85 627.5 0 621.6 0 619.5-34.45 624-34.45 625.2-4.15 636.05-34.45 641.15-34.45 643.6-4.15 653.6-34.45ZM702.08 0.6Q697.23 0.6 694.6-2.3 691.98-5.2 691.98-10.3L691.98-10.3Q691.98-14 693.35-17.82 694.73-21.65 697.78-24.3 700.83-26.95 705.63-26.95L705.63-26.95Q710.48-26.95 713.08-24.05 715.68-21.15 715.68-16.05L715.68-16.05Q715.68-12.4 714.33-8.58 712.98-4.75 709.93-2.08 706.88 0.6 702.08 0.6L702.08 0.6ZM702.23-3.1Q705.38-3.1 707.33-5.28 709.28-7.45 710.08-10.53 710.88-13.6 710.88-16.55L710.88-16.55Q710.88-23.25 705.48-23.25L705.48-23.25Q702.33-23.25 700.38-21.08 698.43-18.9 697.6-15.83 696.78-12.75 696.78-9.8L696.78-9.8Q696.78-3.1 702.23-3.1L702.23-3.1ZM769.26-26.95Q770.51-26.95 771.91-26.6L771.91-26.6 770.56-22.15Q769.61-22.4 768.41-22.4L768.41-22.4Q765.96-22.4 764.13-20.28 762.31-18.15 760.86-13.95L760.86-13.95 758.86 0 754.31 0 758.01-26.35 761.91-26.35 761.61-20.95Q763.06-23.95 765.03-25.45 767.01-26.95 769.26-26.95L769.26-26.95ZM816.14-37.5L811.59-5.15Q811.54-4.9 811.54-4.5L811.54-4.5Q811.54-3.8 811.84-3.5 812.14-3.2 812.79-3.2L812.79-3.2Q813.54-3.2 814.59-3.55L814.59-3.55 815.54-0.25Q813.64 0.6 811.89 0.6L811.89 0.6Q809.59 0.6 808.31-0.65 807.04-1.9 807.04-4.35L807.04-4.35Q807.04-4.8 807.14-5.9L807.14-5.9 811.54-36.95 816.14-37.5ZM874.77-37.4L879.27-36.9 874.07 0 870.07 0 870.12-4.35Q868.67-2 866.67-0.7 864.67 0.6 862.17 0.6L862.17 0.6Q858.17 0.6 856-2.2 853.82-5 853.82-9.85L853.82-9.85Q853.82-13.65 855.1-17.6 856.37-21.55 859.12-24.25 861.87-26.95 866.07-26.95L866.07-26.95Q870.22-26.95 872.82-23.65L872.82-23.65 874.77-37.4ZM866.92-23.3Q863.97-23.3 862.12-21.1 860.27-18.9 859.47-15.73 858.67-12.55 858.67-9.5L858.67-9.5Q858.67-6.25 859.82-4.65 860.97-3.05 863.07-3.05L863.07-3.05Q865.37-3.05 867.12-4.55 868.87-6.05 870.82-9.15L870.82-9.15 872.37-20.1Q871.32-21.7 870.02-22.5 868.72-23.3 866.92-23.3L866.92-23.3ZM976.53-33.8Q974.38-33.8 973.28-32.83 972.18-31.85 971.93-29.85L971.93-29.85 971.43-26.35 977.78-26.35 976.78-22.8 970.93-22.8 967.93-1.45Q967.43 2.2 966.26 4.38 965.08 6.55 963.21 7.9 961.33 9.25 958.08 10.65L958.08 10.65 956.78 7.2Q958.88 6.25 960.11 5.35 961.33 4.45 962.16 2.85 962.98 1.25 963.38-1.45L963.38-1.45 966.38-22.8 961.73-22.8 962.23-26.35 966.88-26.35 967.43-30.1Q967.88-33.5 970.23-35.5 972.58-37.5 976.38-37.5L976.38-37.5Q978.18-37.5 979.58-37.05 980.98-36.6 982.58-35.6L982.58-35.6 980.83-32.55Q978.98-33.8 976.53-33.8L976.53-33.8ZM1027.37-26.95Q1028.62-26.95 1030.02-26.6L1030.02-26.6 1028.67-22.15Q1027.72-22.4 1026.52-22.4L1026.52-22.4Q1024.07-22.4 1022.24-20.28 1020.42-18.15 1018.97-13.95L1018.97-13.95 1016.97 0 1012.42 0 1016.12-26.35 1020.02-26.35 1019.72-20.95Q1021.17-23.95 1023.14-25.45 1025.12-26.95 1027.37-26.95L1027.37-26.95ZM1074.5 0.6Q1069.65 0.6 1067.02-2.3 1064.4-5.2 1064.4-10.3L1064.4-10.3Q1064.4-14 1065.77-17.82 1067.15-21.65 1070.2-24.3 1073.25-26.95 1078.05-26.95L1078.05-26.95Q1082.9-26.95 1085.5-24.05 1088.1-21.15 1088.1-16.05L1088.1-16.05Q1088.1-12.4 1086.75-8.58 1085.4-4.75 1082.35-2.08 1079.3 0.6 1074.5 0.6L1074.5 0.6ZM1074.65-3.1Q1077.8-3.1 1079.75-5.28 1081.7-7.45 1082.5-10.53 1083.3-13.6 1083.3-16.55L1083.3-16.55Q1083.3-23.25 1077.9-23.25L1077.9-23.25Q1074.75-23.25 1072.8-21.08 1070.85-18.9 1070.02-15.83 1069.2-12.75 1069.2-9.8L1069.2-9.8Q1069.2-3.1 1074.65-3.1L1074.65-3.1ZM1156.93-26.95Q1159.58-26.95 1161.15-25.18 1162.73-23.4 1162.73-20.4L1162.73-20.4Q1162.73-19.3 1162.63-18.75L1162.63-18.75 1159.98 0 1155.43 0 1158.03-18.4Q1158.13-19 1158.13-19.95L1158.13-19.95Q1158.13-21.75 1157.38-22.43 1156.63-23.1 1155.28-23.1L1155.28-23.1Q1153.38-23.1 1151.53-21.13 1149.68-19.15 1147.83-15.9L1147.83-15.9 1145.58 0 1141.03 0 1143.63-18.4Q1143.73-19 1143.73-19.95L1143.73-19.95Q1143.73-21.75 1142.98-22.43 1142.23-23.1 1140.88-23.1L1140.88-23.1Q1138.98-23.1 1137.13-21.1 1135.28-19.1 1133.43-15.8L1133.43-15.8 1131.28 0 1126.73 0 1130.43-26.35 1134.33-26.35 1133.93-21.3Q1135.88-24.05 1137.95-25.5 1140.03-26.95 1142.53-26.95L1142.53-26.95Q1144.73-26.95 1146.33-25.55 1147.93-24.15 1148.28-21.6L1148.28-21.6Q1150.28-24.25 1152.4-25.6 1154.53-26.95 1156.93-26.95L1156.93-26.95ZM1271.79 0L1266.94 0 1265.59-8.65 1252.64-8.65 1248.84 0 1243.99 0 1259.79-34.45 1265.74-34.45 1271.79 0ZM1262.19-30.5L1254.29-12.5 1264.99-12.5 1262.19-30.5ZM1315.07-34.45L1319.77-34.45 1314.92 0 1310.22 0 1315.07-34.45ZM1362.5-11.5L1358.45-11.5 1361.2-34.45 1366.25-34.45 1362.5-11.5ZM1359.15 0.6Q1357.8 0.6 1356.93-0.3 1356.05-1.2 1356.05-2.55L1356.05-2.55Q1356.05-4.15 1357.13-5.25 1358.2-6.35 1359.75-6.35L1359.75-6.35Q1361.15-6.35 1362.03-5.45 1362.9-4.55 1362.9-3.2L1362.9-3.2Q1362.9-1.6 1361.8-0.5 1360.7 0.6 1359.15 0.6L1359.15 0.6Z" opacity="1" transform="matrix(1,0,0,1,0,0)" fill="#00add8" class="slogan-text-1" data-fill-palette-color="secondary" id="text-1"></path></svg></g></svg></g></svg></g></svg></g><g><svg viewBox="0 0 79.77352670852837 43.91355370800689" height="43.91355370800689" width="79.77352670852837"><g><svg xmlns="http://www.w3.org/2000/svg" xmlns:xlink="http://www.w3.org/1999/xlink" version="1.1" x="0" y="0" viewBox="5 25.229 90 49.54299999999999" enable-background="new 0 0 100 100" xml:space="preserve" height="43.91355370800689" width="79.77352670852837" class="icon-icon-0" data-fill-palette-color="accent" id="icon-0"><g fill="#00add8" data-fill-palette-color="accent"><g fill="#00add8" data-fill-palette-color="accent"><g fill="#00add8" data-fill-palette-color="accent"><rect x="18.479" y="25.229" width="2.385" height="2.385" fill="#00add8" data-fill-palette-color="accent"></rect><rect x="21.85" y="25.229" width="2.385" height="2.385" fill="#00add8" data-fill-palette-color="accent"></rect><rect x="25.219" y="25.229" width="2.386" height="2.385" fill="#00add8" data-fill-palette-color="accent"></rect><rect x="28.589" y="25.229" width="2.385" height="2.385" fill="#00add8" data-fill-palette-color="accent"></rect><rect x="31.959" y="25.229" width="2.385" height="2.385" fill="#00add8" data-fill-palette-color="accent"></rect><rect x="35.328" y="25.229" width="2.386" height="2.385" fill="#00add8" data-fill-palette-color="accent"></rect><rect x="38.698" y="25.229" width="2.385" height="2.385" fill="#00add8" data-fill-palette-color="accent"></rect><rect x="42.068" y="25.229" width="2.385" height="2.385" fill="#00add8" data-fill-palette-color="accent"></rect><rect x="52.178" y="25.229" width="2.385" height="2.385" fill="#00add8" data-fill-palette-color="accent"></rect><rect x="62.287" y="25.229" width="2.385" height="2.385" fill="#00add8" data-fill-palette-color="accent"></rect><rect x="72.396" y="25.229" width="2.385" height="2.385" fill="#00add8" data-fill-palette-color="accent"></rect></g><g fill="#00add8" data-fill-palette-color="accent"><rect x="15.109" y="28.597" width="2.386" height="2.384" fill="#00add8" data-fill-palette-color="accent"></rect><rect x="18.479" y="28.597" width="2.385" height="2.384" fill="#00add8" data-fill-palette-color="accent"></rect><rect x="21.85" y="28.597" width="2.385" height="2.384" fill="#00add8" data-fill-palette-color="accent"></rect><rect x="25.219" y="28.597" width="2.386" height="2.384" fill="#00add8" data-fill-palette-color="accent"></rect><rect x="31.959" y="28.597" width="2.385" height="2.384" fill="#00add8" data-fill-palette-color="accent"></rect><rect x="35.328" y="28.597" width="2.386" height="2.384" fill="#00add8" data-fill-palette-color="accent"></rect><rect x="38.698" y="28.597" width="2.385" height="2.384" fill="#00add8" data-fill-palette-color="accent"></rect><rect x="58.916" y="28.597" width="2.385" height="2.384" fill="#00add8" data-fill-palette-color="accent"></rect><rect x="65.656" y="28.597" width="2.385" height="2.384" fill="#00add8" data-fill-palette-color="accent"></rect><rect x="69.025" y="28.597" width="2.387" height="2.384" fill="#00add8" data-fill-palette-color="accent"></rect><rect x="72.396" y="28.597" width="2.385" height="2.384" fill="#00add8" data-fill-palette-color="accent"></rect><rect x="75.766" y="28.597" width="2.385" height="2.384" fill="#00add8" data-fill-palette-color="accent"></rect><rect x="79.137" y="28.597" width="2.385" height="2.384" fill="#00add8" data-fill-palette-color="accent"></rect><rect x="82.506" y="28.597" width="2.385" height="2.384" fill="#00add8" data-fill-palette-color="accent"></rect></g><g fill="#00add8" data-fill-palette-color="accent"><rect x="5" y="31.966" width="2.386" height="2.384" fill="#00add8" data-fill-palette-color="accent"></rect><rect x="8.37" y="31.966" width="2.385" height="2.384" fill="#00add8" data-fill-palette-color="accent"></rect><rect x="11.74" y="31.966" width="2.385" height="2.384" fill="#00add8" data-fill-palette-color="accent"></rect><rect x="15.109" y="31.966" width="2.386" height="2.384" fill="#00add8" data-fill-palette-color="accent"></rect><rect x="18.479" y="31.966" width="2.385" height="2.384" fill="#00add8" data-fill-palette-color="accent"></rect><rect x="21.85" y="31.966" width="2.385" height="2.384" fill="#00add8" data-fill-palette-color="accent"></rect><rect x="25.219" y="31.966" width="2.386" height="2.384" fill="#00add8" data-fill-palette-color="accent"></rect><rect x="28.589" y="31.966" width="2.385" height="2.384" fill="#00add8" data-fill-palette-color="accent"></rect><rect x="35.328" y="31.966" width="2.386" height="2.384" fill="#00add8" data-fill-palette-color="accent"></rect><rect x="38.698" y="31.966" width="2.385" height="2.384" fill="#00add8" data-fill-palette-color="accent"></rect><rect x="52.178" y="31.966" width="2.385" height="2.384" fill="#00add8" data-fill-palette-color="accent"></rect><rect x="55.547" y="31.966" width="2.385" height="2.384" fill="#00add8" data-fill-palette-color="accent"></rect><rect x="58.916" y="31.966" width="2.385" height="2.384" fill="#00add8" data-fill-palette-color="accent"></rect><rect x="62.287" y="31.966" width="2.385" height="2.384" fill="#00add8" data-fill-palette-color="accent"></rect><rect x="65.656" y="31.966" width="2.385" height="2.384" fill="#00add8" data-fill-palette-color="accent"></rect><rect x="69.025" y="31.966" width="2.387" height="2.384" fill="#00add8" data-fill-palette-color="accent"></rect><rect x="72.396" y="31.966" width="2.385" height="2.384" fill="#00add8" data-fill-palette-color="accent"></rect><rect x="75.766" y="31.966" width="2.385" height="2.384" fill="#00add8" data-fill-palette-color="accent"></rect><rect x="79.137" y="31.966" width="2.385" height="2.384" fill="#00add8" data-fill-palette-color="accent"></rect><rect x="82.506" y="31.966" width="2.385" height="2.384" fill="#00add8" data-fill-palette-color="accent"></rect><rect x="85.875" y="31.966" width="2.385" height="2.384" fill="#00add8" data-fill-palette-color="accent"></rect><rect x="89.246" y="31.966" width="2.385" height="2.384" fill="#00add8" data-fill-palette-color="accent"></rect></g><g fill="#00add8" data-fill-palette-color="accent"><rect x="5" y="35.334" width="2.386" height="2.384" fill="#00add8" data-fill-palette-color="accent"></rect><rect x="8.37" y="35.334" width="2.385" height="2.384" fill="#00add8" data-fill-palette-color="accent"></rect><rect x="11.74" y="35.334" width="2.385" height="2.384" fill="#00add8" data-fill-palette-color="accent"></rect><rect x="15.109" y="35.334" width="2.386" height="2.384" fill="#00add8" data-fill-palette-color="accent"></rect><rect x="18.479" y="35.334" width="2.385" height="2.384" fill="#00add8" data-fill-palette-color="accent"></rect><rect x="21.85" y="35.334" width="2.385" height="2.384" fill="#00add8" data-fill-palette-color="accent"></rect><rect x="25.219" y="35.334" width="2.386" height="2.384" fill="#00add8" data-fill-palette-color="accent"></rect><rect x="28.589" y="35.334" width="2.385" height="2.384" fill="#00add8" data-fill-palette-color="accent"></rect><rect x="35.328" y="35.334" width="2.386" height="2.384" fill="#00add8" data-fill-palette-color="accent"></rect><rect x="42.068" y="35.334" width="2.385" height="2.384" fill="#00add8" data-fill-palette-color="accent"></rect><rect x="48.808" y="35.334" width="2.383" height="2.384" fill="#00add8" data-fill-palette-color="accent"></rect><rect x="52.178" y="35.334" width="2.385" height="2.384" fill="#00add8" data-fill-palette-color="accent"></rect><rect x="55.547" y="35.334" width="2.385" height="2.384" fill="#00add8" data-fill-palette-color="accent"></rect><rect x="58.916" y="35.334" width="2.385" height="2.384" fill="#00add8" data-fill-palette-color="accent"></rect><rect x="62.287" y="35.334" width="2.385" height="2.384" fill="#00add8" data-fill-palette-color="accent"></rect><rect x="65.656" y="35.334" width="2.385" height="2.384" fill="#00add8" data-fill-palette-color="accent"></rect><rect x="69.025" y="35.334" width="2.387" height="2.384" fill="#00add8" data-fill-palette-color="accent"></rect><rect x="72.396" y="35.334" width="2.385" height="2.384" fill="#00add8" data-fill-palette-color="accent"></rect><rect x="75.766" y="35.334" width="2.385" height="2.384" fill="#00add8" data-fill-palette-color="accent"></rect><rect x="79.137" y="35.334" width="2.385" height="2.384" fill="#00add8" data-fill-palette-color="accent"></rect><rect x="82.506" y="35.334" width="2.385" height="2.384" fill="#00add8" data-fill-palette-color="accent"></rect><rect x="85.875" y="35.334" width="2.385" height="2.384" fill="#00add8" data-fill-palette-color="accent"></rect><rect x="89.246" y="35.334" width="2.385" height="2.384" fill="#00add8" data-fill-palette-color="accent"></rect><rect x="92.615" y="35.334" width="2.385" height="2.384" fill="#00add8" data-fill-palette-color="accent"></rect></g><g fill="#00add8" data-fill-palette-color="accent"><rect x="5" y="38.702" width="2.386" height="2.384" fill="#00add8" data-fill-palette-color="accent"></rect><rect x="8.37" y="38.702" width="2.385" height="2.384" fill="#00add8" data-fill-palette-color="accent"></rect><rect x="11.74" y="38.702" width="2.385" height="2.384" fill="#00add8" data-fill-palette-color="accent"></rect><rect x="15.109" y="38.702" width="2.386" height="2.384" fill="#00add8" data-fill-palette-color="accent"></rect><rect x="18.479" y="38.702" width="2.385" height="2.384" fill="#00add8" data-fill-palette-color="accent"></rect><rect x="21.85" y="38.702" width="2.385" height="2.384" fill="#00add8" data-fill-palette-color="accent"></rect><rect x="25.219" y="38.702" width="2.386" height="2.384" fill="#00add8" data-fill-palette-color="accent"></rect><rect x="28.589" y="38.702" width="2.385" height="2.384" fill="#00add8" data-fill-palette-color="accent"></rect><rect x="45.438" y="38.702" width="2.386" height="2.384" fill="#00add8" data-fill-palette-color="accent"></rect><rect x="48.808" y="38.702" width="2.383" height="2.384" fill="#00add8" data-fill-palette-color="accent"></rect><rect x="52.178" y="38.702" width="2.385" height="2.384" fill="#00add8" data-fill-palette-color="accent"></rect><rect x="55.547" y="38.702" width="2.385" height="2.384" fill="#00add8" data-fill-palette-color="accent"></rect><rect x="58.916" y="38.702" width="2.385" height="2.384" fill="#00add8" data-fill-palette-color="accent"></rect><rect x="62.287" y="38.702" width="2.385" height="2.384" fill="#00add8" data-fill-palette-color="accent"></rect><rect x="65.656" y="38.702" width="2.385" height="2.384" fill="#00add8" data-fill-palette-color="accent"></rect><rect x="69.025" y="38.702" width="2.387" height="2.384" fill="#00add8" data-fill-palette-color="accent"></rect><rect x="72.396" y="38.702" width="2.385" height="2.384" fill="#00add8" data-fill-palette-color="accent"></rect><rect x="75.766" y="38.702" width="2.385" height="2.384" fill="#00add8" data-fill-palette-color="accent"></rect><rect x="79.137" y="38.702" width="2.385" height="2.384" fill="#00add8" data-fill-palette-color="accent"></rect><rect x="82.506" y="38.702" width="2.385" height="2.384" fill="#00add8" data-fill-palette-color="accent"></rect><rect x="85.875" y="38.702" width="2.385" height="2.384" fill="#00add8" data-fill-palette-color="accent"></rect></g><g fill="#00add8" data-fill-palette-color="accent"><rect x="15.109" y="42.071" width="2.386" height="2.384" fill="#00add8" data-fill-palette-color="accent"></rect><rect x="18.479" y="42.071" width="2.385" height="2.384" fill="#00add8" data-fill-palette-color="accent"></rect><rect x="21.85" y="42.071" width="2.385" height="2.384" fill="#00add8" data-fill-palette-color="accent"></rect><rect x="25.219" y="42.071" width="2.386" height="2.384" fill="#00add8" data-fill-palette-color="accent"></rect><rect x="28.589" y="42.071" width="2.385" height="2.384" fill="#00add8" data-fill-palette-color="accent"></rect><rect x="31.959" y="42.071" width="2.385" height="2.384" fill="#00add8" data-fill-palette-color="accent"></rect><rect x="45.438" y="42.071" width="2.386" height="2.384" fill="#00add8" data-fill-palette-color="accent"></rect><rect x="48.808" y="42.071" width="2.383" height="2.384" fill="#00add8" data-fill-palette-color="accent"></rect><rect x="52.178" y="42.071" width="2.385" height="2.384" fill="#00add8" data-fill-palette-color="accent"></rect><rect x="55.547" y="42.071" width="2.385" height="2.384" fill="#00add8" data-fill-palette-color="accent"></rect><rect x="58.916" y="42.071" width="2.385" height="2.384" fill="#00add8" data-fill-palette-color="accent"></rect><rect x="62.287" y="42.071" width="2.385" height="2.384" fill="#00add8" data-fill-palette-color="accent"></rect><rect x="65.656" y="42.071" width="2.385" height="2.384" fill="#00add8" data-fill-palette-color="accent"></rect><rect x="69.025" y="42.071" width="2.387" height="2.384" fill="#00add8" data-fill-palette-color="accent"></rect><rect x="72.396" y="42.071" width="2.385" height="2.384" fill="#00add8" data-fill-palette-color="accent"></rect><rect x="75.766" y="42.071" width="2.385" height="2.384" fill="#00add8" data-fill-palette-color="accent"></rect><rect x="79.137" y="42.071" width="2.385" height="2.384" fill="#00add8" data-fill-palette-color="accent"></rect><rect x="85.875" y="42.071" width="2.385" height="2.384" fill="#00add8" data-fill-palette-color="accent"></rect></g><g fill="#00add8" data-fill-palette-color="accent"><rect x="15.109" y="45.44" width="2.386" height="2.384" fill="#00add8" data-fill-palette-color="accent"></rect><rect x="18.479" y="45.44" width="2.385" height="2.384" fill="#00add8" data-fill-palette-color="accent"></rect><rect x="21.85" y="45.44" width="2.385" height="2.384" fill="#00add8" data-fill-palette-color="accent"></rect><rect x="25.219" y="45.44" width="2.386" height="2.384" fill="#00add8" data-fill-palette-color="accent"></rect><rect x="28.589" y="45.44" width="2.385" height="2.384" fill="#00add8" data-fill-palette-color="accent"></rect><rect x="45.438" y="45.44" width="2.386" height="2.384" fill="#00add8" data-fill-palette-color="accent"></rect><rect x="52.178" y="45.44" width="2.385" height="2.384" fill="#00add8" data-fill-palette-color="accent"></rect><rect x="55.547" y="45.44" width="2.385" height="2.384" fill="#00add8" data-fill-palette-color="accent"></rect><rect x="58.916" y="45.44" width="2.385" height="2.384" fill="#00add8" data-fill-palette-color="accent"></rect><rect x="62.287" y="45.44" width="2.385" height="2.384" fill="#00add8" data-fill-palette-color="accent"></rect><rect x="65.656" y="45.44" width="2.385" height="2.384" fill="#00add8" data-fill-palette-color="accent"></rect><rect x="69.025" y="45.44" width="2.387" height="2.384" fill="#00add8" data-fill-palette-color="accent"></rect><rect x="72.396" y="45.44" width="2.385" height="2.384" fill="#00add8" data-fill-palette-color="accent"></rect><rect x="75.766" y="45.44" width="2.385" height="2.384" fill="#00add8" data-fill-palette-color="accent"></rect><rect x="79.137" y="45.44" width="2.385" height="2.384" fill="#00add8" data-fill-palette-color="accent"></rect><rect x="82.506" y="45.44" width="2.385" height="2.384" fill="#00add8" data-fill-palette-color="accent"></rect></g><g fill="#00add8" data-fill-palette-color="accent"><rect x="18.479" y="48.809" width="2.385" height="2.382" fill="#00add8" data-fill-palette-color="accent"></rect><rect x="21.85" y="48.809" width="2.385" height="2.382" fill="#00add8" data-fill-palette-color="accent"></rect><rect x="25.219" y="48.809" width="2.386" height="2.382" fill="#00add8" data-fill-palette-color="accent"></rect><rect x="42.068" y="48.809" width="2.385" height="2.382" fill="#00add8" data-fill-palette-color="accent"></rect><rect x="45.438" y="48.809" width="2.386" height="2.382" fill="#00add8" data-fill-palette-color="accent"></rect><rect x="48.808" y="48.809" width="2.383" height="2.382" fill="#00add8" data-fill-palette-color="accent"></rect><rect x="52.178" y="48.809" width="2.385" height="2.382" fill="#00add8" data-fill-palette-color="accent"></rect><rect x="55.547" y="48.809" width="2.385" height="2.382" fill="#00add8" data-fill-palette-color="accent"></rect><rect x="58.916" y="48.809" width="2.385" height="2.382" fill="#00add8" data-fill-palette-color="accent"></rect><rect x="62.287" y="48.809" width="2.385" height="2.382" fill="#00add8" data-fill-palette-color="accent"></rect><rect x="65.656" y="48.809" width="2.385" height="2.382" fill="#00add8" data-fill-palette-color="accent"></rect><rect x="69.025" y="48.809" width="2.387" height="2.382" fill="#00add8" data-fill-palette-color="accent"></rect><rect x="72.396" y="48.809" width="2.385" height="2.382" fill="#00add8" data-fill-palette-color="accent"></rect><rect x="75.766" y="48.809" width="2.385" height="2.382" fill="#00add8" data-fill-palette-color="accent"></rect><rect x="79.137" y="48.809" width="2.385" height="2.382" fill="#00add8" data-fill-palette-color="accent"></rect></g><g fill="#00add8" data-fill-palette-color="accent"><rect x="21.85" y="52.178" width="2.385" height="2.383" fill="#00add8" data-fill-palette-color="accent"></rect><rect x="25.219" y="52.178" width="2.386" height="2.383" fill="#00add8" data-fill-palette-color="accent"></rect><rect x="28.589" y="52.178" width="2.385" height="2.383" fill="#00add8" data-fill-palette-color="accent"></rect><rect x="42.068" y="52.178" width="2.385" height="2.383" fill="#00add8" data-fill-palette-color="accent"></rect><rect x="45.438" y="52.178" width="2.386" height="2.383" fill="#00add8" data-fill-palette-color="accent"></rect><rect x="48.808" y="52.178" width="2.383" height="2.383" fill="#00add8" data-fill-palette-color="accent"></rect><rect x="52.178" y="52.178" width="2.385" height="2.383" fill="#00add8" data-fill-palette-color="accent"></rect><rect x="55.547" y="52.178" width="2.385" height="2.383" fill="#00add8" data-fill-palette-color="accent"></rect><rect x="58.916" y="52.178" width="2.385" height="2.383" fill="#00add8" data-fill-palette-color="accent"></rect><rect x="65.656" y="52.178" width="2.385" height="2.383" fill="#00add8" data-fill-palette-color="accent"></rect><rect x="72.396" y="52.178" width="2.385" height="2.383" fill="#00add8" data-fill-palette-color="accent"></rect><rect x="75.766" y="52.178" width="2.385" height="2.383" fill="#00add8" data-fill-palette-color="accent"></rect></g><g fill="#00add8" data-fill-palette-color="accent"><rect x="28.589" y="55.547" width="2.385" height="2.383" fill="#00add8" data-fill-palette-color="accent"></rect><rect x="31.959" y="55.547" width="2.385" height="2.383" fill="#00add8" data-fill-palette-color="accent"></rect><rect x="45.438" y="55.547" width="2.386" height="2.383" fill="#00add8" data-fill-palette-color="accent"></rect><rect x="48.808" y="55.547" width="2.383" height="2.383" fill="#00add8" data-fill-palette-color="accent"></rect><rect x="52.178" y="55.547" width="2.385" height="2.383" fill="#00add8" data-fill-palette-color="accent"></rect><rect x="55.547" y="55.547" width="2.385" height="2.383" fill="#00add8" data-fill-palette-color="accent"></rect></g><g fill="#00add8" data-fill-palette-color="accent"><rect x="25.219" y="58.914" width="2.386" height="2.385" fill="#00add8" data-fill-palette-color="accent"></rect><rect x="28.589" y="58.914" width="2.385" height="2.385" fill="#00add8" data-fill-palette-color="accent"></rect><rect x="31.959" y="58.914" width="2.385" height="2.385" fill="#00add8" data-fill-palette-color="accent"></rect><rect x="35.328" y="58.914" width="2.386" height="2.385" fill="#00add8" data-fill-palette-color="accent"></rect><rect x="48.808" y="58.914" width="2.383" height="2.385" fill="#00add8" data-fill-palette-color="accent"></rect><rect x="52.178" y="58.914" width="2.385" height="2.385" fill="#00add8" data-fill-palette-color="accent"></rect><rect x="55.547" y="58.914" width="2.385" height="2.385" fill="#00add8" data-fill-palette-color="accent"></rect><rect x="72.396" y="58.914" width="2.385" height="2.385" fill="#00add8" data-fill-palette-color="accent"></rect><rect x="75.766" y="58.914" width="2.385" height="2.385" fill="#00add8" data-fill-palette-color="accent"></rect><rect x="79.137" y="58.914" width="2.385" height="2.385" fill="#00add8" data-fill-palette-color="accent"></rect><rect x="82.506" y="58.914" width="2.385" height="2.385" fill="#00add8" data-fill-palette-color="accent"></rect></g><g fill="#00add8" data-fill-palette-color="accent"><rect x="28.589" y="62.283" width="2.385" height="2.383" fill="#00add8" data-fill-palette-color="accent"></rect><rect x="31.959" y="62.283" width="2.385" height="2.383" fill="#00add8" data-fill-palette-color="accent"></rect><rect x="35.328" y="62.283" width="2.386" height="2.383" fill="#00add8" data-fill-palette-color="accent"></rect><rect x="48.808" y="62.283" width="2.383" height="2.383" fill="#00add8" data-fill-palette-color="accent"></rect><rect x="52.178" y="62.283" width="2.385" height="2.383" fill="#00add8" data-fill-palette-color="accent"></rect><rect x="58.916" y="62.283" width="2.385" height="2.383" fill="#00add8" data-fill-palette-color="accent"></rect><rect x="75.766" y="62.283" width="2.385" height="2.383" fill="#00add8" data-fill-palette-color="accent"></rect><rect x="79.137" y="62.283" width="2.385" height="2.383" fill="#00add8" data-fill-palette-color="accent"></rect><rect x="82.506" y="62.283" width="2.385" height="2.383" fill="#00add8" data-fill-palette-color="accent"></rect><rect x="85.875" y="62.283" width="2.385" height="2.383" fill="#00add8" data-fill-palette-color="accent"></rect></g><g fill="#00add8" data-fill-palette-color="accent"><rect x="28.589" y="65.652" width="2.385" height="2.383" fill="#00add8" data-fill-palette-color="accent"></rect><rect x="31.959" y="65.652" width="2.385" height="2.383" fill="#00add8" data-fill-palette-color="accent"></rect><rect x="52.178" y="65.652" width="2.385" height="2.383" fill="#00add8" data-fill-palette-color="accent"></rect><rect x="75.766" y="65.652" width="2.385" height="2.383" fill="#00add8" data-fill-palette-color="accent"></rect><rect x="79.137" y="65.652" width="2.385" height="2.383" fill="#00add8" data-fill-palette-color="accent"></rect><rect x="82.506" y="65.652" width="2.385" height="2.383" fill="#00add8" data-fill-palette-color="accent"></rect></g><g fill="#00add8" data-fill-palette-color="accent"><rect x="28.589" y="69.02" width="2.385" height="2.387" fill="#00add8" data-fill-palette-color="accent"></rect><rect x="89.246" y="69.02" width="2.385" height="2.387" fill="#00add8" data-fill-palette-color="accent"></rect></g><g fill="#00add8" data-fill-palette-color="accent"><rect x="28.589" y="72.389" width="2.385" height="2.383" fill="#00add8" data-fill-palette-color="accent"></rect></g></g></g></svg></g></svg></g></svg></g><defs></defs></svg><rect width="395.52" height="36.25274498622617" fill="none" stroke="none" visibility="hidden"></rect></g></svg></g></svg>