<svg xmlns="http://www.w3.org/2000/svg" version="1.1" xmlns:xlink="http://www.w3.org/1999/xlink" xmlns:svgjs="http://svgjs.dev/svgjs" width="2000" height="1500" viewBox="0 0 2000 1500"><rect width="2000" height="1500" fill="#121212"></rect><g transform="matrix(0.75,0,0,0.75,249.090909090909,577.3262095277823)"><svg viewBox="0 0 396 91" data-background-color="#121212" preserveAspectRatio="xMidYMid meet" height="459" width="2000" xmlns="http://www.w3.org/2000/svg" xmlns:xlink="http://www.w3.org/1999/xlink"><g id="tight-bounds" transform="matrix(1,0,0,1,0.2400000000000091,0.1450687958513015)"><svg viewBox="0 0 395.52 90.70986240829738" height="90.70986240829738" width="395.52"><g><svg viewBox="0 0 518.426369505687 118.89761490365598" height="90.70986240829738" width="395.52"><g transform="matrix(1,0,0,1,122.90636950568707,43.85980620926448)"><svg viewBox="0 0 395.52 31.178002485127017" height="31.178002485127017" width="395.52"><g id="textblocktransform"><svg viewBox="0 0 395.52 31.178002485127017" height="31.178002485127017" width="395.52" id="textblock"><g><svg viewBox="0 0 395.52 16.98077992693495" height="16.98077992693495" width="395.52"><g transform="matrix(1,0,0,1,0,0)"><svg width="395.52" viewBox="0.61 -36.28 862.01 37.010000000000005" height="16.98077992693495" data-palette-color="#ffffff"><path d="M0.61-10.01L0.61-9.77Q0.61-4.88 3.72-2.08 6.84 0.73 11.84 0.73L11.84 0.73Q16.85 0.73 19.96-2.26 23.07-5.25 23.07-10.38L23.07-10.38 23.07-35.55 18.38-35.55 18.38-10.38Q18.38-6.96 16.64-5.11 14.89-3.27 11.84-3.27L11.84-3.27Q8.79-3.27 7.04-4.93 5.3-6.59 5.3-9.77L5.3-9.77 5.3-10.01 0.61-10.01ZM29.66-18.9L29.66-16.65Q29.66-8.45 33.87-3.86 38.08 0.73 44.68 0.73L44.68 0.73Q51.27 0.73 55.48-3.86 59.69-8.45 59.69-16.65L59.69-16.65 59.69-18.9Q59.69-27.1 55.48-31.69 51.27-36.28 44.68-36.28L44.68-36.28Q38.08-36.28 33.87-31.69 29.66-27.1 29.66-18.9L29.66-18.9ZM34.4-16.65L34.4-16.65 34.4-18.9Q34.4-25.15 37.22-28.71 40.04-32.28 44.68-32.28L44.68-32.28Q49.31-32.28 52.13-28.71 54.95-25.15 54.95-18.9L54.95-18.9 54.95-16.65Q54.95-10.4 52.13-6.84 49.31-3.27 44.68-3.27L44.68-3.27Q40.04-3.27 37.22-6.84 34.4-10.4 34.4-16.65ZM66.65-35.55L66.65 0 89.2 0 89.2-3.86 71.33-3.86 71.33-16.41 86.71-16.41 86.71-20.26 71.33-20.26 71.33-31.69 88.96-31.69 88.96-35.55 66.65-35.55ZM107.22-35.55L107.22 0 111.66 0 111.66-25.63Q111.66-26.37 111.64-27.28 111.61-28.2 111.51-28.93L111.51-28.93 111.71-28.93Q111.86-28.2 112.15-27.28 112.44-26.37 112.73-25.63L112.73-25.63 122.84 0 126.89 0 137-25.63Q137.29-26.37 137.59-27.28 137.88-28.2 138.03-28.93L138.03-28.93 138.22-28.93Q138.12-28.2 138.1-27.28 138.08-26.37 138.08-25.63L138.08-25.63 138.08 0 142.62 0 142.62-35.55 136.56-35.55 126.02-8.81Q125.72-8.08 125.47-7.29 125.21-6.49 125.01-5.76L125.01-5.76 124.82-5.76Q124.62-6.49 124.37-7.29 124.11-8.08 123.82-8.81L123.82-8.81 113.27-35.55 107.22-35.55ZM150.92-35.55L150.92 0 173.47 0 173.47-3.86 155.6-3.86 155.6-16.41 170.98-16.41 170.98-20.26 155.6-20.26 155.6-31.69 173.23-31.69 173.23-35.55 150.92-35.55ZM179.28-35.55L179.28 0 183.87 0 183.87-24.41Q183.87-25.15 183.86-26.06 183.85-26.98 183.82-27.71L183.82-27.71 183.99-27.71Q184.34-27.1 184.75-26.37 185.17-25.63 185.65-24.9L185.65-24.9 201.74 0 206.63 0 206.63-35.55 202.04-35.55 202.04-11.13Q202.04-10.4 202.05-9.48 202.06-8.57 202.08-7.84L202.08-7.84 201.89-7.84Q201.6-8.45 201.17-9.18 200.74-9.91 200.25-10.64L200.25-10.64 184.16-35.55 179.28-35.55ZM214.92-35.55L214.92 0 225.47 0Q232.31 0 236.86-4.52 241.41-9.03 241.41-16.65L241.41-16.65 241.41-18.9Q241.41-26.51 236.86-31.03 232.31-35.55 225.47-35.55L225.47-35.55 214.92-35.55ZM225.47-3.86L219.61-3.86 219.61-31.69 225.47-31.69Q230.6-31.69 233.64-28.3 236.68-24.9 236.68-18.9L236.68-18.9 236.68-16.65Q236.68-10.64 233.64-7.25 230.6-3.86 225.47-3.86L225.47-3.86ZM248.37-35.55L248.37 0 270.93 0 270.93-3.86 253.06-3.86 253.06-16.41 268.44-16.41 268.44-20.26 253.06-20.26 253.06-31.69 270.68-31.69 270.68-35.55 248.37-35.55ZM274.17-3.42L274.17 0 300.03 0 300.03-3.86 279.76-3.86 299.25-32.13 299.25-35.55 274.46-35.55 274.46-31.69 293.65-31.69 274.17-3.42ZM303.47-17.48L303.47-13.28 317.24-13.28 317.24-17.48 303.47-17.48ZM323.21-35.55L323.21 0 327.9 0 327.9-16.41 345.82-16.41 345.82 0 350.51 0 350.51-35.55 345.82-35.55 345.82-20.26 327.9-20.26 327.9-35.55 323.21-35.55ZM358.44-35.55L358.44-11.47Q358.44-5.37 362.19-2.32 365.94 0.73 371.31 0.73L371.31 0.73Q376.68 0.73 380.43-2.32 384.17-5.37 384.17-11.47L384.17-11.47 384.17-35.55 379.49-35.55 379.49-11.47Q379.49-7.32 377.23-5.3 374.97-3.27 371.31-3.27L371.31-3.27Q367.65-3.27 365.39-5.3 363.13-7.32 363.13-11.47L363.13-11.47 363.13-35.55 358.44-35.55ZM390.76-18.9L390.76-16.65Q390.76-8.45 394.97-3.86 399.19 0.73 406.27 0.73L406.27 0.73Q410.91 0.73 414.2-0.73 417.5-2.2 419.16-3.91L419.16-3.91 419.16-17.77 405.78-17.77 405.78-13.92 414.62-13.92 414.62-5.62Q412.86-4.39 410.91-3.83 408.95-3.27 406.27-3.27L406.27-3.27Q401.14-3.27 398.32-6.84 395.5-10.4 395.5-16.65L395.5-16.65 395.5-18.9Q395.5-25.15 398.32-28.71 401.14-32.28 405.8-32.28L405.8-32.28Q409.93-32.28 412.2-30.05 414.47-27.83 414.47-25.39L414.47-25.39 414.47-25.15 419.16-25.15 419.13-25.42Q418.74-29.81 415.31-33.04 411.88-36.28 405.85-36.28L405.85-36.28Q399.19-36.28 394.97-31.69 390.76-27.1 390.76-18.9L390.76-18.9ZM426.45-35.55L426.45 0 431.14 0 431.14-16.41 449.06-16.41 449.06 0 453.75 0 453.75-35.55 449.06-35.55 449.06-20.26 431.14-20.26 431.14-35.55 426.45-35.55ZM462.05-35.55L462.05 0 484.61 0 484.61-3.86 466.73-3.86 466.73-16.41 482.12-16.41 482.12-20.26 466.73-20.26 466.73-31.69 484.36-31.69 484.36-35.55 462.05-35.55ZM488.46-10.01L488.46-9.72Q488.46-4.88 492-2.08 495.54 0.73 501.4 0.73L501.4 0.73Q507.26 0.73 510.68-2.08 514.1-4.88 514.1-9.28L514.1-9.28Q514.1-13.67 511.51-16.09 508.92-18.51 503.21-20.12L503.21-20.12Q497.49-21.73 495.66-23.07 493.83-24.41 493.83-26.73L493.83-26.73Q493.83-29.3 495.61-30.79 497.4-32.28 501.16-32.28L501.16-32.28Q504.92-32.28 506.82-30.54 508.72-28.81 508.72-25.98L508.72-25.98 508.72-25.68 513.41-25.68 513.41-25.98Q513.41-30.47 510.09-33.37 506.77-36.28 501.16-36.28L501.16-36.28Q495.54-36.28 492.37-33.52 489.19-30.76 489.19-26.61L489.19-26.61Q489.19-22.46 491.61-20.2 494.03-17.94 499.84-16.26L499.84-16.26Q505.43-14.65 507.44-13.18 509.46-11.72 509.46-9.28L509.46-9.28Q509.46-6.59 507.38-4.93 505.31-3.27 501.4-3.27L501.4-3.27Q497.49-3.27 495.32-4.88 493.15-6.49 493.15-9.72L493.15-9.72 493.15-10.01 488.46-10.01ZM520.34-2.37L520.34-2.37Q520.34-1.17 521.12-0.32 521.91 0.54 523.37 0.54L523.37 0.54Q524.84 0.54 525.62-0.32 526.4-1.17 526.4-2.37L526.4-2.37Q526.4-3.56 525.62-4.42 524.84-5.27 523.37-5.27L523.37-5.27Q521.91-5.27 521.12-4.42 520.34-3.56 520.34-2.37ZM520.34-23.17L520.34-23.17Q520.34-21.97 521.12-21.12 521.91-20.26 523.37-20.26L523.37-20.26Q524.84-20.26 525.62-21.12 526.4-21.97 526.4-23.17L526.4-23.17Q526.4-24.37 525.62-25.22 524.84-26.07 523.37-26.07L523.37-26.07Q521.91-26.07 521.12-25.22 520.34-24.37 520.34-23.17ZM556.42-35.79L542.9 0 547.58 0 557.45-26.86Q557.74-27.66 557.96-28.42 558.18-29.17 558.35-29.98L558.35-29.98 558.6-29.98Q558.77-29.17 558.99-28.42 559.21-27.66 559.5-26.86L559.5-26.86 569.26 0 574.15 0 560.62-35.79 556.42-35.79ZM550.15-13.13L548.71-9.28 568.26-9.28 566.85-13.13 550.15-13.13ZM579.27-2.51L579.27-2.51Q579.27-1.25 580.09-0.35 580.91 0.54 582.45 0.54L582.45 0.54Q583.98 0.54 584.8-0.35 585.62-1.25 585.62-2.51L585.62-2.51Q585.62-3.78 584.8-4.68 583.98-5.57 582.45-5.57L582.45-5.57Q580.91-5.57 580.09-4.68 579.27-3.78 579.27-2.51ZM593.8-35.55L593.8 0 598.48 0 598.48-35.55 593.8-35.55ZM606.66-2.51L606.66-2.51Q606.66-1.25 607.48-0.35 608.29 0.54 609.83 0.54L609.83 0.54Q611.37 0.54 612.19-0.35 613.01-1.25 613.01-2.51L613.01-2.51Q613.01-3.78 612.19-4.68 611.37-5.57 609.83-5.57L609.83-5.57Q608.29-5.57 607.48-4.68 606.66-3.78 606.66-2.51ZM633.27-35.55L633.27 0 655.82 0 655.82-3.86 637.95-3.86 637.95-16.41 653.33-16.41 653.33-20.26 637.95-20.26 637.95-31.69 655.58-31.69 655.58-35.55 633.27-35.55ZM661.63-35.55L661.63 0 666.22 0 666.22-24.41Q666.22-25.15 666.21-26.06 666.2-26.98 666.17-27.71L666.17-27.71 666.34-27.71Q666.69-27.1 667.1-26.37 667.52-25.63 668-24.9L668-24.9 684.09 0 688.98 0 688.98-35.55 684.39-35.55 684.39-11.13Q684.39-10.4 684.4-9.48 684.41-8.57 684.43-7.84L684.43-7.84 684.24-7.84Q683.95-8.45 683.52-9.18 683.09-9.91 682.6-10.64L682.6-10.64 666.51-35.55 661.63-35.55ZM695.93-18.9L695.93-16.65Q695.93-8.45 700.14-3.86 704.35 0.73 711.43 0.73L711.43 0.73Q716.07 0.73 719.37-0.73 722.66-2.2 724.32-3.91L724.32-3.91 724.32-17.77 710.95-17.77 710.95-13.92 719.78-13.92 719.78-5.62Q718.03-4.39 716.07-3.83 714.12-3.27 711.43-3.27L711.43-3.27Q706.31-3.27 703.49-6.84 700.67-10.4 700.67-16.65L700.67-16.65 700.67-18.9Q700.67-25.15 703.49-28.71 706.31-32.28 710.97-32.28L710.97-32.28Q715.1-32.28 717.37-30.05 719.64-27.83 719.64-25.39L719.64-25.39 719.64-25.15 724.32-25.15 724.3-25.42Q723.91-29.81 720.48-33.04 717.05-36.28 711.02-36.28L711.02-36.28Q704.35-36.28 700.14-31.69 695.93-27.1 695.93-18.9L695.93-18.9ZM731.74-35.55L731.74 0 736.43 0 736.43-35.55 731.74-35.55ZM744.85-35.55L744.85 0 749.44 0 749.44-24.41Q749.44-25.15 749.43-26.06 749.42-26.98 749.39-27.71L749.39-27.71 749.56-27.71Q749.91-27.1 750.32-26.37 750.74-25.63 751.22-24.9L751.22-24.9 767.31 0 772.2 0 772.2-35.55 767.61-35.55 767.61-11.13Q767.61-10.4 767.62-9.48 767.63-8.57 767.65-7.84L767.65-7.84 767.46-7.84Q767.17-8.45 766.74-9.18 766.31-9.91 765.82-10.64L765.82-10.64 749.73-35.55 744.85-35.55ZM780.49-35.55L780.49 0 803.05 0 803.05-3.86 785.18-3.86 785.18-16.41 800.56-16.41 800.56-20.26 785.18-20.26 785.18-31.69 802.81-31.69 802.81-35.55 780.49-35.55ZM808.86-35.55L808.86 0 831.42 0 831.42-3.86 813.55-3.86 813.55-16.41 828.93-16.41 828.93-20.26 813.55-20.26 813.55-31.69 831.17-31.69 831.17-35.55 808.86-35.55ZM837.23-35.55L837.23 0 841.91 0 841.91-14.5 848.8-14.5Q854.51-14.5 857.61-17.43 860.71-20.36 860.71-25.1L860.71-25.1Q860.71-29.83 857.61-32.69 854.51-35.55 848.8-35.55L848.8-35.55 837.23-35.55ZM848.8-18.31L841.91-18.31 841.91-31.74 848.8-31.74Q852.85-31.74 854.44-29.83 856.03-27.93 856.03-25.1L856.03-25.1Q856.03-22.27 854.44-20.29 852.85-18.31 848.8-18.31L848.8-18.31ZM848.7-16.41L857.39 0 862.62 0 853.34-17.11 848.7-16.41Z" opacity="1" transform="matrix(1,0,0,1,0,0)" fill="#ffffff" class="wordmark-text-0" data-fill-palette-color="primary" id="text-0"></path></svg></g></svg></g><g transform="matrix(1,0,0,1,0,20.989534528966047)"><svg viewBox="0 0 395.52 10.18846795616097" height="10.18846795616097" width="395.52"><g transform="matrix(1,0,0,1,0,0)"><svg width="395.52" viewBox="2.2 -37.99 1887.94 48.63" height="10.18846795616097" data-palette-color="#ffffff"><path d="M2.2-10.01L2.2-9.72Q2.2-4.88 5.74-2.08 9.28 0.73 15.14 0.73L15.14 0.73Q21 0.73 24.41-2.08 27.83-4.88 27.83-9.28L27.83-9.28Q27.83-13.67 25.24-16.09 22.66-18.51 16.94-20.12L16.94-20.12Q11.23-21.73 9.4-23.07 7.57-24.41 7.57-26.73L7.57-26.73Q7.57-29.3 9.35-30.79 11.13-32.28 14.89-32.28L14.89-32.28Q18.65-32.28 20.56-30.54 22.46-28.81 22.46-25.98L22.46-25.98 22.46-25.68 27.15-25.68 27.15-25.98Q27.15-30.47 23.83-33.37 20.51-36.28 14.89-36.28L14.89-36.28Q9.28-36.28 6.1-33.52 2.93-30.76 2.93-26.61L2.93-26.61Q2.93-22.46 5.35-20.2 7.76-17.94 13.57-16.26L13.57-16.26Q19.17-14.65 21.18-13.18 23.19-11.72 23.19-9.28L23.19-9.28Q23.19-6.59 21.12-4.93 19.04-3.27 15.14-3.27L15.14-3.27Q11.23-3.27 9.06-4.88 6.88-6.49 6.88-9.72L6.88-9.72 6.88-10.01 2.2-10.01ZM84.81-7.57L84.81-7.57Q84.81-3.66 87.37-1.59 89.94 0.49 93.6 0.49L93.6 0.49Q96.77 0.49 98.79-0.73 100.8-1.95 101.7-3.54L101.7-3.54Q101.78-2.56 102.06-1.59 102.34-0.61 102.68 0L102.68 0 107.07 0 107.07-0.39Q106.63-1.46 106.39-2.87 106.15-4.27 106.15-5.86L106.15-5.86 106.15-17.58Q106.15-21.97 103.6-24.19 101.04-26.42 96.41-26.42L96.41-26.42Q91.77-26.42 89.04-24.13 86.32-21.85 86.32-18.8L86.32-18.8 86.32-18.68 90.84-18.68 90.84-18.8Q90.84-20.39 92.1-21.59 93.35-22.8 96.28-22.8L96.28-22.8Q99.21-22.8 100.41-21.35 101.61-19.9 101.61-17.58L101.61-17.58 101.61-15.82 95.8-15.82Q91.01-15.82 87.91-13.65 84.81-11.47 84.81-7.57ZM89.35-7.81L89.35-7.81Q89.35-10.01 91.11-11.3 92.87-12.6 96.28-12.6L96.28-12.6 101.61-12.6 101.61-8.91Q101.61-6.84 99.43-4.98 97.26-3.13 94.57-3.13L94.57-3.13Q91.89-3.13 90.62-4.37 89.35-5.62 89.35-7.81ZM166.47-25.68L162.07-25.68 171.84 0 175.31 0 185.07-25.68 180.77-25.68 174.62-8.54Q174.28-7.57 174.05-6.71 173.82-5.86 173.72-5.37L173.72-5.37 173.57-5.37Q173.47-5.86 173.24-6.71 173.01-7.57 172.67-8.54L172.67-8.54 166.47-25.68ZM241.73-25.68L241.73 0 246.27 0 246.27-25.68 241.73-25.68ZM241.17-33.45L241.17-33.45Q241.17-32.3 241.9-31.52 242.63-30.74 244-30.74L244-30.74Q245.37-30.74 246.1-31.52 246.83-32.3 246.83-33.45L246.83-33.45Q246.83-34.59 246.1-35.38 245.37-36.16 244-36.16L244-36.16Q242.63-36.16 241.9-35.38 241.17-34.59 241.17-33.45ZM306.54-25.68L306.54 0 311.09 0 311.09-18.16Q312.01-20.02 313.67-21.19 315.33-22.36 317.51-22.36L317.51-22.36Q320.05-22.36 321.42-21.03 322.8-19.7 322.8-16.63L322.8-16.63 322.8 0 327.35 0 327.35-16.58Q327.35-21.75 325.04-23.96 322.73-26.17 318.85-26.17L318.85-26.17Q316.41-26.17 314.39-25.16 312.38-24.15 310.99-22.39L310.99-22.39 310.84-22.39 310.65-25.68 306.54-25.68ZM389.42 3.52L386.57 6.93Q388.42 8.54 391.11 9.59 393.79 10.64 396.97 10.64L396.97 10.64Q402.1 10.64 405.29 7.76 408.49 4.88 408.49-0.49L408.49-0.49 408.49-25.68 404.39-25.68 404.2-22.34 404.05-22.34Q403.07-23.93 401.06-25.05 399.04-26.17 396.36-26.17L396.36-26.17Q391.48-26.17 388.55-22.51 385.62-18.85 385.62-13.23L385.62-13.23 385.62-12.45Q385.62-6.84 388.55-3.17 391.48 0.49 396.36 0.49L396.36 0.49Q399.04 0.49 400.94-0.48 402.83-1.44 403.95-3.03L403.95-3.03 403.95-0.49Q403.95 2.93 402.05 4.81 400.14 6.69 396.85 6.69L396.85 6.69Q394.41 6.69 392.45 5.73 390.5 4.76 389.42 3.52L389.42 3.52ZM390.25-12.45L390.25-12.45 390.25-13.23Q390.25-17.14 391.96-19.8 393.67-22.46 397.33-22.46L397.33-22.46Q399.78-22.46 401.49-21.12 403.19-19.78 403.95-18.07L403.95-18.07 403.95-7.62Q403.19-5.91 401.49-4.57 399.78-3.22 397.33-3.22L397.33-3.22Q393.67-3.22 391.96-5.88 390.25-8.54 390.25-12.45ZM529.96-25.68L529.96-22.22 544.61-22.22 544.61-25.68 529.96-25.68ZM534.55-23.58L534.55-6.35Q534.55-2.69 536.23-0.98 537.9 0.73 540.71 0.73L540.71 0.73Q541.93 0.73 542.95 0.51 543.98 0.29 544.61 0L544.61 0 544.61-3.71Q543.93-3.47 543.27-3.32 542.61-3.17 541.93-3.17L541.93-3.17Q540.46-3.17 539.78-3.91 539.1-4.64 539.1-6.35L539.1-6.35 539.1-32.03 534.55-32.03 534.55-24.32 534.55-23.58ZM602.27-37.5L602.27 0 606.81 0 606.81-18.16Q607.74-20.02 609.4-21.19 611.06-22.36 613.24-22.36L613.24-22.36Q615.77-22.36 617.15-21.03 618.53-19.7 618.53-16.63L618.53-16.63 618.53 0 623.07 0 623.07-16.58Q623.07-21.75 620.77-23.96 618.46-26.17 614.87-26.17L614.87-26.17Q612.38-26.17 610.28-25.17 608.18-24.17 606.81-22.51L606.81-22.51 606.81-37.5 602.27-37.5ZM681.35-13.23L681.35-12.45Q681.35-6.64 684.53-2.95 687.72 0.73 693.7 0.73L693.7 0.73Q697.36 0.73 699.91-0.85 702.46-2.44 703.68-4.27L703.68-4.27 700.75-6.59Q699.66-5.13 697.9-4.05 696.14-2.98 693.7-2.98L693.7-2.98Q689.74-2.98 687.86-5.73 685.98-8.47 685.98-12.45L685.98-12.45 685.98-13.23Q685.98-17.21 687.77-19.96 689.55-22.71 693.16-22.71L693.16-22.71Q696.14-22.71 697.73-20.75 699.31-18.8 699.31-16.02L699.31-16.02 699.31-15.43 684.13-15.43 684.13-11.82 703.88-11.82 703.88-13.67Q703.88-19.53 701.05-22.97 698.22-26.42 692.97-26.42L692.97-26.42Q687.72-26.42 684.53-22.73 681.35-19.04 681.35-13.23L681.35-13.23ZM824.91-35.55L833.65 0.24 838.19 0.24 845.05-26.12Q845.27-26.95 845.43-27.7 845.59-28.44 845.71-29.25L845.71-29.25 845.91-29.25Q846.03-28.44 846.19-27.7 846.35-26.95 846.57-26.12L846.57-26.12 853.43 0.24 857.97 0.24 866.71-35.55 862.07-35.55 856.26-9.23Q856.07-8.4 855.97-7.9 855.87-7.4 855.77-6.59L855.77-6.59 855.55-6.59Q855.45-7.4 855.37-7.9 855.28-8.4 855.06-9.23L855.06-9.23 848.2-35.55 843.47-35.55 836.85-9.23Q836.63-8.4 836.55-7.9 836.46-7.4 836.36-6.59L836.36-6.59 836.12-6.59Q836.02-7.4 835.94-7.9 835.85-8.4 835.66-9.23L835.66-9.23 829.6-35.55 824.91-35.55ZM922.08-13.23L922.08-12.45Q922.08-6.64 925.37-2.95 928.67 0.73 934.18 0.73L934.18 0.73Q939.7 0.73 943-2.95 946.29-6.64 946.29-12.45L946.29-12.45 946.29-13.23Q946.29-19.04 943-22.73 939.7-26.42 934.18-26.42L934.18-26.42Q928.67-26.42 925.37-22.73 922.08-19.04 922.08-13.23L922.08-13.23ZM926.71-12.45L926.71-13.23Q926.71-17.21 928.59-19.96 930.47-22.71 934.18-22.71L934.18-22.71Q937.9-22.71 939.78-19.96 941.66-17.21 941.66-13.23L941.66-13.23 941.66-12.45Q941.66-8.47 939.78-5.73 937.9-2.98 934.18-2.98L934.18-2.98Q930.47-2.98 928.59-5.73 926.71-8.47 926.71-12.45L926.71-12.45ZM1004.81-25.68L1004.81 0 1009.35 0 1009.35-18.07Q1010.08-19.78 1011.62-20.92 1013.16-22.07 1015.36-22.07L1015.36-22.07Q1015.99-22.07 1016.53-22.02 1017.06-21.97 1017.55-21.88L1017.55-21.88 1017.55-26.07Q1017.31-26.17 1016.72-26.29 1016.14-26.42 1015.6-26.42L1015.6-26.42Q1013.4-26.42 1011.82-25.21 1010.23-24 1009.25-22.39L1009.25-22.39 1009.11-22.39 1008.91-25.68 1004.81-25.68ZM1074.92-37.5L1074.92 0 1079.46 0 1079.46-37.5 1074.92-37.5ZM1138.17-13.23L1138.17-12.45Q1138.17-6.84 1141.1-3.17 1144.03 0.49 1148.91 0.49L1148.91 0.49Q1151.6 0.49 1153.61-0.63 1155.63-1.76 1156.6-3.34L1156.6-3.34 1156.75-3.34 1156.95 0 1161.05 0 1161.05-37.5 1156.51-37.5 1156.51-22.66Q1155.38-24.24 1153.49-25.21 1151.6-26.17 1148.91-26.17L1148.91-26.17Q1144.03-26.17 1141.1-22.51 1138.17-18.85 1138.17-13.23L1138.17-13.23ZM1142.81-12.45L1142.81-12.45 1142.81-13.23Q1142.81-17.14 1144.52-19.8 1146.23-22.46 1149.89-22.46L1149.89-22.46Q1152.33-22.46 1154.04-21.12 1155.75-19.78 1156.51-18.07L1156.51-18.07 1156.51-7.62Q1155.75-5.91 1154.04-4.57 1152.33-3.22 1149.89-3.22L1149.89-3.22Q1146.23-3.22 1144.52-5.88 1142.81-8.54 1142.81-12.45ZM1287.31-29.3L1287.31 0 1291.85 0 1291.85-23.68 1291.85-24.22 1291.85-29.3Q1291.85-31.74 1293.04-32.96 1294.24-34.18 1296.44-34.18L1296.44-34.18Q1297.07-34.18 1297.68-34.11 1298.29-34.03 1298.83-33.94L1298.83-33.94 1299.07-37.6Q1298.34-37.79 1297.53-37.89 1296.73-37.99 1295.95-37.99L1295.95-37.99Q1291.94-37.99 1289.62-35.77 1287.31-33.54 1287.31-29.3L1287.31-29.3ZM1283.13-25.68L1283.13-22.22 1297.41-22.22 1297.41-25.68 1290.14-25.68 1289.01-25.68 1283.13-25.68ZM1353.61-25.68L1353.61 0 1358.15 0 1358.15-18.07Q1358.88-19.78 1360.42-20.92 1361.96-22.07 1364.16-22.07L1364.16-22.07Q1364.79-22.07 1365.33-22.02 1365.86-21.97 1366.35-21.88L1366.35-21.88 1366.35-26.07Q1366.11-26.17 1365.52-26.29 1364.94-26.42 1364.4-26.42L1364.4-26.42Q1362.2-26.42 1360.62-25.21 1359.03-24 1358.05-22.39L1358.05-22.39 1357.91-22.39 1357.71-25.68 1353.61-25.68ZM1421.5-13.23L1421.5-12.45Q1421.5-6.64 1424.79-2.95 1428.09 0.73 1433.61 0.73L1433.61 0.73Q1439.13 0.73 1442.42-2.95 1445.72-6.64 1445.72-12.45L1445.72-12.45 1445.72-13.23Q1445.72-19.04 1442.42-22.73 1439.13-26.42 1433.61-26.42L1433.61-26.42Q1428.09-26.42 1424.79-22.73 1421.5-19.04 1421.5-13.23L1421.5-13.23ZM1426.14-12.45L1426.14-13.23Q1426.14-17.21 1428.02-19.96 1429.9-22.71 1433.61-22.71L1433.61-22.71Q1437.32-22.71 1439.2-19.96 1441.08-17.21 1441.08-13.23L1441.08-13.23 1441.08-12.45Q1441.08-8.47 1439.2-5.73 1437.32-2.98 1433.61-2.98L1433.61-2.98Q1429.9-2.98 1428.02-5.73 1426.14-8.47 1426.14-12.45L1426.14-12.45ZM1504.23-25.68L1504.23 0 1508.77 0 1508.77-18.16Q1509.7-20.02 1511.28-21.19 1512.85-22.36 1514.95-22.36L1514.95-22.36Q1517.37-22.36 1518.68-21.03 1520-19.7 1520-16.63L1520-16.63 1520 0 1524.54 0 1524.54-18.16Q1525.47-20.02 1527.05-21.19 1528.62-22.36 1530.72-22.36L1530.72-22.36Q1533.14-22.36 1534.46-21.03 1535.77-19.7 1535.77-16.63L1535.77-16.63 1535.77 0 1540.32 0 1540.32-16.58Q1540.32-21.75 1538.07-23.96 1535.82-26.17 1531.82-26.17L1531.82-26.17Q1529.28-26.17 1527.33-25.15 1525.37-24.12 1523.76-21.83L1523.76-21.83 1523.62-21.83Q1522.64-24.12 1520.76-25.15 1518.88-26.17 1516.29-26.17L1516.29-26.17Q1513.92-26.17 1511.98-25.15 1510.04-24.12 1508.67-22.39L1508.67-22.39 1508.53-22.39 1508.33-25.68 1504.23-25.68ZM1675.07-35.79L1661.54 0 1666.23 0 1676.1-26.86Q1676.39-27.66 1676.61-28.42 1676.83-29.17 1677-29.98L1677-29.98 1677.24-29.98Q1677.41-29.17 1677.63-28.42 1677.85-27.66 1678.15-26.86L1678.15-26.86 1687.91 0 1692.79 0 1679.27-35.79 1675.07-35.79ZM1668.8-13.13L1667.35-9.28 1686.91-9.28 1685.49-13.13 1668.8-13.13ZM1750.75-2.51L1750.75-2.51Q1750.75-1.25 1751.57-0.35 1752.38 0.54 1753.92 0.54L1753.92 0.54Q1755.46 0.54 1756.28-0.35 1757.1-1.25 1757.1-2.51L1757.1-2.51Q1757.1-3.78 1756.28-4.68 1755.46-5.57 1753.92-5.57L1753.92-5.57Q1752.38-5.57 1751.57-4.68 1750.75-3.78 1750.75-2.51ZM1818.1-35.55L1818.1 0 1822.79 0 1822.79-35.55 1818.1-35.55ZM1883.79-2.51L1883.79-2.51Q1883.79-1.25 1884.61-0.35 1885.43 0.54 1886.97 0.54L1886.97 0.54Q1888.5 0.54 1889.32-0.35 1890.14-1.25 1890.14-2.51L1890.14-2.51Q1890.14-3.78 1889.32-4.68 1888.5-5.57 1886.97-5.57L1886.97-5.57Q1885.43-5.57 1884.61-4.68 1883.79-3.78 1883.79-2.51Z" opacity="1" transform="matrix(1,0,0,1,0,0)" fill="#ffffff" class="slogan-text-1" data-fill-palette-color="secondary" id="text-1"></path></svg></g></svg></g></svg></g></svg></g><g><svg viewBox="0 0 118.89761490365598 118.89761490365598" height="118.89761490365598" width="118.89761490365598"><g><svg></svg></g><g id="icon-0"><svg viewBox="0 0 118.89761490365598 118.89761490365598" height="118.89761490365598" width="118.89761490365598"><g><rect width="108.10875725499089" height="108.10875725499089" x="5.394428824332543" y="5.394428824332543" fill="#1334d6" data-fill-palette-color="accent"></rect><rect width="108.10875725499089" height="108.10875725499089" x="10.788857648665083" y="4.440892098500626e-15" fill="#1334d6" opacity="0.5" data-fill-palette-color="accent"></rect></g><g transform="matrix(1,0,0,1,15.412653783807258,35.2078834387752)"><svg viewBox="0 0 88.07230733604146 48.481848026105574" height="48.481848026105574" width="88.07230733604146"><g><svg xmlns="http://www.w3.org/2000/svg" xmlns:xlink="http://www.w3.org/1999/xlink" version="1.1" x="0" y="0" viewBox="5 25.229 90 49.54299999999999" enable-background="new 0 0 100 100" xml:space="preserve" height="48.481848026105574" width="88.07230733604146" class="icon-dxe-0" data-fill-palette-color="quaternary" id="dxe-0"><g fill="#000000" data-fill-palette-color="quaternary"><g fill="#000000" data-fill-palette-color="quaternary"><g fill="#000000" data-fill-palette-color="quaternary"><rect x="18.479" y="25.229" width="2.385" height="2.385" fill="#000000" data-fill-palette-color="quaternary"></rect><rect x="21.85" y="25.229" width="2.385" height="2.385" fill="#000000" data-fill-palette-color="quaternary"></rect><rect x="25.219" y="25.229" width="2.386" height="2.385" fill="#000000" data-fill-palette-color="quaternary"></rect><rect x="28.589" y="25.229" width="2.385" height="2.385" fill="#000000" data-fill-palette-color="quaternary"></rect><rect x="31.959" y="25.229" width="2.385" height="2.385" fill="#000000" data-fill-palette-color="quaternary"></rect><rect x="35.328" y="25.229" width="2.386" height="2.385" fill="#000000" data-fill-palette-color="quaternary"></rect><rect x="38.698" y="25.229" width="2.385" height="2.385" fill="#000000" data-fill-palette-color="quaternary"></rect><rect x="42.068" y="25.229" width="2.385" height="2.385" fill="#000000" data-fill-palette-color="quaternary"></rect><rect x="52.178" y="25.229" width="2.385" height="2.385" fill="#000000" data-fill-palette-color="quaternary"></rect><rect x="62.287" y="25.229" width="2.385" height="2.385" fill="#000000" data-fill-palette-color="quaternary"></rect><rect x="72.396" y="25.229" width="2.385" height="2.385" fill="#000000" data-fill-palette-color="quaternary"></rect></g><g fill="#000000" data-fill-palette-color="quaternary"><rect x="15.109" y="28.597" width="2.386" height="2.384" fill="#000000" data-fill-palette-color="quaternary"></rect><rect x="18.479" y="28.597" width="2.385" height="2.384" fill="#000000" data-fill-palette-color="quaternary"></rect><rect x="21.85" y="28.597" width="2.385" height="2.384" fill="#000000" data-fill-palette-color="quaternary"></rect><rect x="25.219" y="28.597" width="2.386" height="2.384" fill="#000000" data-fill-palette-color="quaternary"></rect><rect x="31.959" y="28.597" width="2.385" height="2.384" fill="#000000" data-fill-palette-color="quaternary"></rect><rect x="35.328" y="28.597" width="2.386" height="2.384" fill="#000000" data-fill-palette-color="quaternary"></rect><rect x="38.698" y="28.597" width="2.385" height="2.384" fill="#000000" data-fill-palette-color="quaternary"></rect><rect x="58.916" y="28.597" width="2.385" height="2.384" fill="#000000" data-fill-palette-color="quaternary"></rect><rect x="65.656" y="28.597" width="2.385" height="2.384" fill="#000000" data-fill-palette-color="quaternary"></rect><rect x="69.025" y="28.597" width="2.387" height="2.384" fill="#000000" data-fill-palette-color="quaternary"></rect><rect x="72.396" y="28.597" width="2.385" height="2.384" fill="#000000" data-fill-palette-color="quaternary"></rect><rect x="75.766" y="28.597" width="2.385" height="2.384" fill="#000000" data-fill-palette-color="quaternary"></rect><rect x="79.137" y="28.597" width="2.385" height="2.384" fill="#000000" data-fill-palette-color="quaternary"></rect><rect x="82.506" y="28.597" width="2.385" height="2.384" fill="#000000" data-fill-palette-color="quaternary"></rect></g><g fill="#000000" data-fill-palette-color="quaternary"><rect x="5" y="31.966" width="2.386" height="2.384" fill="#000000" data-fill-palette-color="quaternary"></rect><rect x="8.37" y="31.966" width="2.385" height="2.384" fill="#000000" data-fill-palette-color="quaternary"></rect><rect x="11.74" y="31.966" width="2.385" height="2.384" fill="#000000" data-fill-palette-color="quaternary"></rect><rect x="15.109" y="31.966" width="2.386" height="2.384" fill="#000000" data-fill-palette-color="quaternary"></rect><rect x="18.479" y="31.966" width="2.385" height="2.384" fill="#000000" data-fill-palette-color="quaternary"></rect><rect x="21.85" y="31.966" width="2.385" height="2.384" fill="#000000" data-fill-palette-color="quaternary"></rect><rect x="25.219" y="31.966" width="2.386" height="2.384" fill="#000000" data-fill-palette-color="quaternary"></rect><rect x="28.589" y="31.966" width="2.385" height="2.384" fill="#000000" data-fill-palette-color="quaternary"></rect><rect x="35.328" y="31.966" width="2.386" height="2.384" fill="#000000" data-fill-palette-color="quaternary"></rect><rect x="38.698" y="31.966" width="2.385" height="2.384" fill="#000000" data-fill-palette-color="quaternary"></rect><rect x="52.178" y="31.966" width="2.385" height="2.384" fill="#000000" data-fill-palette-color="quaternary"></rect><rect x="55.547" y="31.966" width="2.385" height="2.384" fill="#000000" data-fill-palette-color="quaternary"></rect><rect x="58.916" y="31.966" width="2.385" height="2.384" fill="#000000" data-fill-palette-color="quaternary"></rect><rect x="62.287" y="31.966" width="2.385" height="2.384" fill="#000000" data-fill-palette-color="quaternary"></rect><rect x="65.656" y="31.966" width="2.385" height="2.384" fill="#000000" data-fill-palette-color="quaternary"></rect><rect x="69.025" y="31.966" width="2.387" height="2.384" fill="#000000" data-fill-palette-color="quaternary"></rect><rect x="72.396" y="31.966" width="2.385" height="2.384" fill="#000000" data-fill-palette-color="quaternary"></rect><rect x="75.766" y="31.966" width="2.385" height="2.384" fill="#000000" data-fill-palette-color="quaternary"></rect><rect x="79.137" y="31.966" width="2.385" height="2.384" fill="#000000" data-fill-palette-color="quaternary"></rect><rect x="82.506" y="31.966" width="2.385" height="2.384" fill="#000000" data-fill-palette-color="quaternary"></rect><rect x="85.875" y="31.966" width="2.385" height="2.384" fill="#000000" data-fill-palette-color="quaternary"></rect><rect x="89.246" y="31.966" width="2.385" height="2.384" fill="#000000" data-fill-palette-color="quaternary"></rect></g><g fill="#000000" data-fill-palette-color="quaternary"><rect x="5" y="35.334" width="2.386" height="2.384" fill="#000000" data-fill-palette-color="quaternary"></rect><rect x="8.37" y="35.334" width="2.385" height="2.384" fill="#000000" data-fill-palette-color="quaternary"></rect><rect x="11.74" y="35.334" width="2.385" height="2.384" fill="#000000" data-fill-palette-color="quaternary"></rect><rect x="15.109" y="35.334" width="2.386" height="2.384" fill="#000000" data-fill-palette-color="quaternary"></rect><rect x="18.479" y="35.334" width="2.385" height="2.384" fill="#000000" data-fill-palette-color="quaternary"></rect><rect x="21.85" y="35.334" width="2.385" height="2.384" fill="#000000" data-fill-palette-color="quaternary"></rect><rect x="25.219" y="35.334" width="2.386" height="2.384" fill="#000000" data-fill-palette-color="quaternary"></rect><rect x="28.589" y="35.334" width="2.385" height="2.384" fill="#000000" data-fill-palette-color="quaternary"></rect><rect x="35.328" y="35.334" width="2.386" height="2.384" fill="#000000" data-fill-palette-color="quaternary"></rect><rect x="42.068" y="35.334" width="2.385" height="2.384" fill="#000000" data-fill-palette-color="quaternary"></rect><rect x="48.808" y="35.334" width="2.383" height="2.384" fill="#000000" data-fill-palette-color="quaternary"></rect><rect x="52.178" y="35.334" width="2.385" height="2.384" fill="#000000" data-fill-palette-color="quaternary"></rect><rect x="55.547" y="35.334" width="2.385" height="2.384" fill="#000000" data-fill-palette-color="quaternary"></rect><rect x="58.916" y="35.334" width="2.385" height="2.384" fill="#000000" data-fill-palette-color="quaternary"></rect><rect x="62.287" y="35.334" width="2.385" height="2.384" fill="#000000" data-fill-palette-color="quaternary"></rect><rect x="65.656" y="35.334" width="2.385" height="2.384" fill="#000000" data-fill-palette-color="quaternary"></rect><rect x="69.025" y="35.334" width="2.387" height="2.384" fill="#000000" data-fill-palette-color="quaternary"></rect><rect x="72.396" y="35.334" width="2.385" height="2.384" fill="#000000" data-fill-palette-color="quaternary"></rect><rect x="75.766" y="35.334" width="2.385" height="2.384" fill="#000000" data-fill-palette-color="quaternary"></rect><rect x="79.137" y="35.334" width="2.385" height="2.384" fill="#000000" data-fill-palette-color="quaternary"></rect><rect x="82.506" y="35.334" width="2.385" height="2.384" fill="#000000" data-fill-palette-color="quaternary"></rect><rect x="85.875" y="35.334" width="2.385" height="2.384" fill="#000000" data-fill-palette-color="quaternary"></rect><rect x="89.246" y="35.334" width="2.385" height="2.384" fill="#000000" data-fill-palette-color="quaternary"></rect><rect x="92.615" y="35.334" width="2.385" height="2.384" fill="#000000" data-fill-palette-color="quaternary"></rect></g><g fill="#000000" data-fill-palette-color="quaternary"><rect x="5" y="38.702" width="2.386" height="2.384" fill="#000000" data-fill-palette-color="quaternary"></rect><rect x="8.37" y="38.702" width="2.385" height="2.384" fill="#000000" data-fill-palette-color="quaternary"></rect><rect x="11.74" y="38.702" width="2.385" height="2.384" fill="#000000" data-fill-palette-color="quaternary"></rect><rect x="15.109" y="38.702" width="2.386" height="2.384" fill="#000000" data-fill-palette-color="quaternary"></rect><rect x="18.479" y="38.702" width="2.385" height="2.384" fill="#000000" data-fill-palette-color="quaternary"></rect><rect x="21.85" y="38.702" width="2.385" height="2.384" fill="#000000" data-fill-palette-color="quaternary"></rect><rect x="25.219" y="38.702" width="2.386" height="2.384" fill="#000000" data-fill-palette-color="quaternary"></rect><rect x="28.589" y="38.702" width="2.385" height="2.384" fill="#000000" data-fill-palette-color="quaternary"></rect><rect x="45.438" y="38.702" width="2.386" height="2.384" fill="#000000" data-fill-palette-color="quaternary"></rect><rect x="48.808" y="38.702" width="2.383" height="2.384" fill="#000000" data-fill-palette-color="quaternary"></rect><rect x="52.178" y="38.702" width="2.385" height="2.384" fill="#000000" data-fill-palette-color="quaternary"></rect><rect x="55.547" y="38.702" width="2.385" height="2.384" fill="#000000" data-fill-palette-color="quaternary"></rect><rect x="58.916" y="38.702" width="2.385" height="2.384" fill="#000000" data-fill-palette-color="quaternary"></rect><rect x="62.287" y="38.702" width="2.385" height="2.384" fill="#000000" data-fill-palette-color="quaternary"></rect><rect x="65.656" y="38.702" width="2.385" height="2.384" fill="#000000" data-fill-palette-color="quaternary"></rect><rect x="69.025" y="38.702" width="2.387" height="2.384" fill="#000000" data-fill-palette-color="quaternary"></rect><rect x="72.396" y="38.702" width="2.385" height="2.384" fill="#000000" data-fill-palette-color="quaternary"></rect><rect x="75.766" y="38.702" width="2.385" height="2.384" fill="#000000" data-fill-palette-color="quaternary"></rect><rect x="79.137" y="38.702" width="2.385" height="2.384" fill="#000000" data-fill-palette-color="quaternary"></rect><rect x="82.506" y="38.702" width="2.385" height="2.384" fill="#000000" data-fill-palette-color="quaternary"></rect><rect x="85.875" y="38.702" width="2.385" height="2.384" fill="#000000" data-fill-palette-color="quaternary"></rect></g><g fill="#000000" data-fill-palette-color="quaternary"><rect x="15.109" y="42.071" width="2.386" height="2.384" fill="#000000" data-fill-palette-color="quaternary"></rect><rect x="18.479" y="42.071" width="2.385" height="2.384" fill="#000000" data-fill-palette-color="quaternary"></rect><rect x="21.85" y="42.071" width="2.385" height="2.384" fill="#000000" data-fill-palette-color="quaternary"></rect><rect x="25.219" y="42.071" width="2.386" height="2.384" fill="#000000" data-fill-palette-color="quaternary"></rect><rect x="28.589" y="42.071" width="2.385" height="2.384" fill="#000000" data-fill-palette-color="quaternary"></rect><rect x="31.959" y="42.071" width="2.385" height="2.384" fill="#000000" data-fill-palette-color="quaternary"></rect><rect x="45.438" y="42.071" width="2.386" height="2.384" fill="#000000" data-fill-palette-color="quaternary"></rect><rect x="48.808" y="42.071" width="2.383" height="2.384" fill="#000000" data-fill-palette-color="quaternary"></rect><rect x="52.178" y="42.071" width="2.385" height="2.384" fill="#000000" data-fill-palette-color="quaternary"></rect><rect x="55.547" y="42.071" width="2.385" height="2.384" fill="#000000" data-fill-palette-color="quaternary"></rect><rect x="58.916" y="42.071" width="2.385" height="2.384" fill="#000000" data-fill-palette-color="quaternary"></rect><rect x="62.287" y="42.071" width="2.385" height="2.384" fill="#000000" data-fill-palette-color="quaternary"></rect><rect x="65.656" y="42.071" width="2.385" height="2.384" fill="#000000" data-fill-palette-color="quaternary"></rect><rect x="69.025" y="42.071" width="2.387" height="2.384" fill="#000000" data-fill-palette-color="quaternary"></rect><rect x="72.396" y="42.071" width="2.385" height="2.384" fill="#000000" data-fill-palette-color="quaternary"></rect><rect x="75.766" y="42.071" width="2.385" height="2.384" fill="#000000" data-fill-palette-color="quaternary"></rect><rect x="79.137" y="42.071" width="2.385" height="2.384" fill="#000000" data-fill-palette-color="quaternary"></rect><rect x="85.875" y="42.071" width="2.385" height="2.384" fill="#000000" data-fill-palette-color="quaternary"></rect></g><g fill="#000000" data-fill-palette-color="quaternary"><rect x="15.109" y="45.44" width="2.386" height="2.384" fill="#000000" data-fill-palette-color="quaternary"></rect><rect x="18.479" y="45.44" width="2.385" height="2.384" fill="#000000" data-fill-palette-color="quaternary"></rect><rect x="21.85" y="45.44" width="2.385" height="2.384" fill="#000000" data-fill-palette-color="quaternary"></rect><rect x="25.219" y="45.44" width="2.386" height="2.384" fill="#000000" data-fill-palette-color="quaternary"></rect><rect x="28.589" y="45.44" width="2.385" height="2.384" fill="#000000" data-fill-palette-color="quaternary"></rect><rect x="45.438" y="45.44" width="2.386" height="2.384" fill="#000000" data-fill-palette-color="quaternary"></rect><rect x="52.178" y="45.44" width="2.385" height="2.384" fill="#000000" data-fill-palette-color="quaternary"></rect><rect x="55.547" y="45.44" width="2.385" height="2.384" fill="#000000" data-fill-palette-color="quaternary"></rect><rect x="58.916" y="45.44" width="2.385" height="2.384" fill="#000000" data-fill-palette-color="quaternary"></rect><rect x="62.287" y="45.44" width="2.385" height="2.384" fill="#000000" data-fill-palette-color="quaternary"></rect><rect x="65.656" y="45.44" width="2.385" height="2.384" fill="#000000" data-fill-palette-color="quaternary"></rect><rect x="69.025" y="45.44" width="2.387" height="2.384" fill="#000000" data-fill-palette-color="quaternary"></rect><rect x="72.396" y="45.44" width="2.385" height="2.384" fill="#000000" data-fill-palette-color="quaternary"></rect><rect x="75.766" y="45.44" width="2.385" height="2.384" fill="#000000" data-fill-palette-color="quaternary"></rect><rect x="79.137" y="45.44" width="2.385" height="2.384" fill="#000000" data-fill-palette-color="quaternary"></rect><rect x="82.506" y="45.44" width="2.385" height="2.384" fill="#000000" data-fill-palette-color="quaternary"></rect></g><g fill="#000000" data-fill-palette-color="quaternary"><rect x="18.479" y="48.809" width="2.385" height="2.382" fill="#000000" data-fill-palette-color="quaternary"></rect><rect x="21.85" y="48.809" width="2.385" height="2.382" fill="#000000" data-fill-palette-color="quaternary"></rect><rect x="25.219" y="48.809" width="2.386" height="2.382" fill="#000000" data-fill-palette-color="quaternary"></rect><rect x="42.068" y="48.809" width="2.385" height="2.382" fill="#000000" data-fill-palette-color="quaternary"></rect><rect x="45.438" y="48.809" width="2.386" height="2.382" fill="#000000" data-fill-palette-color="quaternary"></rect><rect x="48.808" y="48.809" width="2.383" height="2.382" fill="#000000" data-fill-palette-color="quaternary"></rect><rect x="52.178" y="48.809" width="2.385" height="2.382" fill="#000000" data-fill-palette-color="quaternary"></rect><rect x="55.547" y="48.809" width="2.385" height="2.382" fill="#000000" data-fill-palette-color="quaternary"></rect><rect x="58.916" y="48.809" width="2.385" height="2.382" fill="#000000" data-fill-palette-color="quaternary"></rect><rect x="62.287" y="48.809" width="2.385" height="2.382" fill="#000000" data-fill-palette-color="quaternary"></rect><rect x="65.656" y="48.809" width="2.385" height="2.382" fill="#000000" data-fill-palette-color="quaternary"></rect><rect x="69.025" y="48.809" width="2.387" height="2.382" fill="#000000" data-fill-palette-color="quaternary"></rect><rect x="72.396" y="48.809" width="2.385" height="2.382" fill="#000000" data-fill-palette-color="quaternary"></rect><rect x="75.766" y="48.809" width="2.385" height="2.382" fill="#000000" data-fill-palette-color="quaternary"></rect><rect x="79.137" y="48.809" width="2.385" height="2.382" fill="#000000" data-fill-palette-color="quaternary"></rect></g><g fill="#000000" data-fill-palette-color="quaternary"><rect x="21.85" y="52.178" width="2.385" height="2.383" fill="#000000" data-fill-palette-color="quaternary"></rect><rect x="25.219" y="52.178" width="2.386" height="2.383" fill="#000000" data-fill-palette-color="quaternary"></rect><rect x="28.589" y="52.178" width="2.385" height="2.383" fill="#000000" data-fill-palette-color="quaternary"></rect><rect x="42.068" y="52.178" width="2.385" height="2.383" fill="#000000" data-fill-palette-color="quaternary"></rect><rect x="45.438" y="52.178" width="2.386" height="2.383" fill="#000000" data-fill-palette-color="quaternary"></rect><rect x="48.808" y="52.178" width="2.383" height="2.383" fill="#000000" data-fill-palette-color="quaternary"></rect><rect x="52.178" y="52.178" width="2.385" height="2.383" fill="#000000" data-fill-palette-color="quaternary"></rect><rect x="55.547" y="52.178" width="2.385" height="2.383" fill="#000000" data-fill-palette-color="quaternary"></rect><rect x="58.916" y="52.178" width="2.385" height="2.383" fill="#000000" data-fill-palette-color="quaternary"></rect><rect x="65.656" y="52.178" width="2.385" height="2.383" fill="#000000" data-fill-palette-color="quaternary"></rect><rect x="72.396" y="52.178" width="2.385" height="2.383" fill="#000000" data-fill-palette-color="quaternary"></rect><rect x="75.766" y="52.178" width="2.385" height="2.383" fill="#000000" data-fill-palette-color="quaternary"></rect></g><g fill="#000000" data-fill-palette-color="quaternary"><rect x="28.589" y="55.547" width="2.385" height="2.383" fill="#000000" data-fill-palette-color="quaternary"></rect><rect x="31.959" y="55.547" width="2.385" height="2.383" fill="#000000" data-fill-palette-color="quaternary"></rect><rect x="45.438" y="55.547" width="2.386" height="2.383" fill="#000000" data-fill-palette-color="quaternary"></rect><rect x="48.808" y="55.547" width="2.383" height="2.383" fill="#000000" data-fill-palette-color="quaternary"></rect><rect x="52.178" y="55.547" width="2.385" height="2.383" fill="#000000" data-fill-palette-color="quaternary"></rect><rect x="55.547" y="55.547" width="2.385" height="2.383" fill="#000000" data-fill-palette-color="quaternary"></rect></g><g fill="#000000" data-fill-palette-color="quaternary"><rect x="25.219" y="58.914" width="2.386" height="2.385" fill="#000000" data-fill-palette-color="quaternary"></rect><rect x="28.589" y="58.914" width="2.385" height="2.385" fill="#000000" data-fill-palette-color="quaternary"></rect><rect x="31.959" y="58.914" width="2.385" height="2.385" fill="#000000" data-fill-palette-color="quaternary"></rect><rect x="35.328" y="58.914" width="2.386" height="2.385" fill="#000000" data-fill-palette-color="quaternary"></rect><rect x="48.808" y="58.914" width="2.383" height="2.385" fill="#000000" data-fill-palette-color="quaternary"></rect><rect x="52.178" y="58.914" width="2.385" height="2.385" fill="#000000" data-fill-palette-color="quaternary"></rect><rect x="55.547" y="58.914" width="2.385" height="2.385" fill="#000000" data-fill-palette-color="quaternary"></rect><rect x="72.396" y="58.914" width="2.385" height="2.385" fill="#000000" data-fill-palette-color="quaternary"></rect><rect x="75.766" y="58.914" width="2.385" height="2.385" fill="#000000" data-fill-palette-color="quaternary"></rect><rect x="79.137" y="58.914" width="2.385" height="2.385" fill="#000000" data-fill-palette-color="quaternary"></rect><rect x="82.506" y="58.914" width="2.385" height="2.385" fill="#000000" data-fill-palette-color="quaternary"></rect></g><g fill="#000000" data-fill-palette-color="quaternary"><rect x="28.589" y="62.283" width="2.385" height="2.383" fill="#000000" data-fill-palette-color="quaternary"></rect><rect x="31.959" y="62.283" width="2.385" height="2.383" fill="#000000" data-fill-palette-color="quaternary"></rect><rect x="35.328" y="62.283" width="2.386" height="2.383" fill="#000000" data-fill-palette-color="quaternary"></rect><rect x="48.808" y="62.283" width="2.383" height="2.383" fill="#000000" data-fill-palette-color="quaternary"></rect><rect x="52.178" y="62.283" width="2.385" height="2.383" fill="#000000" data-fill-palette-color="quaternary"></rect><rect x="58.916" y="62.283" width="2.385" height="2.383" fill="#000000" data-fill-palette-color="quaternary"></rect><rect x="75.766" y="62.283" width="2.385" height="2.383" fill="#000000" data-fill-palette-color="quaternary"></rect><rect x="79.137" y="62.283" width="2.385" height="2.383" fill="#000000" data-fill-palette-color="quaternary"></rect><rect x="82.506" y="62.283" width="2.385" height="2.383" fill="#000000" data-fill-palette-color="quaternary"></rect><rect x="85.875" y="62.283" width="2.385" height="2.383" fill="#000000" data-fill-palette-color="quaternary"></rect></g><g fill="#000000" data-fill-palette-color="quaternary"><rect x="28.589" y="65.652" width="2.385" height="2.383" fill="#000000" data-fill-palette-color="quaternary"></rect><rect x="31.959" y="65.652" width="2.385" height="2.383" fill="#000000" data-fill-palette-color="quaternary"></rect><rect x="52.178" y="65.652" width="2.385" height="2.383" fill="#000000" data-fill-palette-color="quaternary"></rect><rect x="75.766" y="65.652" width="2.385" height="2.383" fill="#000000" data-fill-palette-color="quaternary"></rect><rect x="79.137" y="65.652" width="2.385" height="2.383" fill="#000000" data-fill-palette-color="quaternary"></rect><rect x="82.506" y="65.652" width="2.385" height="2.383" fill="#000000" data-fill-palette-color="quaternary"></rect></g><g fill="#000000" data-fill-palette-color="quaternary"><rect x="28.589" y="69.02" width="2.385" height="2.387" fill="#000000" data-fill-palette-color="quaternary"></rect><rect x="89.246" y="69.02" width="2.385" height="2.387" fill="#000000" data-fill-palette-color="quaternary"></rect></g><g fill="#000000" data-fill-palette-color="quaternary"><rect x="28.589" y="72.389" width="2.385" height="2.383" fill="#000000" data-fill-palette-color="quaternary"></rect></g></g></g></svg></g></svg></g></svg></g></svg></g></svg></g><defs></defs></svg><rect width="395.52" height="90.70986240829738" fill="none" stroke="none" visibility="hidden"></rect></g></svg></g></svg>