<svg xmlns="http://www.w3.org/2000/svg" version="1.1" xmlns:xlink="http://www.w3.org/1999/xlink" xmlns:svgjs="http://svgjs.dev/svgjs" width="2000" height="267" viewBox="0 0 2000 267"><g transform="matrix(1,0,0,1,-1.2121212121212466,-0.7030460969571095)"><svg viewBox="0 0 396 53" data-background-color="#121212" preserveAspectRatio="xMidYMid meet" height="267" width="2000" xmlns="http://www.w3.org/2000/svg" xmlns:xlink="http://www.w3.org/1999/xlink"><g id="tight-bounds" transform="matrix(1,0,0,1,0.2400000000000091,0.139555966811713)"><svg viewBox="0 0 395.52 52.72088806637655" height="52.72088806637655" width="395.52"><g><svg viewBox="0 0 491.7881544014577 65.5529637959374" height="52.72088806637655" width="395.52"><g><rect width="1.453526560614175" height="39.39716581246312" x="91.0095844884504" y="13.07789899173714" fill="#00cc66" opacity="1" stroke-width="0" stroke="transparent" fill-opacity="1" class="rect-yte-0" data-fill-palette-color="secondary" rx="1%" id="yte-0" data-palette-color="#00cc66"></rect></g><g transform="matrix(1,0,0,1,96.2681544014577,13.175901891768142)"><svg viewBox="0 0 395.52 39.20116001240112" height="39.20116001240112" width="395.52"><g id="textblocktransform"><svg viewBox="0 0 395.52 39.20116001240112" height="39.20116001240112" width="395.52" id="textblock"><g><svg viewBox="0 0 395.52 19.278242109468636" height="19.278242109468636" width="395.52"><g transform="matrix(1,0,0,1,0,0)"><svg width="395.52" viewBox="-1.2000000000000002 -39.35 876.98 43.7" height="19.278242109468636" data-palette-color="#ffffff"><path d="M17.35-9.15L17.35-35 21.35-35 21.35-9.15Q21.35-6.4 20.15-4.25 18.95-2.1 16.82-0.88 14.7 0.35 11.85 0.35L11.85 0.35Q8.25 0.35 5.95-1.48 3.65-3.3 2.8-6.5L2.8-6.5 6.25-7.75Q6.6-6.45 7.28-5.4 7.95-4.35 9.08-3.75 10.2-3.15 11.85-3.15L11.85-3.15Q13.8-3.15 15-4.05 16.2-4.95 16.78-6.33 17.35-7.7 17.35-9.15L17.35-9.15ZM45 0.35L45 0.35Q41.3 0.35 38.12-0.95 34.95-2.25 32.57-4.63 30.2-7 28.87-10.28 27.55-13.55 27.55-17.5L27.55-17.5Q27.55-21.45 28.87-24.73 30.2-28 32.57-30.38 34.95-32.75 38.12-34.05 41.3-35.35 45-35.35L45-35.35Q48.65-35.35 51.82-34.05 55-32.75 57.35-30.38 59.7-28 61.02-24.73 62.35-21.45 62.35-17.5L62.35-17.5Q62.35-13.55 61.02-10.28 59.7-7 57.35-4.63 55-2.25 51.82-0.95 48.65 0.35 45 0.35ZM45-3.15L45-3.15Q48.75-3.15 51.75-4.9 54.75-6.65 56.5-9.88 58.25-13.1 58.25-17.5L58.25-17.5Q58.25-21.95 56.5-25.18 54.75-28.4 51.75-30.13 48.75-31.85 45-31.85L45-31.85Q41.2-31.85 38.17-30.13 35.15-28.4 33.4-25.18 31.65-21.95 31.65-17.5L31.65-17.5Q31.65-13.1 33.4-9.88 35.15-6.65 38.17-4.9 41.2-3.15 45-3.15ZM91.65-35L91.65-31.5 72.7-31.5 72.7-19.55 86.95-19.55 86.95-16.05 72.7-16.05 72.7-3.5 91.65-3.5 91.65 0 68.7 0 68.7-35 91.65-35ZM117.14-27.1L117.14 0 113.14 0 113.14-35 117.54-35 130.54-5.5 143.49-35 147.84-35 147.84 0 143.84 0 143.84-27.1 131.94 0 129.09 0 117.14-27.1ZM179.29-35L179.29-31.5 160.34-31.5 160.34-19.55 174.59-19.55 174.59-16.05 160.34-16.05 160.34-3.5 179.29-3.5 179.29 0 156.34 0 156.34-35 179.29-35ZM209.54-35L213.54-35 213.54 0 209.49 0 190.79-28.6 190.79 0 186.79 0 186.79-35 190.84-35 209.54-6.45 209.54-35ZM222.03-35L233.58-35Q239.38-35 243.51-32.88 247.63-30.75 249.86-26.8 252.08-22.85 252.08-17.4L252.08-17.4Q252.08-12 249.86-8.1 247.63-4.2 243.51-2.1 239.38 0 233.58 0L233.58 0 222.03 0 222.03-35ZM226.03-3.5L233.58-3.5Q240.73-3.5 244.38-7.15 248.03-10.8 248.03-17.4L248.03-17.4Q248.03-24.05 244.38-27.78 240.73-31.5 233.58-31.5L233.58-31.5 226.03-31.5 226.03-3.5ZM281.43-35L281.43-31.5 262.48-31.5 262.48-19.55 276.73-19.55 276.73-16.05 262.48-16.05 262.48-3.5 281.43-3.5 281.43 0 258.48 0 258.48-35 281.43-35ZM311.48-35L311.48-31.85 292.18-3.5 311.68-3.5 311.68 0 287.53 0 287.53-3.15 306.78-31.5 287.73-31.5 287.73-35 311.48-35ZM317.68-12.2L317.68-15.6 337.38-15.6 337.38-12.2 317.68-12.2ZM344.77 0L344.77-35 348.77-35 348.77-19.55 367.52-19.55 367.52-35 371.52-35 371.52 0 367.52 0 367.52-16.05 348.77-16.05 348.77 0 344.77 0ZM379.82-12.95L379.82-35 383.82-35 383.82-12.9Q383.82-9.45 385.07-7.3 386.32-5.15 388.45-4.15 390.57-3.15 393.27-3.15L393.27-3.15Q395.92-3.15 398.02-4.15 400.12-5.15 401.37-7.3 402.62-9.45 402.62-12.9L402.62-12.9 402.62-35 406.62-35 406.62-12.95Q406.62-9.5 405.55-7 404.47-4.5 402.57-2.88 400.67-1.25 398.27-0.45 395.87 0.35 393.22 0.35L393.22 0.35Q389.62 0.35 386.57-1.07 383.52-2.5 381.67-5.45 379.82-8.4 379.82-12.95L379.82-12.95ZM445.77-25.8L442.27-24.5Q440.37-28.25 437.22-30.03 434.07-31.8 430.22-31.8L430.22-31.8Q426.42-31.8 423.37-30.05 420.32-28.3 418.57-25.1 416.82-21.9 416.82-17.5L416.82-17.5Q416.82-13.15 418.57-9.95 420.32-6.75 423.37-5 426.42-3.25 430.22-3.25L430.22-3.25Q433.07-3.25 435.52-4.23 437.97-5.2 439.77-7.03 441.57-8.85 442.52-11.4L442.52-11.4 442.52-15.45 430.52-15.45 430.52-18.7 446.57-18.7 446.57-11.2Q445.42-7.85 443.07-5.25 440.72-2.65 437.42-1.15 434.12 0.35 430.22 0.35L430.22 0.35Q426.52 0.35 423.34-0.95 420.17-2.25 417.79-4.63 415.42-7 414.09-10.28 412.77-13.55 412.77-17.5L412.77-17.5Q412.77-21.45 414.09-24.73 415.42-28 417.79-30.38 420.17-32.75 423.34-34.05 426.52-35.35 430.22-35.35L430.22-35.35Q433.67-35.35 436.69-34.23 439.72-33.1 442.07-30.98 444.42-28.85 445.77-25.8L445.77-25.8ZM453.37 0L453.37-35 457.37-35 457.37-19.55 476.12-19.55 476.12-35 480.12-35 480.12 0 476.12 0 476.12-16.05 457.37-16.05 457.37 0 453.37 0ZM511.56-35L511.56-31.5 492.61-31.5 492.61-19.55 506.86-19.55 506.86-16.05 492.61-16.05 492.61-3.5 511.56-3.5 511.56 0 488.61 0 488.61-35 511.56-35ZM517.36-7.45L521.01-8.9Q521.31-7.55 522.29-6.23 523.26-4.9 524.99-4.03 526.71-3.15 529.41-3.15L529.41-3.15Q533.26-3.15 535.11-4.95 536.96-6.75 536.96-9.2L536.96-9.2Q536.96-11.15 535.91-12.4 534.86-13.65 533.06-14.48 531.26-15.3 529.01-15.95L529.01-15.95Q527.01-16.5 525.04-17.18 523.06-17.85 521.46-18.88 519.86-19.9 518.91-21.55 517.96-23.2 517.96-25.65L517.96-25.65Q517.96-28.6 519.36-30.78 520.76-32.95 523.31-34.15 525.86-35.35 529.26-35.35L529.26-35.35Q532.21-35.35 534.41-34.5 536.61-33.65 538.09-32.13 539.56-30.6 540.26-28.6L540.26-28.6 536.71-27.25Q536.36-28.4 535.36-29.48 534.36-30.55 532.76-31.25 531.16-31.95 529.11-31.95L529.11-31.95Q527.11-31.95 525.49-31.25 523.86-30.55 522.91-29.25 521.96-27.95 521.96-26.1L521.96-26.1Q521.96-24.1 523.09-22.93 524.21-21.75 526.09-21.03 527.96-20.3 530.21-19.65L530.21-19.65Q532.26-19 534.19-18.25 536.11-17.5 537.64-16.4 539.16-15.3 540.06-13.65 540.96-12 540.96-9.6L540.96-9.6Q540.96-6.95 539.71-4.67 538.46-2.4 535.94-1.03 533.41 0.35 529.46 0.35L529.46 0.35Q526.16 0.35 523.66-0.68 521.16-1.7 519.56-3.45 517.96-5.2 517.36-7.45L517.36-7.45ZM549.61 0.25L549.61 0.25Q548.46 0.25 547.68-0.55 546.91-1.35 546.91-2.5L546.91-2.5Q546.91-3.65 547.68-4.45 548.46-5.25 549.61-5.25L549.61-5.25Q550.71-5.25 551.51-4.45 552.31-3.65 552.31-2.5L552.31-2.5Q552.31-1.35 551.51-0.55 550.71 0.25 549.61 0.25ZM549.61-21.35L549.61-21.35Q548.46-21.35 547.68-22.15 546.91-22.95 546.91-24.1L546.91-24.1Q546.91-25.25 547.68-26.05 548.46-26.85 549.61-26.85L549.61-26.85Q550.71-26.85 551.51-26.05 552.31-25.25 552.31-24.1L552.31-24.1Q552.31-22.95 551.51-22.15 550.71-21.35 549.61-21.35ZM598.85 0L587.4-31.5 585.75-31.5 574.2 0 570.15 0 582.95-35 590.15-35 602.9 0 598.85 0ZM576.4-9.2L576.4-12.7 596.8-12.7 596.8-9.2 576.4-9.2ZM607.55 0L607.55-35 611.55-35 611.55 0 607.55 0ZM656.99-35L656.99-31.5 638.04-31.5 638.04-19.55 652.29-19.55 652.29-16.05 638.04-16.05 638.04-3.5 656.99-3.5 656.99 0 634.04 0 634.04-35 656.99-35ZM687.24-35L691.24-35 691.24 0 687.19 0 668.49-28.6 668.49 0 664.49 0 664.49-35 668.54-35 687.24-6.45 687.24-35ZM730.64-25.8L727.14-24.5Q725.24-28.25 722.09-30.03 718.94-31.8 715.09-31.8L715.09-31.8Q711.29-31.8 708.24-30.05 705.19-28.3 703.44-25.1 701.69-21.9 701.69-17.5L701.69-17.5Q701.69-13.15 703.44-9.95 705.19-6.75 708.24-5 711.29-3.25 715.09-3.25L715.09-3.25Q717.94-3.25 720.39-4.23 722.84-5.2 724.64-7.03 726.44-8.85 727.39-11.4L727.39-11.4 727.39-15.45 715.39-15.45 715.39-18.7 731.44-18.7 731.44-11.2Q730.29-7.85 727.94-5.25 725.59-2.65 722.29-1.15 718.99 0.35 715.09 0.35L715.09 0.35Q711.39 0.35 708.21-0.95 705.04-2.25 702.66-4.63 700.29-7 698.96-10.28 697.64-13.55 697.64-17.5L697.64-17.5Q697.64-21.45 698.96-24.73 700.29-28 702.66-30.38 705.04-32.75 708.21-34.05 711.39-35.35 715.09-35.35L715.09-35.35Q718.54-35.35 721.56-34.23 724.59-33.1 726.94-30.98 729.29-28.85 730.64-25.8L730.64-25.8ZM738.24 0L738.24-35 742.24-35 742.24 0 738.24 0ZM773.48-35L777.48-35 777.48 0 773.43 0 754.73-28.6 754.73 0 750.73 0 750.73-35 754.78-35 773.48-6.45 773.48-35ZM808.93-35L808.93-31.5 789.98-31.5 789.98-19.55 804.23-19.55 804.23-16.05 789.98-16.05 789.98-3.5 808.93-3.5 808.93 0 785.98 0 785.98-35 808.93-35ZM839.38-35L839.38-31.5 820.43-31.5 820.43-19.55 834.68-19.55 834.68-16.05 820.43-16.05 820.43-3.5 839.38-3.5 839.38 0 816.43 0 816.43-35 839.38-35ZM867.08-24.65L867.08-24.65Q867.08-27.8 865.23-29.65 863.38-31.5 859.18-31.5L859.18-31.5 850.88-31.5 850.88-17.8 859.23-17.8Q861.98-17.8 863.7-18.65 865.43-19.5 866.25-21.05 867.08-22.6 867.08-24.65ZM846.88-35L859.18-35Q863.28-35 865.9-33.6 868.53-32.2 869.83-29.88 871.13-27.55 871.13-24.65L871.13-24.65Q871.13-22.6 870.45-20.75 869.78-18.9 868.33-17.45 866.88-16 864.63-15.15 862.38-14.3 859.23-14.3L859.23-14.3 850.88-14.3 850.88 0 846.88 0 846.88-35ZM857.78-15.8L862.08-15.8 871.78 0 867.23 0 857.78-15.8Z" opacity="1" transform="matrix(1,0,0,1,0,0)" fill="#ffffff" class="wordmark-text-0" data-fill-palette-color="primary" id="text-0"></path></svg></g></svg></g><g transform="matrix(1,0,0,1,3.5,23.083285461861763)"><svg viewBox="0 0 388.52 16.11787455053935" height="16.11787455053935" width="388.52"><g transform="matrix(1,0,0,1,0,0)"><svg width="388.52" viewBox="-0.10000000000000009 -40.2 1323.77 55.800000000000004" height="16.11787455053935" data-palette-color="#00cc66"><path d="M16 0L3.9 0 3.9-35 15.65-35Q19.35-35 21.75-33.8 24.15-32.6 25.33-30.6 26.5-28.6 26.5-26.15L26.5-26.15Q26.5-23.45 25.33-21.65 24.15-19.85 22.28-18.9 20.4-17.95 18.35-17.7L18.35-17.7 19-18.2Q21.2-18.15 23.1-17 25-15.85 26.15-13.93 27.3-12 27.3-9.55L27.3-9.55Q27.3-6.95 26.03-4.78 24.75-2.6 22.25-1.3 19.75 0 16 0L16 0ZM7.4-16.6L7.4-2.95 15.75-2.95Q19.55-2.95 21.63-4.75 23.7-6.55 23.7-9.7L23.7-9.7Q23.7-12.85 21.53-14.73 19.35-16.6 15.6-16.6L15.6-16.6 7.4-16.6ZM7.4-32.05L7.4-19.5 15.55-19.5Q19.1-19.5 21-21.2 22.9-22.9 22.9-25.8L22.9-25.8Q22.9-28.6 21.05-30.33 19.2-32.05 15.4-32.05L15.4-32.05 7.4-32.05ZM55.45 0.6L55.45 0.6Q52.6 0.6 50.42-0.53 48.25-1.65 47.05-4 45.85-6.35 45.85-9.95L45.85-9.95 45.85-25.2 49.35-25.2 49.35-10.35Q49.35-6.35 51.12-4.4 52.9-2.45 56.05-2.45L56.05-2.45Q58.3-2.45 60.07-3.53 61.85-4.6 62.87-6.65 63.9-8.7 63.9-11.7L63.9-11.7 63.9-25.2 67.4-25.2 67.4 0 64.2 0 64-4.5 64-4.5Q62.8-2.1 60.52-0.75 58.25 0.6 55.45 0.6ZM91.5 0L88 0 88-25.2 91.5-25.2 91.5 0ZM89.75-31.15L89.75-31.15Q88.7-31.15 87.95-31.88 87.2-32.6 87.2-33.7L87.2-33.7Q87.2-34.85 87.92-35.52 88.65-36.2 89.75-36.2L89.75-36.2Q90.75-36.2 91.5-35.52 92.25-34.85 92.25-33.7L92.25-33.7Q92.25-32.6 91.52-31.88 90.8-31.15 89.75-31.15ZM115.55 0L112.05 0 112.05-36 115.55-36 115.55 0ZM146.7 0.6L146.7 0.6Q143 0.6 140.27-1.13 137.55-2.85 136.05-5.85 134.55-8.85 134.55-12.65L134.55-12.65Q134.55-16.45 136.05-19.43 137.55-22.4 140.3-24.1 143.05-25.8 146.75-25.8L146.75-25.8Q149.9-25.8 152.32-24.43 154.75-23.05 156.05-20.55L156.05-20.55 156.05-36 159.55-36 159.55 0 156.35 0 156.05-4.55 156.05-4.55Q155.3-3.25 154-2.05 152.7-0.85 150.87-0.13 149.05 0.6 146.7 0.6ZM146.95-2.45L146.95-2.45Q149.6-2.45 151.57-3.73 153.55-5 154.7-7.28 155.85-9.55 155.85-12.6L155.85-12.6Q155.85-15.65 154.7-17.95 153.55-20.25 151.57-21.5 149.6-22.75 146.95-22.75L146.95-22.75Q144.4-22.75 142.37-21.5 140.35-20.25 139.22-17.98 138.1-15.7 138.1-12.6L138.1-12.6Q138.1-9.5 139.25-7.23 140.4-4.95 142.4-3.7 144.4-2.45 146.95-2.45ZM183.65 0L180.15 0 180.15-25.2 183.65-25.2 183.65 0ZM181.9-31.15L181.9-31.15Q180.85-31.15 180.1-31.88 179.35-32.6 179.35-33.7L179.35-33.7Q179.35-34.85 180.07-35.52 180.8-36.2 181.9-36.2L181.9-36.2Q182.9-36.2 183.65-35.52 184.4-34.85 184.4-33.7L184.4-33.7Q184.4-32.6 183.67-31.88 182.95-31.15 181.9-31.15ZM207.69 0L204.19 0 204.19-25.2 207.39-25.2 207.59-20.7 207.59-20.7Q208.79-23.1 211.07-24.45 213.34-25.8 216.14-25.8L216.14-25.8Q219.04-25.8 221.19-24.65 223.34-23.5 224.54-21.18 225.74-18.85 225.74-15.25L225.74-15.25 225.74 0 222.24 0 222.24-14.85Q222.24-18.85 220.49-20.8 218.74-22.75 215.54-22.75L215.54-22.75Q213.29-22.75 211.52-21.68 209.74-20.6 208.72-18.55 207.69-16.5 207.69-13.5L207.69-13.5 207.69 0ZM255.09 11.6L255.09 11.6Q251.74 11.6 249.17 10.7 246.59 9.8 245.12 8 243.64 6.2 243.64 3.55L243.64 3.55Q243.64 2.5 244.02 1.28 244.39 0.05 245.49-1.2 246.59-2.45 248.59-3.45L248.59-3.45 251.44-2.2Q248.79-0.95 247.99 0.53 247.19 2 247.19 3.2L247.19 3.2Q247.19 5 248.22 6.2 249.24 7.4 251.02 8 252.79 8.6 255.09 8.6L255.09 8.6Q257.39 8.6 259.07 7.95 260.74 7.3 261.64 6.08 262.54 4.85 262.54 3.25L262.54 3.25Q262.54 1.4 261.12 0.13 259.69-1.15 255.84-1.35L255.84-1.35Q252.79-1.55 250.82-1.88 248.84-2.2 247.57-2.68 246.29-3.15 245.47-3.7 244.64-4.25 243.89-4.9L243.89-4.9 243.89-6.05 248.69-10.6 251.89-9.45 247.19-5.25 247.49-6.6Q248.09-6.2 248.59-5.85 249.09-5.5 249.97-5.28 250.84-5.05 252.42-4.83 253.99-4.6 256.69-4.4L256.69-4.4Q260.14-4.15 262.19-3.2 264.24-2.25 265.19-0.65 266.14 0.95 266.14 3.1L266.14 3.1Q266.14 5.25 264.97 7.18 263.79 9.1 261.37 10.35 258.94 11.6 255.09 11.6ZM255.04-8L255.04-8Q251.84-8 249.67-9.2 247.49-10.4 246.34-12.43 245.19-14.45 245.19-16.9L245.19-16.9Q245.19-19.4 246.34-21.4 247.49-23.4 249.69-24.6 251.89-25.8 255.04-25.8L255.04-25.8Q258.24-25.8 260.42-24.6 262.59-23.4 263.72-21.4 264.84-19.4 264.84-16.9L264.84-16.9Q264.84-14.45 263.72-12.43 262.59-10.4 260.42-9.2 258.24-8 255.04-8ZM255.04-11L255.04-11Q257.94-11 259.62-12.53 261.29-14.05 261.29-16.9L261.29-16.9Q261.29-19.8 259.62-21.3 257.94-22.8 255.04-22.8L255.04-22.8Q252.14-22.8 250.42-21.3 248.69-19.8 248.69-16.9L248.69-16.9Q248.69-14.05 250.39-12.53 252.09-11 255.04-11ZM268.09-22.35L259.14-22.05 257.89-25.2 268.09-25.2 268.09-22.35ZM323.94 0.6L323.94 0.6Q320.09 0.6 317.27-0.8 314.44-2.2 312.94-4.73 311.44-7.25 311.44-10.5L311.44-10.5 315.09-10.5Q315.09-8.3 316.09-6.45 317.09-4.6 319.04-3.48 320.99-2.35 323.94-2.35L323.94-2.35Q326.54-2.35 328.32-3.23 330.09-4.1 331.04-5.55 331.99-7 331.99-8.85L331.99-8.85Q331.99-11.05 331.07-12.4 330.14-13.75 328.54-14.6 326.94-15.45 324.92-16.07 322.89-16.7 320.64-17.45L320.64-17.45Q316.59-18.85 314.69-20.9 312.79-22.95 312.74-26.15L312.74-26.15Q312.74-28.9 314.02-31.03 315.29-33.15 317.74-34.38 320.19-35.6 323.54-35.6L323.54-35.6Q326.79-35.6 329.22-34.38 331.64-33.15 332.99-30.98 334.34-28.8 334.34-26L334.34-26 330.74-26Q330.74-27.6 329.92-29.13 329.09-30.65 327.47-31.63 325.84-32.6 323.34-32.6L323.34-32.6Q321.29-32.6 319.72-31.88 318.14-31.15 317.24-29.78 316.34-28.4 316.34-26.55L316.34-26.55Q316.34-24.75 317.14-23.6 317.94-22.45 319.39-21.7 320.84-20.95 322.79-20.33 324.74-19.7 327.14-18.9L327.14-18.9Q329.59-18.05 331.49-16.85 333.39-15.65 334.49-13.78 335.59-11.9 335.59-9.05L335.59-9.05Q335.59-6.6 334.32-4.4 333.04-2.2 330.44-0.8 327.84 0.6 323.94 0.6ZM357.99 0L354.49 0 354.49-25.2 357.69-25.2 357.94-21.4 357.94-21.4Q359.09-23.5 361.14-24.65 363.19-25.8 365.69-25.8L365.69-25.8Q367.59-25.8 369.19-25.25 370.79-24.7 371.99-23.6 373.19-22.5 373.94-20.75L373.94-20.75 373.94-20.75Q375.14-23.1 377.42-24.45 379.69-25.8 382.29-25.8L382.29-25.8Q385.19-25.8 387.34-24.65 389.49-23.5 390.67-21.15 391.84-18.8 391.84-15.2L391.84-15.2 391.84 0 388.34 0 388.34-14.8Q388.34-18.8 386.72-20.78 385.09-22.75 382.09-22.75L382.09-22.75Q380.09-22.75 378.44-21.68 376.79-20.6 375.87-18.57 374.94-16.55 374.94-13.55L374.94-13.55 374.94 0 371.44 0 371.44-14.8Q371.44-18.8 369.79-20.78 368.14-22.75 365.24-22.75L365.24-22.75Q363.14-22.75 361.52-21.68 359.89-20.6 358.94-18.53 357.99-16.45 357.99-13.4L357.99-13.4 357.99 0ZM419.49 0.6L419.49 0.6Q416.44 0.6 414.42-0.5 412.39-1.6 411.42-3.35 410.44-5.1 410.44-7.2L410.44-7.2Q410.44-9.8 411.77-11.6 413.09-13.4 415.52-14.3 417.94-15.2 421.09-15.2L421.09-15.2 427.89-15.2Q427.89-17.65 427.14-19.35 426.39-21.05 424.97-21.93 423.54-22.8 421.34-22.8L421.34-22.8Q418.74-22.8 416.89-21.5 415.04-20.2 414.59-17.7L414.59-17.7 410.94-17.7Q411.24-20.35 412.77-22.15 414.29-23.95 416.57-24.88 418.84-25.8 421.34-25.8L421.34-25.8Q424.79-25.8 427.02-24.48 429.24-23.15 430.32-20.85 431.39-18.55 431.39-15.55L431.39-15.55 431.39 0 428.19 0 428.04-4.6 428.04-4.6Q427.54-3.55 426.77-2.6 425.99-1.65 424.97-0.95 423.94-0.25 422.59 0.18 421.24 0.6 419.49 0.6ZM419.89-2.5L419.89-2.5Q421.79-2.5 423.24-3.25 424.69-4 425.74-5.25 426.79-6.5 427.34-8.1 427.89-9.7 427.89-11.35L427.89-11.35 427.89-12.25 421.34-12.25Q418.69-12.25 417.09-11.6 415.49-10.95 414.79-9.85 414.09-8.75 414.09-7.3L414.09-7.3Q414.09-5.85 414.77-4.78 415.44-3.7 416.74-3.1 418.04-2.5 419.89-2.5ZM454.49 0L450.99 0 450.99-25.2 454.19-25.2 454.44-20.35 454.44-20.35Q455.24-22.1 456.59-23.3 457.94-24.5 459.84-25.15 461.74-25.8 464.14-25.8L464.14-25.8 464.14-22.15 462.79-22.15Q461.19-22.15 459.69-21.73 458.19-21.3 457.04-20.3 455.89-19.3 455.19-17.6 454.49-15.9 454.49-13.35L454.49-13.35 454.49 0ZM495.34 0L491.59 0Q489.44 0 487.89-0.68 486.34-1.35 485.51-2.93 484.69-4.5 484.69-7.25L484.69-7.25 484.69-22.2 480.29-22.2 480.29-25.2 484.69-25.2 485.19-31.05 488.19-31.05 488.19-25.15 495.74-25.15 495.74-22.2 488.19-22.2 488.19-7.25Q488.19-4.75 489.19-3.88 490.19-3 492.74-3L492.74-3 495.34-3 495.34 0ZM524.29 0.6L524.29 0.6Q520.79 0.6 518.11-1.05 515.44-2.7 513.91-5.68 512.39-8.65 512.39-12.65L512.39-12.65Q512.39-16.65 513.89-19.6 515.39-22.55 518.11-24.18 520.84-25.8 524.39-25.8L524.39-25.8Q528.04-25.8 530.59-24.15 533.14-22.5 534.46-19.85 535.79-17.2 535.79-14.05L535.79-14.05Q535.79-13.55 535.79-13.03 535.79-12.5 535.74-11.8L535.74-11.8 515.04-11.8 515.04-14.75 532.39-14.75Q532.24-18.6 529.96-20.7 527.69-22.8 524.24-22.8L524.24-22.8Q522.04-22.8 520.09-21.78 518.14-20.75 516.96-18.78 515.79-16.8 515.79-13.8L515.79-13.8 515.79-12.5Q515.79-9.1 517.01-6.85 518.24-4.6 520.19-3.5 522.14-2.4 524.29-2.4L524.29-2.4Q527.14-2.4 528.99-3.68 530.84-4.95 531.64-7.2L531.64-7.2 535.09-7.2Q534.49-5 533.04-3.23 531.59-1.45 529.39-0.43 527.19 0.6 524.29 0.6ZM557.99 0L554.49 0 554.49-25.2 557.69-25.2 557.94-20.35 557.94-20.35Q558.74-22.1 560.09-23.3 561.44-24.5 563.34-25.15 565.24-25.8 567.64-25.8L567.64-25.8 567.64-22.15 566.29-22.15Q564.69-22.15 563.19-21.73 561.69-21.3 560.54-20.3 559.39-19.3 558.69-17.6 557.99-15.9 557.99-13.35L557.99-13.35 557.99 0ZM623.54 0.6L623.54 0.6Q619.69 0.6 616.86-0.8 614.04-2.2 612.54-4.73 611.04-7.25 611.04-10.5L611.04-10.5 614.69-10.5Q614.69-8.3 615.69-6.45 616.69-4.6 618.64-3.48 620.59-2.35 623.54-2.35L623.54-2.35Q626.14-2.35 627.91-3.23 629.69-4.1 630.64-5.55 631.59-7 631.59-8.85L631.59-8.85Q631.59-11.05 630.66-12.4 629.74-13.75 628.14-14.6 626.54-15.45 624.51-16.07 622.49-16.7 620.24-17.45L620.24-17.45Q616.19-18.85 614.29-20.9 612.39-22.95 612.34-26.15L612.34-26.15Q612.34-28.9 613.61-31.03 614.89-33.15 617.34-34.38 619.79-35.6 623.14-35.6L623.14-35.6Q626.39-35.6 628.81-34.38 631.24-33.15 632.59-30.98 633.94-28.8 633.94-26L633.94-26 630.34-26Q630.34-27.6 629.51-29.13 628.69-30.65 627.06-31.63 625.44-32.6 622.94-32.6L622.94-32.6Q620.89-32.6 619.31-31.88 617.74-31.15 616.84-29.78 615.94-28.4 615.94-26.55L615.94-26.55Q615.94-24.75 616.74-23.6 617.54-22.45 618.99-21.7 620.44-20.95 622.39-20.33 624.34-19.7 626.74-18.9L626.74-18.9Q629.19-18.05 631.09-16.85 632.99-15.65 634.09-13.78 635.19-11.9 635.19-9.05L635.19-9.05Q635.19-6.6 633.91-4.4 632.64-2.2 630.04-0.8 627.44 0.6 623.54 0.6ZM665.18 0.6L665.18 0.6Q661.73 0.6 658.96-1.03 656.18-2.65 654.58-5.63 652.98-8.6 652.98-12.55L652.98-12.55Q652.98-16.65 654.61-19.6 656.23-22.55 659.03-24.18 661.83-25.8 665.28-25.8L665.28-25.8Q668.88-25.8 671.63-24.18 674.38-22.55 675.98-19.6 677.58-16.65 677.58-12.55L677.58-12.55Q677.58-8.6 675.96-5.63 674.33-2.65 671.56-1.03 668.78 0.6 665.18 0.6ZM665.23-2.4L665.23-2.4Q667.58-2.4 669.56-3.55 671.53-4.7 672.76-6.98 673.98-9.25 673.98-12.6L673.98-12.6Q673.98-16 672.78-18.25 671.58-20.5 669.61-21.63 667.63-22.75 665.28-22.75L665.28-22.75Q663.03-22.75 661.03-21.6 659.03-20.45 657.81-18.23 656.58-16 656.58-12.6L656.58-12.6Q656.58-9.25 657.78-6.98 658.98-4.7 660.96-3.55 662.93-2.4 665.23-2.4ZM700.08 0L696.58 0 696.58-36 700.08-36 700.08 0ZM729.28 0.6L729.28 0.6Q726.43 0.6 724.26-0.53 722.08-1.65 720.88-4 719.68-6.35 719.68-9.95L719.68-9.95 719.68-25.2 723.18-25.2 723.18-10.35Q723.18-6.35 724.96-4.4 726.73-2.45 729.88-2.45L729.88-2.45Q732.13-2.45 733.91-3.53 735.68-4.6 736.71-6.65 737.73-8.7 737.73-11.7L737.73-11.7 737.73-25.2 741.23-25.2 741.23 0 738.03 0 737.83-4.5 737.83-4.5Q736.63-2.1 734.36-0.75 732.08 0.6 729.28 0.6ZM774.63 0L770.88 0Q768.73 0 767.18-0.68 765.63-1.35 764.81-2.93 763.98-4.5 763.98-7.25L763.98-7.25 763.98-22.2 759.58-22.2 759.58-25.2 763.98-25.2 764.48-31.05 767.48-31.05 767.48-25.15 775.03-25.15 775.03-22.2 767.48-22.2 767.48-7.25Q767.48-4.75 768.48-3.88 769.48-3 772.03-3L772.03-3 774.63-3 774.63 0ZM797.48 0L793.98 0 793.98-25.2 797.48-25.2 797.48 0ZM795.73-31.15L795.73-31.15Q794.68-31.15 793.93-31.88 793.18-32.6 793.18-33.7L793.18-33.7Q793.18-34.85 793.91-35.52 794.63-36.2 795.73-36.2L795.73-36.2Q796.73-36.2 797.48-35.52 798.23-34.85 798.23-33.7L798.23-33.7Q798.23-32.6 797.51-31.88 796.78-31.15 795.73-31.15ZM829.13 0.6L829.13 0.6Q825.68 0.6 822.91-1.03 820.13-2.65 818.53-5.63 816.93-8.6 816.93-12.55L816.93-12.55Q816.93-16.65 818.56-19.6 820.18-22.55 822.98-24.18 825.78-25.8 829.23-25.8L829.23-25.8Q832.83-25.8 835.58-24.18 838.33-22.55 839.93-19.6 841.53-16.65 841.53-12.55L841.53-12.55Q841.53-8.6 839.91-5.63 838.28-2.65 835.51-1.03 832.73 0.6 829.13 0.6ZM829.18-2.4L829.18-2.4Q831.53-2.4 833.51-3.55 835.48-4.7 836.71-6.98 837.93-9.25 837.93-12.6L837.93-12.6Q837.93-16 836.73-18.25 835.53-20.5 833.56-21.63 831.58-22.75 829.23-22.75L829.23-22.75Q826.98-22.75 824.98-21.6 822.98-20.45 821.76-18.23 820.53-16 820.53-12.6L820.53-12.6Q820.53-9.25 821.73-6.98 822.93-4.7 824.91-3.55 826.88-2.4 829.18-2.4ZM864.03 0L860.53 0 860.53-25.2 863.73-25.2 863.93-20.7 863.93-20.7Q865.13-23.1 867.4-24.45 869.68-25.8 872.48-25.8L872.48-25.8Q875.38-25.8 877.53-24.65 879.68-23.5 880.88-21.18 882.08-18.85 882.08-15.25L882.08-15.25 882.08 0 878.58 0 878.58-14.85Q878.58-18.85 876.83-20.8 875.08-22.75 871.88-22.75L871.88-22.75Q869.63-22.75 867.85-21.68 866.08-20.6 865.05-18.55 864.03-16.5 864.03-13.5L864.03-13.5 864.03 0ZM910.93 0.6L910.93 0.6Q907.93 0.6 905.65-0.4 903.38-1.4 902-3.28 900.63-5.15 900.33-7.75L900.33-7.75 903.98-7.75Q904.23-6.3 905.1-5.1 905.98-3.9 907.48-3.2 908.98-2.5 911.03-2.5L911.03-2.5Q912.93-2.5 914.15-3.05 915.38-3.6 916-4.58 916.63-5.55 916.63-6.75L916.63-6.75Q916.63-8.4 915.85-9.33 915.08-10.25 913.63-10.7 912.18-11.15 910.13-11.55L910.13-11.55Q908.43-11.85 906.9-12.35 905.38-12.85 904.15-13.65 902.93-14.45 902.2-15.68 901.48-16.9 901.48-18.55L901.48-18.55Q901.48-20.7 902.55-22.33 903.63-23.95 905.63-24.88 907.63-25.8 910.33-25.8L910.33-25.8Q914.18-25.8 916.63-23.88 919.08-21.95 919.48-18.25L919.48-18.25 915.98-18.25Q915.78-20.3 914.28-21.5 912.78-22.7 910.23-22.7L910.23-22.7Q907.73-22.7 906.4-21.68 905.08-20.65 905.08-18.9L905.08-18.9Q905.08-17.8 905.78-17 906.48-16.2 907.85-15.63 909.23-15.05 911.23-14.65L911.23-14.65Q913.63-14.2 915.65-13.48 917.68-12.75 918.95-11.28 920.23-9.8 920.23-7.1L920.23-7.1Q920.28-4.85 919.13-3.1 917.98-1.35 915.9-0.38 913.83 0.6 910.93 0.6ZM978.18 0L974.68 0 974.68-32.1 964.18-32.1 964.18-35 988.68-35 988.68-32.1 978.18-32.1 978.18 0ZM1010.28 0L1006.78 0 1006.78-36 1010.28-36 1010.28-20.7 1010.28-20.7Q1011.58-23.1 1013.9-24.45 1016.23-25.8 1018.93-25.8L1018.93-25.8Q1021.78-25.8 1023.9-24.65 1026.03-23.5 1027.2-21.15 1028.38-18.8 1028.38-15.15L1028.38-15.15 1028.38 0 1024.93 0 1024.93-14.75Q1024.93-18.8 1023.25-20.78 1021.58-22.75 1018.33-22.75L1018.33-22.75Q1016.08-22.75 1014.25-21.65 1012.43-20.55 1011.35-18.48 1010.28-16.4 1010.28-13.35L1010.28-13.35 1010.28 0ZM1051.48 0L1047.98 0 1047.98-25.2 1051.18-25.2 1051.43-20.35 1051.43-20.35Q1052.23-22.1 1053.58-23.3 1054.93-24.5 1056.83-25.15 1058.73-25.8 1061.13-25.8L1061.13-25.8 1061.13-22.15 1059.78-22.15Q1058.18-22.15 1056.68-21.73 1055.18-21.3 1054.03-20.3 1052.88-19.3 1052.18-17.6 1051.48-15.9 1051.48-13.35L1051.48-13.35 1051.48 0ZM1089.02 0.6L1089.02 0.6Q1085.57 0.6 1082.8-1.03 1080.02-2.65 1078.42-5.63 1076.82-8.6 1076.82-12.55L1076.82-12.55Q1076.82-16.65 1078.45-19.6 1080.07-22.55 1082.87-24.18 1085.67-25.8 1089.12-25.8L1089.12-25.8Q1092.72-25.8 1095.47-24.18 1098.22-22.55 1099.82-19.6 1101.42-16.65 1101.42-12.55L1101.42-12.55Q1101.42-8.6 1099.8-5.63 1098.17-2.65 1095.4-1.03 1092.62 0.6 1089.02 0.6ZM1089.07-2.4L1089.07-2.4Q1091.42-2.4 1093.4-3.55 1095.37-4.7 1096.6-6.98 1097.82-9.25 1097.82-12.6L1097.82-12.6Q1097.82-16 1096.62-18.25 1095.42-20.5 1093.45-21.63 1091.47-22.75 1089.12-22.75L1089.12-22.75Q1086.87-22.75 1084.87-21.6 1082.87-20.45 1081.65-18.23 1080.42-16 1080.42-12.6L1080.42-12.6Q1080.42-9.25 1081.62-6.98 1082.82-4.7 1084.8-3.55 1086.77-2.4 1089.07-2.4ZM1129.52 0.6L1129.52 0.6Q1126.67 0.6 1124.5-0.53 1122.32-1.65 1121.12-4 1119.92-6.35 1119.92-9.95L1119.92-9.95 1119.92-25.2 1123.42-25.2 1123.42-10.35Q1123.42-6.35 1125.2-4.4 1126.97-2.45 1130.12-2.45L1130.12-2.45Q1132.37-2.45 1134.15-3.53 1135.92-4.6 1136.95-6.65 1137.97-8.7 1137.97-11.7L1137.97-11.7 1137.97-25.2 1141.47-25.2 1141.47 0 1138.27 0 1138.07-4.5 1138.07-4.5Q1136.87-2.1 1134.6-0.75 1132.32 0.6 1129.52 0.6ZM1171.32 11.6L1171.32 11.6Q1167.97 11.6 1165.4 10.7 1162.82 9.8 1161.35 8 1159.87 6.2 1159.87 3.55L1159.87 3.55Q1159.87 2.5 1160.25 1.28 1160.62 0.05 1161.72-1.2 1162.82-2.45 1164.82-3.45L1164.82-3.45 1167.67-2.2Q1165.02-0.95 1164.22 0.53 1163.42 2 1163.42 3.2L1163.42 3.2Q1163.42 5 1164.45 6.2 1165.47 7.4 1167.25 8 1169.02 8.6 1171.32 8.6L1171.32 8.6Q1173.62 8.6 1175.3 7.95 1176.97 7.3 1177.87 6.08 1178.77 4.85 1178.77 3.25L1178.77 3.25Q1178.77 1.4 1177.35 0.13 1175.92-1.15 1172.07-1.35L1172.07-1.35Q1169.02-1.55 1167.05-1.88 1165.07-2.2 1163.8-2.68 1162.52-3.15 1161.7-3.7 1160.87-4.25 1160.12-4.9L1160.12-4.9 1160.12-6.05 1164.92-10.6 1168.12-9.45 1163.42-5.25 1163.72-6.6Q1164.32-6.2 1164.82-5.85 1165.32-5.5 1166.2-5.28 1167.07-5.05 1168.65-4.83 1170.22-4.6 1172.92-4.4L1172.92-4.4Q1176.37-4.15 1178.42-3.2 1180.47-2.25 1181.42-0.65 1182.37 0.95 1182.37 3.1L1182.37 3.1Q1182.37 5.25 1181.2 7.18 1180.02 9.1 1177.6 10.35 1175.17 11.6 1171.32 11.6ZM1171.27-8L1171.27-8Q1168.07-8 1165.9-9.2 1163.72-10.4 1162.57-12.43 1161.42-14.45 1161.42-16.9L1161.42-16.9Q1161.42-19.4 1162.57-21.4 1163.72-23.4 1165.92-24.6 1168.12-25.8 1171.27-25.8L1171.27-25.8Q1174.47-25.8 1176.65-24.6 1178.82-23.4 1179.95-21.4 1181.07-19.4 1181.07-16.9L1181.07-16.9Q1181.07-14.45 1179.95-12.43 1178.82-10.4 1176.65-9.2 1174.47-8 1171.27-8ZM1171.27-11L1171.27-11Q1174.17-11 1175.85-12.53 1177.52-14.05 1177.52-16.9L1177.52-16.9Q1177.52-19.8 1175.85-21.3 1174.17-22.8 1171.27-22.8L1171.27-22.8Q1168.37-22.8 1166.65-21.3 1164.92-19.8 1164.92-16.9L1164.92-16.9Q1164.92-14.05 1166.62-12.53 1168.32-11 1171.27-11ZM1184.32-22.35L1175.37-22.05 1174.12-25.2 1184.32-25.2 1184.32-22.35ZM1205.67 0L1202.17 0 1202.17-36 1205.67-36 1205.67-20.7 1205.67-20.7Q1206.97-23.1 1209.3-24.45 1211.62-25.8 1214.32-25.8L1214.32-25.8Q1217.17-25.8 1219.3-24.65 1221.42-23.5 1222.6-21.15 1223.77-18.8 1223.77-15.15L1223.77-15.15 1223.77 0 1220.32 0 1220.32-14.75Q1220.32-18.8 1218.65-20.78 1216.97-22.75 1213.72-22.75L1213.72-22.75Q1211.47-22.75 1209.65-21.65 1207.82-20.55 1206.75-18.48 1205.67-16.4 1205.67-13.35L1205.67-13.35 1205.67 0ZM1271.92 0L1268.22 0 1281.12-35 1284.72-35 1297.62 0 1293.92 0 1282.92-30.4 1282.92-30.4 1271.92 0ZM1291.67-9.45L1274.12-9.45 1275.17-12.35 1290.62-12.35 1291.67-9.45ZM1319.67 0L1316.17 0 1316.17-35 1319.67-35 1319.67 0Z" opacity="1" transform="matrix(1,0,0,1,0,0)" fill="#00cc66" class="slogan-text-1" data-fill-palette-color="secondary" id="text-1"></path></svg></g></svg></g></svg></g></svg></g><g><svg viewBox="0 0 87.20454113605727 65.5529637959374" height="65.5529637959374" width="87.20454113605727"><g><svg xmlns="http://www.w3.org/2000/svg" xmlns:xlink="http://www.w3.org/1999/xlink" version="1.1" x="8" y="0" viewBox="9.398 12.34 80.1930005690853 73.828" enable-background="new 0 0 100 100" xml:space="preserve" height="65.5529637959374" width="71.20454113605727" class="icon-icon-0" data-fill-palette-color="accent" id="icon-0"><g fill="#00cc66" data-fill-palette-color="accent"><path d="M55.894 49.046V51.038C55.894 53.547 57.036 54.713 59.222 54.713H61.979C64.585 54.713 66.358 56.832 66.358 59.088V61.406C66.358 63.915 65.221 65.427 62.563 65.427H59.367C56.571 65.427 55.114 64.149 55.114 61.538V59.38C55.114 57.321 53.635 55.97 51.833 55.97H47.074C44.694 55.97 44.115 57.578 44.115 59.38V63.629C44.115 65.881 45.466 66.653 47.203 66.653H50.134C53.444 66.653 55.034 68.105 55.034 70.423V72.024C55.034 74.658 56.532 75.656 58.915 75.656H63.83C66.263 75.656 67.452 74.372 67.452 72.177V70.381C67.452 67.358 69.128 66.393 72.345 66.393H75.729C77.595 66.393 78.454 65.235 78.454 63.691V57.451C78.454 55.393 77.296 54.428 75.045 54.428H70.991C68.572 54.428 66.403 52.599 66.403 49.218V47.226C66.403 44.717 65.261 43.551 63.074 43.551H60.317C57.711 43.551 55.938 41.433 55.938 39.177V36.859C55.938 34.35 57.076 32.838 59.734 32.838H62.929C65.725 32.838 67.183 34.116 67.183 36.727V38.885C67.183 40.944 68.662 42.294 70.464 42.294H75.222C77.602 42.294 78.181 40.686 78.181 38.885V34.636C78.181 32.385 76.83 31.613 75.093 31.613H72.162C68.852 31.613 67.262 30.161 67.262 27.843V26.327C67.262 23.694 65.837 22.61 63.454 22.61H58.466C56.033 22.61 54.844 23.894 54.844 26.09V27.885C54.844 30.908 53.168 31.873 49.951 31.873H46.566C44.701 31.873 43.842 33.031 43.842 34.575V40.815C43.842 42.874 44.999 43.839 47.252 43.839H51.304C53.725 43.836 55.894 45.665 55.894 49.046" fill="#00cc66" data-fill-palette-color="accent"></path><path d="M86.07 54.482A3.52 3.52 0 0 0 89.591 50.961V48.273A3.52 3.52 0 0 0 86.07 44.751H83.382A3.52 3.52 0 0 0 79.861 48.273V50.961A3.52 3.52 0 0 0 83.382 54.482z" fill="#00cc66" data-fill-palette-color="accent"></path><path d="M36.547 31.871H39.555C41.806 31.871 42.964 30.906 42.964 28.848V26.874C43.077 23.68 45.188 22.216 47.542 22.216H50.55C52.803 22.216 53.96 21.251 53.96 19.193V15.042C53.96 13.498 53.102 12.34 51.236 12.34H45.541C43.695 12.34 42.91 13.195 42.91 15.122V17.556C42.91 19.751 41.229 21.809 38.739 21.92H34.545C32.7 21.92 31.914 22.775 31.914 24.702V27.21C31.914 29.466 30.143 31.585 27.535 31.585H24.778C22.59 31.585 21.449 32.75 21.449 35.259V38.33C21.449 41.711 19.281 43.54 16.861 43.54H12.807C10.556 43.54 9.398 44.505 9.398 46.563V53.329C9.398 55.388 10.556 56.352 12.807 56.352H16.861C19.281 56.352 21.449 57.401 21.449 60.783V63.195C21.449 65.704 22.591 66.869 24.778 66.869H27.535C30.142 66.869 31.914 68.988 31.914 71.244V73.783C31.914 75.71 32.7 76.565 34.545 76.565H38.758L38.737 76.589C41.228 76.699 42.908 78.758 42.908 80.953V83.386C42.908 85.313 43.693 86.168 45.539 86.168H51.233C53.099 86.168 53.958 85.01 53.958 83.466V79.315C53.958 77.256 52.8 76.291 50.549 76.291H47.54C45.192 76.291 43.087 74.834 42.964 71.658V69.605C42.964 67.546 41.806 66.582 39.555 66.582H36.547C34.126 66.582 31.957 64.754 31.957 61.373V59.74C31.957 57.231 33.1 56.066 35.287 56.066H38.043C40.65 56.066 42.423 53.947 42.423 51.691V48.2C42.423 45.944 40.651 43.825 38.043 43.825H35.287C33.099 43.825 31.957 42.659 31.957 40.151V36.791C31.957 33.411 34.126 31.871 36.547 31.871" fill="#00cc66" data-fill-palette-color="accent"></path></g></svg></g></svg></g></svg></g><defs></defs></svg><rect width="395.52" height="52.72088806637655" fill="none" stroke="none" visibility="hidden"></rect></g></svg></g></svg>