<svg xmlns="http://www.w3.org/2000/svg" version="1.1" xmlns:xlink="http://www.w3.org/1999/xlink" xmlns:svgjs="http://svgjs.dev/svgjs" width="2000" height="267" viewBox="0 0 2000 267"><g transform="matrix(1,0,0,1,-1.2121212121212466,-0.7030460969571095)"><svg viewBox="0 0 396 53" data-background-color="#121212" preserveAspectRatio="xMidYMid meet" height="267" width="2000" xmlns="http://www.w3.org/2000/svg" xmlns:xlink="http://www.w3.org/1999/xlink"><g id="tight-bounds" transform="matrix(1,0,0,1,0.2400000000000091,0.139555966811713)"><svg viewBox="0 0 395.52 52.72088806637655" height="52.72088806637655" width="395.52"><g><svg viewBox="0 0 491.7881544014577 65.5529637959374" height="52.72088806637655" width="395.52"><g><rect width="1.453526560614175" height="39.39716581246312" x="91.0095844884504" y="13.07789899173714" fill="#00cc66" opacity="1" stroke-width="0" stroke="transparent" fill-opacity="1" class="rect-yte-0" data-fill-palette-color="secondary" rx="1%" id="yte-0" data-palette-color="#00cc66"></rect></g><g transform="matrix(1,0,0,1,96.2681544014577,13.175901891768142)"><svg viewBox="0 0 395.52 39.20116001240112" height="39.20116001240112" width="395.52"><g id="textblocktransform"><svg viewBox="0 0 395.52 39.20116001240112" height="39.20116001240112" width="395.52" id="textblock"><g><svg viewBox="0 0 395.52 19.278242109468636" height="19.278242109468636" width="395.52"><g transform="matrix(1,0,0,1,0,0)"><svg width="395.52" viewBox="-1.2000000000000002 -39.35 876.98 43.7" height="19.278242109468636" data-palette-color="#ffffff"><path d="M17.35-9.15L17.35-35 21.35-35 21.35-9.15Q21.35-6.4 20.15-4.25 18.95-2.1 16.82-0.88 14.7 0.35 11.85 0.35L11.85 0.35Q8.25 0.35 5.95-1.48 3.65-3.3 2.8-6.5L2.8-6.5 6.25-7.75Q6.6-6.45 7.28-5.4 7.95-4.35 9.08-3.75 10.2-3.15 11.85-3.15L11.85-3.15Q13.8-3.15 15-4.05 16.2-4.95 16.78-6.33 17.35-7.7 17.35-9.15L17.35-9.15ZM45 0.35L45 0.35Q41.3 0.35 38.12-0.95 34.95-2.25 32.57-4.63 30.2-7 28.87-10.28 27.55-13.55 27.55-17.5L27.55-17.5Q27.55-21.45 28.87-24.73 30.2-28 32.57-30.38 34.95-32.75 38.12-34.05 41.3-35.35 45-35.35L45-35.35Q48.65-35.35 51.82-34.05 55-32.75 57.35-30.38 59.7-28 61.02-24.73 62.35-21.45 62.35-17.5L62.35-17.5Q62.35-13.55 61.02-10.28 59.7-7 57.35-4.63 55-2.25 51.82-0.95 48.65 0.35 45 0.35ZM45-3.15L45-3.15Q48.75-3.15 51.75-4.9 54.75-6.65 56.5-9.88 58.25-13.1 58.25-17.5L58.25-17.5Q58.25-21.95 56.5-25.18 54.75-28.4 51.75-30.13 48.75-31.85 45-31.85L45-31.85Q41.2-31.85 38.17-30.13 35.15-28.4 33.4-25.18 31.65-21.95 31.65-17.5L31.65-17.5Q31.65-13.1 33.4-9.88 35.15-6.65 38.17-4.9 41.2-3.15 45-3.15ZM91.65-35L91.65-31.5 72.7-31.5 72.7-19.55 86.95-19.55 86.95-16.05 72.7-16.05 72.7-3.5 91.65-3.5 91.65 0 68.7 0 68.7-35 91.65-35ZM117.14-27.1L117.14 0 113.14 0 113.14-35 117.54-35 130.54-5.5 143.49-35 147.84-35 147.84 0 143.84 0 143.84-27.1 131.94 0 129.09 0 117.14-27.1ZM179.29-35L179.29-31.5 160.34-31.5 160.34-19.55 174.59-19.55 174.59-16.05 160.34-16.05 160.34-3.5 179.29-3.5 179.29 0 156.34 0 156.34-35 179.29-35ZM209.54-35L213.54-35 213.54 0 209.49 0 190.79-28.6 190.79 0 186.79 0 186.79-35 190.84-35 209.54-6.45 209.54-35ZM222.03-35L233.58-35Q239.38-35 243.51-32.88 247.63-30.75 249.86-26.8 252.08-22.85 252.08-17.4L252.08-17.4Q252.08-12 249.86-8.1 247.63-4.2 243.51-2.1 239.38 0 233.58 0L233.58 0 222.03 0 222.03-35ZM226.03-3.5L233.58-3.5Q240.73-3.5 244.38-7.15 248.03-10.8 248.03-17.4L248.03-17.4Q248.03-24.05 244.38-27.78 240.73-31.5 233.58-31.5L233.58-31.5 226.03-31.5 226.03-3.5ZM281.43-35L281.43-31.5 262.48-31.5 262.48-19.55 276.73-19.55 276.73-16.05 262.48-16.05 262.48-3.5 281.43-3.5 281.43 0 258.48 0 258.48-35 281.43-35ZM311.48-35L311.48-31.85 292.18-3.5 311.68-3.5 311.68 0 287.53 0 287.53-3.15 306.78-31.5 287.73-31.5 287.73-35 311.48-35ZM317.68-12.2L317.68-15.6 337.38-15.6 337.38-12.2 317.68-12.2ZM344.77 0L344.77-35 348.77-35 348.77-19.55 367.52-19.55 367.52-35 371.52-35 371.52 0 367.52 0 367.52-16.05 348.77-16.05 348.77 0 344.77 0ZM379.82-12.95L379.82-35 383.82-35 383.82-12.9Q383.82-9.45 385.07-7.3 386.32-5.15 388.45-4.15 390.57-3.15 393.27-3.15L393.27-3.15Q395.92-3.15 398.02-4.15 400.12-5.15 401.37-7.3 402.62-9.45 402.62-12.9L402.62-12.9 402.62-35 406.62-35 406.62-12.95Q406.62-9.5 405.55-7 404.47-4.5 402.57-2.88 400.67-1.25 398.27-0.45 395.87 0.35 393.22 0.35L393.22 0.35Q389.62 0.35 386.57-1.07 383.52-2.5 381.67-5.45 379.82-8.4 379.82-12.95L379.82-12.95ZM445.77-25.8L442.27-24.5Q440.37-28.25 437.22-30.03 434.07-31.8 430.22-31.8L430.22-31.8Q426.42-31.8 423.37-30.05 420.32-28.3 418.57-25.1 416.82-21.9 416.82-17.5L416.82-17.5Q416.82-13.15 418.57-9.95 420.32-6.75 423.37-5 426.42-3.25 430.22-3.25L430.22-3.25Q433.07-3.25 435.52-4.23 437.97-5.2 439.77-7.03 441.57-8.85 442.52-11.4L442.52-11.4 442.52-15.45 430.52-15.45 430.52-18.7 446.57-18.7 446.57-11.2Q445.42-7.85 443.07-5.25 440.72-2.65 437.42-1.15 434.12 0.35 430.22 0.35L430.22 0.35Q426.52 0.35 423.34-0.95 420.17-2.25 417.79-4.63 415.42-7 414.09-10.28 412.77-13.55 412.77-17.5L412.77-17.5Q412.77-21.45 414.09-24.73 415.42-28 417.79-30.38 420.17-32.75 423.34-34.05 426.52-35.35 430.22-35.35L430.22-35.35Q433.67-35.35 436.69-34.23 439.72-33.1 442.07-30.98 444.42-28.85 445.77-25.8L445.77-25.8ZM453.37 0L453.37-35 457.37-35 457.37-19.55 476.12-19.55 476.12-35 480.12-35 480.12 0 476.12 0 476.12-16.05 457.37-16.05 457.37 0 453.37 0ZM511.56-35L511.56-31.5 492.61-31.5 492.61-19.55 506.86-19.55 506.86-16.05 492.61-16.05 492.61-3.5 511.56-3.5 511.56 0 488.61 0 488.61-35 511.56-35ZM517.36-7.45L521.01-8.9Q521.31-7.55 522.29-6.23 523.26-4.9 524.99-4.03 526.71-3.15 529.41-3.15L529.41-3.15Q533.26-3.15 535.11-4.95 536.96-6.75 536.96-9.2L536.96-9.2Q536.96-11.15 535.91-12.4 534.86-13.65 533.06-14.48 531.26-15.3 529.01-15.95L529.01-15.95Q527.01-16.5 525.04-17.18 523.06-17.85 521.46-18.88 519.86-19.9 518.91-21.55 517.96-23.2 517.96-25.65L517.96-25.65Q517.96-28.6 519.36-30.78 520.76-32.95 523.31-34.15 525.86-35.35 529.26-35.35L529.26-35.35Q532.21-35.35 534.41-34.5 536.61-33.65 538.09-32.13 539.56-30.6 540.26-28.6L540.26-28.6 536.71-27.25Q536.36-28.4 535.36-29.48 534.36-30.55 532.76-31.25 531.16-31.95 529.11-31.95L529.11-31.95Q527.11-31.95 525.49-31.25 523.86-30.55 522.91-29.25 521.96-27.95 521.96-26.1L521.96-26.1Q521.96-24.1 523.09-22.93 524.21-21.75 526.09-21.03 527.96-20.3 530.21-19.65L530.21-19.65Q532.26-19 534.19-18.25 536.11-17.5 537.64-16.4 539.16-15.3 540.06-13.65 540.96-12 540.96-9.6L540.96-9.6Q540.96-6.95 539.71-4.67 538.46-2.4 535.94-1.03 533.41 0.35 529.46 0.35L529.46 0.35Q526.16 0.35 523.66-0.68 521.16-1.7 519.56-3.45 517.96-5.2 517.36-7.45L517.36-7.45ZM549.61 0.25L549.61 0.25Q548.46 0.25 547.68-0.55 546.91-1.35 546.91-2.5L546.91-2.5Q546.91-3.65 547.68-4.45 548.46-5.25 549.61-5.25L549.61-5.25Q550.71-5.25 551.51-4.45 552.31-3.65 552.31-2.5L552.31-2.5Q552.31-1.35 551.51-0.55 550.71 0.25 549.61 0.25ZM549.61-21.35L549.61-21.35Q548.46-21.35 547.68-22.15 546.91-22.95 546.91-24.1L546.91-24.1Q546.91-25.25 547.68-26.05 548.46-26.85 549.61-26.85L549.61-26.85Q550.71-26.85 551.51-26.05 552.31-25.25 552.31-24.1L552.31-24.1Q552.31-22.95 551.51-22.15 550.71-21.35 549.61-21.35ZM598.85 0L587.4-31.5 585.75-31.5 574.2 0 570.15 0 582.95-35 590.15-35 602.9 0 598.85 0ZM576.4-9.2L576.4-12.7 596.8-12.7 596.8-9.2 576.4-9.2ZM607.55 0L607.55-35 611.55-35 611.55 0 607.55 0ZM656.99-35L656.99-31.5 638.04-31.5 638.04-19.55 652.29-19.55 652.29-16.05 638.04-16.05 638.04-3.5 656.99-3.5 656.99 0 634.04 0 634.04-35 656.99-35ZM687.24-35L691.24-35 691.24 0 687.19 0 668.49-28.6 668.49 0 664.49 0 664.49-35 668.54-35 687.24-6.45 687.24-35ZM730.64-25.8L727.14-24.5Q725.24-28.25 722.09-30.03 718.94-31.8 715.09-31.8L715.09-31.8Q711.29-31.8 708.24-30.05 705.19-28.3 703.44-25.1 701.69-21.9 701.69-17.5L701.69-17.5Q701.69-13.15 703.44-9.95 705.19-6.75 708.24-5 711.29-3.25 715.09-3.25L715.09-3.25Q717.94-3.25 720.39-4.23 722.84-5.2 724.64-7.03 726.44-8.85 727.39-11.4L727.39-11.4 727.39-15.45 715.39-15.45 715.39-18.7 731.44-18.7 731.44-11.2Q730.29-7.85 727.94-5.25 725.59-2.65 722.29-1.15 718.99 0.35 715.09 0.35L715.09 0.35Q711.39 0.35 708.21-0.95 705.04-2.25 702.66-4.63 700.29-7 698.96-10.28 697.64-13.55 697.64-17.5L697.64-17.5Q697.64-21.45 698.96-24.73 700.29-28 702.66-30.38 705.04-32.75 708.21-34.05 711.39-35.35 715.09-35.35L715.09-35.35Q718.54-35.35 721.56-34.23 724.59-33.1 726.94-30.98 729.29-28.85 730.64-25.8L730.64-25.8ZM738.24 0L738.24-35 742.24-35 742.24 0 738.24 0ZM773.48-35L777.48-35 777.48 0 773.43 0 754.73-28.6 754.73 0 750.73 0 750.73-35 754.78-35 773.48-6.45 773.48-35ZM808.93-35L808.93-31.5 789.98-31.5 789.98-19.55 804.23-19.55 804.23-16.05 789.98-16.05 789.98-3.5 808.93-3.5 808.93 0 785.98 0 785.98-35 808.93-35ZM839.38-35L839.38-31.5 820.43-31.5 820.43-19.55 834.68-19.55 834.68-16.05 820.43-16.05 820.43-3.5 839.38-3.5 839.38 0 816.43 0 816.43-35 839.38-35ZM867.08-24.65L867.08-24.65Q867.08-27.8 865.23-29.65 863.38-31.5 859.18-31.5L859.18-31.5 850.88-31.5 850.88-17.8 859.23-17.8Q861.98-17.8 863.7-18.65 865.43-19.5 866.25-21.05 867.08-22.6 867.08-24.65ZM846.88-35L859.18-35Q863.28-35 865.9-33.6 868.53-32.2 869.83-29.88 871.13-27.55 871.13-24.65L871.13-24.65Q871.13-22.6 870.45-20.75 869.78-18.9 868.33-17.45 866.88-16 864.63-15.15 862.38-14.3 859.23-14.3L859.23-14.3 850.88-14.3 850.88 0 846.88 0 846.88-35ZM857.78-15.8L862.08-15.8 871.78 0 867.23 0 857.78-15.8Z" opacity="1" transform="matrix(1,0,0,1,0,0)" fill="#ffffff" class="wordmark-text-0" data-fill-palette-color="primary" id="text-0"></path></svg></g></svg></g><g transform="matrix(1,0,0,1,3.5,23.083285461861763)"><svg viewBox="0 0 388.52 16.11787455053935" height="16.11787455053935" width="388.52"><g transform="matrix(1,0,0,1,0,0)"><svg width="388.52" viewBox="-0.4500000000000002 -40.25 1324.78 55.85" height="16.11787455053935" data-palette-color="#00cc66"><path d="M17.75 0L3.55 0 3.55-35 17.25-35Q20.95-35 23.43-33.85 25.9-32.7 27.15-30.68 28.4-28.65 28.4-26L28.4-26Q28.4-23.35 27.25-21.55 26.1-19.75 24.23-18.8 22.35-17.85 20.15-17.65L20.15-17.65 20.9-18.2Q23.25-18.15 25.13-16.95 27-15.75 28.1-13.83 29.2-11.9 29.2-9.55L29.2-9.55Q29.2-6.8 27.88-4.63 26.55-2.45 24-1.23 21.45 0 17.75 0L17.75 0ZM9.55-15.65L9.55-4.9 16.85-4.9Q19.8-4.9 21.45-6.3 23.1-7.7 23.1-10.2L23.1-10.2Q23.1-12.7 21.4-14.18 19.7-15.65 16.75-15.65L16.75-15.65 9.55-15.65ZM9.55-30.15L9.55-20.2 16.4-20.2Q19.3-20.2 20.8-21.53 22.3-22.85 22.3-25.2L22.3-25.2Q22.3-27.5 20.8-28.83 19.3-30.15 16.35-30.15L16.35-30.15 9.55-30.15ZM55.7 0.6L55.7 0.6Q52.65 0.6 50.47-0.63 48.3-1.85 47.15-4.33 46-6.8 46-10.45L46-10.45 46-25.2 52-25.2 52-11.05Q52-7.8 53.37-6.13 54.75-4.45 57.55-4.45L57.55-4.45Q59.35-4.45 60.77-5.3 62.2-6.15 63.02-7.78 63.85-9.4 63.85-11.75L63.85-11.75 63.85-25.2 69.85-25.2 69.85 0 64.55 0 64.1-4.2 64.1-4.2Q62.95-2 60.77-0.7 58.6 0.6 55.7 0.6ZM94.39 0L88.39 0 88.39-25.2 94.39-25.2 94.39 0ZM91.39-29.2L91.39-29.2Q89.74-29.2 88.67-30.23 87.59-31.25 87.59-32.75L87.59-32.75Q87.59-34.3 88.67-35.27 89.74-36.25 91.39-36.25L91.39-36.25Q93.04-36.25 94.12-35.27 95.19-34.3 95.19-32.75L95.19-32.75Q95.19-31.25 94.12-30.23 93.04-29.2 91.39-29.2ZM118.94 0L112.94 0 112.94-36 118.94-36 118.94 0ZM148.44 0.6L148.44 0.6Q144.94 0.6 142.19-1.1 139.44-2.8 137.91-5.8 136.39-8.8 136.39-12.6L136.39-12.6Q136.39-16.4 137.94-19.38 139.49-22.35 142.26-24.08 145.04-25.8 148.54-25.8L148.54-25.8Q151.39-25.8 153.51-24.73 155.64-23.65 156.89-21.7L156.89-21.7 156.89-36 162.89-36 162.89 0 157.49 0 156.89-3.65 156.89-3.65Q156.09-2.55 154.94-1.58 153.79-0.6 152.19 0 150.59 0.6 148.44 0.6ZM149.69-4.6L149.69-4.6Q151.84-4.6 153.49-5.63 155.14-6.65 156.04-8.45 156.94-10.25 156.94-12.6L156.94-12.6Q156.94-14.95 156.04-16.75 155.14-18.55 153.49-19.55 151.84-20.55 149.69-20.55L149.69-20.55Q147.64-20.55 145.99-19.55 144.34-18.55 143.41-16.75 142.49-14.95 142.49-12.6L142.49-12.6Q142.49-10.25 143.41-8.45 144.34-6.65 145.99-5.63 147.64-4.6 149.69-4.6ZM187.38 0L181.38 0 181.38-25.2 187.38-25.2 187.38 0ZM184.38-29.2L184.38-29.2Q182.73-29.2 181.66-30.23 180.58-31.25 180.58-32.75L180.58-32.75Q180.58-34.3 181.66-35.27 182.73-36.25 184.38-36.25L184.38-36.25Q186.03-36.25 187.11-35.27 188.18-34.3 188.18-32.75L188.18-32.75Q188.18-31.25 187.11-30.23 186.03-29.2 184.38-29.2ZM211.93 0L205.93 0 205.93-25.2 211.23-25.2 211.68-21 211.68-21Q212.83-23.2 214.98-24.5 217.13-25.8 220.08-25.8L220.08-25.8Q223.13-25.8 225.28-24.53 227.43-23.25 228.6-20.8 229.78-18.35 229.78-14.7L229.78-14.7 229.78 0 223.78 0 223.78-14.15Q223.78-17.3 222.38-19 220.98-20.7 218.23-20.7L218.23-20.7Q216.43-20.7 215-19.85 213.58-19 212.75-17.38 211.93-15.75 211.93-13.45L211.93-13.45 211.93 0ZM258.33 11.6L258.33 11.6Q254.78 11.6 252.1 10.73 249.43 9.85 247.95 8.08 246.48 6.3 246.48 3.65L246.48 3.65Q246.48 2.1 247.25 0.63 248.03-0.85 249.6-2.13 251.18-3.4 253.63-4.35L253.63-4.35 256.28-1.45Q253.88-0.6 252.93 0.6 251.98 1.8 251.98 3.05L251.98 3.05Q251.98 4.35 252.8 5.23 253.63 6.1 255.05 6.55 256.48 7 258.28 7L258.28 7Q260.03 7 261.33 6.53 262.63 6.05 263.35 5.2 264.08 4.35 264.08 3.15L264.08 3.15Q264.08 1.65 263.03 0.73 261.98-0.2 258.88-0.4L258.88-0.4Q256.23-0.6 254.23-0.98 252.23-1.35 250.8-1.85 249.38-2.35 248.38-2.98 247.38-3.6 246.73-4.25L246.73-4.25 246.73-5.4 251.98-10.9 256.43-9.45 250.53-3.7 252.08-6.6Q252.58-6.25 253.1-5.95 253.63-5.65 254.45-5.43 255.28-5.2 256.63-5 257.98-4.8 260.13-4.6L260.13-4.6Q263.48-4.35 265.58-3.4 267.68-2.45 268.68-0.85 269.68 0.75 269.68 3L269.68 3Q269.68 5.2 268.45 7.15 267.23 9.1 264.73 10.35 262.23 11.6 258.33 11.6ZM258.33-7.55L258.33-7.55Q255.18-7.55 252.9-8.78 250.63-10 249.43-12.08 248.23-14.15 248.23-16.65L248.23-16.65Q248.23-19.2 249.43-21.25 250.63-23.3 252.9-24.55 255.18-25.8 258.33-25.8L258.33-25.8Q261.48-25.8 263.73-24.55 265.98-23.3 267.18-21.25 268.38-19.2 268.38-16.65L268.38-16.65Q268.38-14.15 267.18-12.08 265.98-10 263.73-8.78 261.48-7.55 258.33-7.55ZM258.33-12.2L258.33-12.2Q260.48-12.2 261.78-13.35 263.08-14.5 263.08-16.65L263.08-16.65Q263.08-18.8 261.78-19.93 260.48-21.05 258.33-21.05L258.33-21.05Q256.18-21.05 254.83-19.93 253.48-18.8 253.48-16.65L253.48-16.65Q253.48-14.5 254.83-13.35 256.18-12.2 258.33-12.2ZM271.68-21.4L262.48-20.8 261.33-25.2 271.68-25.2 271.68-21.4ZM324.32 0.6L324.32 0.6Q320.52 0.6 317.57-0.75 314.62-2.1 312.97-4.6 311.32-7.1 311.27-10.55L311.27-10.55 317.62-10.55Q317.62-8.8 318.44-7.43 319.27-6.05 320.74-5.25 322.22-4.45 324.32-4.45L324.32-4.45Q326.12-4.45 327.44-5.03 328.77-5.6 329.49-6.68 330.22-7.75 330.22-9.2L330.22-9.2Q330.22-10.85 329.44-11.93 328.67-13 327.32-13.75 325.97-14.5 324.22-15.08 322.47-15.65 320.52-16.3L320.52-16.3Q316.37-17.7 314.27-19.88 312.17-22.05 312.17-25.7L312.17-25.7Q312.17-28.75 313.62-30.95 315.07-33.15 317.69-34.38 320.32-35.6 323.77-35.6L323.77-35.6Q327.27-35.6 329.89-34.35 332.52-33.1 334.04-30.88 335.57-28.65 335.62-25.55L335.62-25.55 329.22-25.55Q329.17-26.85 328.52-27.98 327.87-29.1 326.64-29.83 325.42-30.55 323.67-30.55L323.67-30.55Q322.17-30.6 320.99-30.08 319.82-29.55 319.14-28.58 318.47-27.6 318.47-26.15L318.47-26.15Q318.47-24.75 319.09-23.83 319.72-22.9 320.92-22.28 322.12-21.65 323.72-21.1 325.32-20.55 327.22-19.9L327.22-19.9Q329.82-19.05 331.94-17.82 334.07-16.6 335.32-14.65 336.57-12.7 336.57-9.6L336.57-9.6Q336.57-6.9 335.17-4.58 333.77-2.25 331.07-0.83 328.37 0.6 324.32 0.6ZM359.82 0L353.82 0 353.82-25.2 359.12-25.2 359.62-21.75 359.62-21.75Q360.82-23.65 362.79-24.73 364.77-25.8 367.32-25.8L367.32-25.8Q369.22-25.8 370.74-25.3 372.27-24.8 373.44-23.8 374.62-22.8 375.37-21.3L375.37-21.3 375.37-21.3Q376.77-23.4 379.02-24.6 381.27-25.8 383.92-25.8L383.92-25.8Q387.07-25.8 389.27-24.53 391.47-23.25 392.62-20.78 393.77-18.3 393.77-14.7L393.77-14.7 393.77 0 387.82 0 387.82-14.1Q387.82-17.3 386.52-19 385.22-20.7 382.67-20.7L382.67-20.7Q380.92-20.7 379.59-19.85 378.27-19 377.52-17.38 376.77-15.75 376.77-13.4L376.77-13.4 376.77 0 370.82 0 370.82-14.1Q370.82-17.3 369.52-19 368.22-20.7 365.62-20.7L365.62-20.7Q363.97-20.7 362.64-19.85 361.32-19 360.57-17.38 359.82-15.75 359.82-13.4L359.82-13.4 359.82 0ZM420.11 0.6L420.11 0.6Q417.01 0.6 414.96-0.45 412.91-1.5 411.91-3.25 410.91-5 410.91-7.05L410.91-7.05Q410.91-9.45 412.14-11.2 413.36-12.95 415.76-13.93 418.16-14.9 421.66-14.9L421.66-14.9 428.01-14.9Q428.01-16.9 427.46-18.23 426.91-19.55 425.76-20.2 424.61-20.85 422.81-20.85L422.81-20.85Q420.76-20.85 419.31-19.93 417.86-19 417.51-17.1L417.51-17.1 411.61-17.1Q411.91-19.8 413.41-21.73 414.91-23.65 417.39-24.73 419.86-25.8 422.81-25.8L422.81-25.8Q426.36-25.8 428.86-24.58 431.36-23.35 432.69-21.08 434.01-18.8 434.01-15.6L434.01-15.6 434.01 0 428.91 0 428.31-4.05 428.31-4.05Q427.81-3.05 427.04-2.2 426.26-1.35 425.26-0.73 424.26-0.1 422.99 0.25 421.71 0.6 420.11 0.6ZM421.46-4.15L421.46-4.15Q422.91-4.15 424.04-4.67 425.16-5.2 425.99-6.18 426.81-7.15 427.26-8.35 427.71-9.55 427.86-10.9L427.86-10.9 427.86-11 422.31-11Q420.56-11 419.41-10.55 418.26-10.1 417.76-9.33 417.26-8.55 417.26-7.5L417.26-7.5Q417.26-6.45 417.76-5.7 418.26-4.95 419.21-4.55 420.16-4.15 421.46-4.15ZM458.01 0L452.01 0 452.01-25.2 457.36-25.2 457.91-20.5 457.91-20.5Q458.81-22.15 460.16-23.33 461.51-24.5 463.33-25.15 465.16-25.8 467.36-25.8L467.36-25.8 467.36-19.45 465.26-19.45Q463.76-19.45 462.41-19.07 461.06-18.7 460.08-17.88 459.11-17.05 458.56-15.63 458.01-14.2 458.01-12.05L458.01-12.05 458.01 0ZM498.71 0L494.41 0Q491.86 0 489.98-0.8 488.11-1.6 487.06-3.45 486.01-5.3 486.01-8.45L486.01-8.45 486.01-20.15 481.71-20.15 481.71-25.2 486.01-25.2 486.71-31.85 492.01-31.85 492.01-25.2 498.86-25.2 498.86-20.15 492.01-20.15 492.01-8.45Q492.01-6.55 492.83-5.83 493.66-5.1 495.61-5.1L495.61-5.1 498.71-5.1 498.71 0ZM527.25 0.6L527.25 0.6Q523.5 0.6 520.65-1.03 517.8-2.65 516.2-5.6 514.6-8.55 514.6-12.4L514.6-12.4Q514.6-16.4 516.18-19.4 517.75-22.4 520.63-24.1 523.5-25.8 527.3-25.8L527.3-25.8Q531-25.8 533.75-24.15 536.5-22.5 538-19.73 539.5-16.95 539.5-13.5L539.5-13.5Q539.5-13 539.5-12.4 539.5-11.8 539.4-11.15L539.4-11.15 518.9-11.15 518.9-15 533.45-15Q533.35-17.75 531.6-19.33 529.85-20.9 527.25-20.9L527.25-20.9Q525.4-20.9 523.85-20.05 522.3-19.2 521.4-17.53 520.5-15.85 520.5-13.3L520.5-13.3 520.5-11.85Q520.5-9.5 521.38-7.8 522.25-6.1 523.78-5.23 525.3-4.35 527.2-4.35L527.2-4.35Q529.3-4.35 530.68-5.25 532.05-6.15 532.7-7.65L532.7-7.65 538.8-7.65Q538.1-5.3 536.5-3.43 534.9-1.55 532.55-0.48 530.2 0.6 527.25 0.6ZM562.65 0L556.65 0 556.65-25.2 562-25.2 562.55-20.5 562.55-20.5Q563.45-22.15 564.8-23.33 566.15-24.5 567.97-25.15 569.8-25.8 572-25.8L572-25.8 572-19.45 569.9-19.45Q568.4-19.45 567.05-19.07 565.7-18.7 564.72-17.88 563.75-17.05 563.2-15.63 562.65-14.2 562.65-12.05L562.65-12.05 562.65 0ZM623.84 0.6L623.84 0.6Q620.04 0.6 617.09-0.75 614.14-2.1 612.49-4.6 610.84-7.1 610.79-10.55L610.79-10.55 617.14-10.55Q617.14-8.8 617.97-7.43 618.79-6.05 620.27-5.25 621.74-4.45 623.84-4.45L623.84-4.45Q625.64-4.45 626.97-5.03 628.29-5.6 629.02-6.68 629.74-7.75 629.74-9.2L629.74-9.2Q629.74-10.85 628.97-11.93 628.19-13 626.84-13.75 625.49-14.5 623.74-15.08 621.99-15.65 620.04-16.3L620.04-16.3Q615.89-17.7 613.79-19.88 611.69-22.05 611.69-25.7L611.69-25.7Q611.69-28.75 613.14-30.95 614.59-33.15 617.22-34.38 619.84-35.6 623.29-35.6L623.29-35.6Q626.79-35.6 629.42-34.35 632.04-33.1 633.57-30.88 635.09-28.65 635.14-25.55L635.14-25.55 628.74-25.55Q628.69-26.85 628.04-27.98 627.39-29.1 626.17-29.83 624.94-30.55 623.19-30.55L623.19-30.55Q621.69-30.6 620.52-30.08 619.34-29.55 618.67-28.58 617.99-27.6 617.99-26.15L617.99-26.15Q617.99-24.75 618.62-23.83 619.24-22.9 620.44-22.28 621.64-21.65 623.24-21.1 624.84-20.55 626.74-19.9L626.74-19.9Q629.34-19.05 631.47-17.82 633.59-16.6 634.84-14.65 636.09-12.7 636.09-9.6L636.09-9.6Q636.09-6.9 634.69-4.58 633.29-2.25 630.59-0.83 627.89 0.6 623.84 0.6ZM665.09 0.6L665.09 0.6Q661.49 0.6 658.61-1.07 655.74-2.75 654.11-5.73 652.49-8.7 652.49-12.55L652.49-12.55Q652.49-16.5 654.14-19.48 655.79-22.45 658.66-24.13 661.54-25.8 665.14-25.8L665.14-25.8Q668.74-25.8 671.61-24.13 674.49-22.45 676.11-19.5 677.74-16.55 677.74-12.6L677.74-12.6Q677.74-8.65 676.09-5.7 674.44-2.75 671.56-1.07 668.69 0.6 665.09 0.6ZM665.09-4.55L665.09-4.55Q666.89-4.55 668.36-5.45 669.84-6.35 670.74-8.15 671.64-9.95 671.64-12.6L671.64-12.6Q671.64-15.25 670.76-17.03 669.89-18.8 668.41-19.7 666.94-20.6 665.14-20.6L665.14-20.6Q663.39-20.6 661.89-19.7 660.39-18.8 659.49-17.03 658.59-15.25 658.59-12.6L658.59-12.6Q658.59-9.95 659.49-8.15 660.39-6.35 661.86-5.45 663.34-4.55 665.09-4.55ZM701.19 0L695.19 0 695.19-36 701.19-36 701.19 0ZM728.83 0.6L728.83 0.6Q725.78 0.6 723.61-0.63 721.43-1.85 720.28-4.33 719.13-6.8 719.13-10.45L719.13-10.45 719.13-25.2 725.13-25.2 725.13-11.05Q725.13-7.8 726.51-6.13 727.88-4.45 730.68-4.45L730.68-4.45Q732.48-4.45 733.91-5.3 735.33-6.15 736.16-7.78 736.98-9.4 736.98-11.75L736.98-11.75 736.98-25.2 742.98-25.2 742.98 0 737.68 0 737.23-4.2 737.23-4.2Q736.08-2 733.91-0.7 731.73 0.6 728.83 0.6ZM776.53 0L772.23 0Q769.68 0 767.8-0.8 765.93-1.6 764.88-3.45 763.83-5.3 763.83-8.45L763.83-8.45 763.83-20.15 759.53-20.15 759.53-25.2 763.83-25.2 764.53-31.85 769.83-31.85 769.83-25.2 776.68-25.2 776.68-20.15 769.83-20.15 769.83-8.45Q769.83-6.55 770.65-5.83 771.48-5.1 773.43-5.1L773.43-5.1 776.53-5.1 776.53 0ZM800.18 0L794.18 0 794.18-25.2 800.18-25.2 800.18 0ZM797.18-29.2L797.18-29.2Q795.53-29.2 794.45-30.23 793.38-31.25 793.38-32.75L793.38-32.75Q793.38-34.3 794.45-35.27 795.53-36.25 797.18-36.25L797.18-36.25Q798.83-36.25 799.9-35.27 800.98-34.3 800.98-32.75L800.98-32.75Q800.98-31.25 799.9-30.23 798.83-29.2 797.18-29.2ZM830.47 0.6L830.47 0.6Q826.87 0.6 824-1.07 821.12-2.75 819.5-5.73 817.87-8.7 817.87-12.55L817.87-12.55Q817.87-16.5 819.52-19.48 821.17-22.45 824.05-24.13 826.92-25.8 830.52-25.8L830.52-25.8Q834.12-25.8 837-24.13 839.87-22.45 841.5-19.5 843.12-16.55 843.12-12.6L843.12-12.6Q843.12-8.65 841.47-5.7 839.82-2.75 836.95-1.07 834.07 0.6 830.47 0.6ZM830.47-4.55L830.47-4.55Q832.27-4.55 833.75-5.45 835.22-6.35 836.12-8.15 837.02-9.95 837.02-12.6L837.02-12.6Q837.02-15.25 836.15-17.03 835.27-18.8 833.8-19.7 832.32-20.6 830.52-20.6L830.52-20.6Q828.77-20.6 827.27-19.7 825.77-18.8 824.87-17.03 823.97-15.25 823.97-12.6L823.97-12.6Q823.97-9.95 824.87-8.15 825.77-6.35 827.25-5.45 828.72-4.55 830.47-4.55ZM866.57 0L860.57 0 860.57-25.2 865.87-25.2 866.32-21 866.32-21Q867.47-23.2 869.62-24.5 871.77-25.8 874.72-25.8L874.72-25.8Q877.77-25.8 879.92-24.53 882.07-23.25 883.24-20.8 884.42-18.35 884.42-14.7L884.42-14.7 884.42 0 878.42 0 878.42-14.15Q878.42-17.3 877.02-19 875.62-20.7 872.87-20.7L872.87-20.7Q871.07-20.7 869.64-19.85 868.22-19 867.39-17.38 866.57-15.75 866.57-13.45L866.57-13.45 866.57 0ZM912.42 0.6L912.42 0.6Q909.07 0.6 906.59-0.48 904.12-1.55 902.69-3.48 901.27-5.4 901.02-7.9L901.02-7.9 907.02-7.9Q907.27-6.85 907.92-5.98 908.57-5.1 909.69-4.6 910.82-4.1 912.37-4.1L912.37-4.1Q913.87-4.1 914.82-4.53 915.77-4.95 916.22-5.65 916.67-6.35 916.67-7.15L916.67-7.15Q916.67-8.35 916.02-9 915.37-9.65 914.14-10.03 912.92-10.4 911.22-10.75L911.22-10.75Q909.42-11.1 907.74-11.63 906.07-12.15 904.74-12.95 903.42-13.75 902.64-15 901.87-16.25 901.87-18.05L901.87-18.05Q901.87-20.25 903.04-22 904.22-23.75 906.44-24.78 908.67-25.8 911.77-25.8L911.77-25.8Q916.17-25.8 918.79-23.78 921.42-21.75 921.87-18.1L921.87-18.1 916.17-18.1Q915.92-19.5 914.77-20.28 913.62-21.05 911.72-21.05L911.72-21.05Q909.77-21.05 908.74-20.33 907.72-19.6 907.72-18.4L907.72-18.4Q907.72-17.6 908.34-17 908.97-16.4 910.17-15.98 911.37-15.55 913.12-15.15L913.12-15.15Q915.92-14.6 918.07-13.85 920.22-13.1 921.47-11.65 922.72-10.2 922.72-7.55L922.72-7.55Q922.77-5.15 921.49-3.3 920.22-1.45 917.92-0.43 915.62 0.6 912.42 0.6ZM978.21 0L972.26 0 972.26-30.15 961.96-30.15 961.96-35 988.51-35 988.51-30.15 978.21-30.15 978.21 0ZM1010.86 0L1004.86 0 1004.86-36 1010.86-36 1010.86-21.3 1010.86-21.3Q1012.11-23.35 1014.26-24.58 1016.41-25.8 1019.11-25.8L1019.11-25.8Q1022.21-25.8 1024.36-24.53 1026.51-23.25 1027.63-20.78 1028.76-18.3 1028.76-14.6L1028.76-14.6 1028.76 0 1022.81 0 1022.81-14.05Q1022.81-17.3 1021.43-19 1020.06-20.7 1017.26-20.7L1017.26-20.7Q1015.46-20.7 1014.01-19.83 1012.56-18.95 1011.71-17.32 1010.86-15.7 1010.86-13.35L1010.86-13.35 1010.86 0ZM1052.7 0L1046.7 0 1046.7-25.2 1052.05-25.2 1052.6-20.5 1052.6-20.5Q1053.5-22.15 1054.85-23.33 1056.2-24.5 1058.03-25.15 1059.85-25.8 1062.05-25.8L1062.05-25.8 1062.05-19.45 1059.95-19.45Q1058.45-19.45 1057.1-19.07 1055.75-18.7 1054.78-17.88 1053.8-17.05 1053.25-15.63 1052.7-14.2 1052.7-12.05L1052.7-12.05 1052.7 0ZM1089.35 0.6L1089.35 0.6Q1085.75 0.6 1082.87-1.07 1080-2.75 1078.37-5.73 1076.75-8.7 1076.75-12.55L1076.75-12.55Q1076.75-16.5 1078.4-19.48 1080.05-22.45 1082.92-24.13 1085.8-25.8 1089.4-25.8L1089.4-25.8Q1093-25.8 1095.87-24.13 1098.75-22.45 1100.37-19.5 1102-16.55 1102-12.6L1102-12.6Q1102-8.65 1100.35-5.7 1098.7-2.75 1095.82-1.07 1092.95 0.6 1089.35 0.6ZM1089.35-4.55L1089.35-4.55Q1091.15-4.55 1092.62-5.45 1094.1-6.35 1095-8.15 1095.9-9.95 1095.9-12.6L1095.9-12.6Q1095.9-15.25 1095.02-17.03 1094.15-18.8 1092.67-19.7 1091.2-20.6 1089.4-20.6L1089.4-20.6Q1087.65-20.6 1086.15-19.7 1084.65-18.8 1083.75-17.03 1082.85-15.25 1082.85-12.6L1082.85-12.6Q1082.85-9.95 1083.75-8.15 1084.65-6.35 1086.12-5.45 1087.6-4.55 1089.35-4.55ZM1128.8 0.6L1128.8 0.6Q1125.75 0.6 1123.57-0.63 1121.4-1.85 1120.25-4.33 1119.1-6.8 1119.1-10.45L1119.1-10.45 1119.1-25.2 1125.1-25.2 1125.1-11.05Q1125.1-7.8 1126.47-6.13 1127.85-4.45 1130.65-4.45L1130.65-4.45Q1132.45-4.45 1133.87-5.3 1135.3-6.15 1136.12-7.78 1136.95-9.4 1136.95-11.75L1136.95-11.75 1136.95-25.2 1142.95-25.2 1142.95 0 1137.65 0 1137.2-4.2 1137.2-4.2Q1136.05-2 1133.87-0.7 1131.7 0.6 1128.8 0.6ZM1171.84 11.6L1171.84 11.6Q1168.29 11.6 1165.62 10.73 1162.94 9.85 1161.47 8.08 1159.99 6.3 1159.99 3.65L1159.99 3.65Q1159.99 2.1 1160.77 0.63 1161.54-0.85 1163.12-2.13 1164.69-3.4 1167.14-4.35L1167.14-4.35 1169.79-1.45Q1167.39-0.6 1166.44 0.6 1165.49 1.8 1165.49 3.05L1165.49 3.05Q1165.49 4.35 1166.32 5.23 1167.14 6.1 1168.57 6.55 1169.99 7 1171.79 7L1171.79 7Q1173.54 7 1174.84 6.53 1176.14 6.05 1176.87 5.2 1177.59 4.35 1177.59 3.15L1177.59 3.15Q1177.59 1.65 1176.54 0.73 1175.49-0.2 1172.39-0.4L1172.39-0.4Q1169.74-0.6 1167.74-0.98 1165.74-1.35 1164.32-1.85 1162.89-2.35 1161.89-2.98 1160.89-3.6 1160.24-4.25L1160.24-4.25 1160.24-5.4 1165.49-10.9 1169.94-9.45 1164.04-3.7 1165.59-6.6Q1166.09-6.25 1166.62-5.95 1167.14-5.65 1167.97-5.43 1168.79-5.2 1170.14-5 1171.49-4.8 1173.64-4.6L1173.64-4.6Q1176.99-4.35 1179.09-3.4 1181.19-2.45 1182.19-0.85 1183.19 0.75 1183.19 3L1183.19 3Q1183.19 5.2 1181.97 7.15 1180.74 9.1 1178.24 10.35 1175.74 11.6 1171.84 11.6ZM1171.84-7.55L1171.84-7.55Q1168.69-7.55 1166.42-8.78 1164.14-10 1162.94-12.08 1161.74-14.15 1161.74-16.65L1161.74-16.65Q1161.74-19.2 1162.94-21.25 1164.14-23.3 1166.42-24.55 1168.69-25.8 1171.84-25.8L1171.84-25.8Q1174.99-25.8 1177.24-24.55 1179.49-23.3 1180.69-21.25 1181.89-19.2 1181.89-16.65L1181.89-16.65Q1181.89-14.15 1180.69-12.08 1179.49-10 1177.24-8.78 1174.99-7.55 1171.84-7.55ZM1171.84-12.2L1171.84-12.2Q1173.99-12.2 1175.29-13.35 1176.59-14.5 1176.59-16.65L1176.59-16.65Q1176.59-18.8 1175.29-19.93 1173.99-21.05 1171.84-21.05L1171.84-21.05Q1169.69-21.05 1168.34-19.93 1166.99-18.8 1166.99-16.65L1166.99-16.65Q1166.99-14.5 1168.34-13.35 1169.69-12.2 1171.84-12.2ZM1185.19-21.4L1175.99-20.8 1174.84-25.2 1185.19-25.2 1185.19-21.4ZM1208.09 0L1202.09 0 1202.09-36 1208.09-36 1208.09-21.3 1208.09-21.3Q1209.34-23.35 1211.49-24.58 1213.64-25.8 1216.34-25.8L1216.34-25.8Q1219.44-25.8 1221.59-24.53 1223.74-23.25 1224.86-20.78 1225.99-18.3 1225.99-14.6L1225.99-14.6 1225.99 0 1220.04 0 1220.04-14.05Q1220.04-17.3 1218.66-19 1217.29-20.7 1214.49-20.7L1214.49-20.7Q1212.69-20.7 1211.24-19.83 1209.79-18.95 1208.94-17.32 1208.09-15.7 1208.09-13.35L1208.09-13.35 1208.09 0ZM1271.88 0L1265.63 0 1278.43-35 1285.13-35 1297.93 0 1291.58 0 1281.73-28 1281.73-28 1271.88 0ZM1291.78-8.25L1271.33-8.25 1272.93-13 1290.18-13 1291.78-8.25ZM1320.33 0L1314.33 0 1314.33-35 1320.33-35 1320.33 0Z" opacity="1" transform="matrix(1,0,0,1,0,0)" fill="#00cc66" class="slogan-text-1" data-fill-palette-color="secondary" id="text-1"></path></svg></g></svg></g></svg></g></svg></g><g><svg viewBox="0 0 87.20454113605727 65.5529637959374" height="65.5529637959374" width="87.20454113605727"><g><svg xmlns="http://www.w3.org/2000/svg" xmlns:xlink="http://www.w3.org/1999/xlink" version="1.1" x="8" y="0" viewBox="9.398 12.34 80.1930005690853 73.828" enable-background="new 0 0 100 100" xml:space="preserve" height="65.5529637959374" width="71.20454113605727" class="icon-icon-0" data-fill-palette-color="accent" id="icon-0"><g fill="#00cc66" data-fill-palette-color="accent"><path d="M55.894 49.046V51.038C55.894 53.547 57.036 54.713 59.222 54.713H61.979C64.585 54.713 66.358 56.832 66.358 59.088V61.406C66.358 63.915 65.221 65.427 62.563 65.427H59.367C56.571 65.427 55.114 64.149 55.114 61.538V59.38C55.114 57.321 53.635 55.97 51.833 55.97H47.074C44.694 55.97 44.115 57.578 44.115 59.38V63.629C44.115 65.881 45.466 66.653 47.203 66.653H50.134C53.444 66.653 55.034 68.105 55.034 70.423V72.024C55.034 74.658 56.532 75.656 58.915 75.656H63.83C66.263 75.656 67.452 74.372 67.452 72.177V70.381C67.452 67.358 69.128 66.393 72.345 66.393H75.729C77.595 66.393 78.454 65.235 78.454 63.691V57.451C78.454 55.393 77.296 54.428 75.045 54.428H70.991C68.572 54.428 66.403 52.599 66.403 49.218V47.226C66.403 44.717 65.261 43.551 63.074 43.551H60.317C57.711 43.551 55.938 41.433 55.938 39.177V36.859C55.938 34.35 57.076 32.838 59.734 32.838H62.929C65.725 32.838 67.183 34.116 67.183 36.727V38.885C67.183 40.944 68.662 42.294 70.464 42.294H75.222C77.602 42.294 78.181 40.686 78.181 38.885V34.636C78.181 32.385 76.83 31.613 75.093 31.613H72.162C68.852 31.613 67.262 30.161 67.262 27.843V26.327C67.262 23.694 65.837 22.61 63.454 22.61H58.466C56.033 22.61 54.844 23.894 54.844 26.09V27.885C54.844 30.908 53.168 31.873 49.951 31.873H46.566C44.701 31.873 43.842 33.031 43.842 34.575V40.815C43.842 42.874 44.999 43.839 47.252 43.839H51.304C53.725 43.836 55.894 45.665 55.894 49.046" fill="#00cc66" data-fill-palette-color="accent"></path><path d="M86.07 54.482A3.52 3.52 0 0 0 89.591 50.961V48.273A3.52 3.52 0 0 0 86.07 44.751H83.382A3.52 3.52 0 0 0 79.861 48.273V50.961A3.52 3.52 0 0 0 83.382 54.482z" fill="#00cc66" data-fill-palette-color="accent"></path><path d="M36.547 31.871H39.555C41.806 31.871 42.964 30.906 42.964 28.848V26.874C43.077 23.68 45.188 22.216 47.542 22.216H50.55C52.803 22.216 53.96 21.251 53.96 19.193V15.042C53.96 13.498 53.102 12.34 51.236 12.34H45.541C43.695 12.34 42.91 13.195 42.91 15.122V17.556C42.91 19.751 41.229 21.809 38.739 21.92H34.545C32.7 21.92 31.914 22.775 31.914 24.702V27.21C31.914 29.466 30.143 31.585 27.535 31.585H24.778C22.59 31.585 21.449 32.75 21.449 35.259V38.33C21.449 41.711 19.281 43.54 16.861 43.54H12.807C10.556 43.54 9.398 44.505 9.398 46.563V53.329C9.398 55.388 10.556 56.352 12.807 56.352H16.861C19.281 56.352 21.449 57.401 21.449 60.783V63.195C21.449 65.704 22.591 66.869 24.778 66.869H27.535C30.142 66.869 31.914 68.988 31.914 71.244V73.783C31.914 75.71 32.7 76.565 34.545 76.565H38.758L38.737 76.589C41.228 76.699 42.908 78.758 42.908 80.953V83.386C42.908 85.313 43.693 86.168 45.539 86.168H51.233C53.099 86.168 53.958 85.01 53.958 83.466V79.315C53.958 77.256 52.8 76.291 50.549 76.291H47.54C45.192 76.291 43.087 74.834 42.964 71.658V69.605C42.964 67.546 41.806 66.582 39.555 66.582H36.547C34.126 66.582 31.957 64.754 31.957 61.373V59.74C31.957 57.231 33.1 56.066 35.287 56.066H38.043C40.65 56.066 42.423 53.947 42.423 51.691V48.2C42.423 45.944 40.651 43.825 38.043 43.825H35.287C33.099 43.825 31.957 42.659 31.957 40.151V36.791C31.957 33.411 34.126 31.871 36.547 31.871" fill="#00cc66" data-fill-palette-color="accent"></path></g></svg></g></svg></g></svg></g><defs></defs></svg><rect width="395.52" height="52.72088806637655" fill="none" stroke="none" visibility="hidden"></rect></g></svg></g></svg>