<svg xmlns="http://www.w3.org/2000/svg" version="1.1" xmlns:xlink="http://www.w3.org/1999/xlink" xmlns:svgjs="http://svgjs.dev/svgjs" width="2000" height="328" viewBox="0 0 2000 328"><g transform="matrix(1,0,0,1,-1.2121212121212466,-1.1458580582533102)"><svg viewBox="0 0 396 65" data-background-color="#121212" preserveAspectRatio="xMidYMid meet" height="328" width="2000" xmlns="http://www.w3.org/2000/svg" xmlns:xlink="http://www.w3.org/1999/xlink"><g id="tight-bounds" transform="matrix(1,0,0,1,0.2400000000000091,0.2270755298367817)"><svg viewBox="0 0 395.52 64.54584894032642" height="64.54584894032642" width="395.52"><g><svg viewBox="0 0 569.1858493925365 92.88679170171432" height="64.54584894032642" width="395.52"><g transform="matrix(1,0,0,1,173.66584939253653,21.364343292993176)"><svg viewBox="0 0 395.52 50.15810511572796" height="50.15810511572796" width="395.52"><g id="textblocktransform"><svg viewBox="0 0 395.52 50.15810511572796" height="50.15810511572796" width="395.52" id="textblock"><g><svg viewBox="0 0 395.52 24.35885138539043" height="24.35885138539043" width="395.52"><g transform="matrix(1,0,0,1,0,0)"><svg width="395.52" viewBox="-3.75 -39.05 794.93 49.9" height="24.35885138539043" data-palette-color="#ffffff"><path d="M10.5-34.45L10.5-4.8Q10.5 0.3 8.28 2.85 6.05 5.4 1.5 6.85L1.5 6.85 0.25 3.4Q2.55 2.5 3.7 1.45 4.85 0.4 5.3-1.1 5.75-2.6 5.75-5L5.75-5 5.75-34.45 10.5-34.45ZM32.55-35.05Q36.9-35.05 40.17-32.98 43.45-30.9 45.27-26.9 47.1-22.9 47.1-17.2L47.1-17.2Q47.1-11.6 45.27-7.6 43.45-3.6 40.17-1.5 36.9 0.6 32.55 0.6L32.55 0.6Q28.2 0.6 24.92-1.45 21.65-3.5 19.82-7.5 18-11.5 18-17.15L18-17.15Q18-22.7 19.82-26.75 21.65-30.8 24.95-32.93 28.25-35.05 32.55-35.05L32.55-35.05ZM32.55-31.15Q28.05-31.15 25.55-27.75 23.05-24.35 23.05-17.15L23.05-17.15Q23.05-10 25.57-6.65 28.1-3.3 32.55-3.3L32.55-3.3Q42.05-3.3 42.05-17.2L42.05-17.2Q42.05-31.15 32.55-31.15L32.55-31.15ZM54.85-34.45L73.5-34.45 72.95-30.65 59.6-30.65 59.6-19.4 71.2-19.4 71.2-15.6 59.6-15.6 59.6-3.8 73.9-3.8 73.9 0 54.85 0 54.85-34.45ZM122.79-34.45L125.64 0 121.04 0 119.84-15.55Q119.09-24.7 118.99-29.6L118.99-29.6 111.54-3.9 107.09-3.9 99.24-29.65Q99.24-23.4 98.59-15.2L98.59-15.2 97.44 0 92.94 0 95.79-34.45 102.19-34.45 109.44-9.4 116.34-34.45 122.79-34.45ZM133.74-34.45L152.39-34.45 151.84-30.65 138.49-30.65 138.49-19.4 150.09-19.4 150.09-15.6 138.49-15.6 138.49-3.8 152.79-3.8 152.79 0 133.74 0 133.74-34.45ZM184.64-34.45L184.64 0 178.29 0 164.29-29.25Q164.59-25.8 164.76-22.88 164.94-19.95 164.94-15.8L164.94-15.8 164.94 0 160.49 0 160.49-34.45 166.69-34.45 180.84-5.15Q180.69-6.45 180.44-9.7 180.19-12.95 180.19-15.65L180.19-15.65 180.19-34.45 184.64-34.45ZM201.83-34.45Q209.63-34.45 214.36-30.83 219.08-27.2 219.08-17.4L219.08-17.4Q219.08-7.85 214.36-3.93 209.63 0 202.88 0L202.88 0 194.63 0 194.63-34.45 201.83-34.45ZM202.88-30.65L199.38-30.65 199.38-3.75 203.23-3.75Q208.03-3.75 211.03-6.7 214.03-9.65 214.03-17.4L214.03-17.4Q214.03-22.85 212.48-25.78 210.93-28.7 208.53-29.68 206.13-30.65 202.88-30.65L202.88-30.65ZM226.83-34.45L245.48-34.45 244.93-30.65 231.58-30.65 231.58-19.4 243.18-19.4 243.18-15.6 231.58-15.6 231.58-3.8 245.88-3.8 245.88 0 226.83 0 226.83-34.45ZM251.88-34.45L272.43-34.45 272.43-30.6 255.38-4.05 272.43-4.05 271.88 0 250.08 0 250.08-3.8 267.28-30.45 251.88-30.45 251.88-34.45ZM291.83-13.7L277.68-13.7 277.68-17.6 291.83-17.6 291.83-13.7ZM323.82 0L319.07 0 319.07-16.15 304.57-16.15 304.57 0 299.82 0 299.82-34.45 304.57-34.45 304.57-20.05 319.07-20.05 319.07-34.45 323.82-34.45 323.82 0ZM357.42-34.45L357.42-11.05Q357.42-7.6 356-4.98 354.57-2.35 351.85-0.88 349.12 0.6 345.32 0.6L345.32 0.6Q339.57 0.6 336.45-2.58 333.32-5.75 333.32-11.05L333.32-11.05 333.32-34.45 338.07-34.45 338.07-11.4Q338.07-7.4 339.87-5.4 341.67-3.4 345.32-3.4L345.32-3.4Q349.02-3.4 350.82-5.38 352.62-7.35 352.62-11.4L352.62-11.4 352.62-34.45 357.42-34.45ZM379.62-35.05Q382.87-35.05 385.24-34.13 387.62-33.2 389.97-31.25L389.97-31.25 387.17-28.35Q385.32-29.85 383.62-30.5 381.92-31.15 379.62-31.15L379.62-31.15Q376.97-31.15 374.74-29.73 372.52-28.3 371.12-25.18 369.72-22.05 369.72-17.25L369.72-17.25Q369.72-10 372.09-6.65 374.47-3.3 379.12-3.3L379.12-3.3Q382.92-3.3 385.67-4.85L385.67-4.85 385.67-15.25 379.57-15.25 379.02-19.1 390.37-19.1 390.37-2.45Q385.02 0.6 379.12 0.6L379.12 0.6Q372.32 0.6 368.49-3.95 364.67-8.5 364.67-17.25L364.67-17.25Q364.67-22.85 366.69-26.88 368.72-30.9 372.14-32.98 375.57-35.05 379.62-35.05L379.62-35.05ZM422.47 0L417.72 0 417.72-16.15 403.22-16.15 403.22 0 398.47 0 398.47-34.45 403.22-34.45 403.22-20.05 417.72-20.05 417.72-34.45 422.47-34.45 422.47 0ZM432.46-34.45L451.11-34.45 450.56-30.65 437.21-30.65 437.21-19.4 448.81-19.4 448.81-15.6 437.21-15.6 437.21-3.8 451.51-3.8 451.51 0 432.46 0 432.46-34.45ZM467.71-35.05Q471.16-35.05 473.61-34.08 476.06-33.1 478.36-31.05L478.36-31.05 475.76-28.15Q473.81-29.7 471.94-30.43 470.06-31.15 467.91-31.15L467.91-31.15Q465.21-31.15 463.46-29.9 461.71-28.65 461.71-26.25L461.71-26.25Q461.71-24.75 462.31-23.73 462.91-22.7 464.54-21.85 466.16-21 469.26-20.05L469.26-20.05Q472.51-19.05 474.66-17.9 476.81-16.75 478.14-14.73 479.46-12.7 479.46-9.6L479.46-9.6Q479.46-6.6 477.99-4.3 476.51-2 473.74-0.7 470.96 0.6 467.16 0.6L467.16 0.6Q460.01 0.6 455.46-3.85L455.46-3.85 458.06-6.75Q460.16-5.05 462.31-4.17 464.46-3.3 467.11-3.3L467.11-3.3Q470.31-3.3 472.41-4.88 474.51-6.45 474.51-9.45L474.51-9.45Q474.51-11.15 473.86-12.28 473.21-13.4 471.64-14.3 470.06-15.2 467.06-16.1L467.06-16.1Q461.76-17.7 459.31-19.95 456.86-22.2 456.86-26.05L456.86-26.05Q456.86-28.65 458.24-30.7 459.61-32.75 462.09-33.9 464.56-35.05 467.71-35.05L467.71-35.05ZM487.41-6.35Q488.91-6.35 489.91-5.35 490.91-4.35 490.91-2.9L490.91-2.9Q490.91-1.45 489.91-0.43 488.91 0.6 487.41 0.6L487.41 0.6Q485.96 0.6 484.96-0.43 483.96-1.45 483.96-2.9L483.96-2.9Q483.96-4.35 484.96-5.35 485.96-6.35 487.41-6.35L487.41-6.35ZM487.41-24.75Q488.91-24.75 489.91-23.75 490.91-22.75 490.91-21.3L490.91-21.3Q490.91-19.85 489.91-18.82 488.91-17.8 487.41-17.8L487.41-17.8Q485.96-17.8 484.96-18.82 483.96-19.85 483.96-21.3L483.96-21.3Q483.96-22.75 484.96-23.75 485.96-24.75 487.41-24.75L487.41-24.75ZM535.05 0L530.05 0 527.45-8.65 514.4-8.65 511.8 0 507 0 518.05-34.45 524.05-34.45 535.05 0ZM520.95-30.5L515.55-12.5 526.3-12.5 520.95-30.5ZM540.35-34.45L545.1-34.45 545.1 0 540.35 0 540.35-34.45ZM568.34-34.45L586.99-34.45 586.44-30.65 573.09-30.65 573.09-19.4 584.69-19.4 584.69-15.6 573.09-15.6 573.09-3.8 587.39-3.8 587.39 0 568.34 0 568.34-34.45ZM619.24-34.45L619.24 0 612.89 0 598.89-29.25Q599.19-25.8 599.37-22.88 599.54-19.95 599.54-15.8L599.54-15.8 599.54 0 595.09 0 595.09-34.45 601.29-34.45 615.44-5.15Q615.29-6.45 615.04-9.7 614.79-12.95 614.79-15.65L614.79-15.65 614.79-34.45 619.24-34.45ZM641.94-35.05Q645.19-35.05 647.56-34.13 649.94-33.2 652.29-31.25L652.29-31.25 649.49-28.35Q647.64-29.85 645.94-30.5 644.24-31.15 641.94-31.15L641.94-31.15Q639.29-31.15 637.06-29.73 634.84-28.3 633.44-25.18 632.04-22.05 632.04-17.25L632.04-17.25Q632.04-10 634.41-6.65 636.79-3.3 641.44-3.3L641.44-3.3Q645.24-3.3 647.99-4.85L647.99-4.85 647.99-15.25 641.89-15.25 641.34-19.1 652.69-19.1 652.69-2.45Q647.34 0.6 641.44 0.6L641.44 0.6Q634.64 0.6 630.81-3.95 626.99-8.5 626.99-17.25L626.99-17.25Q626.99-22.85 629.01-26.88 631.04-30.9 634.46-32.98 637.89-35.05 641.94-35.05L641.94-35.05ZM660.79-34.45L665.54-34.45 665.54 0 660.79 0 660.79-34.45ZM699.68-34.45L699.68 0 693.33 0 679.33-29.25Q679.63-25.8 679.81-22.88 679.98-19.95 679.98-15.8L679.98-15.8 679.98 0 675.53 0 675.53-34.45 681.73-34.45 695.88-5.15Q695.73-6.45 695.48-9.7 695.23-12.95 695.23-15.65L695.23-15.65 695.23-34.45 699.68-34.45ZM709.68-34.45L728.33-34.45 727.78-30.65 714.43-30.65 714.43-19.4 726.03-19.4 726.03-15.6 714.43-15.6 714.43-3.8 728.73-3.8 728.73 0 709.68 0 709.68-34.45ZM736.43-34.45L755.08-34.45 754.53-30.65 741.18-30.65 741.18-19.4 752.78-19.4 752.78-15.6 741.18-15.6 741.18-3.8 755.48-3.8 755.48 0 736.43 0 736.43-34.45ZM781.53 0L773.28-14.6 767.93-14.6 767.93 0 763.18 0 763.18-34.45 772.23-34.45Q778.68-34.45 782-32 785.33-29.55 785.33-24.7L785.33-24.7Q785.33-21.1 783.48-18.85 781.63-16.6 777.88-15.45L777.88-15.45 787.18 0 781.53 0ZM767.93-18.25L772.73-18.25Q776.48-18.25 778.38-19.78 780.28-21.3 780.28-24.7L780.28-24.7Q780.28-27.9 778.35-29.33 776.43-30.75 772.18-30.75L772.18-30.75 767.93-30.75 767.93-18.25Z" opacity="1" transform="matrix(1,0,0,1,0,0)" fill="#ffffff" class="wordmark-text-0" data-fill-palette-color="primary" id="text-0"></path></svg></g></svg></g><g transform="matrix(1,0,0,1,3.5,29.286205871395467)"><svg viewBox="0 0 388.52 20.871899244332496" height="20.871899244332496" width="388.52"><g transform="matrix(1,0,0,1,0,0)"><svg width="388.52" viewBox="-4.05 -43 1061.12 57.8" height="20.871899244332496" data-palette-color="#76bb02"><path d="M16.2-35.05Q19.45-35.05 21.9-34 24.35-32.95 26.35-30.9L26.35-30.9 23.4-28.15Q21.8-29.75 20.08-30.45 18.35-31.15 16.2-31.15L16.2-31.15Q13.15-31.15 11.15-29.65 9.15-28.15 9.15-25.55L9.15-25.55Q9.15-23.55 10.5-22.35 11.85-21.15 15.6-19.9L15.6-19.9Q19.9-18.55 22.25-16.5 24.6-14.45 24.6-10.45L24.6-10.45Q24.6-7.65 23.13-5.13 21.65-2.6 18.63-1 15.6 0.6 11.1 0.6L11.1 0.6Q4 0.6-0.05-4L-0.05-4 2.95-6.8Q4.55-5.05 6.55-4.17 8.55-3.3 11.2-3.3L11.2-3.3Q15.05-3.3 17.38-5.18 19.7-7.05 19.7-10.2L19.7-10.2Q19.7-12.4 18.32-13.68 16.95-14.95 13.35-16.2L13.35-16.2Q8.65-17.85 6.5-19.83 4.35-21.8 4.35-25.3L4.35-25.3Q4.35-27.65 5.75-29.9 7.15-32.15 9.83-33.6 12.5-35.05 16.2-35.05L16.2-35.05ZM63.63-26.95Q66.08-26.95 68.31-26.4 70.53-25.85 72.88-24.7L72.88-24.7 70.18-6Q70.08-5.2 70.08-4.9L70.08-4.9Q70.08-4 70.46-3.45 70.83-2.9 71.78-2.55L71.78-2.55 70.48 0.6Q68.38 0.35 67.23-0.7 66.08-1.75 65.83-3.8L65.83-3.8Q64.23-1.75 62.23-0.58 60.23 0.6 57.98 0.6L57.98 0.6Q53.98 0.6 51.78-2.15 49.58-4.9 49.58-9.5L49.58-9.5Q49.58-13.5 51.06-17.5 52.53-21.5 55.68-24.23 58.83-26.95 63.63-26.95L63.63-26.95ZM63.73-23.3Q60.58-23.3 58.51-21.18 56.43-19.05 55.46-15.88 54.48-12.7 54.48-9.45L54.48-9.45Q54.48-6.2 55.63-4.63 56.78-3.05 58.93-3.05L58.93-3.05Q60.98-3.05 62.61-4.3 64.23-5.55 65.98-7.9L65.98-7.9 68.03-22.45Q66.98-22.9 66.01-23.1 65.03-23.3 63.73-23.3L63.73-23.3ZM116.36-26.35L121.36-26.35 108.76 0 103.31 0 98.01-26.35 102.96-26.35 106.56-4.15 116.36-26.35ZM146.65-26.35L151.2-26.35 147.5 0 142.95 0 146.65-26.35ZM150-32.75Q148.65-32.75 147.85-33.58 147.05-34.4 147.05-35.6L147.05-35.6Q147.05-37.05 148.05-38.02 149.05-39 150.5-39L150.5-39Q151.85-39 152.65-38.2 153.45-37.4 153.45-36.15L153.45-36.15Q153.45-34.7 152.45-33.73 151.45-32.75 150-32.75L150-32.75ZM193.38-26.95Q196.28-26.95 197.95-25.18 199.63-23.4 199.63-20.3L199.63-20.3Q199.63-19.5 199.48-18.5L199.48-18.5 196.88 0 192.33 0 194.93-18.4Q195.03-19.5 195.03-19.85L195.03-19.85Q195.03-21.6 194.28-22.35 193.53-23.1 192.13-23.1L192.13-23.1Q189.83-23.1 187.7-21.05 185.58-19 183.78-15.8L183.78-15.8 181.58 0 177.03 0 180.73-26.35 184.63-26.35 184.23-21.2Q186.18-23.95 188.43-25.45 190.68-26.95 193.38-26.95L193.38-26.95ZM240.16-26.95Q242.66-26.95 244.89-26.4 247.11-25.85 249.46-24.7L249.46-24.7 245.81-0.6Q244.91 5.45 241.81 8.13 238.71 10.8 233.76 10.8L233.76 10.8Q231.41 10.8 228.99 10.1 226.56 9.4 224.66 8.25L224.66 8.25 226.41 4.75Q227.86 5.6 229.74 6.23 231.61 6.85 233.51 6.85L233.51 6.85Q236.66 6.85 238.71 5.3 240.76 3.75 241.36-0.65L241.36-0.65 241.81-4Q240.26-2.15 238.34-1.07 236.41 0 234.31 0L234.31 0Q230.36 0 228.11-2.68 225.86-5.35 225.86-9.9L225.86-9.9Q225.86-14.15 227.36-18.05 228.86-21.95 232.06-24.45 235.26-26.95 240.16-26.95L240.16-26.95ZM240.16-23.3Q237.01-23.3 234.89-21.35 232.76-19.4 231.76-16.32 230.76-13.25 230.76-9.85L230.76-9.85Q230.76-6.7 231.96-5.18 233.16-3.65 235.26-3.65L235.26-3.65Q237.26-3.65 238.99-4.95 240.71-6.25 242.46-8.6L242.46-8.6 244.61-22.45Q243.46-22.9 242.46-23.1 241.46-23.3 240.16-23.3L240.16-23.3ZM316.38-22.8L314.18-6.95Q314.08-5.95 314.08-5.65L314.08-5.65Q314.08-4.4 314.65-3.83 315.23-3.25 316.43-3.25L316.43-3.25Q317.33-3.25 318.2-3.53 319.08-3.8 320.23-4.35L320.23-4.35 321.73-1.15Q318.98 0.6 315.88 0.6L315.88 0.6Q312.83 0.6 311.18-0.98 309.53-2.55 309.53-5.45L309.53-5.45Q309.53-6.5 309.63-7.05L309.63-7.05 311.83-22.8 307.28-22.8 307.78-26.35 312.53-26.35 314.18-32.45 317.78-32.85 316.88-26.35 323.08-26.35 322.08-22.8 316.38-22.8ZM362.46-26.95Q365.46-26.95 367.16-25.2 368.86-23.45 368.86-20.35L368.86-20.35Q368.86-19.25 368.76-18.65L368.76-18.65 366.11 0 361.56 0 364.16-18.4Q364.26-19.5 364.26-19.9L364.26-19.9Q364.26-21.65 363.53-22.38 362.81-23.1 361.51-23.1L361.51-23.1Q359.11-23.1 356.93-21.05 354.76-19 352.96-15.8L352.96-15.8 350.81 0 346.26 0 351.46-36.9 356.06-37.4 353.76-21.4Q357.46-26.95 362.46-26.95L362.46-26.95ZM417.09-20.25Q417.09-15.2 412.59-12.95 408.09-10.7 399.99-9.8L399.99-9.8Q400.14-3.25 405.69-3.25L405.69-3.25Q407.54-3.25 409.24-3.85 410.94-4.45 412.74-5.7L412.74-5.7 414.69-2.6Q410.24 0.6 405.24 0.6L405.24 0.6Q400.44 0.6 397.81-2.23 395.19-5.05 395.19-10.1L395.19-10.1Q395.19-14.05 396.56-17.93 397.94-21.8 400.99-24.38 404.04-26.95 408.74-26.95L408.74-26.95Q412.74-26.95 414.91-25 417.09-23.05 417.09-20.25L417.09-20.25ZM400.24-13.3Q406.44-14 409.36-15.45 412.29-16.9 412.29-20.1L412.29-20.1Q412.29-21.3 411.44-22.3 410.59-23.3 408.69-23.3L408.69-23.3Q404.89-23.3 402.84-20.4 400.79-17.5 400.24-13.3L400.24-13.3ZM510.05-34.45L514.4-34.45 502.6 0 496.55 0 494.35-28.85 483.95 0 478.05 0 475.95-34.45 480.45-34.45 481.65-4.15 492.5-34.45 497.6-34.45 500.05-4.15 510.05-34.45ZM545.49 0.6Q540.64 0.6 538.01-2.3 535.39-5.2 535.39-10.3L535.39-10.3Q535.39-14 536.76-17.82 538.14-21.65 541.19-24.3 544.24-26.95 549.04-26.95L549.04-26.95Q553.89-26.95 556.49-24.05 559.09-21.15 559.09-16.05L559.09-16.05Q559.09-12.4 557.74-8.58 556.39-4.75 553.34-2.08 550.29 0.6 545.49 0.6L545.49 0.6ZM545.64-3.1Q548.79-3.1 550.74-5.28 552.69-7.45 553.49-10.53 554.29-13.6 554.29-16.55L554.29-16.55Q554.29-23.25 548.89-23.25L548.89-23.25Q545.74-23.25 543.79-21.08 541.84-18.9 541.01-15.83 540.19-12.75 540.19-9.8L540.19-9.8Q540.19-3.1 545.64-3.1L545.64-3.1ZM599.62-26.95Q600.87-26.95 602.27-26.6L602.27-26.6 600.92-22.15Q599.97-22.4 598.77-22.4L598.77-22.4Q596.32-22.4 594.49-20.28 592.67-18.15 591.22-13.95L591.22-13.95 589.22 0 584.67 0 588.37-26.35 592.27-26.35 591.97-20.95Q593.42-23.95 595.39-25.45 597.37-26.95 599.62-26.95L599.62-26.95ZM633.45-37.5L628.9-5.15Q628.85-4.9 628.85-4.5L628.85-4.5Q628.85-3.8 629.15-3.5 629.45-3.2 630.1-3.2L630.1-3.2Q630.85-3.2 631.9-3.55L631.9-3.55 632.85-0.25Q630.95 0.6 629.2 0.6L629.2 0.6Q626.9 0.6 625.63-0.65 624.35-1.9 624.35-4.35L624.35-4.35Q624.35-4.8 624.45-5.9L624.45-5.9 628.85-36.95 633.45-37.5ZM679.03-37.4L683.53-36.9 678.33 0 674.33 0 674.38-4.35Q672.93-2 670.93-0.7 668.93 0.6 666.43 0.6L666.43 0.6Q662.43 0.6 660.26-2.2 658.08-5 658.08-9.85L658.08-9.85Q658.08-13.65 659.36-17.6 660.63-21.55 663.38-24.25 666.13-26.95 670.33-26.95L670.33-26.95Q674.48-26.95 677.08-23.65L677.08-23.65 679.03-37.4ZM671.18-23.3Q668.23-23.3 666.38-21.1 664.53-18.9 663.73-15.73 662.93-12.55 662.93-9.5L662.93-9.5Q662.93-6.25 664.08-4.65 665.23-3.05 667.33-3.05L667.33-3.05Q669.63-3.05 671.38-4.55 673.13-6.05 675.08-9.15L675.08-9.15 676.63-20.1Q675.58-21.7 674.28-22.5 672.98-23.3 671.18-23.3L671.18-23.3ZM754.7-33.8Q752.55-33.8 751.45-32.83 750.35-31.85 750.1-29.85L750.1-29.85 749.6-26.35 755.95-26.35 754.95-22.8 749.1-22.8 746.1-1.45Q745.6 2.2 744.42 4.38 743.25 6.55 741.37 7.9 739.5 9.25 736.25 10.65L736.25 10.65 734.95 7.2Q737.05 6.25 738.27 5.35 739.5 4.45 740.32 2.85 741.15 1.25 741.55-1.45L741.55-1.45 744.55-22.8 739.9-22.8 740.4-26.35 745.05-26.35 745.6-30.1Q746.05-33.5 748.4-35.5 750.75-37.5 754.55-37.5L754.55-37.5Q756.35-37.5 757.75-37.05 759.15-36.6 760.75-35.6L760.75-35.6 759-32.55Q757.15-33.8 754.7-33.8L754.7-33.8ZM792.48-26.95Q793.73-26.95 795.13-26.6L795.13-26.6 793.78-22.15Q792.83-22.4 791.63-22.4L791.63-22.4Q789.18-22.4 787.35-20.28 785.53-18.15 784.08-13.95L784.08-13.95 782.08 0 777.53 0 781.23-26.35 785.13-26.35 784.83-20.95Q786.28-23.95 788.25-25.45 790.23-26.95 792.48-26.95L792.48-26.95ZM826.56 0.6Q821.71 0.6 819.09-2.3 816.46-5.2 816.46-10.3L816.46-10.3Q816.46-14 817.84-17.82 819.21-21.65 822.26-24.3 825.31-26.95 830.11-26.95L830.11-26.95Q834.96-26.95 837.56-24.05 840.16-21.15 840.16-16.05L840.16-16.05Q840.16-12.4 838.81-8.58 837.46-4.75 834.41-2.08 831.36 0.6 826.56 0.6L826.56 0.6ZM826.71-3.1Q829.86-3.1 831.81-5.28 833.76-7.45 834.56-10.53 835.36-13.6 835.36-16.55L835.36-16.55Q835.36-23.25 829.96-23.25L829.96-23.25Q826.81-23.25 824.86-21.08 822.91-18.9 822.09-15.83 821.26-12.75 821.26-9.8L821.26-9.8Q821.26-3.1 826.71-3.1L826.71-3.1ZM895.94-26.95Q898.59-26.95 900.17-25.18 901.74-23.4 901.74-20.4L901.74-20.4Q901.74-19.3 901.64-18.75L901.64-18.75 898.99 0 894.44 0 897.04-18.4Q897.14-19 897.14-19.95L897.14-19.95Q897.14-21.75 896.39-22.43 895.64-23.1 894.29-23.1L894.29-23.1Q892.39-23.1 890.54-21.13 888.69-19.15 886.84-15.9L886.84-15.9 884.59 0 880.04 0 882.64-18.4Q882.74-19 882.74-19.95L882.74-19.95Q882.74-21.75 881.99-22.43 881.24-23.1 879.89-23.1L879.89-23.1Q877.99-23.1 876.14-21.1 874.29-19.1 872.44-15.8L872.44-15.8 870.29 0 865.74 0 869.44-26.35 873.34-26.35 872.94-21.3Q874.89-24.05 876.97-25.5 879.04-26.95 881.54-26.95L881.54-26.95Q883.74-26.95 885.34-25.55 886.94-24.15 887.29-21.6L887.29-21.6Q889.29-24.25 891.42-25.6 893.54-26.95 895.94-26.95L895.94-26.95ZM984.71 0L979.86 0 978.51-8.65 965.56-8.65 961.76 0 956.91 0 972.71-34.45 978.66-34.45 984.71 0ZM975.11-30.5L967.21-12.5 977.91-12.5 975.11-30.5ZM1014.94-34.45L1019.64-34.45 1014.79 0 1010.09 0 1014.94-34.45ZM1049.32-11.5L1045.27-11.5 1048.02-34.45 1053.07-34.45 1049.32-11.5ZM1045.97 0.6Q1044.62 0.6 1043.75-0.3 1042.87-1.2 1042.87-2.55L1042.87-2.55Q1042.87-4.15 1043.95-5.25 1045.02-6.35 1046.57-6.35L1046.57-6.35Q1047.97-6.35 1048.85-5.45 1049.72-4.55 1049.72-3.2L1049.72-3.2Q1049.72-1.6 1048.62-0.5 1047.52 0.6 1045.97 0.6L1045.97 0.6Z" opacity="1" transform="matrix(1,0,0,1,0,0)" fill="#76bb02" class="slogan-text-1" data-fill-palette-color="secondary" id="text-1"></path></svg></g></svg></g></svg></g></svg></g><g><svg viewBox="0 0 168.73849490653149 92.88679170171432" height="92.88679170171432" width="168.73849490653149"><g><svg xmlns="http://www.w3.org/2000/svg" xmlns:xlink="http://www.w3.org/1999/xlink" version="1.1" x="0" y="0" viewBox="5 25.229 90 49.54299999999999" enable-background="new 0 0 100 100" xml:space="preserve" height="92.88679170171432" width="168.73849490653149" class="icon-icon-0" data-fill-palette-color="accent" id="icon-0"><g fill="#76bb02" data-fill-palette-color="accent"><g fill="#76bb02" data-fill-palette-color="accent"><g fill="#76bb02" data-fill-palette-color="accent"><rect x="18.479" y="25.229" width="2.385" height="2.385" fill="#76bb02" data-fill-palette-color="accent"></rect><rect x="21.85" y="25.229" width="2.385" height="2.385" fill="#76bb02" data-fill-palette-color="accent"></rect><rect x="25.219" y="25.229" width="2.386" height="2.385" fill="#76bb02" data-fill-palette-color="accent"></rect><rect x="28.589" y="25.229" width="2.385" height="2.385" fill="#76bb02" data-fill-palette-color="accent"></rect><rect x="31.959" y="25.229" width="2.385" height="2.385" fill="#76bb02" data-fill-palette-color="accent"></rect><rect x="35.328" y="25.229" width="2.386" height="2.385" fill="#76bb02" data-fill-palette-color="accent"></rect><rect x="38.698" y="25.229" width="2.385" height="2.385" fill="#76bb02" data-fill-palette-color="accent"></rect><rect x="42.068" y="25.229" width="2.385" height="2.385" fill="#76bb02" data-fill-palette-color="accent"></rect><rect x="52.178" y="25.229" width="2.385" height="2.385" fill="#76bb02" data-fill-palette-color="accent"></rect><rect x="62.287" y="25.229" width="2.385" height="2.385" fill="#76bb02" data-fill-palette-color="accent"></rect><rect x="72.396" y="25.229" width="2.385" height="2.385" fill="#76bb02" data-fill-palette-color="accent"></rect></g><g fill="#76bb02" data-fill-palette-color="accent"><rect x="15.109" y="28.597" width="2.386" height="2.384" fill="#76bb02" data-fill-palette-color="accent"></rect><rect x="18.479" y="28.597" width="2.385" height="2.384" fill="#76bb02" data-fill-palette-color="accent"></rect><rect x="21.85" y="28.597" width="2.385" height="2.384" fill="#76bb02" data-fill-palette-color="accent"></rect><rect x="25.219" y="28.597" width="2.386" height="2.384" fill="#76bb02" data-fill-palette-color="accent"></rect><rect x="31.959" y="28.597" width="2.385" height="2.384" fill="#76bb02" data-fill-palette-color="accent"></rect><rect x="35.328" y="28.597" width="2.386" height="2.384" fill="#76bb02" data-fill-palette-color="accent"></rect><rect x="38.698" y="28.597" width="2.385" height="2.384" fill="#76bb02" data-fill-palette-color="accent"></rect><rect x="58.916" y="28.597" width="2.385" height="2.384" fill="#76bb02" data-fill-palette-color="accent"></rect><rect x="65.656" y="28.597" width="2.385" height="2.384" fill="#76bb02" data-fill-palette-color="accent"></rect><rect x="69.025" y="28.597" width="2.387" height="2.384" fill="#76bb02" data-fill-palette-color="accent"></rect><rect x="72.396" y="28.597" width="2.385" height="2.384" fill="#76bb02" data-fill-palette-color="accent"></rect><rect x="75.766" y="28.597" width="2.385" height="2.384" fill="#76bb02" data-fill-palette-color="accent"></rect><rect x="79.137" y="28.597" width="2.385" height="2.384" fill="#76bb02" data-fill-palette-color="accent"></rect><rect x="82.506" y="28.597" width="2.385" height="2.384" fill="#76bb02" data-fill-palette-color="accent"></rect></g><g fill="#76bb02" data-fill-palette-color="accent"><rect x="5" y="31.966" width="2.386" height="2.384" fill="#76bb02" data-fill-palette-color="accent"></rect><rect x="8.37" y="31.966" width="2.385" height="2.384" fill="#76bb02" data-fill-palette-color="accent"></rect><rect x="11.74" y="31.966" width="2.385" height="2.384" fill="#76bb02" data-fill-palette-color="accent"></rect><rect x="15.109" y="31.966" width="2.386" height="2.384" fill="#76bb02" data-fill-palette-color="accent"></rect><rect x="18.479" y="31.966" width="2.385" height="2.384" fill="#76bb02" data-fill-palette-color="accent"></rect><rect x="21.85" y="31.966" width="2.385" height="2.384" fill="#76bb02" data-fill-palette-color="accent"></rect><rect x="25.219" y="31.966" width="2.386" height="2.384" fill="#76bb02" data-fill-palette-color="accent"></rect><rect x="28.589" y="31.966" width="2.385" height="2.384" fill="#76bb02" data-fill-palette-color="accent"></rect><rect x="35.328" y="31.966" width="2.386" height="2.384" fill="#76bb02" data-fill-palette-color="accent"></rect><rect x="38.698" y="31.966" width="2.385" height="2.384" fill="#76bb02" data-fill-palette-color="accent"></rect><rect x="52.178" y="31.966" width="2.385" height="2.384" fill="#76bb02" data-fill-palette-color="accent"></rect><rect x="55.547" y="31.966" width="2.385" height="2.384" fill="#76bb02" data-fill-palette-color="accent"></rect><rect x="58.916" y="31.966" width="2.385" height="2.384" fill="#76bb02" data-fill-palette-color="accent"></rect><rect x="62.287" y="31.966" width="2.385" height="2.384" fill="#76bb02" data-fill-palette-color="accent"></rect><rect x="65.656" y="31.966" width="2.385" height="2.384" fill="#76bb02" data-fill-palette-color="accent"></rect><rect x="69.025" y="31.966" width="2.387" height="2.384" fill="#76bb02" data-fill-palette-color="accent"></rect><rect x="72.396" y="31.966" width="2.385" height="2.384" fill="#76bb02" data-fill-palette-color="accent"></rect><rect x="75.766" y="31.966" width="2.385" height="2.384" fill="#76bb02" data-fill-palette-color="accent"></rect><rect x="79.137" y="31.966" width="2.385" height="2.384" fill="#76bb02" data-fill-palette-color="accent"></rect><rect x="82.506" y="31.966" width="2.385" height="2.384" fill="#76bb02" data-fill-palette-color="accent"></rect><rect x="85.875" y="31.966" width="2.385" height="2.384" fill="#76bb02" data-fill-palette-color="accent"></rect><rect x="89.246" y="31.966" width="2.385" height="2.384" fill="#76bb02" data-fill-palette-color="accent"></rect></g><g fill="#76bb02" data-fill-palette-color="accent"><rect x="5" y="35.334" width="2.386" height="2.384" fill="#76bb02" data-fill-palette-color="accent"></rect><rect x="8.37" y="35.334" width="2.385" height="2.384" fill="#76bb02" data-fill-palette-color="accent"></rect><rect x="11.74" y="35.334" width="2.385" height="2.384" fill="#76bb02" data-fill-palette-color="accent"></rect><rect x="15.109" y="35.334" width="2.386" height="2.384" fill="#76bb02" data-fill-palette-color="accent"></rect><rect x="18.479" y="35.334" width="2.385" height="2.384" fill="#76bb02" data-fill-palette-color="accent"></rect><rect x="21.85" y="35.334" width="2.385" height="2.384" fill="#76bb02" data-fill-palette-color="accent"></rect><rect x="25.219" y="35.334" width="2.386" height="2.384" fill="#76bb02" data-fill-palette-color="accent"></rect><rect x="28.589" y="35.334" width="2.385" height="2.384" fill="#76bb02" data-fill-palette-color="accent"></rect><rect x="35.328" y="35.334" width="2.386" height="2.384" fill="#76bb02" data-fill-palette-color="accent"></rect><rect x="42.068" y="35.334" width="2.385" height="2.384" fill="#76bb02" data-fill-palette-color="accent"></rect><rect x="48.808" y="35.334" width="2.383" height="2.384" fill="#76bb02" data-fill-palette-color="accent"></rect><rect x="52.178" y="35.334" width="2.385" height="2.384" fill="#76bb02" data-fill-palette-color="accent"></rect><rect x="55.547" y="35.334" width="2.385" height="2.384" fill="#76bb02" data-fill-palette-color="accent"></rect><rect x="58.916" y="35.334" width="2.385" height="2.384" fill="#76bb02" data-fill-palette-color="accent"></rect><rect x="62.287" y="35.334" width="2.385" height="2.384" fill="#76bb02" data-fill-palette-color="accent"></rect><rect x="65.656" y="35.334" width="2.385" height="2.384" fill="#76bb02" data-fill-palette-color="accent"></rect><rect x="69.025" y="35.334" width="2.387" height="2.384" fill="#76bb02" data-fill-palette-color="accent"></rect><rect x="72.396" y="35.334" width="2.385" height="2.384" fill="#76bb02" data-fill-palette-color="accent"></rect><rect x="75.766" y="35.334" width="2.385" height="2.384" fill="#76bb02" data-fill-palette-color="accent"></rect><rect x="79.137" y="35.334" width="2.385" height="2.384" fill="#76bb02" data-fill-palette-color="accent"></rect><rect x="82.506" y="35.334" width="2.385" height="2.384" fill="#76bb02" data-fill-palette-color="accent"></rect><rect x="85.875" y="35.334" width="2.385" height="2.384" fill="#76bb02" data-fill-palette-color="accent"></rect><rect x="89.246" y="35.334" width="2.385" height="2.384" fill="#76bb02" data-fill-palette-color="accent"></rect><rect x="92.615" y="35.334" width="2.385" height="2.384" fill="#76bb02" data-fill-palette-color="accent"></rect></g><g fill="#76bb02" data-fill-palette-color="accent"><rect x="5" y="38.702" width="2.386" height="2.384" fill="#76bb02" data-fill-palette-color="accent"></rect><rect x="8.37" y="38.702" width="2.385" height="2.384" fill="#76bb02" data-fill-palette-color="accent"></rect><rect x="11.74" y="38.702" width="2.385" height="2.384" fill="#76bb02" data-fill-palette-color="accent"></rect><rect x="15.109" y="38.702" width="2.386" height="2.384" fill="#76bb02" data-fill-palette-color="accent"></rect><rect x="18.479" y="38.702" width="2.385" height="2.384" fill="#76bb02" data-fill-palette-color="accent"></rect><rect x="21.85" y="38.702" width="2.385" height="2.384" fill="#76bb02" data-fill-palette-color="accent"></rect><rect x="25.219" y="38.702" width="2.386" height="2.384" fill="#76bb02" data-fill-palette-color="accent"></rect><rect x="28.589" y="38.702" width="2.385" height="2.384" fill="#76bb02" data-fill-palette-color="accent"></rect><rect x="45.438" y="38.702" width="2.386" height="2.384" fill="#76bb02" data-fill-palette-color="accent"></rect><rect x="48.808" y="38.702" width="2.383" height="2.384" fill="#76bb02" data-fill-palette-color="accent"></rect><rect x="52.178" y="38.702" width="2.385" height="2.384" fill="#76bb02" data-fill-palette-color="accent"></rect><rect x="55.547" y="38.702" width="2.385" height="2.384" fill="#76bb02" data-fill-palette-color="accent"></rect><rect x="58.916" y="38.702" width="2.385" height="2.384" fill="#76bb02" data-fill-palette-color="accent"></rect><rect x="62.287" y="38.702" width="2.385" height="2.384" fill="#76bb02" data-fill-palette-color="accent"></rect><rect x="65.656" y="38.702" width="2.385" height="2.384" fill="#76bb02" data-fill-palette-color="accent"></rect><rect x="69.025" y="38.702" width="2.387" height="2.384" fill="#76bb02" data-fill-palette-color="accent"></rect><rect x="72.396" y="38.702" width="2.385" height="2.384" fill="#76bb02" data-fill-palette-color="accent"></rect><rect x="75.766" y="38.702" width="2.385" height="2.384" fill="#76bb02" data-fill-palette-color="accent"></rect><rect x="79.137" y="38.702" width="2.385" height="2.384" fill="#76bb02" data-fill-palette-color="accent"></rect><rect x="82.506" y="38.702" width="2.385" height="2.384" fill="#76bb02" data-fill-palette-color="accent"></rect><rect x="85.875" y="38.702" width="2.385" height="2.384" fill="#76bb02" data-fill-palette-color="accent"></rect></g><g fill="#76bb02" data-fill-palette-color="accent"><rect x="15.109" y="42.071" width="2.386" height="2.384" fill="#76bb02" data-fill-palette-color="accent"></rect><rect x="18.479" y="42.071" width="2.385" height="2.384" fill="#76bb02" data-fill-palette-color="accent"></rect><rect x="21.85" y="42.071" width="2.385" height="2.384" fill="#76bb02" data-fill-palette-color="accent"></rect><rect x="25.219" y="42.071" width="2.386" height="2.384" fill="#76bb02" data-fill-palette-color="accent"></rect><rect x="28.589" y="42.071" width="2.385" height="2.384" fill="#76bb02" data-fill-palette-color="accent"></rect><rect x="31.959" y="42.071" width="2.385" height="2.384" fill="#76bb02" data-fill-palette-color="accent"></rect><rect x="45.438" y="42.071" width="2.386" height="2.384" fill="#76bb02" data-fill-palette-color="accent"></rect><rect x="48.808" y="42.071" width="2.383" height="2.384" fill="#76bb02" data-fill-palette-color="accent"></rect><rect x="52.178" y="42.071" width="2.385" height="2.384" fill="#76bb02" data-fill-palette-color="accent"></rect><rect x="55.547" y="42.071" width="2.385" height="2.384" fill="#76bb02" data-fill-palette-color="accent"></rect><rect x="58.916" y="42.071" width="2.385" height="2.384" fill="#76bb02" data-fill-palette-color="accent"></rect><rect x="62.287" y="42.071" width="2.385" height="2.384" fill="#76bb02" data-fill-palette-color="accent"></rect><rect x="65.656" y="42.071" width="2.385" height="2.384" fill="#76bb02" data-fill-palette-color="accent"></rect><rect x="69.025" y="42.071" width="2.387" height="2.384" fill="#76bb02" data-fill-palette-color="accent"></rect><rect x="72.396" y="42.071" width="2.385" height="2.384" fill="#76bb02" data-fill-palette-color="accent"></rect><rect x="75.766" y="42.071" width="2.385" height="2.384" fill="#76bb02" data-fill-palette-color="accent"></rect><rect x="79.137" y="42.071" width="2.385" height="2.384" fill="#76bb02" data-fill-palette-color="accent"></rect><rect x="85.875" y="42.071" width="2.385" height="2.384" fill="#76bb02" data-fill-palette-color="accent"></rect></g><g fill="#76bb02" data-fill-palette-color="accent"><rect x="15.109" y="45.44" width="2.386" height="2.384" fill="#76bb02" data-fill-palette-color="accent"></rect><rect x="18.479" y="45.44" width="2.385" height="2.384" fill="#76bb02" data-fill-palette-color="accent"></rect><rect x="21.85" y="45.44" width="2.385" height="2.384" fill="#76bb02" data-fill-palette-color="accent"></rect><rect x="25.219" y="45.44" width="2.386" height="2.384" fill="#76bb02" data-fill-palette-color="accent"></rect><rect x="28.589" y="45.44" width="2.385" height="2.384" fill="#76bb02" data-fill-palette-color="accent"></rect><rect x="45.438" y="45.44" width="2.386" height="2.384" fill="#76bb02" data-fill-palette-color="accent"></rect><rect x="52.178" y="45.44" width="2.385" height="2.384" fill="#76bb02" data-fill-palette-color="accent"></rect><rect x="55.547" y="45.44" width="2.385" height="2.384" fill="#76bb02" data-fill-palette-color="accent"></rect><rect x="58.916" y="45.44" width="2.385" height="2.384" fill="#76bb02" data-fill-palette-color="accent"></rect><rect x="62.287" y="45.44" width="2.385" height="2.384" fill="#76bb02" data-fill-palette-color="accent"></rect><rect x="65.656" y="45.44" width="2.385" height="2.384" fill="#76bb02" data-fill-palette-color="accent"></rect><rect x="69.025" y="45.44" width="2.387" height="2.384" fill="#76bb02" data-fill-palette-color="accent"></rect><rect x="72.396" y="45.44" width="2.385" height="2.384" fill="#76bb02" data-fill-palette-color="accent"></rect><rect x="75.766" y="45.44" width="2.385" height="2.384" fill="#76bb02" data-fill-palette-color="accent"></rect><rect x="79.137" y="45.44" width="2.385" height="2.384" fill="#76bb02" data-fill-palette-color="accent"></rect><rect x="82.506" y="45.44" width="2.385" height="2.384" fill="#76bb02" data-fill-palette-color="accent"></rect></g><g fill="#76bb02" data-fill-palette-color="accent"><rect x="18.479" y="48.809" width="2.385" height="2.382" fill="#76bb02" data-fill-palette-color="accent"></rect><rect x="21.85" y="48.809" width="2.385" height="2.382" fill="#76bb02" data-fill-palette-color="accent"></rect><rect x="25.219" y="48.809" width="2.386" height="2.382" fill="#76bb02" data-fill-palette-color="accent"></rect><rect x="42.068" y="48.809" width="2.385" height="2.382" fill="#76bb02" data-fill-palette-color="accent"></rect><rect x="45.438" y="48.809" width="2.386" height="2.382" fill="#76bb02" data-fill-palette-color="accent"></rect><rect x="48.808" y="48.809" width="2.383" height="2.382" fill="#76bb02" data-fill-palette-color="accent"></rect><rect x="52.178" y="48.809" width="2.385" height="2.382" fill="#76bb02" data-fill-palette-color="accent"></rect><rect x="55.547" y="48.809" width="2.385" height="2.382" fill="#76bb02" data-fill-palette-color="accent"></rect><rect x="58.916" y="48.809" width="2.385" height="2.382" fill="#76bb02" data-fill-palette-color="accent"></rect><rect x="62.287" y="48.809" width="2.385" height="2.382" fill="#76bb02" data-fill-palette-color="accent"></rect><rect x="65.656" y="48.809" width="2.385" height="2.382" fill="#76bb02" data-fill-palette-color="accent"></rect><rect x="69.025" y="48.809" width="2.387" height="2.382" fill="#76bb02" data-fill-palette-color="accent"></rect><rect x="72.396" y="48.809" width="2.385" height="2.382" fill="#76bb02" data-fill-palette-color="accent"></rect><rect x="75.766" y="48.809" width="2.385" height="2.382" fill="#76bb02" data-fill-palette-color="accent"></rect><rect x="79.137" y="48.809" width="2.385" height="2.382" fill="#76bb02" data-fill-palette-color="accent"></rect></g><g fill="#76bb02" data-fill-palette-color="accent"><rect x="21.85" y="52.178" width="2.385" height="2.383" fill="#76bb02" data-fill-palette-color="accent"></rect><rect x="25.219" y="52.178" width="2.386" height="2.383" fill="#76bb02" data-fill-palette-color="accent"></rect><rect x="28.589" y="52.178" width="2.385" height="2.383" fill="#76bb02" data-fill-palette-color="accent"></rect><rect x="42.068" y="52.178" width="2.385" height="2.383" fill="#76bb02" data-fill-palette-color="accent"></rect><rect x="45.438" y="52.178" width="2.386" height="2.383" fill="#76bb02" data-fill-palette-color="accent"></rect><rect x="48.808" y="52.178" width="2.383" height="2.383" fill="#76bb02" data-fill-palette-color="accent"></rect><rect x="52.178" y="52.178" width="2.385" height="2.383" fill="#76bb02" data-fill-palette-color="accent"></rect><rect x="55.547" y="52.178" width="2.385" height="2.383" fill="#76bb02" data-fill-palette-color="accent"></rect><rect x="58.916" y="52.178" width="2.385" height="2.383" fill="#76bb02" data-fill-palette-color="accent"></rect><rect x="65.656" y="52.178" width="2.385" height="2.383" fill="#76bb02" data-fill-palette-color="accent"></rect><rect x="72.396" y="52.178" width="2.385" height="2.383" fill="#76bb02" data-fill-palette-color="accent"></rect><rect x="75.766" y="52.178" width="2.385" height="2.383" fill="#76bb02" data-fill-palette-color="accent"></rect></g><g fill="#76bb02" data-fill-palette-color="accent"><rect x="28.589" y="55.547" width="2.385" height="2.383" fill="#76bb02" data-fill-palette-color="accent"></rect><rect x="31.959" y="55.547" width="2.385" height="2.383" fill="#76bb02" data-fill-palette-color="accent"></rect><rect x="45.438" y="55.547" width="2.386" height="2.383" fill="#76bb02" data-fill-palette-color="accent"></rect><rect x="48.808" y="55.547" width="2.383" height="2.383" fill="#76bb02" data-fill-palette-color="accent"></rect><rect x="52.178" y="55.547" width="2.385" height="2.383" fill="#76bb02" data-fill-palette-color="accent"></rect><rect x="55.547" y="55.547" width="2.385" height="2.383" fill="#76bb02" data-fill-palette-color="accent"></rect></g><g fill="#76bb02" data-fill-palette-color="accent"><rect x="25.219" y="58.914" width="2.386" height="2.385" fill="#76bb02" data-fill-palette-color="accent"></rect><rect x="28.589" y="58.914" width="2.385" height="2.385" fill="#76bb02" data-fill-palette-color="accent"></rect><rect x="31.959" y="58.914" width="2.385" height="2.385" fill="#76bb02" data-fill-palette-color="accent"></rect><rect x="35.328" y="58.914" width="2.386" height="2.385" fill="#76bb02" data-fill-palette-color="accent"></rect><rect x="48.808" y="58.914" width="2.383" height="2.385" fill="#76bb02" data-fill-palette-color="accent"></rect><rect x="52.178" y="58.914" width="2.385" height="2.385" fill="#76bb02" data-fill-palette-color="accent"></rect><rect x="55.547" y="58.914" width="2.385" height="2.385" fill="#76bb02" data-fill-palette-color="accent"></rect><rect x="72.396" y="58.914" width="2.385" height="2.385" fill="#76bb02" data-fill-palette-color="accent"></rect><rect x="75.766" y="58.914" width="2.385" height="2.385" fill="#76bb02" data-fill-palette-color="accent"></rect><rect x="79.137" y="58.914" width="2.385" height="2.385" fill="#76bb02" data-fill-palette-color="accent"></rect><rect x="82.506" y="58.914" width="2.385" height="2.385" fill="#76bb02" data-fill-palette-color="accent"></rect></g><g fill="#76bb02" data-fill-palette-color="accent"><rect x="28.589" y="62.283" width="2.385" height="2.383" fill="#76bb02" data-fill-palette-color="accent"></rect><rect x="31.959" y="62.283" width="2.385" height="2.383" fill="#76bb02" data-fill-palette-color="accent"></rect><rect x="35.328" y="62.283" width="2.386" height="2.383" fill="#76bb02" data-fill-palette-color="accent"></rect><rect x="48.808" y="62.283" width="2.383" height="2.383" fill="#76bb02" data-fill-palette-color="accent"></rect><rect x="52.178" y="62.283" width="2.385" height="2.383" fill="#76bb02" data-fill-palette-color="accent"></rect><rect x="58.916" y="62.283" width="2.385" height="2.383" fill="#76bb02" data-fill-palette-color="accent"></rect><rect x="75.766" y="62.283" width="2.385" height="2.383" fill="#76bb02" data-fill-palette-color="accent"></rect><rect x="79.137" y="62.283" width="2.385" height="2.383" fill="#76bb02" data-fill-palette-color="accent"></rect><rect x="82.506" y="62.283" width="2.385" height="2.383" fill="#76bb02" data-fill-palette-color="accent"></rect><rect x="85.875" y="62.283" width="2.385" height="2.383" fill="#76bb02" data-fill-palette-color="accent"></rect></g><g fill="#76bb02" data-fill-palette-color="accent"><rect x="28.589" y="65.652" width="2.385" height="2.383" fill="#76bb02" data-fill-palette-color="accent"></rect><rect x="31.959" y="65.652" width="2.385" height="2.383" fill="#76bb02" data-fill-palette-color="accent"></rect><rect x="52.178" y="65.652" width="2.385" height="2.383" fill="#76bb02" data-fill-palette-color="accent"></rect><rect x="75.766" y="65.652" width="2.385" height="2.383" fill="#76bb02" data-fill-palette-color="accent"></rect><rect x="79.137" y="65.652" width="2.385" height="2.383" fill="#76bb02" data-fill-palette-color="accent"></rect><rect x="82.506" y="65.652" width="2.385" height="2.383" fill="#76bb02" data-fill-palette-color="accent"></rect></g><g fill="#76bb02" data-fill-palette-color="accent"><rect x="28.589" y="69.02" width="2.385" height="2.387" fill="#76bb02" data-fill-palette-color="accent"></rect><rect x="89.246" y="69.02" width="2.385" height="2.387" fill="#76bb02" data-fill-palette-color="accent"></rect></g><g fill="#76bb02" data-fill-palette-color="accent"><rect x="28.589" y="72.389" width="2.385" height="2.383" fill="#76bb02" data-fill-palette-color="accent"></rect></g></g></g></svg></g></svg></g></svg></g><defs></defs></svg><rect width="395.52" height="64.54584894032642" fill="none" stroke="none" visibility="hidden"></rect></g></svg></g></svg>